M48
;GenerationSoftware,Autodesk,EAGLE,9.2.2*%
;CreationDate,2019-02-06T16:09:35Z*%
FMAT,2
ICI,OFF
METRIC,TZ,000.000
T1C0.350
%
G90
M71
T1
X28575Y33020
X27178Y25908
X39370Y23876
X43815Y36830
X26924Y41402
X40640Y44995
X44068Y30120
X46929Y31281
X25400Y38481
X21971Y32893
X28575Y35814
X24447Y35370
X38792Y46990
X47879Y37211
X45466Y41021
X44196Y28067
X24130Y28067
X31115Y29845
X23114Y39751
X35814Y47498
X32893Y29845
X32893Y22606
X29972Y28448
M30