G04 EAGLE Gerber RS-274X export*
G75*
%MOMM*%
%FSLAX34Y34*%
%LPD*%
%INTop Copper*%
%IPPOS*%
%AMOC8*
5,1,8,0,0,1.08239X$1,22.5*%
G01*
%ADD10R,1.300000X1.500000*%
%ADD11R,1.000000X1.100000*%
%ADD12C,0.499997*%
%ADD13C,1.000000*%
%ADD14R,0.800000X0.800000*%
%ADD15C,0.457200*%
%ADD16C,0.756400*%
%ADD17C,0.609600*%
%ADD18C,0.254000*%
%ADD19C,0.355600*%

G36*
X278630Y195708D02*
X278630Y195708D01*
X278658Y195706D01*
X278726Y195728D01*
X278797Y195742D01*
X278820Y195758D01*
X278847Y195767D01*
X278902Y195814D01*
X278961Y195855D01*
X278976Y195879D01*
X278998Y195897D01*
X279029Y195962D01*
X279068Y196022D01*
X279073Y196050D01*
X279085Y196076D01*
X279094Y196177D01*
X279101Y196219D01*
X279099Y196229D01*
X279100Y196242D01*
X279043Y196957D01*
X326766Y196957D01*
X326849Y196974D01*
X326933Y196985D01*
X326947Y196993D01*
X326962Y196996D01*
X327033Y197044D01*
X327105Y197087D01*
X327115Y197100D01*
X327128Y197109D01*
X327174Y197180D01*
X327225Y197248D01*
X327229Y197265D01*
X327237Y197277D01*
X327247Y197332D01*
X327271Y197422D01*
X327349Y198359D01*
X327341Y198425D01*
X327343Y198492D01*
X327329Y198527D01*
X327326Y198558D01*
X327302Y198601D01*
X327279Y198660D01*
X327265Y198684D01*
X327420Y199294D01*
X327421Y199332D01*
X327433Y199376D01*
X327485Y200003D01*
X327506Y200021D01*
X327548Y200073D01*
X327596Y200119D01*
X327611Y200153D01*
X327631Y200178D01*
X327644Y200225D01*
X327670Y200283D01*
X327961Y201433D01*
X327964Y201499D01*
X327977Y201565D01*
X327969Y201601D01*
X327971Y201633D01*
X327954Y201679D01*
X327942Y201742D01*
X327932Y201767D01*
X328185Y202343D01*
X328186Y202347D01*
X328187Y202350D01*
X328192Y202377D01*
X328193Y202380D01*
X328212Y202422D01*
X328366Y203032D01*
X328390Y203046D01*
X328439Y203091D01*
X328494Y203129D01*
X328515Y203160D01*
X328538Y203181D01*
X328559Y203225D01*
X328595Y203278D01*
X329071Y204364D01*
X329073Y204372D01*
X329077Y204379D01*
X329087Y204435D01*
X329108Y204491D01*
X329107Y204529D01*
X329114Y204559D01*
X329112Y204570D01*
X329113Y204576D01*
X329104Y204613D01*
X329103Y204671D01*
X329097Y204698D01*
X329161Y204796D01*
X329180Y204844D01*
X329207Y204886D01*
X329208Y204888D01*
X329210Y204892D01*
X329218Y204938D01*
X329235Y204983D01*
X329235Y205036D01*
X329243Y205083D01*
X329243Y205084D01*
X329244Y205089D01*
X329233Y205135D01*
X329232Y205183D01*
X329210Y205232D01*
X329201Y205270D01*
X329199Y205279D01*
X329198Y205284D01*
X329168Y205328D01*
X329151Y205366D01*
X329122Y205393D01*
X329095Y205432D01*
X308355Y226172D01*
X308355Y293530D01*
X308354Y293538D01*
X308355Y293545D01*
X308334Y293635D01*
X308316Y293726D01*
X308311Y293733D01*
X308309Y293740D01*
X308207Y293888D01*
X305843Y296252D01*
X305843Y300648D01*
X308952Y303757D01*
X313348Y303757D01*
X316457Y300648D01*
X316457Y296252D01*
X314093Y293888D01*
X314089Y293882D01*
X314083Y293877D01*
X314034Y293799D01*
X313982Y293721D01*
X313981Y293714D01*
X313977Y293707D01*
X313945Y293530D01*
X313945Y228698D01*
X313946Y228690D01*
X313945Y228682D01*
X313966Y228592D01*
X313984Y228501D01*
X313989Y228495D01*
X313991Y228487D01*
X314093Y228339D01*
X332386Y210046D01*
X332448Y210005D01*
X332505Y209958D01*
X332531Y209950D01*
X332553Y209935D01*
X332626Y209921D01*
X332697Y209900D01*
X332724Y209903D01*
X332750Y209898D01*
X332823Y209913D01*
X332897Y209921D01*
X332922Y209934D01*
X332946Y209939D01*
X332990Y209970D01*
X333056Y210005D01*
X333279Y210178D01*
X333304Y210207D01*
X333341Y210235D01*
X333767Y210698D01*
X333794Y210699D01*
X333859Y210715D01*
X333925Y210722D01*
X333958Y210739D01*
X333989Y210746D01*
X334028Y210776D01*
X334085Y210805D01*
X335020Y211533D01*
X335064Y211584D01*
X335114Y211628D01*
X335130Y211662D01*
X335151Y211685D01*
X335166Y211732D01*
X335195Y211789D01*
X335203Y211815D01*
X335756Y212115D01*
X335785Y212139D01*
X335826Y212160D01*
X336322Y212547D01*
X336349Y212543D01*
X336416Y212548D01*
X336482Y212544D01*
X336518Y212556D01*
X336549Y212558D01*
X336593Y212581D01*
X336654Y212601D01*
X337696Y213165D01*
X337747Y213208D01*
X337804Y213243D01*
X337826Y213273D01*
X337850Y213293D01*
X337873Y213337D01*
X337910Y213388D01*
X337923Y213413D01*
X338517Y213617D01*
X338550Y213636D01*
X338594Y213651D01*
X339147Y213950D01*
X339173Y213942D01*
X339240Y213936D01*
X339305Y213921D01*
X339342Y213927D01*
X339373Y213924D01*
X339420Y213939D01*
X339483Y213949D01*
X340604Y214333D01*
X340662Y214367D01*
X340723Y214393D01*
X340750Y214419D01*
X340777Y214435D01*
X340807Y214474D01*
X340852Y214519D01*
X340868Y214541D01*
X341489Y214644D01*
X341524Y214658D01*
X341570Y214665D01*
X342165Y214869D01*
X342189Y214857D01*
X342254Y214840D01*
X342315Y214815D01*
X342353Y214814D01*
X342383Y214806D01*
X342432Y214813D01*
X342496Y214812D01*
X343665Y215008D01*
X343727Y215031D01*
X343792Y215046D01*
X343823Y215068D01*
X343852Y215079D01*
X343887Y215113D01*
X343940Y215149D01*
X343959Y215169D01*
X344588Y215169D01*
X344626Y215176D01*
X344672Y215176D01*
X345292Y215279D01*
X345315Y215263D01*
X345375Y215236D01*
X345432Y215201D01*
X345469Y215194D01*
X345497Y215181D01*
X345547Y215180D01*
X345609Y215169D01*
X346795Y215169D01*
X346860Y215182D01*
X346927Y215186D01*
X346960Y215202D01*
X346991Y215208D01*
X347032Y215236D01*
X347089Y215263D01*
X347112Y215279D01*
X347732Y215176D01*
X347770Y215177D01*
X347816Y215169D01*
X348445Y215169D01*
X348464Y215149D01*
X348519Y215112D01*
X348570Y215068D01*
X348605Y215056D01*
X348631Y215038D01*
X348679Y215029D01*
X348739Y215008D01*
X349908Y214812D01*
X349975Y214815D01*
X350041Y214808D01*
X350077Y214818D01*
X350109Y214819D01*
X350153Y214840D01*
X350215Y214857D01*
X350239Y214869D01*
X350834Y214665D01*
X350872Y214660D01*
X350915Y214644D01*
X351536Y214541D01*
X351552Y214519D01*
X351600Y214473D01*
X351643Y214421D01*
X351675Y214403D01*
X351698Y214382D01*
X351744Y214365D01*
X351800Y214333D01*
X352921Y213949D01*
X352987Y213940D01*
X353051Y213922D01*
X353089Y213926D01*
X353120Y213922D01*
X353167Y213935D01*
X353231Y213942D01*
X353257Y213950D01*
X353810Y213651D01*
X353846Y213640D01*
X353887Y213617D01*
X354481Y213413D01*
X354494Y213388D01*
X354534Y213335D01*
X354567Y213277D01*
X354596Y213254D01*
X354615Y213229D01*
X354658Y213205D01*
X354708Y213165D01*
X355750Y212601D01*
X355814Y212581D01*
X355875Y212553D01*
X355912Y212551D01*
X355942Y212542D01*
X355991Y212547D01*
X356055Y212543D01*
X356082Y212547D01*
X356578Y212160D01*
X356612Y212143D01*
X356648Y212115D01*
X357201Y211815D01*
X357209Y211789D01*
X357241Y211730D01*
X357264Y211668D01*
X357288Y211640D01*
X357303Y211612D01*
X357341Y211581D01*
X357384Y211533D01*
X358319Y210805D01*
X358379Y210776D01*
X358434Y210738D01*
X358471Y210730D01*
X358499Y210716D01*
X358548Y210713D01*
X358610Y210699D01*
X358637Y210698D01*
X359063Y210235D01*
X359094Y210213D01*
X359125Y210178D01*
X359621Y209792D01*
X359625Y209765D01*
X359646Y209701D01*
X359658Y209636D01*
X359678Y209605D01*
X359688Y209575D01*
X359721Y209538D01*
X359755Y209484D01*
X360558Y208612D01*
X360612Y208573D01*
X360660Y208526D01*
X360694Y208512D01*
X360720Y208494D01*
X360768Y208483D01*
X360827Y208459D01*
X360854Y208453D01*
X361198Y207927D01*
X361224Y207900D01*
X361249Y207861D01*
X361675Y207398D01*
X361674Y207370D01*
X361684Y207305D01*
X361686Y207238D01*
X361700Y207204D01*
X361705Y207172D01*
X361731Y207131D01*
X361756Y207072D01*
X362404Y206080D01*
X362451Y206032D01*
X362491Y205979D01*
X362523Y205959D01*
X362545Y205937D01*
X362590Y205918D01*
X362645Y205884D01*
X362670Y205874D01*
X362923Y205299D01*
X362945Y205268D01*
X362963Y205225D01*
X363307Y204698D01*
X363301Y204671D01*
X363301Y204607D01*
X363291Y204555D01*
X363293Y204549D01*
X363291Y204539D01*
X363300Y204503D01*
X363300Y204471D01*
X363318Y204426D01*
X363333Y204364D01*
X363809Y203278D01*
X363848Y203223D01*
X363878Y203164D01*
X363906Y203140D01*
X363924Y203114D01*
X363966Y203088D01*
X364014Y203046D01*
X364038Y203032D01*
X364192Y202422D01*
X364209Y202388D01*
X364219Y202343D01*
X364472Y201767D01*
X364462Y201742D01*
X364450Y201676D01*
X364430Y201612D01*
X364433Y201575D01*
X364427Y201544D01*
X364438Y201496D01*
X364443Y201433D01*
X364734Y200283D01*
X364763Y200223D01*
X364783Y200160D01*
X364807Y200131D01*
X364820Y200103D01*
X364857Y200070D01*
X364898Y200021D01*
X364919Y200003D01*
X364971Y199376D01*
X364981Y199340D01*
X364984Y199294D01*
X365139Y198684D01*
X365125Y198661D01*
X365103Y198598D01*
X365072Y198538D01*
X365069Y198501D01*
X365058Y198471D01*
X365061Y198423D01*
X365055Y198359D01*
X365133Y197422D01*
X365156Y197341D01*
X365175Y197258D01*
X365184Y197245D01*
X365188Y197230D01*
X365242Y197164D01*
X365291Y197095D01*
X365304Y197086D01*
X365314Y197074D01*
X365389Y197033D01*
X365461Y196989D01*
X365478Y196986D01*
X365491Y196979D01*
X365547Y196973D01*
X365638Y196957D01*
X413361Y196957D01*
X413304Y196242D01*
X413308Y196213D01*
X413303Y196185D01*
X413320Y196116D01*
X413328Y196044D01*
X413343Y196020D01*
X413349Y195992D01*
X413392Y195934D01*
X413428Y195872D01*
X413450Y195855D01*
X413467Y195832D01*
X413529Y195795D01*
X413586Y195752D01*
X413614Y195745D01*
X413638Y195730D01*
X413738Y195714D01*
X413779Y195703D01*
X413789Y195705D01*
X413802Y195703D01*
X432802Y195703D01*
X432878Y195718D01*
X432956Y195727D01*
X432975Y195738D01*
X432997Y195742D01*
X433061Y195786D01*
X433129Y195825D01*
X433145Y195844D01*
X433161Y195855D01*
X433185Y195893D01*
X433235Y195953D01*
X442735Y212453D01*
X442744Y212480D01*
X442760Y212504D01*
X442775Y212574D01*
X442798Y212642D01*
X442795Y212670D01*
X442801Y212698D01*
X442788Y212769D01*
X442782Y212840D01*
X442769Y212865D01*
X442763Y212893D01*
X442723Y212953D01*
X442690Y213016D01*
X442668Y213034D01*
X442652Y213058D01*
X442569Y213116D01*
X442537Y213143D01*
X442526Y213146D01*
X442516Y213153D01*
X441888Y213450D01*
X465740Y254764D01*
X465767Y254844D01*
X465799Y254922D01*
X465799Y254938D01*
X465804Y254954D01*
X465798Y255038D01*
X465797Y255123D01*
X465791Y255137D01*
X465789Y255154D01*
X465751Y255229D01*
X465718Y255307D01*
X465705Y255319D01*
X465699Y255332D01*
X465656Y255369D01*
X465590Y255434D01*
X464810Y255976D01*
X464749Y256002D01*
X464692Y256037D01*
X464655Y256043D01*
X464626Y256055D01*
X464577Y256056D01*
X464514Y256066D01*
X464486Y256066D01*
X464036Y256505D01*
X464004Y256526D01*
X463971Y256558D01*
X463455Y256917D01*
X463450Y256944D01*
X463425Y257006D01*
X463409Y257071D01*
X463388Y257101D01*
X463376Y257130D01*
X463342Y257165D01*
X463305Y257217D01*
X462458Y258042D01*
X462402Y258078D01*
X462351Y258122D01*
X462316Y258134D01*
X462289Y258151D01*
X462241Y258159D01*
X462181Y258180D01*
X462153Y258184D01*
X461781Y258691D01*
X461753Y258717D01*
X461726Y258755D01*
X461276Y259193D01*
X461276Y259221D01*
X461262Y259286D01*
X461256Y259352D01*
X461240Y259386D01*
X461233Y259417D01*
X461205Y259457D01*
X461177Y259514D01*
X460478Y260467D01*
X460428Y260512D01*
X460386Y260563D01*
X460353Y260581D01*
X460330Y260602D01*
X460283Y260619D01*
X460227Y260649D01*
X460201Y260658D01*
X459918Y261219D01*
X459894Y261249D01*
X459874Y261290D01*
X459502Y261797D01*
X459506Y261825D01*
X459504Y261866D01*
X459509Y261895D01*
X459505Y261914D01*
X459509Y261958D01*
X459498Y261993D01*
X459496Y262025D01*
X459475Y262069D01*
X459457Y262130D01*
X458924Y263185D01*
X458883Y263238D01*
X458849Y263295D01*
X458819Y263318D01*
X458800Y263343D01*
X458757Y263367D01*
X458707Y263406D01*
X458682Y263419D01*
X458495Y264019D01*
X458477Y264052D01*
X458464Y264097D01*
X458180Y264658D01*
X458189Y264684D01*
X458197Y264750D01*
X458213Y264815D01*
X458209Y264852D01*
X458212Y264883D01*
X458199Y264930D01*
X458191Y264994D01*
X457839Y266122D01*
X457829Y266140D01*
X457827Y266149D01*
X457815Y266166D01*
X457807Y266181D01*
X457783Y266243D01*
X457758Y266270D01*
X457742Y266298D01*
X457704Y266328D01*
X457661Y266375D01*
X457639Y266392D01*
X457553Y267015D01*
X457540Y267051D01*
X457535Y267097D01*
X457347Y267697D01*
X457360Y267721D01*
X457377Y267780D01*
X457380Y267785D01*
X457382Y267792D01*
X457406Y267846D01*
X457407Y267884D01*
X457416Y267914D01*
X457411Y267957D01*
X457416Y267982D01*
X457412Y267999D01*
X457413Y268026D01*
X457252Y269197D01*
X457230Y269260D01*
X457216Y269326D01*
X457196Y269357D01*
X457186Y269387D01*
X457153Y269423D01*
X457118Y269477D01*
X457099Y269497D01*
X457117Y270125D01*
X457110Y270163D01*
X457112Y270209D01*
X457026Y270832D01*
X457043Y270854D01*
X457072Y270914D01*
X457109Y270969D01*
X457116Y271006D01*
X457130Y271034D01*
X457132Y271083D01*
X457146Y271146D01*
X457179Y272327D01*
X457168Y272393D01*
X457165Y272460D01*
X457150Y272494D01*
X457145Y272525D01*
X457119Y272566D01*
X457093Y272625D01*
X457077Y272648D01*
X457198Y273265D01*
X457198Y273303D01*
X457208Y273348D01*
X457225Y273977D01*
X457245Y273995D01*
X457284Y274050D01*
X457329Y274099D01*
X457343Y274134D01*
X457361Y274159D01*
X457372Y274207D01*
X457395Y274267D01*
X457622Y275427D01*
X457622Y275493D01*
X457630Y275559D01*
X457621Y275596D01*
X457621Y275627D01*
X457602Y275672D01*
X457586Y275734D01*
X457575Y275759D01*
X457796Y276348D01*
X457802Y276386D01*
X457819Y276429D01*
X457960Y277148D01*
X457981Y277181D01*
X457990Y277229D01*
X458008Y277275D01*
X458008Y277327D01*
X458017Y277378D01*
X458006Y277426D01*
X458006Y277476D01*
X457985Y277523D01*
X457973Y277574D01*
X457945Y277614D01*
X457925Y277659D01*
X457887Y277695D01*
X457857Y277737D01*
X457816Y277763D01*
X457780Y277797D01*
X457731Y277816D01*
X457687Y277843D01*
X457633Y277853D01*
X457592Y277868D01*
X457555Y277867D01*
X457510Y277875D01*
X446880Y277875D01*
X446872Y277874D01*
X446865Y277875D01*
X446775Y277854D01*
X446684Y277836D01*
X446677Y277831D01*
X446670Y277829D01*
X446522Y277727D01*
X444158Y275363D01*
X439762Y275363D01*
X436653Y278472D01*
X436653Y282868D01*
X439762Y285977D01*
X444158Y285977D01*
X446522Y283613D01*
X446528Y283609D01*
X446533Y283603D01*
X446611Y283554D01*
X446689Y283502D01*
X446696Y283501D01*
X446703Y283497D01*
X446880Y283465D01*
X461416Y283465D01*
X461448Y283471D01*
X461480Y283469D01*
X461546Y283491D01*
X461613Y283504D01*
X461640Y283522D01*
X461670Y283533D01*
X461733Y283586D01*
X461779Y283617D01*
X461790Y283634D01*
X461808Y283649D01*
X461860Y283713D01*
X461892Y283772D01*
X461931Y283826D01*
X461940Y283862D01*
X461955Y283890D01*
X461959Y283939D01*
X461975Y284000D01*
X461977Y284028D01*
X462451Y284441D01*
X462475Y284471D01*
X462510Y284501D01*
X462910Y284986D01*
X462937Y284988D01*
X463001Y285008D01*
X463067Y285018D01*
X463099Y285037D01*
X463129Y285047D01*
X463167Y285078D01*
X463222Y285111D01*
X464114Y285886D01*
X464154Y285939D01*
X464202Y285986D01*
X464217Y286020D01*
X464236Y286045D01*
X464249Y286093D01*
X464274Y286151D01*
X464281Y286178D01*
X464817Y286507D01*
X464844Y286533D01*
X464884Y286556D01*
X465359Y286969D01*
X465386Y286967D01*
X465452Y286976D01*
X465519Y286975D01*
X465553Y286989D01*
X465585Y286993D01*
X465627Y287018D01*
X465687Y287041D01*
X466694Y287659D01*
X466743Y287705D01*
X466798Y287743D01*
X466818Y287774D01*
X466841Y287796D01*
X466861Y287841D01*
X466896Y287894D01*
X466907Y287919D01*
X467490Y288156D01*
X467521Y288177D01*
X467564Y288193D01*
X468100Y288522D01*
X468127Y288516D01*
X468194Y288514D01*
X468259Y288502D01*
X468296Y288510D01*
X468327Y288509D01*
X468373Y288526D01*
X468436Y288539D01*
X469531Y288983D01*
X469587Y289020D01*
X469647Y289049D01*
X469672Y289077D01*
X469699Y289094D01*
X469726Y289135D01*
X469769Y289182D01*
X469784Y289205D01*
X470398Y289342D01*
X470432Y289357D01*
X470478Y289367D01*
X471060Y289603D01*
X471086Y289592D01*
X471151Y289579D01*
X471214Y289557D01*
X471251Y289559D01*
X471282Y289552D01*
X471330Y289562D01*
X471394Y289565D01*
X472548Y289822D01*
X472609Y289849D01*
X472673Y289868D01*
X472702Y289891D01*
X472731Y289904D01*
X472764Y289940D01*
X472815Y289979D01*
X472833Y289999D01*
X473461Y290033D01*
X473498Y290043D01*
X473544Y290045D01*
X474158Y290182D01*
X474181Y290167D01*
X474243Y290143D01*
X474302Y290111D01*
X474339Y290107D01*
X474368Y290095D01*
X474417Y290097D01*
X474481Y290089D01*
X475661Y290153D01*
X475725Y290170D01*
X475792Y290178D01*
X475824Y290196D01*
X475855Y290204D01*
X475894Y290233D01*
X475950Y290264D01*
X475972Y290281D01*
X476597Y290211D01*
X476635Y290215D01*
X476680Y290209D01*
X477308Y290243D01*
X477329Y290225D01*
X477386Y290191D01*
X477439Y290150D01*
X477474Y290139D01*
X477502Y290123D01*
X477550Y290117D01*
X477611Y290098D01*
X478786Y289968D01*
X478853Y289973D01*
X478919Y289970D01*
X478955Y289982D01*
X478986Y289985D01*
X479029Y290008D01*
X479090Y290029D01*
X479114Y290042D01*
X479719Y289871D01*
X479757Y289868D01*
X479801Y289855D01*
X480426Y289785D01*
X480443Y289763D01*
X480494Y289721D01*
X480539Y289671D01*
X480573Y289655D01*
X480597Y289635D01*
X480644Y289620D01*
X480701Y289592D01*
X481838Y289270D01*
X481905Y289265D01*
X481970Y289251D01*
X482007Y289257D01*
X482038Y289254D01*
X482085Y289270D01*
X482148Y289280D01*
X482174Y289290D01*
X482742Y289021D01*
X482779Y289012D01*
X482821Y288991D01*
X483426Y288820D01*
X483439Y288796D01*
X483482Y288745D01*
X483519Y288689D01*
X483549Y288667D01*
X483569Y288644D01*
X483613Y288622D01*
X483665Y288584D01*
X484500Y288190D01*
X484583Y288169D01*
X484664Y288144D01*
X484680Y288145D01*
X484695Y288141D01*
X484779Y288155D01*
X484863Y288163D01*
X484877Y288170D01*
X484893Y288172D01*
X484965Y288217D01*
X485040Y288257D01*
X485051Y288270D01*
X485064Y288278D01*
X485096Y288323D01*
X485156Y288395D01*
X509010Y329711D01*
X509618Y329291D01*
X509645Y329280D01*
X509667Y329261D01*
X509736Y329241D01*
X509801Y329213D01*
X509830Y329213D01*
X509858Y329205D01*
X509929Y329213D01*
X510000Y329213D01*
X510027Y329224D01*
X510056Y329227D01*
X510118Y329262D01*
X510183Y329290D01*
X510204Y329310D01*
X510229Y329325D01*
X510292Y329402D01*
X510322Y329432D01*
X510326Y329442D01*
X510335Y329453D01*
X519835Y345953D01*
X519845Y345985D01*
X519854Y345998D01*
X519858Y346022D01*
X519859Y346026D01*
X519890Y346096D01*
X519890Y346120D01*
X519898Y346142D01*
X519892Y346218D01*
X519893Y346295D01*
X519883Y346319D01*
X519882Y346340D01*
X519861Y346379D01*
X519835Y346451D01*
X510335Y362951D01*
X510316Y362973D01*
X510303Y362999D01*
X510250Y363047D01*
X510203Y363100D01*
X510177Y363113D01*
X510156Y363132D01*
X510088Y363155D01*
X510024Y363186D01*
X509995Y363188D01*
X509968Y363197D01*
X509896Y363192D01*
X509825Y363195D01*
X509798Y363185D01*
X509769Y363183D01*
X509679Y363141D01*
X509639Y363126D01*
X509631Y363119D01*
X509618Y363113D01*
X509010Y362693D01*
X485156Y404009D01*
X485100Y404073D01*
X485048Y404140D01*
X485034Y404148D01*
X485024Y404160D01*
X484947Y404197D01*
X484873Y404238D01*
X484858Y404240D01*
X484843Y404247D01*
X484759Y404252D01*
X484674Y404261D01*
X484658Y404257D01*
X484643Y404258D01*
X484590Y404239D01*
X484500Y404214D01*
X483665Y403820D01*
X483612Y403780D01*
X483553Y403747D01*
X483530Y403719D01*
X483504Y403700D01*
X483480Y403658D01*
X483439Y403608D01*
X483426Y403584D01*
X482821Y403413D01*
X482787Y403395D01*
X482742Y403383D01*
X482174Y403115D01*
X482148Y403124D01*
X482082Y403133D01*
X482018Y403152D01*
X481981Y403148D01*
X481949Y403153D01*
X481902Y403140D01*
X481838Y403134D01*
X480701Y402812D01*
X480642Y402781D01*
X480579Y402759D01*
X480551Y402735D01*
X480523Y402720D01*
X480491Y402682D01*
X480443Y402641D01*
X480426Y402619D01*
X479801Y402549D01*
X479765Y402538D01*
X479719Y402533D01*
X479114Y402362D01*
X479090Y402375D01*
X479026Y402396D01*
X478966Y402424D01*
X478929Y402427D01*
X478899Y402436D01*
X478850Y402432D01*
X478786Y402436D01*
X477611Y402306D01*
X477548Y402285D01*
X477482Y402274D01*
X477450Y402254D01*
X477420Y402245D01*
X477383Y402213D01*
X477329Y402179D01*
X477308Y402161D01*
X476680Y402195D01*
X476643Y402190D01*
X476597Y402193D01*
X475972Y402123D01*
X475950Y402140D01*
X475891Y402171D01*
X475836Y402209D01*
X475800Y402218D01*
X475772Y402232D01*
X475723Y402236D01*
X475661Y402251D01*
X474481Y402315D01*
X474414Y402305D01*
X474348Y402305D01*
X474313Y402291D01*
X474282Y402286D01*
X474240Y402261D01*
X474181Y402237D01*
X474158Y402222D01*
X473544Y402359D01*
X473506Y402360D01*
X473461Y402371D01*
X472833Y402405D01*
X472815Y402425D01*
X472761Y402465D01*
X472714Y402512D01*
X472679Y402526D01*
X472654Y402545D01*
X472606Y402557D01*
X472548Y402582D01*
X471394Y402839D01*
X471327Y402841D01*
X471261Y402851D01*
X471225Y402843D01*
X471193Y402844D01*
X471148Y402826D01*
X471086Y402812D01*
X471060Y402801D01*
X470478Y403037D01*
X470440Y403044D01*
X470398Y403062D01*
X469784Y403199D01*
X469769Y403222D01*
X469723Y403271D01*
X469684Y403324D01*
X469652Y403344D01*
X469630Y403367D01*
X469585Y403387D01*
X469531Y403421D01*
X468436Y403865D01*
X468370Y403877D01*
X468307Y403898D01*
X468270Y403896D01*
X468239Y403902D01*
X468191Y403892D01*
X468127Y403888D01*
X468100Y403882D01*
X467564Y404211D01*
X467529Y404224D01*
X467490Y404248D01*
X466907Y404485D01*
X466896Y404510D01*
X466859Y404565D01*
X466829Y404625D01*
X466801Y404649D01*
X466783Y404675D01*
X466742Y404702D01*
X466694Y404745D01*
X465687Y405363D01*
X465641Y405380D01*
X465601Y405404D01*
X465583Y405408D01*
X465565Y405417D01*
X465528Y405421D01*
X465498Y405432D01*
X465458Y405430D01*
X465424Y405436D01*
X465399Y405436D01*
X465395Y405436D01*
X465386Y405437D01*
X465359Y405435D01*
X464884Y405848D01*
X464851Y405866D01*
X464817Y405897D01*
X464281Y406226D01*
X464274Y406253D01*
X464246Y406313D01*
X464227Y406377D01*
X464203Y406406D01*
X464190Y406435D01*
X464154Y406468D01*
X464114Y406518D01*
X463222Y407293D01*
X463164Y407326D01*
X463111Y407367D01*
X463075Y407377D01*
X463047Y407392D01*
X462999Y407398D01*
X462937Y407416D01*
X462910Y407418D01*
X462510Y407903D01*
X462480Y407927D01*
X462451Y407963D01*
X461977Y408376D01*
X461975Y408404D01*
X461957Y408468D01*
X461948Y408534D01*
X461930Y408566D01*
X461922Y408597D01*
X461892Y408635D01*
X461860Y408691D01*
X461209Y409481D01*
X461186Y409499D01*
X461169Y409524D01*
X461109Y409562D01*
X461053Y409607D01*
X461025Y409615D01*
X461000Y409631D01*
X460930Y409643D01*
X460861Y409663D01*
X460832Y409660D01*
X460802Y409665D01*
X460733Y409649D01*
X460662Y409641D01*
X460636Y409626D01*
X460607Y409619D01*
X460536Y409570D01*
X460487Y409543D01*
X460476Y409529D01*
X460459Y409517D01*
X460115Y409173D01*
X460111Y409166D01*
X460105Y409162D01*
X460056Y409083D01*
X460004Y409006D01*
X460003Y408998D01*
X459999Y408992D01*
X459967Y408814D01*
X459967Y408012D01*
X456858Y404903D01*
X452462Y404903D01*
X449353Y408012D01*
X449353Y412408D01*
X452462Y415517D01*
X456858Y415517D01*
X456988Y415387D01*
X457031Y415358D01*
X457068Y415322D01*
X457114Y415303D01*
X457155Y415276D01*
X457206Y415266D01*
X457254Y415247D01*
X457303Y415247D01*
X457352Y415238D01*
X457403Y415249D01*
X457454Y415250D01*
X457500Y415270D01*
X457548Y415280D01*
X457591Y415309D01*
X457638Y415330D01*
X457672Y415366D01*
X457713Y415394D01*
X457740Y415438D01*
X457776Y415475D01*
X457794Y415522D01*
X457820Y415563D01*
X457829Y415614D01*
X457847Y415663D01*
X457846Y415718D01*
X457854Y415761D01*
X457845Y415797D01*
X457845Y415843D01*
X457819Y415975D01*
X457804Y416010D01*
X457796Y416056D01*
X457575Y416645D01*
X457586Y416670D01*
X457601Y416735D01*
X457625Y416797D01*
X457624Y416834D01*
X457631Y416865D01*
X457623Y416913D01*
X457622Y416977D01*
X457395Y418137D01*
X457369Y418199D01*
X457352Y418263D01*
X457330Y418293D01*
X457318Y418323D01*
X457283Y418357D01*
X457245Y418409D01*
X457225Y418427D01*
X457208Y419056D01*
X457199Y419093D01*
X457198Y419139D01*
X457077Y419756D01*
X457093Y419779D01*
X457118Y419841D01*
X457152Y419898D01*
X457158Y419935D01*
X457170Y419964D01*
X457169Y420013D01*
X457179Y420077D01*
X457146Y421258D01*
X457131Y421323D01*
X457124Y421390D01*
X457108Y421423D01*
X457100Y421454D01*
X457072Y421493D01*
X457043Y421550D01*
X457026Y421572D01*
X457112Y422195D01*
X457110Y422233D01*
X457117Y422279D01*
X457099Y422907D01*
X457118Y422927D01*
X457153Y422984D01*
X457196Y423035D01*
X457207Y423071D01*
X457224Y423097D01*
X457232Y423146D01*
X457252Y423207D01*
X457413Y424378D01*
X457409Y424444D01*
X457414Y424511D01*
X457403Y424546D01*
X457401Y424578D01*
X457379Y424622D01*
X457360Y424683D01*
X457347Y424707D01*
X457535Y425307D01*
X457539Y425345D01*
X457553Y425389D01*
X457639Y426012D01*
X457661Y426029D01*
X457705Y426078D01*
X457755Y426122D01*
X457773Y426155D01*
X457794Y426179D01*
X457809Y426225D01*
X457839Y426282D01*
X458191Y427410D01*
X458198Y427477D01*
X458214Y427542D01*
X458208Y427578D01*
X458212Y427610D01*
X458197Y427657D01*
X458189Y427720D01*
X458180Y427746D01*
X458464Y428307D01*
X458474Y428344D01*
X458495Y428385D01*
X458682Y428985D01*
X458707Y428998D01*
X458759Y429040D01*
X458815Y429075D01*
X458838Y429104D01*
X458862Y429124D01*
X458886Y429168D01*
X458924Y429219D01*
X459457Y430274D01*
X459475Y430338D01*
X459501Y430399D01*
X459502Y430437D01*
X459510Y430467D01*
X459504Y430516D01*
X459506Y430579D01*
X459502Y430607D01*
X459874Y431114D01*
X459890Y431148D01*
X459918Y431185D01*
X460201Y431746D01*
X460227Y431755D01*
X460285Y431788D01*
X460347Y431813D01*
X460374Y431838D01*
X460401Y431854D01*
X460431Y431893D01*
X460478Y431937D01*
X461177Y432890D01*
X461205Y432950D01*
X461241Y433006D01*
X461248Y433043D01*
X461262Y433072D01*
X461263Y433120D01*
X461276Y433183D01*
X461276Y433211D01*
X461726Y433649D01*
X461748Y433681D01*
X461781Y433713D01*
X462153Y434220D01*
X462181Y434224D01*
X462243Y434247D01*
X462308Y434261D01*
X462339Y434282D01*
X462369Y434293D01*
X462405Y434326D01*
X462458Y434362D01*
X463305Y435187D01*
X463342Y435242D01*
X463387Y435291D01*
X463400Y435326D01*
X463418Y435352D01*
X463428Y435400D01*
X463450Y435460D01*
X463455Y435487D01*
X463971Y435846D01*
X463998Y435873D01*
X464036Y435899D01*
X464486Y436338D01*
X464514Y436338D01*
X464579Y436350D01*
X464646Y436353D01*
X464680Y436369D01*
X464711Y436375D01*
X464752Y436402D01*
X464810Y436428D01*
X465590Y436970D01*
X465649Y437031D01*
X465659Y437038D01*
X465663Y437045D01*
X465711Y437088D01*
X465718Y437103D01*
X465729Y437115D01*
X465758Y437190D01*
X465769Y437206D01*
X465771Y437218D01*
X465795Y437270D01*
X465795Y437287D01*
X465801Y437302D01*
X465799Y437373D01*
X465804Y437404D01*
X465800Y437424D01*
X465801Y437471D01*
X465795Y437487D01*
X465795Y437502D01*
X465772Y437553D01*
X465770Y437558D01*
X465761Y437599D01*
X465749Y437615D01*
X465740Y437640D01*
X441888Y478954D01*
X442516Y479251D01*
X442538Y479268D01*
X442565Y479278D01*
X442617Y479327D01*
X442675Y479370D01*
X442689Y479395D01*
X442710Y479414D01*
X442739Y479480D01*
X442775Y479542D01*
X442778Y479570D01*
X442790Y479596D01*
X442791Y479668D01*
X442800Y479739D01*
X442792Y479766D01*
X442793Y479795D01*
X442757Y479890D01*
X442746Y479930D01*
X442739Y479939D01*
X442735Y479951D01*
X433235Y496451D01*
X433183Y496510D01*
X433137Y496572D01*
X433118Y496583D01*
X433103Y496600D01*
X433033Y496634D01*
X432966Y496674D01*
X432942Y496678D01*
X432924Y496686D01*
X432879Y496688D01*
X432802Y496701D01*
X413802Y496701D01*
X413774Y496696D01*
X413746Y496698D01*
X413678Y496676D01*
X413607Y496662D01*
X413584Y496646D01*
X413557Y496637D01*
X413502Y496590D01*
X413443Y496549D01*
X413428Y496525D01*
X413407Y496507D01*
X413375Y496442D01*
X413336Y496382D01*
X413331Y496354D01*
X413319Y496328D01*
X413310Y496227D01*
X413303Y496185D01*
X413305Y496175D01*
X413304Y496162D01*
X413361Y495447D01*
X365638Y495447D01*
X365555Y495430D01*
X365471Y495419D01*
X365457Y495411D01*
X365442Y495408D01*
X365371Y495360D01*
X365299Y495317D01*
X365289Y495304D01*
X365276Y495295D01*
X365230Y495224D01*
X365179Y495156D01*
X365175Y495139D01*
X365167Y495127D01*
X365157Y495072D01*
X365133Y494982D01*
X365055Y494045D01*
X365063Y493979D01*
X365061Y493912D01*
X365075Y493877D01*
X365078Y493846D01*
X365102Y493803D01*
X365125Y493743D01*
X365139Y493720D01*
X364984Y493110D01*
X364983Y493072D01*
X364971Y493028D01*
X364919Y492401D01*
X364898Y492383D01*
X364856Y492331D01*
X364808Y492285D01*
X364793Y492251D01*
X364773Y492226D01*
X364760Y492179D01*
X364734Y492121D01*
X364443Y490971D01*
X364440Y490905D01*
X364427Y490839D01*
X364435Y490803D01*
X364433Y490771D01*
X364450Y490725D01*
X364462Y490662D01*
X364472Y490637D01*
X364219Y490061D01*
X364211Y490024D01*
X364192Y489982D01*
X364038Y489372D01*
X364014Y489358D01*
X363965Y489313D01*
X363910Y489275D01*
X363889Y489245D01*
X363866Y489223D01*
X363845Y489179D01*
X363809Y489126D01*
X363333Y488040D01*
X363319Y487975D01*
X363296Y487913D01*
X363297Y487875D01*
X363290Y487845D01*
X363299Y487796D01*
X363301Y487733D01*
X363307Y487706D01*
X362963Y487179D01*
X362949Y487144D01*
X362923Y487105D01*
X362670Y486530D01*
X362645Y486520D01*
X362589Y486484D01*
X362528Y486455D01*
X362503Y486428D01*
X362476Y486411D01*
X362448Y486371D01*
X362404Y486324D01*
X361756Y485332D01*
X361737Y485284D01*
X361722Y485262D01*
X361720Y485251D01*
X361699Y485212D01*
X361693Y485175D01*
X361682Y485146D01*
X361683Y485097D01*
X361674Y485034D01*
X361675Y485006D01*
X361249Y484543D01*
X361229Y484511D01*
X361198Y484477D01*
X360854Y483951D01*
X360827Y483945D01*
X360766Y483919D01*
X360701Y483901D01*
X360672Y483879D01*
X360643Y483866D01*
X360609Y483831D01*
X360558Y483792D01*
X359755Y482920D01*
X359720Y482863D01*
X359678Y482811D01*
X359667Y482776D01*
X359651Y482749D01*
X359644Y482700D01*
X359625Y482639D01*
X359621Y482612D01*
X359125Y482226D01*
X359100Y482197D01*
X359063Y482169D01*
X358637Y481706D01*
X358610Y481705D01*
X358545Y481689D01*
X358479Y481682D01*
X358446Y481665D01*
X358415Y481658D01*
X358376Y481628D01*
X358319Y481599D01*
X357800Y481194D01*
X357777Y481168D01*
X357749Y481149D01*
X357713Y481093D01*
X357669Y481042D01*
X357658Y481010D01*
X357640Y480981D01*
X357628Y480915D01*
X357607Y480852D01*
X357610Y480817D01*
X357604Y480784D01*
X357619Y480718D01*
X357624Y480652D01*
X357640Y480622D01*
X357648Y480588D01*
X357686Y480533D01*
X357717Y480474D01*
X357744Y480453D01*
X357764Y480425D01*
X357820Y480389D01*
X357872Y480347D01*
X357905Y480337D01*
X357934Y480319D01*
X358011Y480305D01*
X358064Y480289D01*
X358086Y480291D01*
X358111Y480287D01*
X360338Y480287D01*
X363447Y477178D01*
X363447Y472782D01*
X360338Y469673D01*
X355942Y469673D01*
X352833Y472782D01*
X352833Y476124D01*
X352832Y476132D01*
X352833Y476140D01*
X352812Y476230D01*
X352794Y476321D01*
X352789Y476327D01*
X352787Y476335D01*
X352685Y476483D01*
X351522Y477645D01*
X351481Y477673D01*
X351446Y477708D01*
X351398Y477728D01*
X351355Y477756D01*
X351306Y477766D01*
X351260Y477785D01*
X351203Y477785D01*
X351158Y477794D01*
X351123Y477787D01*
X351080Y477787D01*
X350916Y477760D01*
X350880Y477746D01*
X350834Y477739D01*
X350239Y477535D01*
X350215Y477547D01*
X350150Y477564D01*
X350089Y477589D01*
X350051Y477590D01*
X350021Y477598D01*
X349972Y477591D01*
X349908Y477592D01*
X348739Y477396D01*
X348677Y477373D01*
X348612Y477358D01*
X348581Y477336D01*
X348552Y477325D01*
X348517Y477291D01*
X348464Y477255D01*
X348445Y477235D01*
X347816Y477235D01*
X347778Y477228D01*
X347732Y477228D01*
X347112Y477125D01*
X347089Y477141D01*
X347029Y477168D01*
X346972Y477203D01*
X346935Y477210D01*
X346907Y477223D01*
X346857Y477224D01*
X346795Y477235D01*
X345609Y477235D01*
X345544Y477222D01*
X345477Y477218D01*
X345444Y477202D01*
X345413Y477196D01*
X345372Y477168D01*
X345315Y477141D01*
X345292Y477125D01*
X344672Y477228D01*
X344634Y477227D01*
X344588Y477235D01*
X343959Y477235D01*
X343940Y477255D01*
X343885Y477292D01*
X343834Y477336D01*
X343799Y477348D01*
X343773Y477366D01*
X343725Y477375D01*
X343665Y477396D01*
X342496Y477592D01*
X342429Y477589D01*
X342363Y477596D01*
X342327Y477586D01*
X342295Y477585D01*
X342251Y477564D01*
X342189Y477547D01*
X342165Y477535D01*
X341570Y477739D01*
X341532Y477744D01*
X341489Y477760D01*
X340868Y477863D01*
X340852Y477885D01*
X340804Y477931D01*
X340761Y477983D01*
X340729Y478001D01*
X340706Y478022D01*
X340660Y478039D01*
X340604Y478071D01*
X339483Y478455D01*
X339417Y478464D01*
X339353Y478482D01*
X339331Y478479D01*
X339325Y478480D01*
X339310Y478480D01*
X339304Y478479D01*
X339284Y478482D01*
X339237Y478469D01*
X339173Y478462D01*
X339147Y478454D01*
X338594Y478753D01*
X338558Y478764D01*
X338517Y478787D01*
X337923Y478991D01*
X337910Y479016D01*
X337870Y479069D01*
X337837Y479127D01*
X337808Y479150D01*
X337789Y479175D01*
X337746Y479199D01*
X337696Y479239D01*
X336654Y479803D01*
X336590Y479823D01*
X336529Y479851D01*
X336492Y479853D01*
X336462Y479862D01*
X336413Y479857D01*
X336349Y479861D01*
X336322Y479857D01*
X335826Y480244D01*
X335792Y480261D01*
X335756Y480289D01*
X335203Y480589D01*
X335195Y480615D01*
X335164Y480674D01*
X335140Y480736D01*
X335115Y480764D01*
X335101Y480792D01*
X335063Y480823D01*
X335020Y480871D01*
X334085Y481599D01*
X334025Y481628D01*
X333970Y481666D01*
X333934Y481674D01*
X333905Y481688D01*
X333856Y481691D01*
X333794Y481705D01*
X333767Y481706D01*
X333341Y482169D01*
X333310Y482191D01*
X333279Y482226D01*
X332783Y482612D01*
X332779Y482639D01*
X332758Y482703D01*
X332746Y482768D01*
X332726Y482799D01*
X332716Y482829D01*
X332683Y482866D01*
X332649Y482920D01*
X331846Y483792D01*
X331792Y483831D01*
X331744Y483878D01*
X331710Y483892D01*
X331684Y483910D01*
X331636Y483921D01*
X331577Y483945D01*
X331550Y483951D01*
X331206Y484477D01*
X331180Y484504D01*
X331155Y484543D01*
X330729Y485006D01*
X330730Y485034D01*
X330720Y485099D01*
X330718Y485166D01*
X330704Y485200D01*
X330699Y485232D01*
X330677Y485267D01*
X330674Y485281D01*
X330664Y485295D01*
X330648Y485332D01*
X330000Y486324D01*
X329953Y486372D01*
X329913Y486425D01*
X329881Y486445D01*
X329859Y486467D01*
X329814Y486486D01*
X329759Y486520D01*
X329734Y486530D01*
X329481Y487105D01*
X329459Y487136D01*
X329441Y487179D01*
X329097Y487706D01*
X329103Y487733D01*
X329103Y487799D01*
X329113Y487865D01*
X329104Y487901D01*
X329104Y487933D01*
X329086Y487978D01*
X329071Y488040D01*
X328595Y489126D01*
X328556Y489181D01*
X328526Y489240D01*
X328498Y489264D01*
X328480Y489290D01*
X328438Y489316D01*
X328390Y489358D01*
X328366Y489372D01*
X328212Y489982D01*
X328195Y490016D01*
X328185Y490061D01*
X327932Y490637D01*
X327942Y490662D01*
X327954Y490728D01*
X327974Y490792D01*
X327971Y490829D01*
X327977Y490860D01*
X327966Y490908D01*
X327961Y490971D01*
X327670Y492121D01*
X327641Y492181D01*
X327621Y492244D01*
X327597Y492273D01*
X327584Y492301D01*
X327547Y492334D01*
X327506Y492383D01*
X327485Y492401D01*
X327433Y493028D01*
X327423Y493064D01*
X327420Y493110D01*
X327265Y493720D01*
X327279Y493743D01*
X327301Y493806D01*
X327332Y493866D01*
X327335Y493903D01*
X327346Y493933D01*
X327343Y493981D01*
X327349Y494045D01*
X327271Y494982D01*
X327248Y495063D01*
X327229Y495146D01*
X327220Y495159D01*
X327216Y495174D01*
X327162Y495240D01*
X327113Y495309D01*
X327100Y495318D01*
X327090Y495330D01*
X327015Y495371D01*
X326943Y495415D01*
X326926Y495418D01*
X326913Y495425D01*
X326857Y495431D01*
X326766Y495447D01*
X279043Y495447D01*
X279100Y496162D01*
X279096Y496191D01*
X279101Y496219D01*
X279084Y496288D01*
X279076Y496360D01*
X279062Y496384D01*
X279055Y496412D01*
X279012Y496470D01*
X278977Y496532D01*
X278954Y496549D01*
X278937Y496572D01*
X278875Y496609D01*
X278818Y496652D01*
X278790Y496659D01*
X278766Y496674D01*
X278666Y496690D01*
X278625Y496701D01*
X278615Y496699D01*
X278602Y496701D01*
X259602Y496701D01*
X259526Y496686D01*
X259448Y496677D01*
X259429Y496666D01*
X259407Y496662D01*
X259343Y496618D01*
X259275Y496579D01*
X259259Y496560D01*
X259243Y496549D01*
X259219Y496511D01*
X259169Y496451D01*
X249669Y479951D01*
X249660Y479924D01*
X249644Y479900D01*
X249629Y479830D01*
X249606Y479762D01*
X249609Y479734D01*
X249603Y479706D01*
X249617Y479636D01*
X249622Y479564D01*
X249635Y479539D01*
X249641Y479511D01*
X249681Y479451D01*
X249714Y479388D01*
X249736Y479370D01*
X249752Y479346D01*
X249835Y479288D01*
X249867Y479261D01*
X249878Y479258D01*
X249889Y479251D01*
X250516Y478954D01*
X226664Y437640D01*
X226652Y437606D01*
X226635Y437580D01*
X226628Y437538D01*
X226605Y437482D01*
X226605Y437466D01*
X226600Y437450D01*
X226603Y437403D01*
X226600Y437383D01*
X226606Y437354D01*
X226607Y437281D01*
X226613Y437267D01*
X226615Y437250D01*
X226641Y437199D01*
X226643Y437187D01*
X226654Y437172D01*
X226686Y437097D01*
X226699Y437085D01*
X226705Y437072D01*
X226748Y437035D01*
X226758Y437026D01*
X226759Y437024D01*
X226761Y437023D01*
X226814Y436970D01*
X227594Y436428D01*
X227655Y436402D01*
X227712Y436367D01*
X227749Y436361D01*
X227778Y436349D01*
X227827Y436348D01*
X227890Y436338D01*
X227918Y436338D01*
X228368Y435899D01*
X228400Y435878D01*
X228433Y435846D01*
X228949Y435487D01*
X228954Y435460D01*
X228979Y435398D01*
X228995Y435333D01*
X229016Y435303D01*
X229028Y435274D01*
X229062Y435239D01*
X229099Y435187D01*
X229946Y434362D01*
X230002Y434326D01*
X230053Y434282D01*
X230088Y434270D01*
X230115Y434253D01*
X230163Y434245D01*
X230223Y434224D01*
X230251Y434220D01*
X230623Y433713D01*
X230651Y433687D01*
X230678Y433649D01*
X231128Y433211D01*
X231128Y433183D01*
X231142Y433118D01*
X231148Y433052D01*
X231164Y433018D01*
X231171Y432987D01*
X231199Y432947D01*
X231227Y432890D01*
X231926Y431937D01*
X231976Y431892D01*
X232018Y431841D01*
X232051Y431823D01*
X232074Y431802D01*
X232121Y431785D01*
X232177Y431755D01*
X232203Y431746D01*
X232486Y431185D01*
X232510Y431155D01*
X232530Y431114D01*
X232902Y430607D01*
X232898Y430579D01*
X232901Y430513D01*
X232895Y430446D01*
X232906Y430411D01*
X232908Y430379D01*
X232929Y430335D01*
X232947Y430274D01*
X233480Y429219D01*
X233521Y429166D01*
X233555Y429109D01*
X233585Y429086D01*
X233604Y429061D01*
X233647Y429037D01*
X233697Y428998D01*
X233722Y428985D01*
X233909Y428385D01*
X233927Y428352D01*
X233940Y428307D01*
X234224Y427746D01*
X234215Y427720D01*
X234207Y427654D01*
X234191Y427589D01*
X234195Y427552D01*
X234192Y427521D01*
X234205Y427474D01*
X234213Y427410D01*
X234565Y426282D01*
X234597Y426223D01*
X234621Y426161D01*
X234646Y426134D01*
X234662Y426106D01*
X234700Y426076D01*
X234743Y426029D01*
X234765Y426012D01*
X234851Y425389D01*
X234864Y425353D01*
X234869Y425307D01*
X235057Y424707D01*
X235044Y424683D01*
X235025Y424619D01*
X234998Y424558D01*
X234997Y424520D01*
X234988Y424490D01*
X234993Y424442D01*
X234991Y424378D01*
X235152Y423207D01*
X235174Y423144D01*
X235188Y423078D01*
X235208Y423047D01*
X235218Y423017D01*
X235251Y422981D01*
X235286Y422927D01*
X235305Y422907D01*
X235287Y422279D01*
X235294Y422241D01*
X235292Y422195D01*
X235378Y421572D01*
X235361Y421550D01*
X235332Y421490D01*
X235295Y421435D01*
X235288Y421398D01*
X235274Y421370D01*
X235272Y421321D01*
X235258Y421258D01*
X235225Y420077D01*
X235236Y420011D01*
X235239Y419944D01*
X235254Y419910D01*
X235259Y419879D01*
X235285Y419838D01*
X235311Y419779D01*
X235327Y419756D01*
X235206Y419139D01*
X235206Y419101D01*
X235196Y419056D01*
X235179Y418427D01*
X235159Y418409D01*
X235120Y418354D01*
X235075Y418305D01*
X235061Y418270D01*
X235043Y418245D01*
X235032Y418197D01*
X235009Y418137D01*
X234782Y416977D01*
X234782Y416911D01*
X234774Y416845D01*
X234783Y416808D01*
X234783Y416777D01*
X234802Y416732D01*
X234818Y416670D01*
X234829Y416645D01*
X234608Y416056D01*
X234602Y416018D01*
X234585Y415975D01*
X234464Y415358D01*
X234442Y415343D01*
X234395Y415295D01*
X234342Y415255D01*
X234323Y415223D01*
X234301Y415200D01*
X234282Y415155D01*
X234250Y415100D01*
X233834Y413993D01*
X233824Y413927D01*
X233804Y413864D01*
X233807Y413826D01*
X233802Y413795D01*
X233814Y413748D01*
X233819Y413684D01*
X233826Y413657D01*
X233512Y413113D01*
X233499Y413077D01*
X233476Y413037D01*
X233255Y412449D01*
X233230Y412437D01*
X233176Y412398D01*
X233117Y412367D01*
X233093Y412338D01*
X233067Y412320D01*
X233042Y412278D01*
X233000Y412229D01*
X232409Y411206D01*
X232387Y411143D01*
X232358Y411083D01*
X232355Y411046D01*
X232345Y411016D01*
X232348Y410967D01*
X232343Y410903D01*
X232346Y410876D01*
X231945Y410391D01*
X231927Y410357D01*
X231898Y410322D01*
X231583Y409778D01*
X231556Y409770D01*
X231497Y409741D01*
X231433Y409720D01*
X231405Y409695D01*
X231377Y409681D01*
X231345Y409644D01*
X231296Y409603D01*
X230544Y408691D01*
X230512Y408632D01*
X230473Y408578D01*
X230464Y408542D01*
X230449Y408514D01*
X230445Y408465D01*
X230429Y408404D01*
X230427Y408376D01*
X229953Y407963D01*
X229929Y407933D01*
X229894Y407903D01*
X229494Y407418D01*
X229467Y407416D01*
X229403Y407396D01*
X229337Y407386D01*
X229305Y407367D01*
X229275Y407357D01*
X229237Y407326D01*
X229182Y407293D01*
X228290Y406518D01*
X228250Y406465D01*
X228202Y406418D01*
X228187Y406384D01*
X228168Y406359D01*
X228155Y406311D01*
X228130Y406253D01*
X228123Y406226D01*
X227589Y405898D01*
X227541Y405854D01*
X227488Y405817D01*
X227469Y405786D01*
X227442Y405761D01*
X227415Y405702D01*
X227381Y405648D01*
X227375Y405612D01*
X227360Y405579D01*
X227358Y405514D01*
X227347Y405450D01*
X227355Y405415D01*
X227354Y405378D01*
X227378Y405318D01*
X227393Y405255D01*
X227415Y405222D01*
X227427Y405192D01*
X227460Y405157D01*
X227495Y405107D01*
X229637Y402965D01*
X229644Y402961D01*
X229648Y402955D01*
X229727Y402906D01*
X229804Y402854D01*
X229812Y402853D01*
X229818Y402849D01*
X229996Y402817D01*
X233338Y402817D01*
X236447Y399708D01*
X236447Y395312D01*
X233338Y392203D01*
X228942Y392203D01*
X225833Y395312D01*
X225833Y398654D01*
X225832Y398662D01*
X225833Y398670D01*
X225812Y398760D01*
X225794Y398851D01*
X225789Y398857D01*
X225787Y398865D01*
X225685Y399013D01*
X221975Y402723D01*
X221971Y402725D01*
X221969Y402729D01*
X221888Y402781D01*
X221808Y402834D01*
X221804Y402834D01*
X221800Y402837D01*
X221705Y402853D01*
X221611Y402871D01*
X221607Y402870D01*
X221602Y402871D01*
X221426Y402834D01*
X221344Y402801D01*
X221318Y402812D01*
X221253Y402825D01*
X221190Y402847D01*
X221153Y402845D01*
X221122Y402852D01*
X221074Y402842D01*
X221010Y402839D01*
X219856Y402582D01*
X219795Y402555D01*
X219731Y402536D01*
X219702Y402513D01*
X219673Y402500D01*
X219639Y402464D01*
X219589Y402425D01*
X219571Y402405D01*
X218943Y402371D01*
X218906Y402361D01*
X218860Y402359D01*
X218246Y402222D01*
X218223Y402237D01*
X218161Y402261D01*
X218102Y402293D01*
X218065Y402297D01*
X218036Y402309D01*
X217987Y402307D01*
X217923Y402315D01*
X216743Y402251D01*
X216679Y402234D01*
X216612Y402226D01*
X216579Y402208D01*
X216549Y402200D01*
X216510Y402171D01*
X216454Y402140D01*
X216432Y402123D01*
X215807Y402193D01*
X215769Y402189D01*
X215724Y402195D01*
X215096Y402161D01*
X215075Y402179D01*
X215018Y402213D01*
X214965Y402254D01*
X214930Y402265D01*
X214902Y402281D01*
X214854Y402287D01*
X214793Y402306D01*
X213618Y402436D01*
X213551Y402431D01*
X213485Y402434D01*
X213450Y402422D01*
X213418Y402419D01*
X213375Y402396D01*
X213314Y402375D01*
X213290Y402362D01*
X212685Y402533D01*
X212647Y402536D01*
X212603Y402549D01*
X211978Y402619D01*
X211961Y402641D01*
X211910Y402683D01*
X211865Y402733D01*
X211831Y402749D01*
X211807Y402769D01*
X211760Y402784D01*
X211703Y402812D01*
X210566Y403134D01*
X210499Y403139D01*
X210434Y403153D01*
X210397Y403147D01*
X210366Y403150D01*
X210319Y403134D01*
X210256Y403124D01*
X210230Y403115D01*
X209662Y403383D01*
X209625Y403392D01*
X209583Y403413D01*
X208978Y403584D01*
X208965Y403608D01*
X208922Y403659D01*
X208885Y403715D01*
X208855Y403737D01*
X208835Y403760D01*
X208791Y403782D01*
X208739Y403820D01*
X207904Y404214D01*
X207821Y404235D01*
X207740Y404260D01*
X207724Y404259D01*
X207709Y404263D01*
X207625Y404249D01*
X207541Y404241D01*
X207527Y404234D01*
X207511Y404232D01*
X207439Y404187D01*
X207364Y404147D01*
X207353Y404134D01*
X207340Y404126D01*
X207308Y404081D01*
X207248Y404009D01*
X183394Y362693D01*
X182786Y363113D01*
X182759Y363124D01*
X182737Y363143D01*
X182668Y363163D01*
X182603Y363191D01*
X182574Y363191D01*
X182546Y363199D01*
X182475Y363191D01*
X182404Y363192D01*
X182377Y363180D01*
X182348Y363177D01*
X182286Y363142D01*
X182221Y363114D01*
X182200Y363094D01*
X182175Y363079D01*
X182112Y363002D01*
X182082Y362972D01*
X182078Y362962D01*
X182069Y362951D01*
X172569Y346451D01*
X172545Y346378D01*
X172514Y346308D01*
X172514Y346284D01*
X172506Y346262D01*
X172513Y346186D01*
X172512Y346109D01*
X172521Y346085D01*
X172522Y346064D01*
X172543Y346025D01*
X172562Y345973D01*
X172563Y345967D01*
X172565Y345965D01*
X172569Y345953D01*
X182069Y329453D01*
X182088Y329431D01*
X182101Y329405D01*
X182154Y329357D01*
X182201Y329304D01*
X182227Y329291D01*
X182249Y329272D01*
X182316Y329249D01*
X182380Y329218D01*
X182409Y329217D01*
X182436Y329207D01*
X182508Y329212D01*
X182579Y329209D01*
X182606Y329219D01*
X182635Y329221D01*
X182725Y329263D01*
X182765Y329278D01*
X182773Y329285D01*
X182786Y329291D01*
X183394Y329711D01*
X207248Y288395D01*
X207304Y288331D01*
X207356Y288264D01*
X207370Y288256D01*
X207380Y288244D01*
X207457Y288207D01*
X207531Y288166D01*
X207546Y288164D01*
X207561Y288157D01*
X207645Y288152D01*
X207730Y288143D01*
X207746Y288147D01*
X207761Y288146D01*
X207814Y288165D01*
X207904Y288190D01*
X208739Y288584D01*
X208792Y288624D01*
X208851Y288657D01*
X208874Y288685D01*
X208900Y288704D01*
X208924Y288746D01*
X208965Y288796D01*
X208978Y288820D01*
X209583Y288991D01*
X209617Y289009D01*
X209662Y289021D01*
X210230Y289290D01*
X210256Y289280D01*
X210322Y289271D01*
X210386Y289252D01*
X210423Y289256D01*
X210455Y289251D01*
X210502Y289264D01*
X210566Y289270D01*
X211703Y289592D01*
X211762Y289623D01*
X211825Y289645D01*
X211853Y289669D01*
X211881Y289684D01*
X211913Y289722D01*
X211961Y289763D01*
X211978Y289785D01*
X212603Y289855D01*
X212639Y289866D01*
X212685Y289871D01*
X213290Y290042D01*
X213314Y290029D01*
X213378Y290008D01*
X213438Y289980D01*
X213475Y289977D01*
X213505Y289968D01*
X213554Y289972D01*
X213618Y289968D01*
X214793Y290098D01*
X214856Y290119D01*
X214922Y290130D01*
X214954Y290150D01*
X214984Y290159D01*
X215021Y290191D01*
X215075Y290225D01*
X215096Y290243D01*
X215724Y290209D01*
X215761Y290214D01*
X215807Y290211D01*
X216432Y290281D01*
X216454Y290264D01*
X216513Y290233D01*
X216568Y290195D01*
X216604Y290186D01*
X216632Y290172D01*
X216681Y290168D01*
X216743Y290153D01*
X217923Y290089D01*
X217990Y290099D01*
X218056Y290099D01*
X218091Y290113D01*
X218122Y290118D01*
X218164Y290143D01*
X218223Y290167D01*
X218246Y290182D01*
X218860Y290045D01*
X218898Y290044D01*
X218943Y290033D01*
X219571Y289999D01*
X219589Y289979D01*
X219643Y289939D01*
X219690Y289892D01*
X219725Y289878D01*
X219750Y289859D01*
X219798Y289847D01*
X219856Y289822D01*
X221010Y289565D01*
X221077Y289563D01*
X221143Y289553D01*
X221179Y289561D01*
X221211Y289560D01*
X221256Y289578D01*
X221318Y289592D01*
X221344Y289603D01*
X221926Y289367D01*
X221964Y289360D01*
X222006Y289342D01*
X222620Y289205D01*
X222635Y289182D01*
X222681Y289133D01*
X222720Y289080D01*
X222752Y289060D01*
X222774Y289037D01*
X222819Y289017D01*
X222873Y288983D01*
X223968Y288539D01*
X224034Y288527D01*
X224097Y288506D01*
X224134Y288508D01*
X224165Y288502D01*
X224213Y288512D01*
X224277Y288516D01*
X224304Y288522D01*
X224840Y288193D01*
X224875Y288180D01*
X224914Y288156D01*
X225497Y287919D01*
X225508Y287894D01*
X225545Y287839D01*
X225575Y287779D01*
X225603Y287754D01*
X225621Y287729D01*
X225662Y287702D01*
X225710Y287659D01*
X226717Y287041D01*
X226780Y287018D01*
X226839Y286987D01*
X226876Y286983D01*
X226906Y286972D01*
X226954Y286974D01*
X227018Y286967D01*
X227045Y286969D01*
X227520Y286556D01*
X227553Y286538D01*
X227587Y286507D01*
X228123Y286178D01*
X228130Y286151D01*
X228158Y286091D01*
X228177Y286027D01*
X228201Y285998D01*
X228214Y285969D01*
X228250Y285936D01*
X228290Y285886D01*
X229182Y285111D01*
X229240Y285078D01*
X229293Y285037D01*
X229329Y285027D01*
X229357Y285012D01*
X229405Y285006D01*
X229467Y284988D01*
X229494Y284986D01*
X229894Y284501D01*
X229924Y284477D01*
X229953Y284441D01*
X230427Y284028D01*
X230429Y284000D01*
X230447Y283936D01*
X230456Y283870D01*
X230474Y283838D01*
X230482Y283807D01*
X230512Y283769D01*
X230544Y283713D01*
X231296Y282801D01*
X231348Y282759D01*
X231393Y282710D01*
X231427Y282694D01*
X231451Y282674D01*
X231499Y282661D01*
X231556Y282634D01*
X231583Y282626D01*
X231898Y282082D01*
X231923Y282053D01*
X231945Y282013D01*
X232346Y281528D01*
X232343Y281501D01*
X232350Y281434D01*
X232348Y281368D01*
X232360Y281333D01*
X232363Y281301D01*
X232387Y281258D01*
X232409Y281198D01*
X233000Y280175D01*
X233045Y280125D01*
X233082Y280069D01*
X233112Y280048D01*
X233133Y280024D01*
X233177Y280003D01*
X233230Y279967D01*
X233255Y279955D01*
X233476Y279367D01*
X233496Y279334D01*
X233512Y279291D01*
X233826Y278747D01*
X233819Y278720D01*
X233815Y278653D01*
X233802Y278588D01*
X233809Y278551D01*
X233807Y278520D01*
X233823Y278474D01*
X233834Y278411D01*
X233900Y278236D01*
X233907Y278226D01*
X233909Y278213D01*
X233959Y278141D01*
X234006Y278066D01*
X234016Y278059D01*
X234023Y278049D01*
X234098Y278001D01*
X234170Y277951D01*
X234182Y277948D01*
X234193Y277941D01*
X234280Y277926D01*
X234365Y277907D01*
X234378Y277910D01*
X234390Y277907D01*
X234476Y277927D01*
X234563Y277943D01*
X234573Y277950D01*
X234585Y277953D01*
X234709Y278039D01*
X234730Y278053D01*
X234732Y278054D01*
X234733Y278056D01*
X235845Y279167D01*
X235849Y279174D01*
X235855Y279178D01*
X235904Y279257D01*
X235956Y279334D01*
X235957Y279342D01*
X235961Y279348D01*
X235993Y279526D01*
X235993Y282868D01*
X239102Y285977D01*
X243498Y285977D01*
X246607Y282868D01*
X246607Y278472D01*
X243498Y275363D01*
X240156Y275363D01*
X240148Y275362D01*
X240140Y275363D01*
X240050Y275342D01*
X239959Y275324D01*
X239953Y275319D01*
X239945Y275317D01*
X239797Y275215D01*
X238275Y273693D01*
X236490Y271907D01*
X235759Y271907D01*
X235746Y271905D01*
X235734Y271907D01*
X235649Y271885D01*
X235562Y271868D01*
X235552Y271861D01*
X235540Y271858D01*
X235469Y271805D01*
X235396Y271755D01*
X235390Y271745D01*
X235380Y271737D01*
X235335Y271661D01*
X235287Y271587D01*
X235285Y271575D01*
X235279Y271564D01*
X235256Y271414D01*
X235252Y271390D01*
X235252Y271388D01*
X235252Y271386D01*
X235258Y271146D01*
X235273Y271081D01*
X235280Y271014D01*
X235296Y270981D01*
X235304Y270950D01*
X235332Y270911D01*
X235361Y270854D01*
X235378Y270832D01*
X235292Y270209D01*
X235294Y270171D01*
X235287Y270125D01*
X235305Y269497D01*
X235286Y269477D01*
X235251Y269420D01*
X235208Y269369D01*
X235197Y269333D01*
X235180Y269307D01*
X235172Y269258D01*
X235152Y269197D01*
X234991Y268026D01*
X234993Y267989D01*
X234988Y267961D01*
X234993Y267938D01*
X234990Y267893D01*
X235001Y267858D01*
X235003Y267826D01*
X235025Y267782D01*
X235044Y267721D01*
X235057Y267697D01*
X234869Y267097D01*
X234865Y267059D01*
X234851Y267015D01*
X234765Y266392D01*
X234743Y266375D01*
X234699Y266325D01*
X234649Y266282D01*
X234631Y266249D01*
X234610Y266225D01*
X234595Y266179D01*
X234570Y266130D01*
X234569Y266130D01*
X234569Y266129D01*
X234565Y266122D01*
X234213Y264994D01*
X234206Y264927D01*
X234190Y264862D01*
X234196Y264826D01*
X234192Y264794D01*
X234207Y264747D01*
X234215Y264684D01*
X234224Y264658D01*
X233940Y264097D01*
X233930Y264060D01*
X233909Y264019D01*
X233722Y263419D01*
X233697Y263406D01*
X233645Y263364D01*
X233589Y263329D01*
X233566Y263300D01*
X233542Y263280D01*
X233518Y263236D01*
X233480Y263185D01*
X232947Y262130D01*
X232931Y262072D01*
X232931Y262071D01*
X232929Y262066D01*
X232903Y262005D01*
X232902Y261967D01*
X232894Y261937D01*
X232899Y261896D01*
X232895Y261874D01*
X232899Y261856D01*
X232898Y261825D01*
X232902Y261797D01*
X232530Y261290D01*
X232514Y261256D01*
X232486Y261219D01*
X232203Y260658D01*
X232177Y260649D01*
X232119Y260616D01*
X232057Y260591D01*
X232030Y260566D01*
X232003Y260550D01*
X231973Y260511D01*
X231926Y260467D01*
X231227Y259514D01*
X231199Y259454D01*
X231163Y259398D01*
X231156Y259361D01*
X231142Y259332D01*
X231141Y259284D01*
X231128Y259221D01*
X231128Y259193D01*
X230678Y258755D01*
X230656Y258723D01*
X230623Y258691D01*
X230251Y258184D01*
X230223Y258180D01*
X230161Y258157D01*
X230096Y258143D01*
X230065Y258122D01*
X230035Y258111D01*
X229999Y258078D01*
X229946Y258042D01*
X229099Y257217D01*
X229062Y257162D01*
X229017Y257113D01*
X229004Y257078D01*
X228986Y257052D01*
X228976Y257004D01*
X228975Y257001D01*
X228974Y256999D01*
X228974Y256997D01*
X228954Y256944D01*
X228949Y256917D01*
X228433Y256558D01*
X228406Y256531D01*
X228368Y256505D01*
X227918Y256066D01*
X227890Y256066D01*
X227825Y256054D01*
X227758Y256051D01*
X227724Y256035D01*
X227693Y256029D01*
X227652Y256002D01*
X227594Y255976D01*
X226814Y255434D01*
X226755Y255373D01*
X226693Y255316D01*
X226686Y255301D01*
X226675Y255289D01*
X226645Y255210D01*
X226609Y255134D01*
X226609Y255117D01*
X226603Y255102D01*
X226606Y255018D01*
X226603Y254933D01*
X226609Y254917D01*
X226609Y254902D01*
X226632Y254851D01*
X226664Y254764D01*
X250516Y213450D01*
X249889Y213153D01*
X249866Y213136D01*
X249839Y213126D01*
X249787Y213077D01*
X249729Y213034D01*
X249715Y213009D01*
X249694Y212990D01*
X249665Y212924D01*
X249629Y212862D01*
X249626Y212834D01*
X249614Y212808D01*
X249613Y212736D01*
X249604Y212665D01*
X249612Y212638D01*
X249612Y212609D01*
X249647Y212514D01*
X249658Y212474D01*
X249665Y212465D01*
X249669Y212453D01*
X259169Y195953D01*
X259221Y195895D01*
X259267Y195832D01*
X259286Y195821D01*
X259301Y195804D01*
X259371Y195770D01*
X259438Y195730D01*
X259463Y195726D01*
X259480Y195718D01*
X259525Y195716D01*
X259602Y195703D01*
X278602Y195703D01*
X278630Y195708D01*
G37*
%LPC*%
G36*
X226513Y309705D02*
X226513Y309705D01*
X224155Y312063D01*
X224155Y320322D01*
X224154Y320330D01*
X224155Y320338D01*
X224134Y320428D01*
X224116Y320519D01*
X224111Y320525D01*
X224109Y320533D01*
X224007Y320681D01*
X221213Y323475D01*
X221206Y323479D01*
X221202Y323485D01*
X221123Y323534D01*
X221046Y323586D01*
X221038Y323587D01*
X221032Y323591D01*
X220854Y323623D01*
X217512Y323623D01*
X214403Y326732D01*
X214403Y331128D01*
X216767Y333492D01*
X216771Y333498D01*
X216777Y333503D01*
X216826Y333581D01*
X216878Y333659D01*
X216879Y333666D01*
X216883Y333673D01*
X216915Y333850D01*
X216915Y351678D01*
X248545Y383307D01*
X248549Y383314D01*
X248555Y383318D01*
X248604Y383397D01*
X248656Y383474D01*
X248657Y383482D01*
X248661Y383488D01*
X248693Y383666D01*
X248693Y387008D01*
X251802Y390117D01*
X256198Y390117D01*
X259307Y387008D01*
X259307Y382612D01*
X256198Y379503D01*
X252856Y379503D01*
X252848Y379502D01*
X252840Y379503D01*
X252750Y379482D01*
X252659Y379464D01*
X252653Y379459D01*
X252645Y379457D01*
X252497Y379355D01*
X222653Y349511D01*
X222649Y349504D01*
X222643Y349500D01*
X222594Y349421D01*
X222542Y349344D01*
X222541Y349336D01*
X222537Y349330D01*
X222505Y349152D01*
X222505Y333850D01*
X222506Y333842D01*
X222505Y333835D01*
X222526Y333745D01*
X222544Y333654D01*
X222549Y333647D01*
X222551Y333640D01*
X222653Y333492D01*
X225017Y331128D01*
X225017Y327786D01*
X225018Y327778D01*
X225017Y327770D01*
X225038Y327680D01*
X225056Y327589D01*
X225061Y327583D01*
X225063Y327575D01*
X225165Y327427D01*
X229689Y322903D01*
X229696Y322899D01*
X229700Y322892D01*
X229779Y322844D01*
X229856Y322792D01*
X229864Y322791D01*
X229870Y322787D01*
X230048Y322755D01*
X240847Y322755D01*
X243205Y320397D01*
X243205Y312063D01*
X240847Y309705D01*
X226513Y309705D01*
G37*
%LPD*%
%LPC*%
G36*
X438486Y295895D02*
X438486Y295895D01*
X435378Y299004D01*
X435378Y303400D01*
X437519Y305541D01*
X437523Y305548D01*
X437530Y305552D01*
X437578Y305631D01*
X437630Y305708D01*
X437631Y305716D01*
X437635Y305723D01*
X437667Y305900D01*
X437667Y316936D01*
X437666Y316941D01*
X437667Y316946D01*
X437646Y317039D01*
X437628Y317132D01*
X437625Y317137D01*
X437624Y317142D01*
X437568Y317220D01*
X437515Y317298D01*
X437511Y317301D01*
X437508Y317305D01*
X437426Y317356D01*
X437347Y317408D01*
X437342Y317408D01*
X437337Y317411D01*
X437160Y317443D01*
X435108Y317443D01*
X434215Y318336D01*
X434215Y334600D01*
X435108Y335493D01*
X436717Y335493D01*
X436722Y335494D01*
X436727Y335493D01*
X436820Y335514D01*
X436914Y335532D01*
X436918Y335535D01*
X436923Y335536D01*
X437001Y335592D01*
X437079Y335645D01*
X437082Y335649D01*
X437087Y335652D01*
X437137Y335734D01*
X437189Y335813D01*
X437190Y335818D01*
X437192Y335823D01*
X437224Y336000D01*
X437224Y338416D01*
X437223Y338421D01*
X437224Y338426D01*
X437203Y338519D01*
X437185Y338613D01*
X437182Y338617D01*
X437181Y338622D01*
X437125Y338700D01*
X437072Y338778D01*
X437068Y338781D01*
X437065Y338785D01*
X436983Y338836D01*
X436904Y338888D01*
X436899Y338888D01*
X436894Y338891D01*
X436717Y338923D01*
X436165Y338923D01*
X435272Y339816D01*
X435272Y352080D01*
X436165Y352973D01*
X447429Y352973D01*
X448322Y352080D01*
X448322Y339816D01*
X447429Y338923D01*
X446877Y338923D01*
X446872Y338922D01*
X446867Y338923D01*
X446774Y338902D01*
X446681Y338884D01*
X446676Y338881D01*
X446671Y338880D01*
X446593Y338824D01*
X446515Y338771D01*
X446512Y338767D01*
X446508Y338764D01*
X446457Y338682D01*
X446405Y338603D01*
X446405Y338598D01*
X446402Y338593D01*
X446370Y338416D01*
X446370Y336000D01*
X446371Y335995D01*
X446370Y335990D01*
X446391Y335897D01*
X446409Y335803D01*
X446412Y335799D01*
X446413Y335794D01*
X446469Y335716D01*
X446522Y335638D01*
X446526Y335635D01*
X446529Y335630D01*
X446611Y335580D01*
X446690Y335528D01*
X446695Y335527D01*
X446700Y335525D01*
X446877Y335493D01*
X449372Y335493D01*
X450265Y334600D01*
X450265Y318336D01*
X449372Y317443D01*
X447320Y317443D01*
X447315Y317442D01*
X447310Y317443D01*
X447217Y317422D01*
X447124Y317404D01*
X447119Y317401D01*
X447114Y317400D01*
X447036Y317344D01*
X446958Y317291D01*
X446955Y317287D01*
X446951Y317284D01*
X446900Y317202D01*
X446848Y317123D01*
X446848Y317118D01*
X446845Y317113D01*
X446813Y316936D01*
X446813Y300864D01*
X446140Y300190D01*
X446135Y300184D01*
X446129Y300179D01*
X446080Y300101D01*
X446029Y300024D01*
X446027Y300016D01*
X446023Y300009D01*
X445991Y299832D01*
X445991Y299004D01*
X442883Y295895D01*
X438486Y295895D01*
G37*
%LPD*%
%LPC*%
G36*
X226513Y335105D02*
X226513Y335105D01*
X224155Y337463D01*
X224155Y345797D01*
X226513Y348155D01*
X234772Y348155D01*
X234780Y348156D01*
X234788Y348155D01*
X234878Y348176D01*
X234969Y348194D01*
X234975Y348199D01*
X234983Y348201D01*
X235131Y348303D01*
X239020Y352192D01*
X239024Y352199D01*
X239030Y352203D01*
X239079Y352282D01*
X239131Y352359D01*
X239132Y352367D01*
X239136Y352373D01*
X239168Y352551D01*
X239168Y355893D01*
X242277Y359002D01*
X246673Y359002D01*
X248402Y357273D01*
X248408Y357269D01*
X248413Y357263D01*
X248491Y357214D01*
X248569Y357162D01*
X248576Y357161D01*
X248583Y357157D01*
X248760Y357125D01*
X279936Y357125D01*
X279941Y357126D01*
X279946Y357125D01*
X280039Y357146D01*
X280133Y357164D01*
X280137Y357167D01*
X280142Y357168D01*
X280220Y357224D01*
X280298Y357277D01*
X280301Y357281D01*
X280305Y357284D01*
X280356Y357366D01*
X280408Y357445D01*
X280408Y357450D01*
X280411Y357455D01*
X280443Y357632D01*
X280443Y360338D01*
X283552Y363447D01*
X287948Y363447D01*
X291057Y360338D01*
X291057Y355942D01*
X287948Y352833D01*
X284606Y352833D01*
X284598Y352832D01*
X284590Y352833D01*
X284500Y352812D01*
X284409Y352794D01*
X284403Y352789D01*
X284395Y352787D01*
X284247Y352685D01*
X283098Y351535D01*
X250030Y351535D01*
X250022Y351534D01*
X250015Y351535D01*
X249925Y351514D01*
X249834Y351496D01*
X249827Y351491D01*
X249820Y351489D01*
X249672Y351387D01*
X246673Y348388D01*
X243331Y348388D01*
X243323Y348387D01*
X243315Y348388D01*
X243225Y348367D01*
X243134Y348349D01*
X243128Y348344D01*
X243120Y348342D01*
X242972Y348240D01*
X242226Y347493D01*
X242223Y347489D01*
X242219Y347486D01*
X242167Y347406D01*
X242115Y347326D01*
X242114Y347321D01*
X242111Y347317D01*
X242095Y347223D01*
X242077Y347130D01*
X242078Y347124D01*
X242077Y347119D01*
X242099Y347027D01*
X242119Y346933D01*
X242122Y346929D01*
X242123Y346924D01*
X242226Y346776D01*
X243205Y345797D01*
X243205Y337463D01*
X240847Y335105D01*
X226513Y335105D01*
G37*
%LPD*%
%LPC*%
G36*
X326732Y220753D02*
X326732Y220753D01*
X323623Y223862D01*
X323623Y228258D01*
X325987Y230622D01*
X325991Y230628D01*
X325997Y230633D01*
X326046Y230711D01*
X326098Y230789D01*
X326099Y230796D01*
X326103Y230803D01*
X326135Y230980D01*
X326135Y293530D01*
X326134Y293538D01*
X326135Y293545D01*
X326114Y293635D01*
X326096Y293726D01*
X326091Y293733D01*
X326089Y293740D01*
X325987Y293888D01*
X323623Y296252D01*
X323623Y300648D01*
X326732Y303757D01*
X331128Y303757D01*
X334237Y300648D01*
X334237Y296252D01*
X331873Y293888D01*
X331869Y293882D01*
X331863Y293877D01*
X331814Y293799D01*
X331762Y293721D01*
X331761Y293714D01*
X331757Y293707D01*
X331725Y293530D01*
X331725Y230980D01*
X331726Y230972D01*
X331725Y230965D01*
X331746Y230875D01*
X331764Y230784D01*
X331769Y230777D01*
X331771Y230770D01*
X331873Y230622D01*
X334237Y228258D01*
X334237Y223862D01*
X331128Y220753D01*
X326732Y220753D01*
G37*
%LPD*%
G36*
X363231Y195709D02*
X363231Y195709D01*
X363260Y195706D01*
X363327Y195728D01*
X363397Y195742D01*
X363421Y195759D01*
X363449Y195768D01*
X363502Y195815D01*
X363561Y195855D01*
X363577Y195879D01*
X363599Y195899D01*
X363630Y195963D01*
X363668Y196022D01*
X363673Y196051D01*
X363685Y196077D01*
X363694Y196177D01*
X363701Y196219D01*
X363698Y196229D01*
X363700Y196243D01*
X363468Y199041D01*
X363458Y199075D01*
X363454Y199123D01*
X362765Y201844D01*
X362750Y201876D01*
X362738Y201922D01*
X361610Y204494D01*
X361590Y204522D01*
X361571Y204566D01*
X360035Y206917D01*
X360011Y206941D01*
X359985Y206982D01*
X358083Y209047D01*
X358055Y209068D01*
X358022Y209103D01*
X355807Y210828D01*
X355776Y210843D01*
X355738Y210873D01*
X353268Y212209D01*
X353235Y212219D01*
X353193Y212242D01*
X352007Y212650D01*
X350553Y213149D01*
X350537Y213154D01*
X350503Y213159D01*
X350457Y213174D01*
X347688Y213636D01*
X347653Y213635D01*
X347606Y213643D01*
X344798Y213643D01*
X344764Y213636D01*
X344716Y213636D01*
X341947Y213174D01*
X341914Y213162D01*
X341867Y213154D01*
X339211Y212242D01*
X339181Y212225D01*
X339136Y212209D01*
X336666Y210873D01*
X336640Y210851D01*
X336597Y210828D01*
X334382Y209103D01*
X334359Y209077D01*
X334321Y209047D01*
X332419Y206982D01*
X332401Y206952D01*
X332369Y206917D01*
X330833Y204566D01*
X330820Y204534D01*
X330794Y204494D01*
X329666Y201922D01*
X329659Y201889D01*
X329656Y201882D01*
X329650Y201873D01*
X329649Y201867D01*
X329639Y201844D01*
X328950Y199123D01*
X328948Y199088D01*
X328936Y199041D01*
X328704Y196243D01*
X328708Y196214D01*
X328703Y196185D01*
X328720Y196116D01*
X328728Y196046D01*
X328742Y196020D01*
X328749Y195992D01*
X328791Y195935D01*
X328826Y195873D01*
X328850Y195855D01*
X328867Y195832D01*
X328928Y195796D01*
X328985Y195753D01*
X329013Y195745D01*
X329038Y195730D01*
X329136Y195714D01*
X329177Y195703D01*
X329188Y195705D01*
X329202Y195703D01*
X363202Y195703D01*
X363231Y195709D01*
G37*
G36*
X347640Y478768D02*
X347640Y478768D01*
X347688Y478768D01*
X350457Y479230D01*
X350490Y479242D01*
X350537Y479250D01*
X353193Y480162D01*
X353223Y480179D01*
X353268Y480195D01*
X355738Y481531D01*
X355764Y481553D01*
X355807Y481576D01*
X358022Y483301D01*
X358045Y483327D01*
X358083Y483357D01*
X359985Y485422D01*
X360003Y485452D01*
X360035Y485487D01*
X361571Y487838D01*
X361584Y487870D01*
X361610Y487910D01*
X362738Y490482D01*
X362745Y490515D01*
X362765Y490560D01*
X363454Y493281D01*
X363456Y493316D01*
X363468Y493363D01*
X363700Y496161D01*
X363696Y496190D01*
X363701Y496219D01*
X363685Y496288D01*
X363676Y496358D01*
X363662Y496384D01*
X363655Y496412D01*
X363613Y496469D01*
X363578Y496531D01*
X363554Y496549D01*
X363537Y496572D01*
X363476Y496608D01*
X363419Y496651D01*
X363391Y496659D01*
X363366Y496674D01*
X363268Y496690D01*
X363227Y496701D01*
X363216Y496699D01*
X363202Y496701D01*
X329202Y496701D01*
X329173Y496695D01*
X329144Y496698D01*
X329077Y496676D01*
X329007Y496662D01*
X328983Y496645D01*
X328955Y496636D01*
X328902Y496589D01*
X328843Y496549D01*
X328828Y496525D01*
X328806Y496505D01*
X328774Y496441D01*
X328736Y496382D01*
X328731Y496353D01*
X328719Y496327D01*
X328710Y496227D01*
X328703Y496185D01*
X328706Y496175D01*
X328704Y496161D01*
X328936Y493363D01*
X328946Y493329D01*
X328950Y493281D01*
X329639Y490560D01*
X329654Y490528D01*
X329666Y490482D01*
X330794Y487910D01*
X330814Y487882D01*
X330833Y487838D01*
X332369Y485487D01*
X332393Y485463D01*
X332419Y485422D01*
X334321Y483357D01*
X334349Y483336D01*
X334382Y483301D01*
X336597Y481576D01*
X336628Y481561D01*
X336666Y481531D01*
X339136Y480195D01*
X339169Y480185D01*
X339211Y480162D01*
X341867Y479250D01*
X341901Y479246D01*
X341947Y479230D01*
X344716Y478768D01*
X344751Y478769D01*
X344798Y478761D01*
X347606Y478761D01*
X347640Y478768D01*
G37*
G36*
X224809Y256012D02*
X224809Y256012D01*
X224880Y256009D01*
X224907Y256019D01*
X224936Y256021D01*
X225026Y256063D01*
X225066Y256078D01*
X225074Y256086D01*
X225087Y256092D01*
X227390Y257691D01*
X227414Y257717D01*
X227454Y257744D01*
X229463Y259701D01*
X229482Y259730D01*
X229517Y259763D01*
X231176Y262024D01*
X231191Y262055D01*
X231220Y262094D01*
X232484Y264597D01*
X232493Y264631D01*
X232515Y264674D01*
X233351Y267351D01*
X233354Y267385D01*
X233369Y267431D01*
X233752Y270210D01*
X233750Y270244D01*
X233756Y270292D01*
X233677Y273095D01*
X233669Y273129D01*
X233668Y273177D01*
X233129Y275929D01*
X233115Y275961D01*
X233106Y276009D01*
X232121Y278634D01*
X232106Y278659D01*
X232101Y278679D01*
X232093Y278690D01*
X232086Y278709D01*
X230682Y281137D01*
X230659Y281163D01*
X230635Y281205D01*
X228851Y283368D01*
X228824Y283390D01*
X228793Y283427D01*
X226677Y285268D01*
X226647Y285285D01*
X226611Y285317D01*
X224220Y286784D01*
X224188Y286795D01*
X224147Y286821D01*
X221548Y287874D01*
X221514Y287881D01*
X221469Y287899D01*
X218732Y288510D01*
X218697Y288511D01*
X218650Y288522D01*
X215850Y288674D01*
X215816Y288669D01*
X215768Y288672D01*
X212980Y288362D01*
X212947Y288351D01*
X212899Y288346D01*
X210201Y287581D01*
X210171Y287565D01*
X210124Y287552D01*
X207589Y286353D01*
X207565Y286336D01*
X207538Y286326D01*
X207486Y286277D01*
X207429Y286234D01*
X207415Y286209D01*
X207394Y286189D01*
X207365Y286124D01*
X207329Y286063D01*
X207326Y286034D01*
X207314Y286007D01*
X207313Y285936D01*
X207304Y285865D01*
X207312Y285837D01*
X207312Y285808D01*
X207346Y285715D01*
X207358Y285674D01*
X207365Y285665D01*
X207370Y285652D01*
X224370Y256252D01*
X224389Y256230D01*
X224402Y256204D01*
X224455Y256156D01*
X224502Y256103D01*
X224528Y256091D01*
X224550Y256071D01*
X224617Y256048D01*
X224681Y256018D01*
X224710Y256016D01*
X224738Y256007D01*
X224809Y256012D01*
G37*
G36*
X476588Y403735D02*
X476588Y403735D01*
X476636Y403732D01*
X479424Y404042D01*
X479457Y404053D01*
X479505Y404058D01*
X482203Y404823D01*
X482233Y404839D01*
X482280Y404852D01*
X484815Y406051D01*
X484839Y406068D01*
X484866Y406078D01*
X484918Y406127D01*
X484975Y406170D01*
X484989Y406195D01*
X485011Y406215D01*
X485039Y406280D01*
X485075Y406342D01*
X485078Y406370D01*
X485090Y406397D01*
X485091Y406468D01*
X485100Y406539D01*
X485092Y406567D01*
X485092Y406596D01*
X485058Y406689D01*
X485046Y406730D01*
X485039Y406739D01*
X485034Y406752D01*
X468034Y436152D01*
X468015Y436174D01*
X468002Y436200D01*
X467949Y436248D01*
X467902Y436301D01*
X467876Y436313D01*
X467854Y436333D01*
X467787Y436356D01*
X467723Y436386D01*
X467694Y436388D01*
X467666Y436397D01*
X467595Y436392D01*
X467524Y436395D01*
X467497Y436385D01*
X467468Y436383D01*
X467378Y436341D01*
X467338Y436326D01*
X467330Y436318D01*
X467317Y436312D01*
X465014Y434713D01*
X464990Y434688D01*
X464950Y434660D01*
X462941Y432703D01*
X462922Y432674D01*
X462887Y432641D01*
X461228Y430380D01*
X461213Y430349D01*
X461184Y430310D01*
X459920Y427807D01*
X459911Y427773D01*
X459889Y427730D01*
X459053Y425053D01*
X459050Y425019D01*
X459035Y424973D01*
X458652Y422194D01*
X458654Y422160D01*
X458648Y422112D01*
X458727Y419309D01*
X458735Y419275D01*
X458736Y419227D01*
X459275Y416475D01*
X459289Y416443D01*
X459298Y416395D01*
X460283Y413770D01*
X460301Y413740D01*
X460318Y413695D01*
X461722Y411267D01*
X461745Y411241D01*
X461769Y411200D01*
X463553Y409036D01*
X463580Y409014D01*
X463611Y408977D01*
X465727Y407136D01*
X465757Y407119D01*
X465793Y407088D01*
X468184Y405620D01*
X468216Y405609D01*
X468257Y405583D01*
X470856Y404530D01*
X470890Y404523D01*
X470935Y404505D01*
X473672Y403894D01*
X473707Y403893D01*
X473754Y403882D01*
X476554Y403730D01*
X476588Y403735D01*
G37*
G36*
X467628Y256013D02*
X467628Y256013D01*
X467699Y256012D01*
X467726Y256023D01*
X467755Y256027D01*
X467817Y256061D01*
X467882Y256089D01*
X467903Y256110D01*
X467928Y256124D01*
X467991Y256200D01*
X468021Y256231D01*
X468025Y256241D01*
X468034Y256252D01*
X485034Y285652D01*
X485043Y285680D01*
X485060Y285704D01*
X485075Y285773D01*
X485097Y285841D01*
X485095Y285870D01*
X485101Y285898D01*
X485088Y285968D01*
X485082Y286039D01*
X485069Y286065D01*
X485063Y286093D01*
X485023Y286152D01*
X484991Y286215D01*
X484968Y286234D01*
X484952Y286258D01*
X484870Y286315D01*
X484837Y286342D01*
X484827Y286345D01*
X484815Y286353D01*
X482280Y287552D01*
X482246Y287560D01*
X482203Y287581D01*
X479505Y288346D01*
X479470Y288348D01*
X479424Y288362D01*
X476636Y288672D01*
X476602Y288669D01*
X476554Y288674D01*
X473754Y288522D01*
X473720Y288513D01*
X473672Y288510D01*
X470935Y287899D01*
X470903Y287885D01*
X470856Y287874D01*
X468257Y286821D01*
X468228Y286802D01*
X468184Y286784D01*
X465793Y285317D01*
X465768Y285293D01*
X465727Y285268D01*
X463611Y283427D01*
X463590Y283400D01*
X463553Y283368D01*
X461769Y281205D01*
X461753Y281174D01*
X461722Y281137D01*
X460318Y278709D01*
X460307Y278676D01*
X460300Y278663D01*
X460290Y278649D01*
X460290Y278646D01*
X460283Y278634D01*
X459298Y276009D01*
X459292Y275974D01*
X459275Y275929D01*
X458736Y273177D01*
X458736Y273143D01*
X458727Y273095D01*
X458648Y270292D01*
X458654Y270258D01*
X458652Y270210D01*
X459035Y267431D01*
X459047Y267399D01*
X459053Y267351D01*
X459889Y264674D01*
X459906Y264643D01*
X459920Y264597D01*
X461184Y262094D01*
X461206Y262067D01*
X461228Y262024D01*
X462887Y259763D01*
X462913Y259740D01*
X462941Y259701D01*
X464950Y257744D01*
X464979Y257725D01*
X465014Y257691D01*
X467317Y256092D01*
X467344Y256080D01*
X467367Y256062D01*
X467435Y256041D01*
X467500Y256013D01*
X467529Y256013D01*
X467557Y256005D01*
X467628Y256013D01*
G37*
G36*
X218650Y403882D02*
X218650Y403882D01*
X218684Y403891D01*
X218732Y403894D01*
X221469Y404505D01*
X221501Y404519D01*
X221548Y404530D01*
X224147Y405583D01*
X224176Y405602D01*
X224220Y405620D01*
X226611Y407088D01*
X226636Y407111D01*
X226677Y407136D01*
X228793Y408977D01*
X228814Y409004D01*
X228851Y409036D01*
X230635Y411200D01*
X230651Y411230D01*
X230682Y411267D01*
X232086Y413695D01*
X232097Y413728D01*
X232121Y413770D01*
X233106Y416395D01*
X233112Y416430D01*
X233129Y416475D01*
X233668Y419227D01*
X233668Y419262D01*
X233677Y419309D01*
X233756Y422112D01*
X233751Y422146D01*
X233752Y422194D01*
X233369Y424973D01*
X233357Y425005D01*
X233351Y425053D01*
X232515Y427730D01*
X232498Y427761D01*
X232484Y427807D01*
X231220Y430310D01*
X231198Y430337D01*
X231176Y430380D01*
X229517Y432641D01*
X229491Y432664D01*
X229463Y432703D01*
X227454Y434660D01*
X227425Y434679D01*
X227390Y434713D01*
X225087Y436312D01*
X225060Y436324D01*
X225037Y436342D01*
X224969Y436363D01*
X224904Y436391D01*
X224875Y436391D01*
X224847Y436399D01*
X224776Y436391D01*
X224705Y436392D01*
X224678Y436381D01*
X224649Y436377D01*
X224587Y436343D01*
X224522Y436315D01*
X224501Y436294D01*
X224476Y436280D01*
X224413Y436204D01*
X224383Y436173D01*
X224379Y436163D01*
X224370Y436152D01*
X207370Y406752D01*
X207361Y406724D01*
X207344Y406700D01*
X207329Y406631D01*
X207307Y406563D01*
X207309Y406534D01*
X207303Y406506D01*
X207316Y406436D01*
X207322Y406365D01*
X207335Y406339D01*
X207341Y406311D01*
X207381Y406252D01*
X207413Y406189D01*
X207436Y406170D01*
X207452Y406146D01*
X207534Y406089D01*
X207567Y406062D01*
X207577Y406059D01*
X207589Y406051D01*
X210124Y404852D01*
X210158Y404844D01*
X210201Y404823D01*
X212899Y404058D01*
X212934Y404056D01*
X212980Y404042D01*
X215768Y403732D01*
X215802Y403735D01*
X215850Y403730D01*
X218650Y403882D01*
G37*
%LPC*%
G36*
X467094Y307503D02*
X467094Y307503D01*
X463986Y310612D01*
X463986Y315008D01*
X464571Y315594D01*
X464576Y315600D01*
X464582Y315605D01*
X464631Y315683D01*
X464682Y315761D01*
X464684Y315768D01*
X464688Y315775D01*
X464720Y315952D01*
X464720Y316311D01*
X464718Y316319D01*
X464719Y316327D01*
X464698Y316417D01*
X464680Y316508D01*
X464676Y316514D01*
X464674Y316522D01*
X464571Y316670D01*
X463947Y317295D01*
X463940Y317299D01*
X463935Y317305D01*
X463857Y317354D01*
X463780Y317406D01*
X463772Y317407D01*
X463765Y317411D01*
X463588Y317443D01*
X454108Y317443D01*
X453215Y318336D01*
X453215Y334600D01*
X454108Y335493D01*
X468372Y335493D01*
X469265Y334600D01*
X469265Y325120D01*
X469266Y325112D01*
X469265Y325105D01*
X469286Y325015D01*
X469304Y324924D01*
X469309Y324917D01*
X469311Y324909D01*
X469413Y324761D01*
X473865Y320310D01*
X473865Y315952D01*
X473867Y315944D01*
X473865Y315937D01*
X473886Y315847D01*
X473905Y315756D01*
X473909Y315749D01*
X473911Y315742D01*
X474014Y315594D01*
X474599Y315008D01*
X474599Y310612D01*
X471491Y307503D01*
X467094Y307503D01*
G37*
%LPD*%
%LPC*%
G36*
X269468Y277455D02*
X269468Y277455D01*
X268575Y278348D01*
X268575Y290612D01*
X269468Y291505D01*
X271780Y291505D01*
X271785Y291506D01*
X271790Y291505D01*
X271883Y291526D01*
X271977Y291544D01*
X271981Y291547D01*
X271986Y291548D01*
X272064Y291604D01*
X272142Y291657D01*
X272145Y291661D01*
X272149Y291664D01*
X272200Y291746D01*
X272252Y291825D01*
X272252Y291830D01*
X272255Y291835D01*
X272287Y292012D01*
X272287Y298888D01*
X272286Y298893D01*
X272287Y298898D01*
X272266Y298991D01*
X272248Y299085D01*
X272245Y299089D01*
X272244Y299094D01*
X272188Y299172D01*
X272135Y299250D01*
X272131Y299253D01*
X272128Y299257D01*
X272046Y299308D01*
X271967Y299360D01*
X271962Y299360D01*
X271957Y299363D01*
X271780Y299395D01*
X270958Y299395D01*
X270065Y300288D01*
X270065Y309552D01*
X270958Y310445D01*
X280222Y310445D01*
X281115Y309552D01*
X281115Y300288D01*
X280222Y299395D01*
X279400Y299395D01*
X279395Y299394D01*
X279390Y299395D01*
X279297Y299374D01*
X279203Y299356D01*
X279199Y299353D01*
X279194Y299352D01*
X279116Y299296D01*
X279038Y299243D01*
X279035Y299239D01*
X279031Y299236D01*
X278980Y299154D01*
X278928Y299075D01*
X278928Y299070D01*
X278925Y299065D01*
X278893Y298888D01*
X278893Y292012D01*
X278894Y292007D01*
X278893Y292002D01*
X278914Y291909D01*
X278932Y291815D01*
X278935Y291811D01*
X278936Y291806D01*
X278992Y291728D01*
X279045Y291650D01*
X279049Y291647D01*
X279052Y291643D01*
X279134Y291592D01*
X279213Y291540D01*
X279218Y291540D01*
X279223Y291537D01*
X279400Y291505D01*
X280732Y291505D01*
X281625Y290612D01*
X281625Y278348D01*
X280732Y277455D01*
X269468Y277455D01*
G37*
%LPD*%
%LPC*%
G36*
X476592Y366803D02*
X476592Y366803D01*
X473483Y369912D01*
X473483Y374308D01*
X474564Y375389D01*
X474567Y375393D01*
X474571Y375396D01*
X474622Y375477D01*
X474675Y375556D01*
X474676Y375561D01*
X474679Y375565D01*
X474695Y375659D01*
X474713Y375753D01*
X474711Y375758D01*
X474712Y375763D01*
X474691Y375856D01*
X474671Y375949D01*
X474668Y375953D01*
X474667Y375958D01*
X474564Y376106D01*
X472265Y378405D01*
X472265Y392739D01*
X474623Y395097D01*
X482957Y395097D01*
X485315Y392739D01*
X485315Y378405D01*
X483016Y376106D01*
X483013Y376102D01*
X483009Y376099D01*
X482958Y376018D01*
X482905Y375939D01*
X482904Y375934D01*
X482901Y375930D01*
X482885Y375836D01*
X482867Y375742D01*
X482869Y375737D01*
X482868Y375732D01*
X482889Y375640D01*
X482909Y375546D01*
X482912Y375542D01*
X482913Y375537D01*
X483016Y375389D01*
X484097Y374308D01*
X484097Y369912D01*
X480988Y366803D01*
X476592Y366803D01*
G37*
%LPD*%
%LPC*%
G36*
X385722Y464593D02*
X385722Y464593D01*
X382614Y467702D01*
X382614Y472266D01*
X382613Y472271D01*
X382614Y472276D01*
X382593Y472369D01*
X382574Y472463D01*
X382571Y472467D01*
X382570Y472472D01*
X382515Y472550D01*
X382461Y472628D01*
X382457Y472631D01*
X382454Y472636D01*
X382373Y472686D01*
X382293Y472738D01*
X382288Y472739D01*
X382284Y472741D01*
X382106Y472773D01*
X380183Y472773D01*
X377825Y475131D01*
X377825Y483465D01*
X380183Y485823D01*
X394517Y485823D01*
X396875Y483465D01*
X396875Y475131D01*
X394517Y472773D01*
X393734Y472773D01*
X393729Y472772D01*
X393724Y472773D01*
X393631Y472752D01*
X393538Y472734D01*
X393533Y472731D01*
X393528Y472730D01*
X393451Y472674D01*
X393372Y472621D01*
X393369Y472617D01*
X393365Y472614D01*
X393314Y472532D01*
X393263Y472453D01*
X393262Y472448D01*
X393259Y472443D01*
X393227Y472266D01*
X393227Y467702D01*
X390118Y464593D01*
X385722Y464593D01*
G37*
%LPD*%
%LPC*%
G36*
X270958Y314395D02*
X270958Y314395D01*
X270065Y315288D01*
X270065Y324552D01*
X270958Y325445D01*
X275515Y325445D01*
X275523Y325446D01*
X275531Y325445D01*
X275621Y325466D01*
X275712Y325484D01*
X275718Y325489D01*
X275726Y325491D01*
X275874Y325593D01*
X280295Y330014D01*
X280299Y330020D01*
X280305Y330025D01*
X280354Y330104D01*
X280406Y330181D01*
X280407Y330189D01*
X280411Y330195D01*
X280443Y330373D01*
X280443Y332398D01*
X283552Y335507D01*
X287948Y335507D01*
X291057Y332398D01*
X291057Y328002D01*
X287948Y324893D01*
X286163Y324893D01*
X286155Y324892D01*
X286147Y324893D01*
X286057Y324872D01*
X285966Y324854D01*
X285960Y324849D01*
X285952Y324847D01*
X285804Y324745D01*
X281263Y320204D01*
X281259Y320198D01*
X281253Y320193D01*
X281204Y320114D01*
X281152Y320037D01*
X281151Y320029D01*
X281147Y320023D01*
X281115Y319845D01*
X281115Y315288D01*
X280222Y314395D01*
X270958Y314395D01*
G37*
%LPD*%
%LPC*%
G36*
X286468Y277455D02*
X286468Y277455D01*
X285575Y278348D01*
X285575Y290612D01*
X286468Y291505D01*
X297732Y291505D01*
X298625Y290612D01*
X298625Y290294D01*
X298626Y290289D01*
X298625Y290284D01*
X298646Y290190D01*
X298664Y290097D01*
X298667Y290093D01*
X298668Y290088D01*
X298724Y290010D01*
X298777Y289932D01*
X298781Y289929D01*
X298784Y289925D01*
X298866Y289874D01*
X298945Y289822D01*
X298950Y289822D01*
X298955Y289819D01*
X299132Y289787D01*
X301918Y289787D01*
X305027Y286678D01*
X305027Y282282D01*
X301918Y279173D01*
X299132Y279173D01*
X299127Y279172D01*
X299122Y279173D01*
X299029Y279152D01*
X298935Y279134D01*
X298931Y279131D01*
X298926Y279130D01*
X298848Y279074D01*
X298770Y279021D01*
X298767Y279017D01*
X298763Y279014D01*
X298712Y278932D01*
X298660Y278853D01*
X298660Y278848D01*
X298657Y278843D01*
X298625Y278666D01*
X298625Y278348D01*
X297732Y277455D01*
X286468Y277455D01*
G37*
%LPD*%
D10*
X442240Y326468D03*
X461240Y326468D03*
D11*
X441797Y345948D03*
X458797Y345948D03*
D12*
X392850Y476798D02*
X381850Y476798D01*
X381850Y481798D01*
X392850Y481798D01*
X392850Y476798D01*
X392850Y481548D02*
X381850Y481548D01*
X481290Y391072D02*
X481290Y380072D01*
X476290Y380072D01*
X476290Y391072D01*
X481290Y391072D01*
X481290Y384822D02*
X476290Y384822D01*
X476290Y389572D02*
X481290Y389572D01*
D13*
X428802Y489302D03*
X511402Y346202D03*
X428802Y203102D03*
X263602Y203102D03*
X181002Y346202D03*
X263602Y489302D03*
X470102Y417702D03*
X470102Y274702D03*
X346202Y203102D03*
X222302Y274702D03*
X222302Y417702D03*
X346202Y489302D03*
D12*
X239180Y313730D02*
X228180Y313730D01*
X228180Y318730D01*
X239180Y318730D01*
X239180Y313730D01*
X239180Y318480D02*
X228180Y318480D01*
X228180Y339130D02*
X239180Y339130D01*
X228180Y339130D02*
X228180Y344130D01*
X239180Y344130D01*
X239180Y339130D01*
X239180Y343880D02*
X228180Y343880D01*
D11*
X275100Y284480D03*
X292100Y284480D03*
D14*
X275590Y304920D03*
X275590Y319920D03*
D15*
X285750Y330080D01*
X285750Y330200D01*
D16*
X285750Y330200D03*
X271780Y259080D03*
X393700Y238760D03*
X438150Y368300D03*
X269240Y414020D03*
X406400Y449950D03*
D17*
X441797Y345948D02*
X441797Y326911D01*
X442240Y326468D01*
X442240Y302758D01*
X440684Y301202D01*
D16*
X440684Y301202D03*
X469292Y312810D03*
D17*
X469292Y318416D01*
X461240Y326468D01*
D16*
X254000Y384810D03*
D18*
X219710Y350520D01*
X219710Y328930D01*
X232410Y316230D01*
X233680Y316230D01*
D16*
X219710Y328930D03*
X285750Y358140D03*
D18*
X281940Y354330D01*
X245110Y354330D01*
X244475Y353695D01*
X233680Y342900D01*
X233680Y341630D01*
D16*
X244475Y353695D03*
D19*
X275590Y304920D02*
X275590Y284970D01*
X275100Y284480D01*
D18*
X387350Y470470D02*
X387350Y479298D01*
X387350Y470470D02*
X387920Y469900D01*
D16*
X387920Y469900D03*
D19*
X478790Y385572D02*
X478790Y372110D01*
D16*
X478790Y372110D03*
X454660Y410210D03*
D18*
X457200Y410210D01*
X464692Y417702D02*
X470102Y417702D01*
X464692Y417702D02*
X457200Y410210D01*
D16*
X441960Y280670D03*
D18*
X464134Y280670D01*
X470102Y274702D01*
D16*
X241300Y280670D03*
D18*
X235332Y274702D01*
X222302Y274702D01*
D16*
X311150Y298450D03*
D18*
X311150Y227330D01*
X335378Y203102D02*
X346202Y203102D01*
X335378Y203102D02*
X311150Y227330D01*
D16*
X231140Y397510D03*
D18*
X222302Y406348D01*
X222302Y417702D01*
D16*
X358140Y474980D03*
D18*
X346202Y486918D01*
X346202Y489302D01*
D16*
X328930Y298450D03*
D18*
X328930Y226060D01*
D16*
X328930Y226060D03*
X299720Y284480D03*
D18*
X292100Y284480D01*
M02*
