G04 EAGLE Gerber RS-274X export*
G75*
%MOMM*%
%FSLAX34Y34*%
%LPD*%
%INSilkscreen Bottom*%
%IPPOS*%
%AMOC8*
5,1,8,0,0,1.08239X$1,22.5*%
G01*
%ADD10C,0.152400*%
%ADD11C,0.101600*%
%ADD12C,0.076200*%
%ADD13C,0.500000*%
%ADD14C,0.120000*%
%ADD15C,0.254000*%
%ADD16C,0.127000*%


D10*
X375638Y479778D02*
X370699Y479778D01*
X370559Y479776D01*
X370420Y479770D01*
X370280Y479760D01*
X370141Y479746D01*
X370002Y479729D01*
X369864Y479707D01*
X369727Y479681D01*
X369590Y479652D01*
X369454Y479619D01*
X369320Y479582D01*
X369186Y479541D01*
X369054Y479496D01*
X368922Y479447D01*
X368793Y479395D01*
X368665Y479340D01*
X368538Y479280D01*
X368413Y479217D01*
X368290Y479151D01*
X368169Y479081D01*
X368050Y479008D01*
X367933Y478931D01*
X367819Y478851D01*
X367706Y478768D01*
X367596Y478682D01*
X367489Y478592D01*
X367384Y478500D01*
X367282Y478405D01*
X367182Y478307D01*
X367085Y478206D01*
X366991Y478102D01*
X366901Y477996D01*
X366813Y477887D01*
X366728Y477776D01*
X366647Y477662D01*
X366568Y477547D01*
X366493Y477429D01*
X366422Y477309D01*
X366354Y477186D01*
X366289Y477063D01*
X366228Y476937D01*
X366170Y476809D01*
X366116Y476681D01*
X366066Y476550D01*
X366019Y476418D01*
X365976Y476285D01*
X365937Y476151D01*
X365902Y476016D01*
X365871Y475880D01*
X365843Y475742D01*
X365820Y475605D01*
X365800Y475466D01*
X365784Y475327D01*
X365772Y475188D01*
X365764Y475049D01*
X365760Y474909D01*
X365760Y474769D01*
X365764Y474629D01*
X365772Y474490D01*
X365784Y474351D01*
X365800Y474212D01*
X365820Y474073D01*
X365843Y473936D01*
X365871Y473798D01*
X365902Y473662D01*
X365937Y473527D01*
X365976Y473393D01*
X366019Y473260D01*
X366066Y473128D01*
X366116Y472997D01*
X366170Y472869D01*
X366228Y472741D01*
X366289Y472615D01*
X366354Y472492D01*
X366422Y472370D01*
X366493Y472249D01*
X366568Y472131D01*
X366647Y472016D01*
X366728Y471902D01*
X366813Y471791D01*
X366901Y471682D01*
X366991Y471576D01*
X367085Y471472D01*
X367182Y471371D01*
X367282Y471273D01*
X367384Y471178D01*
X367489Y471086D01*
X367596Y470996D01*
X367706Y470910D01*
X367819Y470827D01*
X367933Y470747D01*
X368050Y470670D01*
X368169Y470597D01*
X368290Y470527D01*
X368413Y470461D01*
X368538Y470398D01*
X368665Y470338D01*
X368793Y470283D01*
X368922Y470231D01*
X369054Y470182D01*
X369186Y470137D01*
X369320Y470096D01*
X369454Y470059D01*
X369590Y470026D01*
X369727Y469997D01*
X369864Y469971D01*
X370002Y469949D01*
X370141Y469932D01*
X370280Y469918D01*
X370420Y469908D01*
X370559Y469902D01*
X370699Y469900D01*
X375638Y469900D01*
X375638Y487680D01*
X370699Y487680D01*
X370575Y487678D01*
X370451Y487672D01*
X370327Y487662D01*
X370204Y487649D01*
X370081Y487631D01*
X369959Y487610D01*
X369837Y487585D01*
X369716Y487556D01*
X369597Y487523D01*
X369478Y487487D01*
X369361Y487446D01*
X369245Y487403D01*
X369130Y487355D01*
X369017Y487304D01*
X368905Y487249D01*
X368796Y487191D01*
X368688Y487130D01*
X368582Y487065D01*
X368478Y486997D01*
X368377Y486925D01*
X368277Y486851D01*
X368181Y486773D01*
X368086Y486693D01*
X367994Y486609D01*
X367905Y486523D01*
X367819Y486434D01*
X367735Y486342D01*
X367655Y486247D01*
X367577Y486151D01*
X367503Y486051D01*
X367431Y485950D01*
X367363Y485846D01*
X367298Y485740D01*
X367237Y485632D01*
X367179Y485523D01*
X367124Y485411D01*
X367073Y485298D01*
X367025Y485183D01*
X366982Y485067D01*
X366941Y484950D01*
X366905Y484831D01*
X366872Y484712D01*
X366843Y484591D01*
X366818Y484469D01*
X366797Y484347D01*
X366779Y484224D01*
X366766Y484101D01*
X366756Y483977D01*
X366750Y483853D01*
X366748Y483729D01*
X366750Y483605D01*
X366756Y483481D01*
X366766Y483357D01*
X366779Y483234D01*
X366797Y483111D01*
X366818Y482989D01*
X366843Y482867D01*
X366872Y482746D01*
X366905Y482627D01*
X366941Y482508D01*
X366982Y482391D01*
X367025Y482275D01*
X367073Y482160D01*
X367124Y482047D01*
X367179Y481935D01*
X367237Y481826D01*
X367298Y481718D01*
X367363Y481612D01*
X367431Y481508D01*
X367503Y481407D01*
X367577Y481307D01*
X367655Y481211D01*
X367735Y481116D01*
X367819Y481024D01*
X367905Y480935D01*
X367994Y480849D01*
X368086Y480765D01*
X368181Y480685D01*
X368277Y480607D01*
X368377Y480533D01*
X368478Y480461D01*
X368582Y480393D01*
X368688Y480328D01*
X368796Y480267D01*
X368905Y480209D01*
X369017Y480154D01*
X369130Y480103D01*
X369245Y480055D01*
X369361Y480012D01*
X369478Y479971D01*
X369597Y479935D01*
X369716Y479902D01*
X369837Y479873D01*
X369959Y479848D01*
X370081Y479827D01*
X370204Y479809D01*
X370327Y479796D01*
X370451Y479786D01*
X370575Y479780D01*
X370699Y479778D01*
X496034Y382778D02*
X496034Y364998D01*
X496034Y382778D02*
X491095Y382778D01*
X490955Y382776D01*
X490816Y382770D01*
X490676Y382760D01*
X490537Y382746D01*
X490398Y382729D01*
X490260Y382707D01*
X490123Y382681D01*
X489986Y382652D01*
X489850Y382619D01*
X489716Y382582D01*
X489582Y382541D01*
X489450Y382496D01*
X489318Y382447D01*
X489189Y382395D01*
X489061Y382340D01*
X488934Y382280D01*
X488809Y382217D01*
X488686Y382151D01*
X488565Y382081D01*
X488446Y382008D01*
X488329Y381931D01*
X488215Y381851D01*
X488102Y381768D01*
X487992Y381682D01*
X487885Y381592D01*
X487780Y381500D01*
X487678Y381405D01*
X487578Y381307D01*
X487481Y381206D01*
X487387Y381102D01*
X487297Y380996D01*
X487209Y380887D01*
X487124Y380776D01*
X487043Y380662D01*
X486964Y380547D01*
X486889Y380429D01*
X486818Y380309D01*
X486750Y380186D01*
X486685Y380063D01*
X486624Y379937D01*
X486566Y379809D01*
X486512Y379681D01*
X486462Y379550D01*
X486415Y379418D01*
X486372Y379285D01*
X486333Y379151D01*
X486298Y379016D01*
X486267Y378880D01*
X486239Y378742D01*
X486216Y378605D01*
X486196Y378466D01*
X486180Y378327D01*
X486168Y378188D01*
X486160Y378049D01*
X486156Y377909D01*
X486156Y377769D01*
X486160Y377629D01*
X486168Y377490D01*
X486180Y377351D01*
X486196Y377212D01*
X486216Y377073D01*
X486239Y376936D01*
X486267Y376798D01*
X486298Y376662D01*
X486333Y376527D01*
X486372Y376393D01*
X486415Y376260D01*
X486462Y376128D01*
X486512Y375997D01*
X486566Y375869D01*
X486624Y375741D01*
X486685Y375615D01*
X486750Y375492D01*
X486818Y375370D01*
X486889Y375249D01*
X486964Y375131D01*
X487043Y375016D01*
X487124Y374902D01*
X487209Y374791D01*
X487297Y374682D01*
X487387Y374576D01*
X487481Y374472D01*
X487578Y374371D01*
X487678Y374273D01*
X487780Y374178D01*
X487885Y374086D01*
X487992Y373996D01*
X488102Y373910D01*
X488215Y373827D01*
X488329Y373747D01*
X488446Y373670D01*
X488565Y373597D01*
X488686Y373527D01*
X488809Y373461D01*
X488934Y373398D01*
X489061Y373338D01*
X489189Y373283D01*
X489318Y373231D01*
X489450Y373182D01*
X489582Y373137D01*
X489716Y373096D01*
X489850Y373059D01*
X489986Y373026D01*
X490123Y372997D01*
X490260Y372971D01*
X490398Y372949D01*
X490537Y372932D01*
X490676Y372918D01*
X490816Y372908D01*
X490955Y372902D01*
X491095Y372900D01*
X496034Y372900D01*
X490107Y372900D02*
X486156Y364998D01*
X254988Y327660D02*
X254988Y309880D01*
X254988Y327660D02*
X250049Y327660D01*
X249910Y327658D01*
X249772Y327652D01*
X249634Y327643D01*
X249496Y327629D01*
X249359Y327612D01*
X249222Y327590D01*
X249085Y327565D01*
X248950Y327536D01*
X248815Y327503D01*
X248682Y327467D01*
X248549Y327427D01*
X248418Y327383D01*
X248288Y327335D01*
X248159Y327284D01*
X248032Y327229D01*
X247906Y327171D01*
X247782Y327109D01*
X247660Y327044D01*
X247540Y326975D01*
X247421Y326903D01*
X247305Y326828D01*
X247191Y326749D01*
X247079Y326667D01*
X246970Y326582D01*
X246862Y326495D01*
X246758Y326404D01*
X246656Y326310D01*
X246557Y326213D01*
X246460Y326114D01*
X246366Y326012D01*
X246275Y325908D01*
X246188Y325800D01*
X246103Y325691D01*
X246021Y325579D01*
X245942Y325465D01*
X245867Y325349D01*
X245795Y325230D01*
X245726Y325110D01*
X245661Y324988D01*
X245599Y324864D01*
X245541Y324738D01*
X245486Y324611D01*
X245435Y324482D01*
X245387Y324352D01*
X245343Y324221D01*
X245303Y324088D01*
X245267Y323955D01*
X245234Y323820D01*
X245205Y323685D01*
X245180Y323548D01*
X245158Y323411D01*
X245141Y323274D01*
X245127Y323136D01*
X245118Y322998D01*
X245112Y322860D01*
X245110Y322721D01*
X245110Y314819D01*
X245112Y314680D01*
X245118Y314542D01*
X245127Y314404D01*
X245141Y314266D01*
X245158Y314129D01*
X245180Y313992D01*
X245205Y313855D01*
X245234Y313720D01*
X245267Y313585D01*
X245303Y313452D01*
X245343Y313319D01*
X245387Y313188D01*
X245435Y313058D01*
X245486Y312929D01*
X245541Y312802D01*
X245599Y312676D01*
X245661Y312552D01*
X245726Y312430D01*
X245795Y312310D01*
X245867Y312191D01*
X245942Y312075D01*
X246021Y311961D01*
X246103Y311849D01*
X246188Y311740D01*
X246275Y311632D01*
X246366Y311528D01*
X246460Y311426D01*
X246557Y311327D01*
X246656Y311230D01*
X246758Y311136D01*
X246862Y311045D01*
X246970Y310958D01*
X247079Y310873D01*
X247191Y310791D01*
X247305Y310712D01*
X247421Y310637D01*
X247540Y310565D01*
X247660Y310496D01*
X247782Y310431D01*
X247906Y310369D01*
X248032Y310311D01*
X248159Y310256D01*
X248288Y310205D01*
X248418Y310157D01*
X248549Y310113D01*
X248682Y310073D01*
X248815Y310037D01*
X248950Y310004D01*
X249085Y309975D01*
X249222Y309950D01*
X249359Y309928D01*
X249496Y309911D01*
X249634Y309897D01*
X249772Y309888D01*
X249910Y309882D01*
X250049Y309880D01*
X254988Y309880D01*
X250557Y334010D02*
X246606Y334010D01*
X250557Y334010D02*
X250681Y334012D01*
X250805Y334018D01*
X250929Y334028D01*
X251052Y334041D01*
X251175Y334059D01*
X251297Y334080D01*
X251419Y334105D01*
X251540Y334134D01*
X251659Y334167D01*
X251778Y334203D01*
X251895Y334244D01*
X252011Y334287D01*
X252126Y334335D01*
X252239Y334386D01*
X252351Y334441D01*
X252460Y334499D01*
X252568Y334560D01*
X252674Y334625D01*
X252778Y334693D01*
X252879Y334765D01*
X252979Y334839D01*
X253075Y334917D01*
X253170Y334997D01*
X253262Y335081D01*
X253351Y335167D01*
X253437Y335256D01*
X253521Y335348D01*
X253601Y335443D01*
X253679Y335539D01*
X253753Y335639D01*
X253825Y335740D01*
X253893Y335844D01*
X253958Y335950D01*
X254019Y336058D01*
X254077Y336167D01*
X254132Y336279D01*
X254183Y336392D01*
X254231Y336507D01*
X254274Y336623D01*
X254315Y336740D01*
X254351Y336859D01*
X254384Y336978D01*
X254413Y337099D01*
X254438Y337221D01*
X254459Y337343D01*
X254477Y337466D01*
X254490Y337589D01*
X254500Y337713D01*
X254506Y337837D01*
X254508Y337961D01*
X254508Y347839D01*
X254506Y347963D01*
X254500Y348087D01*
X254490Y348211D01*
X254477Y348334D01*
X254459Y348457D01*
X254438Y348579D01*
X254413Y348701D01*
X254384Y348822D01*
X254351Y348941D01*
X254315Y349060D01*
X254274Y349177D01*
X254231Y349293D01*
X254183Y349408D01*
X254132Y349521D01*
X254077Y349633D01*
X254019Y349742D01*
X253958Y349850D01*
X253893Y349956D01*
X253825Y350060D01*
X253753Y350161D01*
X253679Y350261D01*
X253601Y350357D01*
X253521Y350452D01*
X253437Y350544D01*
X253351Y350633D01*
X253262Y350719D01*
X253170Y350803D01*
X253075Y350883D01*
X252979Y350961D01*
X252879Y351035D01*
X252778Y351107D01*
X252674Y351175D01*
X252568Y351240D01*
X252460Y351301D01*
X252351Y351359D01*
X252239Y351414D01*
X252126Y351465D01*
X252012Y351513D01*
X251895Y351556D01*
X251778Y351597D01*
X251659Y351633D01*
X251540Y351666D01*
X251419Y351695D01*
X251297Y351720D01*
X251175Y351741D01*
X251052Y351759D01*
X250929Y351772D01*
X250805Y351782D01*
X250681Y351788D01*
X250557Y351790D01*
X246606Y351790D01*
D11*
X426501Y467300D02*
X428096Y466183D01*
X426501Y467300D02*
X422778Y461983D01*
X425968Y459749D01*
X426051Y459694D01*
X426135Y459642D01*
X426222Y459593D01*
X426310Y459547D01*
X426400Y459505D01*
X426492Y459466D01*
X426585Y459431D01*
X426679Y459399D01*
X426774Y459371D01*
X426871Y459347D01*
X426968Y459326D01*
X427066Y459310D01*
X427165Y459296D01*
X427264Y459287D01*
X427363Y459282D01*
X427463Y459280D01*
X427562Y459282D01*
X427661Y459288D01*
X427760Y459298D01*
X427859Y459311D01*
X427957Y459329D01*
X428054Y459350D01*
X428150Y459374D01*
X428246Y459403D01*
X428340Y459435D01*
X428433Y459470D01*
X428524Y459509D01*
X428614Y459552D01*
X428702Y459598D01*
X428788Y459647D01*
X428873Y459700D01*
X428955Y459756D01*
X429035Y459815D01*
X429113Y459877D01*
X429188Y459942D01*
X429261Y460009D01*
X429331Y460080D01*
X429399Y460153D01*
X429463Y460229D01*
X429525Y460307D01*
X429584Y460387D01*
X433307Y465704D01*
X433362Y465787D01*
X433414Y465871D01*
X433463Y465958D01*
X433509Y466046D01*
X433551Y466136D01*
X433590Y466228D01*
X433625Y466321D01*
X433657Y466415D01*
X433685Y466510D01*
X433709Y466607D01*
X433730Y466704D01*
X433746Y466802D01*
X433760Y466901D01*
X433769Y467000D01*
X433774Y467099D01*
X433776Y467199D01*
X433774Y467298D01*
X433768Y467397D01*
X433758Y467496D01*
X433745Y467595D01*
X433727Y467693D01*
X433706Y467790D01*
X433682Y467886D01*
X433653Y467982D01*
X433621Y468076D01*
X433586Y468169D01*
X433547Y468260D01*
X433504Y468350D01*
X433458Y468438D01*
X433409Y468524D01*
X433356Y468609D01*
X433300Y468691D01*
X433241Y468771D01*
X433179Y468849D01*
X433114Y468924D01*
X433047Y468997D01*
X432976Y469067D01*
X432903Y469135D01*
X432827Y469199D01*
X432749Y469261D01*
X432669Y469320D01*
X432670Y469320D02*
X429479Y471554D01*
X424810Y474824D02*
X418108Y465253D01*
X412791Y468976D02*
X424810Y474824D01*
X419492Y478547D02*
X412791Y468976D01*
X408121Y472246D02*
X414822Y481817D01*
X412164Y483678D01*
X412164Y483679D02*
X412070Y483742D01*
X411974Y483802D01*
X411876Y483859D01*
X411776Y483912D01*
X411674Y483962D01*
X411570Y484008D01*
X411465Y484050D01*
X411359Y484089D01*
X411251Y484124D01*
X411142Y484155D01*
X411032Y484183D01*
X410921Y484206D01*
X410810Y484226D01*
X410698Y484242D01*
X410585Y484254D01*
X410472Y484262D01*
X410359Y484266D01*
X410245Y484266D01*
X410132Y484262D01*
X410019Y484254D01*
X409906Y484242D01*
X409794Y484226D01*
X409683Y484206D01*
X409572Y484183D01*
X409462Y484155D01*
X409353Y484124D01*
X409245Y484089D01*
X409139Y484050D01*
X409034Y484008D01*
X408930Y483962D01*
X408828Y483912D01*
X408728Y483859D01*
X408630Y483802D01*
X408534Y483742D01*
X408440Y483679D01*
X408349Y483612D01*
X408259Y483543D01*
X408172Y483470D01*
X408088Y483394D01*
X408007Y483315D01*
X407928Y483234D01*
X407852Y483150D01*
X407779Y483063D01*
X407710Y482974D01*
X407643Y482882D01*
X407644Y482881D02*
X404665Y478628D01*
X404602Y478534D01*
X404542Y478438D01*
X404485Y478340D01*
X404432Y478240D01*
X404382Y478138D01*
X404336Y478034D01*
X404294Y477929D01*
X404255Y477823D01*
X404220Y477715D01*
X404189Y477606D01*
X404161Y477496D01*
X404138Y477385D01*
X404118Y477274D01*
X404102Y477162D01*
X404090Y477049D01*
X404082Y476936D01*
X404078Y476823D01*
X404078Y476709D01*
X404082Y476596D01*
X404090Y476483D01*
X404102Y476370D01*
X404118Y476258D01*
X404138Y476147D01*
X404161Y476036D01*
X404189Y475926D01*
X404220Y475817D01*
X404255Y475709D01*
X404294Y475603D01*
X404336Y475498D01*
X404382Y475394D01*
X404432Y475292D01*
X404485Y475192D01*
X404542Y475094D01*
X404602Y474998D01*
X404665Y474904D01*
X404732Y474812D01*
X404801Y474723D01*
X404874Y474636D01*
X404950Y474552D01*
X405029Y474471D01*
X405110Y474392D01*
X405194Y474316D01*
X405281Y474243D01*
X405371Y474174D01*
X405462Y474107D01*
X408121Y472246D01*
X492049Y337254D02*
X492049Y335306D01*
X492049Y337254D02*
X485558Y337254D01*
X485558Y333359D01*
X485560Y333260D01*
X485566Y333160D01*
X485575Y333061D01*
X485588Y332963D01*
X485605Y332865D01*
X485626Y332767D01*
X485651Y332671D01*
X485679Y332576D01*
X485711Y332482D01*
X485746Y332389D01*
X485785Y332297D01*
X485828Y332207D01*
X485873Y332119D01*
X485923Y332032D01*
X485975Y331948D01*
X486031Y331865D01*
X486089Y331785D01*
X486151Y331707D01*
X486216Y331632D01*
X486284Y331559D01*
X486354Y331489D01*
X486427Y331421D01*
X486502Y331356D01*
X486580Y331294D01*
X486660Y331236D01*
X486743Y331180D01*
X486827Y331128D01*
X486914Y331078D01*
X487002Y331033D01*
X487092Y330990D01*
X487184Y330951D01*
X487277Y330916D01*
X487371Y330884D01*
X487466Y330856D01*
X487562Y330831D01*
X487660Y330810D01*
X487758Y330793D01*
X487856Y330780D01*
X487955Y330771D01*
X488055Y330765D01*
X488154Y330763D01*
X494646Y330763D01*
X494745Y330765D01*
X494845Y330771D01*
X494944Y330780D01*
X495042Y330793D01*
X495140Y330810D01*
X495238Y330831D01*
X495334Y330856D01*
X495429Y330884D01*
X495523Y330916D01*
X495616Y330951D01*
X495708Y330990D01*
X495798Y331033D01*
X495886Y331078D01*
X495973Y331128D01*
X496057Y331180D01*
X496140Y331236D01*
X496220Y331294D01*
X496298Y331356D01*
X496373Y331421D01*
X496446Y331489D01*
X496516Y331559D01*
X496584Y331632D01*
X496649Y331707D01*
X496711Y331785D01*
X496769Y331865D01*
X496825Y331948D01*
X496877Y332032D01*
X496927Y332119D01*
X496972Y332207D01*
X497015Y332297D01*
X497054Y332389D01*
X497089Y332481D01*
X497121Y332576D01*
X497149Y332671D01*
X497174Y332767D01*
X497195Y332865D01*
X497212Y332963D01*
X497225Y333061D01*
X497234Y333160D01*
X497240Y333260D01*
X497242Y333359D01*
X497242Y337254D01*
X497242Y342954D02*
X485558Y342954D01*
X485558Y349446D02*
X497242Y342954D01*
X497242Y349446D02*
X485558Y349446D01*
X485558Y355146D02*
X497242Y355146D01*
X497242Y358392D01*
X497240Y358505D01*
X497234Y358618D01*
X497224Y358731D01*
X497210Y358844D01*
X497193Y358956D01*
X497171Y359067D01*
X497146Y359177D01*
X497116Y359287D01*
X497083Y359395D01*
X497046Y359502D01*
X497006Y359608D01*
X496961Y359712D01*
X496913Y359815D01*
X496862Y359916D01*
X496807Y360015D01*
X496749Y360112D01*
X496687Y360207D01*
X496622Y360300D01*
X496554Y360390D01*
X496483Y360478D01*
X496408Y360564D01*
X496331Y360647D01*
X496251Y360727D01*
X496168Y360804D01*
X496082Y360879D01*
X495994Y360950D01*
X495904Y361018D01*
X495811Y361083D01*
X495716Y361145D01*
X495619Y361203D01*
X495520Y361258D01*
X495419Y361309D01*
X495316Y361357D01*
X495212Y361402D01*
X495106Y361442D01*
X494999Y361479D01*
X494891Y361512D01*
X494781Y361542D01*
X494671Y361567D01*
X494560Y361589D01*
X494448Y361606D01*
X494335Y361620D01*
X494222Y361630D01*
X494109Y361636D01*
X493996Y361638D01*
X488804Y361638D01*
X488691Y361636D01*
X488578Y361630D01*
X488465Y361620D01*
X488352Y361606D01*
X488240Y361589D01*
X488129Y361567D01*
X488019Y361542D01*
X487909Y361512D01*
X487801Y361479D01*
X487694Y361442D01*
X487588Y361402D01*
X487484Y361357D01*
X487381Y361309D01*
X487280Y361258D01*
X487181Y361203D01*
X487084Y361145D01*
X486989Y361083D01*
X486896Y361018D01*
X486806Y360950D01*
X486718Y360879D01*
X486632Y360804D01*
X486549Y360727D01*
X486469Y360647D01*
X486392Y360564D01*
X486317Y360478D01*
X486246Y360390D01*
X486178Y360300D01*
X486113Y360207D01*
X486051Y360112D01*
X485993Y360015D01*
X485938Y359916D01*
X485887Y359815D01*
X485839Y359712D01*
X485794Y359608D01*
X485754Y359502D01*
X485717Y359395D01*
X485684Y359287D01*
X485654Y359177D01*
X485629Y359067D01*
X485607Y358956D01*
X485590Y358844D01*
X485576Y358731D01*
X485566Y358618D01*
X485560Y358505D01*
X485558Y358392D01*
X485558Y355146D01*
X427351Y227280D02*
X425756Y226163D01*
X429479Y220846D01*
X432670Y223080D01*
X432669Y223080D02*
X432749Y223139D01*
X432827Y223201D01*
X432903Y223265D01*
X432976Y223333D01*
X433047Y223403D01*
X433114Y223476D01*
X433179Y223551D01*
X433241Y223629D01*
X433300Y223709D01*
X433356Y223791D01*
X433409Y223876D01*
X433458Y223962D01*
X433504Y224050D01*
X433547Y224140D01*
X433586Y224231D01*
X433621Y224324D01*
X433653Y224418D01*
X433682Y224514D01*
X433706Y224610D01*
X433727Y224707D01*
X433745Y224805D01*
X433758Y224904D01*
X433768Y225003D01*
X433774Y225102D01*
X433776Y225201D01*
X433774Y225301D01*
X433769Y225400D01*
X433759Y225499D01*
X433746Y225598D01*
X433730Y225696D01*
X433709Y225793D01*
X433685Y225890D01*
X433657Y225985D01*
X433625Y226079D01*
X433590Y226172D01*
X433551Y226264D01*
X433509Y226354D01*
X433463Y226442D01*
X433414Y226529D01*
X433362Y226613D01*
X433307Y226696D01*
X429584Y232013D01*
X429525Y232093D01*
X429463Y232171D01*
X429399Y232247D01*
X429331Y232320D01*
X429261Y232391D01*
X429188Y232458D01*
X429113Y232523D01*
X429035Y232585D01*
X428955Y232644D01*
X428873Y232700D01*
X428788Y232753D01*
X428702Y232802D01*
X428614Y232848D01*
X428524Y232891D01*
X428433Y232930D01*
X428340Y232965D01*
X428246Y232997D01*
X428150Y233026D01*
X428054Y233050D01*
X427957Y233071D01*
X427859Y233089D01*
X427760Y233102D01*
X427661Y233112D01*
X427562Y233118D01*
X427463Y233120D01*
X427363Y233118D01*
X427264Y233113D01*
X427165Y233104D01*
X427066Y233090D01*
X426968Y233074D01*
X426871Y233053D01*
X426774Y233029D01*
X426679Y233001D01*
X426585Y232969D01*
X426492Y232934D01*
X426400Y232895D01*
X426310Y232853D01*
X426222Y232807D01*
X426135Y232758D01*
X426051Y232706D01*
X425968Y232651D01*
X422778Y230417D01*
X418108Y227147D02*
X424809Y217576D01*
X419492Y213853D02*
X418108Y227147D01*
X412791Y223424D02*
X419492Y213853D01*
X414822Y210583D02*
X408121Y220154D01*
X405462Y218292D01*
X405462Y218293D02*
X405371Y218226D01*
X405281Y218157D01*
X405194Y218084D01*
X405110Y218008D01*
X405029Y217929D01*
X404950Y217848D01*
X404874Y217764D01*
X404801Y217677D01*
X404732Y217588D01*
X404665Y217496D01*
X404602Y217402D01*
X404542Y217306D01*
X404485Y217208D01*
X404432Y217108D01*
X404382Y217006D01*
X404336Y216902D01*
X404294Y216797D01*
X404255Y216691D01*
X404220Y216583D01*
X404189Y216474D01*
X404161Y216364D01*
X404138Y216253D01*
X404118Y216142D01*
X404102Y216030D01*
X404090Y215917D01*
X404082Y215804D01*
X404078Y215691D01*
X404078Y215577D01*
X404082Y215464D01*
X404090Y215351D01*
X404102Y215238D01*
X404118Y215126D01*
X404138Y215015D01*
X404161Y214904D01*
X404189Y214794D01*
X404220Y214685D01*
X404255Y214577D01*
X404294Y214471D01*
X404336Y214366D01*
X404382Y214262D01*
X404432Y214160D01*
X404485Y214060D01*
X404542Y213962D01*
X404602Y213866D01*
X404665Y213772D01*
X407644Y209518D01*
X407643Y209518D02*
X407710Y209427D01*
X407779Y209337D01*
X407852Y209250D01*
X407928Y209166D01*
X408007Y209085D01*
X408088Y209006D01*
X408172Y208930D01*
X408259Y208857D01*
X408349Y208788D01*
X408440Y208721D01*
X408534Y208658D01*
X408630Y208598D01*
X408728Y208541D01*
X408828Y208488D01*
X408930Y208438D01*
X409034Y208392D01*
X409139Y208350D01*
X409245Y208311D01*
X409353Y208276D01*
X409462Y208245D01*
X409572Y208217D01*
X409683Y208194D01*
X409794Y208174D01*
X409906Y208158D01*
X410019Y208146D01*
X410132Y208138D01*
X410245Y208134D01*
X410359Y208134D01*
X410472Y208138D01*
X410585Y208146D01*
X410698Y208158D01*
X410810Y208174D01*
X410921Y208194D01*
X411032Y208217D01*
X411142Y208245D01*
X411251Y208276D01*
X411359Y208311D01*
X411465Y208350D01*
X411570Y208392D01*
X411674Y208438D01*
X411776Y208488D01*
X411876Y208541D01*
X411974Y208598D01*
X412070Y208658D01*
X412164Y208721D01*
X414822Y210583D01*
D12*
X258538Y223601D02*
X257430Y224708D01*
X253738Y221016D01*
X255953Y218801D01*
X255954Y218802D02*
X256018Y218740D01*
X256084Y218682D01*
X256153Y218626D01*
X256224Y218573D01*
X256298Y218524D01*
X256373Y218477D01*
X256451Y218434D01*
X256530Y218394D01*
X256611Y218358D01*
X256693Y218324D01*
X256776Y218295D01*
X256861Y218269D01*
X256947Y218247D01*
X257034Y218228D01*
X257121Y218213D01*
X257209Y218202D01*
X257297Y218194D01*
X257386Y218190D01*
X257474Y218190D01*
X257563Y218194D01*
X257651Y218202D01*
X257739Y218213D01*
X257826Y218228D01*
X257913Y218247D01*
X257999Y218269D01*
X258084Y218295D01*
X258167Y218324D01*
X258249Y218358D01*
X258330Y218394D01*
X258409Y218434D01*
X258487Y218477D01*
X258562Y218524D01*
X258636Y218573D01*
X258707Y218626D01*
X258776Y218682D01*
X258842Y218740D01*
X258906Y218802D01*
X258907Y218801D02*
X262599Y222493D01*
X262598Y222494D02*
X262661Y222559D01*
X262721Y222628D01*
X262779Y222699D01*
X262832Y222772D01*
X262883Y222848D01*
X262930Y222926D01*
X262974Y223006D01*
X263014Y223088D01*
X263051Y223171D01*
X263084Y223256D01*
X263113Y223342D01*
X263139Y223430D01*
X263161Y223518D01*
X263178Y223607D01*
X263192Y223697D01*
X263202Y223788D01*
X263208Y223879D01*
X263210Y223970D01*
X263208Y224061D01*
X263202Y224152D01*
X263192Y224243D01*
X263178Y224333D01*
X263161Y224422D01*
X263139Y224510D01*
X263113Y224598D01*
X263084Y224684D01*
X263051Y224769D01*
X263014Y224852D01*
X262974Y224934D01*
X262930Y225014D01*
X262883Y225092D01*
X262832Y225168D01*
X262779Y225241D01*
X262722Y225312D01*
X262661Y225381D01*
X262598Y225446D01*
X262599Y225447D02*
X260384Y227662D01*
X257179Y230867D02*
X250533Y224221D01*
X246841Y227913D02*
X257179Y230867D01*
X253487Y234559D02*
X246841Y227913D01*
X243636Y231118D02*
X250282Y237764D01*
X248436Y239609D01*
X248436Y239610D02*
X248364Y239680D01*
X248290Y239746D01*
X248212Y239810D01*
X248133Y239870D01*
X248051Y239928D01*
X247967Y239982D01*
X247881Y240033D01*
X247793Y240081D01*
X247704Y240126D01*
X247612Y240167D01*
X247519Y240204D01*
X247425Y240238D01*
X247330Y240268D01*
X247234Y240294D01*
X247136Y240317D01*
X247038Y240336D01*
X246939Y240352D01*
X246840Y240363D01*
X246740Y240371D01*
X246640Y240375D01*
X246540Y240375D01*
X246440Y240371D01*
X246340Y240363D01*
X246241Y240352D01*
X246142Y240336D01*
X246044Y240317D01*
X245946Y240294D01*
X245850Y240268D01*
X245755Y240238D01*
X245661Y240204D01*
X245568Y240167D01*
X245476Y240126D01*
X245387Y240081D01*
X245299Y240033D01*
X245213Y239982D01*
X245129Y239928D01*
X245047Y239870D01*
X244968Y239810D01*
X244890Y239746D01*
X244816Y239680D01*
X244744Y239610D01*
X244744Y239609D02*
X241791Y236656D01*
X241790Y236656D02*
X241720Y236584D01*
X241654Y236510D01*
X241590Y236432D01*
X241530Y236353D01*
X241472Y236271D01*
X241418Y236187D01*
X241367Y236101D01*
X241319Y236013D01*
X241274Y235924D01*
X241233Y235832D01*
X241196Y235739D01*
X241162Y235645D01*
X241132Y235550D01*
X241106Y235454D01*
X241083Y235356D01*
X241064Y235258D01*
X241048Y235159D01*
X241037Y235060D01*
X241029Y234960D01*
X241025Y234860D01*
X241025Y234760D01*
X241029Y234660D01*
X241037Y234560D01*
X241048Y234461D01*
X241064Y234362D01*
X241083Y234264D01*
X241106Y234166D01*
X241132Y234070D01*
X241162Y233975D01*
X241196Y233881D01*
X241233Y233788D01*
X241274Y233696D01*
X241319Y233607D01*
X241367Y233519D01*
X241418Y233433D01*
X241472Y233349D01*
X241530Y233267D01*
X241590Y233188D01*
X241654Y233110D01*
X241720Y233036D01*
X241790Y232964D01*
X241791Y232964D02*
X243636Y231118D01*
D11*
X201649Y335306D02*
X201649Y337254D01*
X195158Y337254D01*
X195158Y333359D01*
X195160Y333260D01*
X195166Y333160D01*
X195175Y333061D01*
X195188Y332963D01*
X195205Y332865D01*
X195226Y332767D01*
X195251Y332671D01*
X195279Y332576D01*
X195311Y332482D01*
X195346Y332389D01*
X195385Y332297D01*
X195428Y332207D01*
X195473Y332119D01*
X195523Y332032D01*
X195575Y331948D01*
X195631Y331865D01*
X195689Y331785D01*
X195751Y331707D01*
X195816Y331632D01*
X195884Y331559D01*
X195954Y331489D01*
X196027Y331421D01*
X196102Y331356D01*
X196180Y331294D01*
X196260Y331236D01*
X196343Y331180D01*
X196427Y331128D01*
X196514Y331078D01*
X196602Y331033D01*
X196692Y330990D01*
X196784Y330951D01*
X196877Y330916D01*
X196971Y330884D01*
X197066Y330856D01*
X197162Y330831D01*
X197260Y330810D01*
X197358Y330793D01*
X197456Y330780D01*
X197555Y330771D01*
X197655Y330765D01*
X197754Y330763D01*
X204246Y330763D01*
X204345Y330765D01*
X204445Y330771D01*
X204544Y330780D01*
X204642Y330793D01*
X204740Y330810D01*
X204838Y330831D01*
X204934Y330856D01*
X205029Y330884D01*
X205123Y330916D01*
X205216Y330951D01*
X205308Y330990D01*
X205398Y331033D01*
X205486Y331078D01*
X205573Y331128D01*
X205657Y331180D01*
X205740Y331236D01*
X205820Y331294D01*
X205898Y331356D01*
X205973Y331421D01*
X206046Y331489D01*
X206116Y331559D01*
X206184Y331632D01*
X206249Y331707D01*
X206311Y331785D01*
X206369Y331865D01*
X206425Y331948D01*
X206477Y332032D01*
X206527Y332119D01*
X206572Y332207D01*
X206615Y332297D01*
X206654Y332389D01*
X206689Y332481D01*
X206721Y332576D01*
X206749Y332671D01*
X206774Y332767D01*
X206795Y332865D01*
X206812Y332963D01*
X206825Y333061D01*
X206834Y333160D01*
X206840Y333260D01*
X206842Y333359D01*
X206842Y337254D01*
X206842Y342954D02*
X195158Y342954D01*
X195158Y349446D02*
X206842Y342954D01*
X206842Y349446D02*
X195158Y349446D01*
X195158Y355146D02*
X206842Y355146D01*
X206842Y358392D01*
X206840Y358505D01*
X206834Y358618D01*
X206824Y358731D01*
X206810Y358844D01*
X206793Y358956D01*
X206771Y359067D01*
X206746Y359177D01*
X206716Y359287D01*
X206683Y359395D01*
X206646Y359502D01*
X206606Y359608D01*
X206561Y359712D01*
X206513Y359815D01*
X206462Y359916D01*
X206407Y360015D01*
X206349Y360112D01*
X206287Y360207D01*
X206222Y360300D01*
X206154Y360390D01*
X206083Y360478D01*
X206008Y360564D01*
X205931Y360647D01*
X205851Y360727D01*
X205768Y360804D01*
X205682Y360879D01*
X205594Y360950D01*
X205504Y361018D01*
X205411Y361083D01*
X205316Y361145D01*
X205219Y361203D01*
X205120Y361258D01*
X205019Y361309D01*
X204916Y361357D01*
X204812Y361402D01*
X204706Y361442D01*
X204599Y361479D01*
X204491Y361512D01*
X204381Y361542D01*
X204271Y361567D01*
X204160Y361589D01*
X204048Y361606D01*
X203935Y361620D01*
X203822Y361630D01*
X203709Y361636D01*
X203596Y361638D01*
X198404Y361638D01*
X198291Y361636D01*
X198178Y361630D01*
X198065Y361620D01*
X197952Y361606D01*
X197840Y361589D01*
X197729Y361567D01*
X197619Y361542D01*
X197509Y361512D01*
X197401Y361479D01*
X197294Y361442D01*
X197188Y361402D01*
X197084Y361357D01*
X196981Y361309D01*
X196880Y361258D01*
X196781Y361203D01*
X196684Y361145D01*
X196589Y361083D01*
X196496Y361018D01*
X196406Y360950D01*
X196318Y360879D01*
X196232Y360804D01*
X196149Y360727D01*
X196069Y360647D01*
X195992Y360564D01*
X195917Y360478D01*
X195846Y360390D01*
X195778Y360300D01*
X195713Y360207D01*
X195651Y360112D01*
X195593Y360015D01*
X195538Y359916D01*
X195487Y359815D01*
X195439Y359712D01*
X195394Y359608D01*
X195354Y359502D01*
X195317Y359395D01*
X195284Y359287D01*
X195254Y359177D01*
X195229Y359067D01*
X195207Y358956D01*
X195190Y358844D01*
X195176Y358731D01*
X195166Y358618D01*
X195160Y358505D01*
X195158Y358392D01*
X195158Y355146D01*
X289446Y483913D02*
X291041Y485030D01*
X289446Y483913D02*
X293169Y478596D01*
X296360Y480830D01*
X296359Y480830D02*
X296439Y480889D01*
X296517Y480951D01*
X296593Y481015D01*
X296666Y481083D01*
X296737Y481153D01*
X296804Y481226D01*
X296869Y481301D01*
X296931Y481379D01*
X296990Y481459D01*
X297046Y481541D01*
X297099Y481626D01*
X297148Y481712D01*
X297194Y481800D01*
X297237Y481890D01*
X297276Y481981D01*
X297311Y482074D01*
X297343Y482168D01*
X297372Y482264D01*
X297396Y482360D01*
X297417Y482457D01*
X297435Y482555D01*
X297448Y482654D01*
X297458Y482753D01*
X297464Y482852D01*
X297466Y482951D01*
X297464Y483051D01*
X297459Y483150D01*
X297449Y483249D01*
X297436Y483348D01*
X297420Y483446D01*
X297399Y483543D01*
X297375Y483640D01*
X297347Y483735D01*
X297315Y483829D01*
X297280Y483922D01*
X297241Y484014D01*
X297199Y484104D01*
X297153Y484192D01*
X297104Y484279D01*
X297052Y484363D01*
X296997Y484446D01*
X293274Y489763D01*
X293215Y489843D01*
X293153Y489921D01*
X293089Y489997D01*
X293021Y490070D01*
X292951Y490141D01*
X292878Y490208D01*
X292803Y490273D01*
X292725Y490335D01*
X292645Y490394D01*
X292563Y490450D01*
X292478Y490503D01*
X292392Y490552D01*
X292304Y490598D01*
X292214Y490641D01*
X292123Y490680D01*
X292030Y490715D01*
X291936Y490747D01*
X291840Y490776D01*
X291744Y490800D01*
X291647Y490821D01*
X291549Y490839D01*
X291450Y490852D01*
X291351Y490862D01*
X291252Y490868D01*
X291153Y490870D01*
X291053Y490868D01*
X290954Y490863D01*
X290855Y490854D01*
X290756Y490840D01*
X290658Y490824D01*
X290561Y490803D01*
X290464Y490779D01*
X290369Y490751D01*
X290275Y490719D01*
X290182Y490684D01*
X290090Y490645D01*
X290000Y490603D01*
X289912Y490557D01*
X289825Y490508D01*
X289741Y490456D01*
X289658Y490401D01*
X286468Y488167D01*
X281798Y484897D02*
X288499Y475326D01*
X283182Y471603D02*
X281798Y484897D01*
X276481Y481174D02*
X283182Y471603D01*
X278512Y468333D02*
X271811Y477904D01*
X269152Y476042D01*
X269152Y476043D02*
X269061Y475976D01*
X268971Y475907D01*
X268884Y475834D01*
X268800Y475758D01*
X268719Y475679D01*
X268640Y475598D01*
X268564Y475514D01*
X268491Y475427D01*
X268422Y475338D01*
X268355Y475246D01*
X268292Y475152D01*
X268232Y475056D01*
X268175Y474958D01*
X268122Y474858D01*
X268072Y474756D01*
X268026Y474652D01*
X267984Y474547D01*
X267945Y474441D01*
X267910Y474333D01*
X267879Y474224D01*
X267851Y474114D01*
X267828Y474003D01*
X267808Y473892D01*
X267792Y473780D01*
X267780Y473667D01*
X267772Y473554D01*
X267768Y473441D01*
X267768Y473327D01*
X267772Y473214D01*
X267780Y473101D01*
X267792Y472988D01*
X267808Y472876D01*
X267828Y472765D01*
X267851Y472654D01*
X267879Y472544D01*
X267910Y472435D01*
X267945Y472327D01*
X267984Y472221D01*
X268026Y472116D01*
X268072Y472012D01*
X268122Y471910D01*
X268175Y471810D01*
X268232Y471712D01*
X268292Y471616D01*
X268355Y471522D01*
X271334Y467268D01*
X271333Y467268D02*
X271400Y467177D01*
X271469Y467087D01*
X271542Y467000D01*
X271618Y466916D01*
X271697Y466835D01*
X271778Y466756D01*
X271862Y466680D01*
X271949Y466607D01*
X272039Y466538D01*
X272130Y466471D01*
X272224Y466408D01*
X272320Y466348D01*
X272418Y466291D01*
X272518Y466238D01*
X272620Y466188D01*
X272724Y466142D01*
X272829Y466100D01*
X272935Y466061D01*
X273043Y466026D01*
X273152Y465995D01*
X273262Y465967D01*
X273373Y465944D01*
X273484Y465924D01*
X273596Y465908D01*
X273709Y465896D01*
X273822Y465888D01*
X273935Y465884D01*
X274049Y465884D01*
X274162Y465888D01*
X274275Y465896D01*
X274388Y465908D01*
X274500Y465924D01*
X274611Y465944D01*
X274722Y465967D01*
X274832Y465995D01*
X274941Y466026D01*
X275049Y466061D01*
X275155Y466100D01*
X275260Y466142D01*
X275364Y466188D01*
X275466Y466238D01*
X275566Y466291D01*
X275664Y466348D01*
X275760Y466408D01*
X275854Y466471D01*
X278512Y468333D01*
D10*
X453726Y429670D02*
X453726Y411890D01*
X453726Y429670D02*
X448788Y429670D01*
X448648Y429668D01*
X448509Y429662D01*
X448369Y429652D01*
X448230Y429638D01*
X448091Y429621D01*
X447953Y429599D01*
X447816Y429573D01*
X447679Y429544D01*
X447543Y429511D01*
X447409Y429474D01*
X447275Y429433D01*
X447143Y429388D01*
X447011Y429339D01*
X446882Y429287D01*
X446754Y429232D01*
X446627Y429172D01*
X446502Y429109D01*
X446379Y429043D01*
X446258Y428973D01*
X446139Y428900D01*
X446022Y428823D01*
X445908Y428743D01*
X445795Y428660D01*
X445685Y428574D01*
X445578Y428484D01*
X445473Y428392D01*
X445371Y428297D01*
X445271Y428199D01*
X445174Y428098D01*
X445080Y427994D01*
X444990Y427888D01*
X444902Y427779D01*
X444817Y427668D01*
X444736Y427554D01*
X444657Y427439D01*
X444582Y427321D01*
X444511Y427201D01*
X444443Y427078D01*
X444378Y426955D01*
X444317Y426829D01*
X444259Y426701D01*
X444205Y426573D01*
X444155Y426442D01*
X444108Y426310D01*
X444065Y426177D01*
X444026Y426043D01*
X443991Y425908D01*
X443960Y425772D01*
X443932Y425634D01*
X443909Y425497D01*
X443889Y425358D01*
X443873Y425219D01*
X443861Y425080D01*
X443853Y424941D01*
X443849Y424801D01*
X443849Y424661D01*
X443853Y424521D01*
X443861Y424382D01*
X443873Y424243D01*
X443889Y424104D01*
X443909Y423965D01*
X443932Y423828D01*
X443960Y423690D01*
X443991Y423554D01*
X444026Y423419D01*
X444065Y423285D01*
X444108Y423152D01*
X444155Y423020D01*
X444205Y422889D01*
X444259Y422761D01*
X444317Y422633D01*
X444378Y422507D01*
X444443Y422384D01*
X444511Y422262D01*
X444582Y422141D01*
X444657Y422023D01*
X444736Y421908D01*
X444817Y421794D01*
X444902Y421683D01*
X444990Y421574D01*
X445080Y421468D01*
X445174Y421364D01*
X445271Y421263D01*
X445371Y421165D01*
X445473Y421070D01*
X445578Y420978D01*
X445685Y420888D01*
X445795Y420802D01*
X445908Y420719D01*
X446022Y420639D01*
X446139Y420562D01*
X446258Y420489D01*
X446379Y420419D01*
X446502Y420353D01*
X446627Y420290D01*
X446754Y420230D01*
X446882Y420175D01*
X447011Y420123D01*
X447143Y420074D01*
X447275Y420029D01*
X447409Y419988D01*
X447543Y419951D01*
X447679Y419918D01*
X447816Y419889D01*
X447953Y419863D01*
X448091Y419841D01*
X448230Y419824D01*
X448369Y419810D01*
X448509Y419800D01*
X448648Y419794D01*
X448788Y419792D01*
X453726Y419792D01*
X437731Y425719D02*
X432792Y429670D01*
X432792Y411890D01*
X427854Y411890D02*
X437731Y411890D01*
X453726Y271620D02*
X453726Y253840D01*
X453726Y271620D02*
X448788Y271620D01*
X448648Y271618D01*
X448509Y271612D01*
X448369Y271602D01*
X448230Y271588D01*
X448091Y271571D01*
X447953Y271549D01*
X447816Y271523D01*
X447679Y271494D01*
X447543Y271461D01*
X447409Y271424D01*
X447275Y271383D01*
X447143Y271338D01*
X447011Y271289D01*
X446882Y271237D01*
X446754Y271182D01*
X446627Y271122D01*
X446502Y271059D01*
X446379Y270993D01*
X446258Y270923D01*
X446139Y270850D01*
X446022Y270773D01*
X445908Y270693D01*
X445795Y270610D01*
X445685Y270524D01*
X445578Y270434D01*
X445473Y270342D01*
X445371Y270247D01*
X445271Y270149D01*
X445174Y270048D01*
X445080Y269944D01*
X444990Y269838D01*
X444902Y269729D01*
X444817Y269618D01*
X444736Y269504D01*
X444657Y269389D01*
X444582Y269271D01*
X444511Y269151D01*
X444443Y269028D01*
X444378Y268905D01*
X444317Y268779D01*
X444259Y268651D01*
X444205Y268523D01*
X444155Y268392D01*
X444108Y268260D01*
X444065Y268127D01*
X444026Y267993D01*
X443991Y267858D01*
X443960Y267722D01*
X443932Y267584D01*
X443909Y267447D01*
X443889Y267308D01*
X443873Y267169D01*
X443861Y267030D01*
X443853Y266891D01*
X443849Y266751D01*
X443849Y266611D01*
X443853Y266471D01*
X443861Y266332D01*
X443873Y266193D01*
X443889Y266054D01*
X443909Y265915D01*
X443932Y265778D01*
X443960Y265640D01*
X443991Y265504D01*
X444026Y265369D01*
X444065Y265235D01*
X444108Y265102D01*
X444155Y264970D01*
X444205Y264839D01*
X444259Y264711D01*
X444317Y264583D01*
X444378Y264457D01*
X444443Y264334D01*
X444511Y264212D01*
X444582Y264091D01*
X444657Y263973D01*
X444736Y263858D01*
X444817Y263744D01*
X444902Y263633D01*
X444990Y263524D01*
X445080Y263418D01*
X445174Y263314D01*
X445271Y263213D01*
X445371Y263115D01*
X445473Y263020D01*
X445578Y262928D01*
X445685Y262838D01*
X445795Y262752D01*
X445908Y262669D01*
X446022Y262589D01*
X446139Y262512D01*
X446258Y262439D01*
X446379Y262369D01*
X446502Y262303D01*
X446627Y262240D01*
X446754Y262180D01*
X446882Y262125D01*
X447011Y262073D01*
X447143Y262024D01*
X447275Y261979D01*
X447409Y261938D01*
X447543Y261901D01*
X447679Y261868D01*
X447816Y261839D01*
X447953Y261813D01*
X448091Y261791D01*
X448230Y261774D01*
X448369Y261760D01*
X448509Y261750D01*
X448648Y261744D01*
X448788Y261742D01*
X453726Y261742D01*
X432299Y271620D02*
X432167Y271618D01*
X432036Y271612D01*
X431904Y271602D01*
X431773Y271589D01*
X431643Y271571D01*
X431513Y271550D01*
X431383Y271525D01*
X431255Y271496D01*
X431127Y271463D01*
X431001Y271426D01*
X430875Y271386D01*
X430751Y271342D01*
X430628Y271294D01*
X430507Y271243D01*
X430387Y271188D01*
X430269Y271130D01*
X430153Y271068D01*
X430039Y271002D01*
X429926Y270934D01*
X429816Y270862D01*
X429708Y270787D01*
X429602Y270708D01*
X429498Y270627D01*
X429397Y270542D01*
X429299Y270455D01*
X429203Y270364D01*
X429110Y270271D01*
X429019Y270175D01*
X428932Y270077D01*
X428847Y269976D01*
X428766Y269872D01*
X428687Y269766D01*
X428612Y269658D01*
X428540Y269548D01*
X428472Y269435D01*
X428406Y269321D01*
X428344Y269205D01*
X428286Y269087D01*
X428231Y268967D01*
X428180Y268846D01*
X428132Y268723D01*
X428088Y268599D01*
X428048Y268473D01*
X428011Y268347D01*
X427978Y268219D01*
X427949Y268091D01*
X427924Y267961D01*
X427903Y267831D01*
X427885Y267701D01*
X427872Y267570D01*
X427862Y267438D01*
X427856Y267307D01*
X427854Y267175D01*
X432299Y271620D02*
X432449Y271618D01*
X432598Y271612D01*
X432747Y271602D01*
X432896Y271589D01*
X433045Y271571D01*
X433193Y271550D01*
X433341Y271524D01*
X433487Y271495D01*
X433633Y271462D01*
X433778Y271425D01*
X433922Y271384D01*
X434065Y271340D01*
X434207Y271292D01*
X434347Y271240D01*
X434486Y271185D01*
X434624Y271126D01*
X434759Y271063D01*
X434894Y270997D01*
X435026Y270927D01*
X435156Y270854D01*
X435285Y270777D01*
X435412Y270697D01*
X435536Y270614D01*
X435658Y270528D01*
X435778Y270438D01*
X435895Y270345D01*
X436010Y270250D01*
X436123Y270151D01*
X436233Y270049D01*
X436340Y269945D01*
X436444Y269838D01*
X436546Y269728D01*
X436644Y269615D01*
X436740Y269500D01*
X436832Y269382D01*
X436922Y269262D01*
X437008Y269140D01*
X437091Y269016D01*
X437171Y268889D01*
X437247Y268761D01*
X437320Y268630D01*
X437390Y268497D01*
X437456Y268363D01*
X437518Y268227D01*
X437577Y268090D01*
X437633Y267951D01*
X437684Y267810D01*
X437732Y267669D01*
X429336Y263718D02*
X429240Y263811D01*
X429148Y263907D01*
X429058Y264006D01*
X428971Y264107D01*
X428887Y264210D01*
X428805Y264315D01*
X428727Y264423D01*
X428652Y264533D01*
X428579Y264645D01*
X428510Y264759D01*
X428444Y264875D01*
X428382Y264993D01*
X428323Y265112D01*
X428267Y265233D01*
X428214Y265356D01*
X428165Y265480D01*
X428120Y265605D01*
X428077Y265732D01*
X428039Y265859D01*
X428004Y265988D01*
X427973Y266117D01*
X427945Y266248D01*
X427921Y266379D01*
X427900Y266511D01*
X427884Y266643D01*
X427871Y266776D01*
X427861Y266909D01*
X427856Y267042D01*
X427854Y267175D01*
X429335Y263718D02*
X437731Y253840D01*
X427854Y253840D01*
X359136Y233490D02*
X359136Y215710D01*
X359136Y233490D02*
X354198Y233490D01*
X354058Y233488D01*
X353919Y233482D01*
X353779Y233472D01*
X353640Y233458D01*
X353501Y233441D01*
X353363Y233419D01*
X353226Y233393D01*
X353089Y233364D01*
X352953Y233331D01*
X352819Y233294D01*
X352685Y233253D01*
X352553Y233208D01*
X352421Y233159D01*
X352292Y233107D01*
X352164Y233052D01*
X352037Y232992D01*
X351912Y232929D01*
X351789Y232863D01*
X351668Y232793D01*
X351549Y232720D01*
X351432Y232643D01*
X351318Y232563D01*
X351205Y232480D01*
X351095Y232394D01*
X350988Y232304D01*
X350883Y232212D01*
X350781Y232117D01*
X350681Y232019D01*
X350584Y231918D01*
X350490Y231814D01*
X350400Y231708D01*
X350312Y231599D01*
X350227Y231488D01*
X350146Y231374D01*
X350067Y231259D01*
X349992Y231141D01*
X349921Y231021D01*
X349853Y230898D01*
X349788Y230775D01*
X349727Y230649D01*
X349669Y230521D01*
X349615Y230393D01*
X349565Y230262D01*
X349518Y230130D01*
X349475Y229997D01*
X349436Y229863D01*
X349401Y229728D01*
X349370Y229592D01*
X349342Y229454D01*
X349319Y229317D01*
X349299Y229178D01*
X349283Y229039D01*
X349271Y228900D01*
X349263Y228761D01*
X349259Y228621D01*
X349259Y228481D01*
X349263Y228341D01*
X349271Y228202D01*
X349283Y228063D01*
X349299Y227924D01*
X349319Y227785D01*
X349342Y227648D01*
X349370Y227510D01*
X349401Y227374D01*
X349436Y227239D01*
X349475Y227105D01*
X349518Y226972D01*
X349565Y226840D01*
X349615Y226709D01*
X349669Y226581D01*
X349727Y226453D01*
X349788Y226327D01*
X349853Y226204D01*
X349921Y226081D01*
X349992Y225961D01*
X350067Y225843D01*
X350146Y225728D01*
X350227Y225614D01*
X350312Y225503D01*
X350400Y225394D01*
X350490Y225288D01*
X350584Y225184D01*
X350681Y225083D01*
X350781Y224985D01*
X350883Y224890D01*
X350988Y224798D01*
X351095Y224708D01*
X351205Y224622D01*
X351318Y224539D01*
X351432Y224459D01*
X351549Y224382D01*
X351668Y224309D01*
X351789Y224239D01*
X351912Y224173D01*
X352037Y224110D01*
X352164Y224050D01*
X352292Y223995D01*
X352421Y223943D01*
X352553Y223894D01*
X352685Y223849D01*
X352819Y223808D01*
X352953Y223771D01*
X353089Y223738D01*
X353226Y223709D01*
X353363Y223683D01*
X353501Y223661D01*
X353640Y223644D01*
X353779Y223630D01*
X353919Y223620D01*
X354058Y223614D01*
X354198Y223612D01*
X359136Y223612D01*
X343141Y215710D02*
X338202Y215710D01*
X338062Y215712D01*
X337923Y215718D01*
X337783Y215728D01*
X337644Y215742D01*
X337505Y215759D01*
X337367Y215781D01*
X337230Y215807D01*
X337093Y215836D01*
X336957Y215869D01*
X336823Y215906D01*
X336689Y215947D01*
X336557Y215992D01*
X336425Y216041D01*
X336296Y216093D01*
X336168Y216148D01*
X336041Y216208D01*
X335916Y216271D01*
X335793Y216337D01*
X335672Y216407D01*
X335553Y216480D01*
X335436Y216557D01*
X335322Y216637D01*
X335209Y216720D01*
X335099Y216806D01*
X334992Y216896D01*
X334887Y216988D01*
X334785Y217083D01*
X334685Y217181D01*
X334588Y217282D01*
X334494Y217386D01*
X334404Y217492D01*
X334316Y217601D01*
X334231Y217712D01*
X334150Y217826D01*
X334071Y217941D01*
X333996Y218059D01*
X333925Y218179D01*
X333857Y218302D01*
X333792Y218425D01*
X333731Y218551D01*
X333673Y218679D01*
X333619Y218807D01*
X333569Y218938D01*
X333522Y219070D01*
X333479Y219203D01*
X333440Y219337D01*
X333405Y219472D01*
X333374Y219608D01*
X333346Y219746D01*
X333323Y219883D01*
X333303Y220022D01*
X333287Y220161D01*
X333275Y220300D01*
X333267Y220439D01*
X333263Y220579D01*
X333263Y220719D01*
X333267Y220859D01*
X333275Y220998D01*
X333287Y221137D01*
X333303Y221276D01*
X333323Y221415D01*
X333346Y221552D01*
X333374Y221690D01*
X333405Y221826D01*
X333440Y221961D01*
X333479Y222095D01*
X333522Y222228D01*
X333569Y222360D01*
X333619Y222491D01*
X333673Y222619D01*
X333731Y222747D01*
X333792Y222873D01*
X333857Y222996D01*
X333925Y223119D01*
X333996Y223239D01*
X334071Y223357D01*
X334150Y223472D01*
X334231Y223586D01*
X334316Y223697D01*
X334404Y223806D01*
X334494Y223912D01*
X334588Y224016D01*
X334685Y224117D01*
X334785Y224215D01*
X334887Y224310D01*
X334992Y224402D01*
X335099Y224492D01*
X335209Y224578D01*
X335322Y224661D01*
X335436Y224741D01*
X335553Y224818D01*
X335672Y224891D01*
X335793Y224961D01*
X335916Y225027D01*
X336041Y225090D01*
X336168Y225150D01*
X336296Y225205D01*
X336425Y225257D01*
X336557Y225306D01*
X336689Y225351D01*
X336823Y225392D01*
X336957Y225429D01*
X337093Y225462D01*
X337230Y225491D01*
X337367Y225517D01*
X337505Y225539D01*
X337644Y225556D01*
X337783Y225570D01*
X337923Y225580D01*
X338062Y225586D01*
X338202Y225588D01*
X337215Y233490D02*
X343141Y233490D01*
X337215Y233490D02*
X337091Y233488D01*
X336967Y233482D01*
X336843Y233472D01*
X336720Y233459D01*
X336597Y233441D01*
X336475Y233420D01*
X336353Y233395D01*
X336232Y233366D01*
X336113Y233333D01*
X335994Y233297D01*
X335877Y233256D01*
X335761Y233213D01*
X335646Y233165D01*
X335533Y233114D01*
X335421Y233059D01*
X335312Y233001D01*
X335204Y232940D01*
X335098Y232875D01*
X334994Y232807D01*
X334893Y232735D01*
X334793Y232661D01*
X334697Y232583D01*
X334602Y232503D01*
X334510Y232419D01*
X334421Y232333D01*
X334335Y232244D01*
X334251Y232152D01*
X334171Y232057D01*
X334093Y231961D01*
X334019Y231861D01*
X333947Y231760D01*
X333879Y231656D01*
X333814Y231550D01*
X333753Y231442D01*
X333695Y231333D01*
X333640Y231221D01*
X333589Y231108D01*
X333541Y230993D01*
X333498Y230877D01*
X333457Y230760D01*
X333421Y230641D01*
X333388Y230522D01*
X333359Y230401D01*
X333334Y230279D01*
X333313Y230157D01*
X333295Y230034D01*
X333282Y229911D01*
X333272Y229787D01*
X333266Y229663D01*
X333264Y229539D01*
X333266Y229415D01*
X333272Y229291D01*
X333282Y229167D01*
X333295Y229044D01*
X333313Y228921D01*
X333334Y228799D01*
X333359Y228677D01*
X333388Y228556D01*
X333421Y228437D01*
X333457Y228318D01*
X333498Y228201D01*
X333541Y228085D01*
X333589Y227970D01*
X333640Y227857D01*
X333695Y227745D01*
X333753Y227636D01*
X333814Y227528D01*
X333879Y227422D01*
X333947Y227318D01*
X334019Y227217D01*
X334093Y227117D01*
X334171Y227021D01*
X334251Y226926D01*
X334335Y226834D01*
X334421Y226745D01*
X334510Y226659D01*
X334602Y226575D01*
X334697Y226495D01*
X334793Y226417D01*
X334893Y226343D01*
X334994Y226271D01*
X335098Y226203D01*
X335204Y226138D01*
X335312Y226077D01*
X335421Y226019D01*
X335533Y225964D01*
X335646Y225913D01*
X335761Y225865D01*
X335877Y225822D01*
X335994Y225781D01*
X336113Y225745D01*
X336232Y225712D01*
X336353Y225683D01*
X336475Y225658D01*
X336597Y225637D01*
X336720Y225619D01*
X336843Y225606D01*
X336967Y225596D01*
X337091Y225590D01*
X337215Y225588D01*
X341166Y225588D01*
X255656Y283050D02*
X255656Y300830D01*
X250718Y300830D01*
X250578Y300828D01*
X250439Y300822D01*
X250299Y300812D01*
X250160Y300798D01*
X250021Y300781D01*
X249883Y300759D01*
X249746Y300733D01*
X249609Y300704D01*
X249473Y300671D01*
X249339Y300634D01*
X249205Y300593D01*
X249073Y300548D01*
X248941Y300499D01*
X248812Y300447D01*
X248684Y300392D01*
X248557Y300332D01*
X248432Y300269D01*
X248309Y300203D01*
X248188Y300133D01*
X248069Y300060D01*
X247952Y299983D01*
X247838Y299903D01*
X247725Y299820D01*
X247615Y299734D01*
X247508Y299644D01*
X247403Y299552D01*
X247301Y299457D01*
X247201Y299359D01*
X247104Y299258D01*
X247010Y299154D01*
X246920Y299048D01*
X246832Y298939D01*
X246747Y298828D01*
X246666Y298714D01*
X246587Y298599D01*
X246512Y298481D01*
X246441Y298361D01*
X246373Y298238D01*
X246308Y298115D01*
X246247Y297989D01*
X246189Y297861D01*
X246135Y297733D01*
X246085Y297602D01*
X246038Y297470D01*
X245995Y297337D01*
X245956Y297203D01*
X245921Y297068D01*
X245890Y296932D01*
X245862Y296794D01*
X245839Y296657D01*
X245819Y296518D01*
X245803Y296379D01*
X245791Y296240D01*
X245783Y296101D01*
X245779Y295961D01*
X245779Y295821D01*
X245783Y295681D01*
X245791Y295542D01*
X245803Y295403D01*
X245819Y295264D01*
X245839Y295125D01*
X245862Y294988D01*
X245890Y294850D01*
X245921Y294714D01*
X245956Y294579D01*
X245995Y294445D01*
X246038Y294312D01*
X246085Y294180D01*
X246135Y294049D01*
X246189Y293921D01*
X246247Y293793D01*
X246308Y293667D01*
X246373Y293544D01*
X246441Y293422D01*
X246512Y293301D01*
X246587Y293183D01*
X246666Y293068D01*
X246747Y292954D01*
X246832Y292843D01*
X246920Y292734D01*
X247010Y292628D01*
X247104Y292524D01*
X247201Y292423D01*
X247301Y292325D01*
X247403Y292230D01*
X247508Y292138D01*
X247615Y292048D01*
X247725Y291962D01*
X247838Y291879D01*
X247952Y291799D01*
X248069Y291722D01*
X248188Y291649D01*
X248309Y291579D01*
X248432Y291513D01*
X248557Y291450D01*
X248684Y291390D01*
X248812Y291335D01*
X248941Y291283D01*
X249073Y291234D01*
X249205Y291189D01*
X249339Y291148D01*
X249473Y291111D01*
X249609Y291078D01*
X249746Y291049D01*
X249883Y291023D01*
X250021Y291001D01*
X250160Y290984D01*
X250299Y290970D01*
X250439Y290960D01*
X250578Y290954D01*
X250718Y290952D01*
X255656Y290952D01*
X239661Y287001D02*
X235710Y300830D01*
X239661Y287001D02*
X229784Y287001D01*
X232747Y290952D02*
X232747Y283050D01*
X242968Y372520D02*
X242968Y390300D01*
X238029Y390300D01*
X237889Y390298D01*
X237750Y390292D01*
X237610Y390282D01*
X237471Y390268D01*
X237332Y390251D01*
X237194Y390229D01*
X237057Y390203D01*
X236920Y390174D01*
X236784Y390141D01*
X236650Y390104D01*
X236516Y390063D01*
X236384Y390018D01*
X236252Y389969D01*
X236123Y389917D01*
X235995Y389862D01*
X235868Y389802D01*
X235743Y389739D01*
X235620Y389673D01*
X235499Y389603D01*
X235380Y389530D01*
X235263Y389453D01*
X235149Y389373D01*
X235036Y389290D01*
X234926Y389204D01*
X234819Y389114D01*
X234714Y389022D01*
X234612Y388927D01*
X234512Y388829D01*
X234415Y388728D01*
X234321Y388624D01*
X234231Y388518D01*
X234143Y388409D01*
X234058Y388298D01*
X233977Y388184D01*
X233898Y388069D01*
X233823Y387951D01*
X233752Y387831D01*
X233684Y387708D01*
X233619Y387585D01*
X233558Y387459D01*
X233500Y387331D01*
X233446Y387203D01*
X233396Y387072D01*
X233349Y386940D01*
X233306Y386807D01*
X233267Y386673D01*
X233232Y386538D01*
X233201Y386402D01*
X233173Y386264D01*
X233150Y386127D01*
X233130Y385988D01*
X233114Y385849D01*
X233102Y385710D01*
X233094Y385571D01*
X233090Y385431D01*
X233090Y385291D01*
X233094Y385151D01*
X233102Y385012D01*
X233114Y384873D01*
X233130Y384734D01*
X233150Y384595D01*
X233173Y384458D01*
X233201Y384320D01*
X233232Y384184D01*
X233267Y384049D01*
X233306Y383915D01*
X233349Y383782D01*
X233396Y383650D01*
X233446Y383519D01*
X233500Y383391D01*
X233558Y383263D01*
X233619Y383137D01*
X233684Y383014D01*
X233752Y382892D01*
X233823Y382771D01*
X233898Y382653D01*
X233977Y382538D01*
X234058Y382424D01*
X234143Y382313D01*
X234231Y382204D01*
X234321Y382098D01*
X234415Y381994D01*
X234512Y381893D01*
X234612Y381795D01*
X234714Y381700D01*
X234819Y381608D01*
X234926Y381518D01*
X235036Y381432D01*
X235149Y381349D01*
X235263Y381269D01*
X235380Y381192D01*
X235499Y381119D01*
X235620Y381049D01*
X235743Y380983D01*
X235868Y380920D01*
X235995Y380860D01*
X236123Y380805D01*
X236252Y380753D01*
X236384Y380704D01*
X236516Y380659D01*
X236650Y380618D01*
X236784Y380581D01*
X236920Y380548D01*
X237057Y380519D01*
X237194Y380493D01*
X237332Y380471D01*
X237471Y380454D01*
X237610Y380440D01*
X237750Y380430D01*
X237889Y380424D01*
X238029Y380422D01*
X242968Y380422D01*
X226973Y372520D02*
X221046Y372520D01*
X220922Y372522D01*
X220798Y372528D01*
X220674Y372538D01*
X220551Y372551D01*
X220428Y372569D01*
X220306Y372590D01*
X220184Y372615D01*
X220063Y372644D01*
X219944Y372677D01*
X219825Y372713D01*
X219708Y372754D01*
X219592Y372797D01*
X219477Y372845D01*
X219364Y372896D01*
X219252Y372951D01*
X219143Y373009D01*
X219035Y373070D01*
X218929Y373135D01*
X218825Y373203D01*
X218724Y373275D01*
X218624Y373349D01*
X218528Y373427D01*
X218433Y373507D01*
X218341Y373591D01*
X218252Y373677D01*
X218166Y373766D01*
X218082Y373858D01*
X218002Y373953D01*
X217924Y374049D01*
X217850Y374149D01*
X217778Y374250D01*
X217710Y374354D01*
X217645Y374460D01*
X217584Y374568D01*
X217526Y374677D01*
X217471Y374789D01*
X217420Y374902D01*
X217372Y375017D01*
X217329Y375133D01*
X217288Y375250D01*
X217252Y375369D01*
X217219Y375488D01*
X217190Y375609D01*
X217165Y375731D01*
X217144Y375853D01*
X217126Y375976D01*
X217113Y376099D01*
X217103Y376223D01*
X217097Y376347D01*
X217095Y376471D01*
X217095Y378447D01*
X217097Y378571D01*
X217103Y378695D01*
X217113Y378819D01*
X217126Y378942D01*
X217144Y379065D01*
X217165Y379187D01*
X217190Y379309D01*
X217219Y379430D01*
X217252Y379549D01*
X217288Y379668D01*
X217329Y379785D01*
X217372Y379901D01*
X217420Y380016D01*
X217471Y380129D01*
X217526Y380241D01*
X217584Y380350D01*
X217645Y380458D01*
X217710Y380564D01*
X217778Y380668D01*
X217850Y380769D01*
X217924Y380869D01*
X218002Y380965D01*
X218082Y381060D01*
X218166Y381152D01*
X218252Y381241D01*
X218341Y381327D01*
X218433Y381411D01*
X218528Y381491D01*
X218624Y381569D01*
X218724Y381643D01*
X218825Y381715D01*
X218929Y381783D01*
X219035Y381848D01*
X219143Y381909D01*
X219252Y381967D01*
X219364Y382022D01*
X219477Y382073D01*
X219592Y382121D01*
X219708Y382164D01*
X219825Y382205D01*
X219944Y382241D01*
X220063Y382274D01*
X220184Y382303D01*
X220306Y382328D01*
X220428Y382349D01*
X220551Y382367D01*
X220674Y382380D01*
X220798Y382390D01*
X220922Y382396D01*
X221046Y382398D01*
X226973Y382398D01*
X226973Y390300D01*
X217095Y390300D01*
X204725Y385361D02*
X204725Y379434D01*
X201268Y374989D01*
X204725Y379434D02*
X208182Y374989D01*
X204725Y379434D02*
X199292Y381410D01*
X204725Y379434D02*
X210158Y381410D01*
X359136Y458910D02*
X359136Y476690D01*
X354198Y476690D01*
X354058Y476688D01*
X353919Y476682D01*
X353779Y476672D01*
X353640Y476658D01*
X353501Y476641D01*
X353363Y476619D01*
X353226Y476593D01*
X353089Y476564D01*
X352953Y476531D01*
X352819Y476494D01*
X352685Y476453D01*
X352553Y476408D01*
X352421Y476359D01*
X352292Y476307D01*
X352164Y476252D01*
X352037Y476192D01*
X351912Y476129D01*
X351789Y476063D01*
X351668Y475993D01*
X351549Y475920D01*
X351432Y475843D01*
X351318Y475763D01*
X351205Y475680D01*
X351095Y475594D01*
X350988Y475504D01*
X350883Y475412D01*
X350781Y475317D01*
X350681Y475219D01*
X350584Y475118D01*
X350490Y475014D01*
X350400Y474908D01*
X350312Y474799D01*
X350227Y474688D01*
X350146Y474574D01*
X350067Y474459D01*
X349992Y474341D01*
X349921Y474221D01*
X349853Y474098D01*
X349788Y473975D01*
X349727Y473849D01*
X349669Y473721D01*
X349615Y473593D01*
X349565Y473462D01*
X349518Y473330D01*
X349475Y473197D01*
X349436Y473063D01*
X349401Y472928D01*
X349370Y472792D01*
X349342Y472654D01*
X349319Y472517D01*
X349299Y472378D01*
X349283Y472239D01*
X349271Y472100D01*
X349263Y471961D01*
X349259Y471821D01*
X349259Y471681D01*
X349263Y471541D01*
X349271Y471402D01*
X349283Y471263D01*
X349299Y471124D01*
X349319Y470985D01*
X349342Y470848D01*
X349370Y470710D01*
X349401Y470574D01*
X349436Y470439D01*
X349475Y470305D01*
X349518Y470172D01*
X349565Y470040D01*
X349615Y469909D01*
X349669Y469781D01*
X349727Y469653D01*
X349788Y469527D01*
X349853Y469404D01*
X349921Y469282D01*
X349992Y469161D01*
X350067Y469043D01*
X350146Y468928D01*
X350227Y468814D01*
X350312Y468703D01*
X350400Y468594D01*
X350490Y468488D01*
X350584Y468384D01*
X350681Y468283D01*
X350781Y468185D01*
X350883Y468090D01*
X350988Y467998D01*
X351095Y467908D01*
X351205Y467822D01*
X351318Y467739D01*
X351432Y467659D01*
X351549Y467582D01*
X351668Y467509D01*
X351789Y467439D01*
X351912Y467373D01*
X352037Y467310D01*
X352164Y467250D01*
X352292Y467195D01*
X352421Y467143D01*
X352553Y467094D01*
X352685Y467049D01*
X352819Y467008D01*
X352953Y466971D01*
X353089Y466938D01*
X353226Y466909D01*
X353363Y466883D01*
X353501Y466861D01*
X353640Y466844D01*
X353779Y466830D01*
X353919Y466820D01*
X354058Y466814D01*
X354198Y466812D01*
X359136Y466812D01*
X343141Y468788D02*
X337215Y468788D01*
X337091Y468786D01*
X336967Y468780D01*
X336843Y468770D01*
X336720Y468757D01*
X336597Y468739D01*
X336475Y468718D01*
X336353Y468693D01*
X336232Y468664D01*
X336113Y468631D01*
X335994Y468595D01*
X335877Y468554D01*
X335761Y468511D01*
X335646Y468463D01*
X335533Y468412D01*
X335421Y468357D01*
X335312Y468299D01*
X335204Y468238D01*
X335098Y468173D01*
X334994Y468105D01*
X334893Y468033D01*
X334793Y467959D01*
X334697Y467881D01*
X334602Y467801D01*
X334510Y467717D01*
X334421Y467631D01*
X334335Y467542D01*
X334251Y467450D01*
X334171Y467355D01*
X334093Y467259D01*
X334019Y467159D01*
X333947Y467058D01*
X333879Y466954D01*
X333814Y466848D01*
X333753Y466740D01*
X333695Y466631D01*
X333640Y466519D01*
X333589Y466406D01*
X333541Y466291D01*
X333498Y466175D01*
X333457Y466058D01*
X333421Y465939D01*
X333388Y465820D01*
X333359Y465699D01*
X333334Y465577D01*
X333313Y465455D01*
X333295Y465332D01*
X333282Y465209D01*
X333272Y465085D01*
X333266Y464961D01*
X333264Y464837D01*
X333264Y463849D01*
X333263Y463849D02*
X333265Y463709D01*
X333271Y463570D01*
X333281Y463430D01*
X333295Y463291D01*
X333312Y463152D01*
X333334Y463014D01*
X333360Y462877D01*
X333389Y462740D01*
X333422Y462604D01*
X333459Y462470D01*
X333500Y462336D01*
X333545Y462204D01*
X333594Y462072D01*
X333646Y461943D01*
X333701Y461815D01*
X333761Y461688D01*
X333824Y461563D01*
X333890Y461440D01*
X333960Y461319D01*
X334033Y461200D01*
X334110Y461083D01*
X334190Y460969D01*
X334273Y460856D01*
X334359Y460746D01*
X334449Y460639D01*
X334541Y460534D01*
X334636Y460432D01*
X334734Y460332D01*
X334835Y460235D01*
X334939Y460141D01*
X335045Y460051D01*
X335154Y459963D01*
X335265Y459878D01*
X335379Y459797D01*
X335494Y459718D01*
X335612Y459643D01*
X335733Y459572D01*
X335855Y459504D01*
X335978Y459439D01*
X336104Y459378D01*
X336232Y459320D01*
X336360Y459266D01*
X336491Y459216D01*
X336623Y459169D01*
X336756Y459126D01*
X336890Y459087D01*
X337025Y459052D01*
X337161Y459021D01*
X337299Y458993D01*
X337436Y458970D01*
X337575Y458950D01*
X337714Y458934D01*
X337853Y458922D01*
X337992Y458914D01*
X338132Y458910D01*
X338272Y458910D01*
X338412Y458914D01*
X338551Y458922D01*
X338690Y458934D01*
X338829Y458950D01*
X338968Y458970D01*
X339105Y458993D01*
X339243Y459021D01*
X339379Y459052D01*
X339514Y459087D01*
X339648Y459126D01*
X339781Y459169D01*
X339913Y459216D01*
X340044Y459266D01*
X340172Y459320D01*
X340300Y459378D01*
X340426Y459439D01*
X340549Y459504D01*
X340672Y459572D01*
X340792Y459643D01*
X340910Y459718D01*
X341025Y459797D01*
X341139Y459878D01*
X341250Y459963D01*
X341359Y460051D01*
X341465Y460141D01*
X341569Y460235D01*
X341670Y460332D01*
X341768Y460432D01*
X341863Y460534D01*
X341955Y460639D01*
X342045Y460746D01*
X342131Y460856D01*
X342214Y460969D01*
X342294Y461083D01*
X342371Y461200D01*
X342444Y461319D01*
X342514Y461440D01*
X342580Y461563D01*
X342643Y461688D01*
X342703Y461815D01*
X342758Y461943D01*
X342810Y462072D01*
X342859Y462204D01*
X342904Y462336D01*
X342945Y462470D01*
X342982Y462604D01*
X343015Y462740D01*
X343044Y462877D01*
X343070Y463014D01*
X343092Y463152D01*
X343109Y463291D01*
X343123Y463430D01*
X343133Y463570D01*
X343139Y463709D01*
X343141Y463849D01*
X343141Y468788D01*
X343139Y468982D01*
X343131Y469176D01*
X343120Y469369D01*
X343103Y469563D01*
X343082Y469755D01*
X343055Y469947D01*
X343025Y470139D01*
X342989Y470330D01*
X342949Y470519D01*
X342904Y470708D01*
X342855Y470896D01*
X342801Y471082D01*
X342742Y471267D01*
X342679Y471450D01*
X342612Y471632D01*
X342540Y471812D01*
X342463Y471990D01*
X342382Y472167D01*
X342297Y472341D01*
X342208Y472513D01*
X342114Y472683D01*
X342017Y472850D01*
X341915Y473016D01*
X341809Y473178D01*
X341700Y473338D01*
X341586Y473495D01*
X341469Y473650D01*
X341347Y473801D01*
X341222Y473949D01*
X341094Y474095D01*
X340962Y474237D01*
X340827Y474376D01*
X340688Y474511D01*
X340546Y474643D01*
X340400Y474771D01*
X340252Y474896D01*
X340101Y475017D01*
X339946Y475135D01*
X339789Y475249D01*
X339629Y475358D01*
X339467Y475464D01*
X339301Y475566D01*
X339134Y475663D01*
X338964Y475757D01*
X338792Y475846D01*
X338618Y475931D01*
X338441Y476012D01*
X338263Y476088D01*
X338083Y476160D01*
X337901Y476228D01*
X337718Y476291D01*
X337533Y476350D01*
X337347Y476404D01*
X337159Y476453D01*
X336970Y476498D01*
X336781Y476538D01*
X336590Y476574D01*
X336399Y476604D01*
X336206Y476631D01*
X336014Y476652D01*
X335820Y476669D01*
X335627Y476680D01*
X335433Y476688D01*
X335239Y476690D01*
X371985Y455183D02*
X371985Y437403D01*
X371985Y447281D02*
X362108Y447281D01*
X362108Y455183D02*
X362108Y437403D01*
X354677Y441354D02*
X350725Y455183D01*
X354677Y441354D02*
X344799Y441354D01*
X347762Y445305D02*
X347762Y437403D01*
X337926Y451232D02*
X332987Y455183D01*
X332987Y437403D01*
X337926Y437403D02*
X328048Y437403D01*
X320532Y437403D02*
X320532Y455183D01*
X315593Y455183D01*
X315453Y455181D01*
X315314Y455175D01*
X315174Y455165D01*
X315035Y455151D01*
X314896Y455134D01*
X314758Y455112D01*
X314621Y455086D01*
X314484Y455057D01*
X314348Y455024D01*
X314214Y454987D01*
X314080Y454946D01*
X313948Y454901D01*
X313816Y454852D01*
X313687Y454800D01*
X313559Y454745D01*
X313432Y454685D01*
X313307Y454622D01*
X313184Y454556D01*
X313063Y454486D01*
X312944Y454413D01*
X312827Y454336D01*
X312713Y454256D01*
X312600Y454173D01*
X312490Y454087D01*
X312383Y453997D01*
X312278Y453905D01*
X312176Y453810D01*
X312076Y453712D01*
X311979Y453611D01*
X311885Y453507D01*
X311795Y453401D01*
X311707Y453292D01*
X311622Y453181D01*
X311541Y453067D01*
X311462Y452952D01*
X311387Y452834D01*
X311316Y452714D01*
X311248Y452591D01*
X311183Y452468D01*
X311122Y452342D01*
X311064Y452214D01*
X311010Y452086D01*
X310960Y451955D01*
X310913Y451823D01*
X310870Y451690D01*
X310831Y451556D01*
X310796Y451421D01*
X310765Y451285D01*
X310737Y451147D01*
X310714Y451010D01*
X310694Y450871D01*
X310678Y450732D01*
X310666Y450593D01*
X310658Y450454D01*
X310654Y450314D01*
X310654Y450174D01*
X310658Y450034D01*
X310666Y449895D01*
X310678Y449756D01*
X310694Y449617D01*
X310714Y449478D01*
X310737Y449341D01*
X310765Y449203D01*
X310796Y449067D01*
X310831Y448932D01*
X310870Y448798D01*
X310913Y448665D01*
X310960Y448533D01*
X311010Y448402D01*
X311064Y448274D01*
X311122Y448146D01*
X311183Y448020D01*
X311248Y447897D01*
X311316Y447775D01*
X311387Y447654D01*
X311462Y447536D01*
X311541Y447421D01*
X311622Y447307D01*
X311707Y447196D01*
X311795Y447087D01*
X311885Y446981D01*
X311979Y446877D01*
X312076Y446776D01*
X312176Y446678D01*
X312278Y446583D01*
X312383Y446491D01*
X312490Y446401D01*
X312600Y446315D01*
X312713Y446232D01*
X312827Y446152D01*
X312944Y446075D01*
X313063Y446002D01*
X313184Y445932D01*
X313307Y445866D01*
X313432Y445803D01*
X313559Y445743D01*
X313687Y445688D01*
X313816Y445636D01*
X313948Y445587D01*
X314080Y445542D01*
X314214Y445501D01*
X314348Y445464D01*
X314484Y445431D01*
X314621Y445402D01*
X314758Y445376D01*
X314896Y445354D01*
X315035Y445337D01*
X315174Y445323D01*
X315314Y445313D01*
X315453Y445307D01*
X315593Y445305D01*
X320532Y445305D01*
X314605Y445305D02*
X310654Y437403D01*
X303867Y447281D02*
X297940Y447281D01*
X297816Y447279D01*
X297692Y447273D01*
X297568Y447263D01*
X297445Y447250D01*
X297322Y447232D01*
X297200Y447211D01*
X297078Y447186D01*
X296957Y447157D01*
X296838Y447124D01*
X296719Y447088D01*
X296602Y447047D01*
X296486Y447004D01*
X296371Y446956D01*
X296258Y446905D01*
X296146Y446850D01*
X296037Y446792D01*
X295929Y446731D01*
X295823Y446666D01*
X295719Y446598D01*
X295618Y446526D01*
X295518Y446452D01*
X295422Y446374D01*
X295327Y446294D01*
X295235Y446210D01*
X295146Y446124D01*
X295060Y446035D01*
X294976Y445943D01*
X294896Y445848D01*
X294818Y445752D01*
X294744Y445652D01*
X294672Y445551D01*
X294604Y445447D01*
X294539Y445341D01*
X294478Y445233D01*
X294420Y445124D01*
X294365Y445012D01*
X294314Y444899D01*
X294266Y444784D01*
X294223Y444668D01*
X294182Y444551D01*
X294146Y444432D01*
X294113Y444313D01*
X294084Y444192D01*
X294059Y444070D01*
X294038Y443948D01*
X294020Y443825D01*
X294007Y443702D01*
X293997Y443578D01*
X293991Y443454D01*
X293989Y443330D01*
X293989Y442342D01*
X293991Y442202D01*
X293997Y442063D01*
X294007Y441923D01*
X294021Y441784D01*
X294038Y441645D01*
X294060Y441507D01*
X294086Y441370D01*
X294115Y441233D01*
X294148Y441097D01*
X294185Y440963D01*
X294226Y440829D01*
X294271Y440697D01*
X294320Y440565D01*
X294372Y440436D01*
X294427Y440308D01*
X294487Y440181D01*
X294550Y440056D01*
X294616Y439933D01*
X294686Y439812D01*
X294759Y439693D01*
X294836Y439576D01*
X294916Y439462D01*
X294999Y439349D01*
X295085Y439239D01*
X295175Y439132D01*
X295267Y439027D01*
X295362Y438925D01*
X295460Y438825D01*
X295561Y438728D01*
X295665Y438634D01*
X295771Y438544D01*
X295880Y438456D01*
X295991Y438371D01*
X296105Y438290D01*
X296220Y438211D01*
X296338Y438136D01*
X296459Y438065D01*
X296581Y437997D01*
X296704Y437932D01*
X296830Y437871D01*
X296958Y437813D01*
X297086Y437759D01*
X297217Y437709D01*
X297349Y437662D01*
X297482Y437619D01*
X297616Y437580D01*
X297751Y437545D01*
X297887Y437514D01*
X298025Y437486D01*
X298162Y437463D01*
X298301Y437443D01*
X298440Y437427D01*
X298579Y437415D01*
X298718Y437407D01*
X298858Y437403D01*
X298998Y437403D01*
X299138Y437407D01*
X299277Y437415D01*
X299416Y437427D01*
X299555Y437443D01*
X299694Y437463D01*
X299831Y437486D01*
X299969Y437514D01*
X300105Y437545D01*
X300240Y437580D01*
X300374Y437619D01*
X300507Y437662D01*
X300639Y437709D01*
X300770Y437759D01*
X300898Y437813D01*
X301026Y437871D01*
X301152Y437932D01*
X301275Y437997D01*
X301398Y438065D01*
X301518Y438136D01*
X301636Y438211D01*
X301751Y438290D01*
X301865Y438371D01*
X301976Y438456D01*
X302085Y438544D01*
X302191Y438634D01*
X302295Y438728D01*
X302396Y438825D01*
X302494Y438925D01*
X302589Y439027D01*
X302681Y439132D01*
X302771Y439239D01*
X302857Y439349D01*
X302940Y439462D01*
X303020Y439576D01*
X303097Y439693D01*
X303170Y439812D01*
X303240Y439933D01*
X303306Y440056D01*
X303369Y440181D01*
X303429Y440308D01*
X303484Y440436D01*
X303536Y440565D01*
X303585Y440697D01*
X303630Y440829D01*
X303671Y440963D01*
X303708Y441097D01*
X303741Y441233D01*
X303770Y441370D01*
X303796Y441507D01*
X303818Y441645D01*
X303835Y441784D01*
X303849Y441923D01*
X303859Y442063D01*
X303865Y442202D01*
X303867Y442342D01*
X303867Y447281D01*
X303865Y447475D01*
X303857Y447669D01*
X303846Y447862D01*
X303829Y448056D01*
X303808Y448248D01*
X303781Y448440D01*
X303751Y448632D01*
X303715Y448823D01*
X303675Y449012D01*
X303630Y449201D01*
X303581Y449389D01*
X303527Y449575D01*
X303468Y449760D01*
X303405Y449943D01*
X303338Y450125D01*
X303266Y450305D01*
X303189Y450483D01*
X303108Y450660D01*
X303023Y450834D01*
X302934Y451006D01*
X302840Y451176D01*
X302743Y451343D01*
X302641Y451509D01*
X302535Y451671D01*
X302426Y451831D01*
X302312Y451988D01*
X302195Y452143D01*
X302073Y452294D01*
X301948Y452442D01*
X301820Y452588D01*
X301688Y452730D01*
X301553Y452869D01*
X301414Y453004D01*
X301272Y453136D01*
X301126Y453264D01*
X300978Y453389D01*
X300827Y453510D01*
X300672Y453628D01*
X300515Y453742D01*
X300355Y453851D01*
X300193Y453957D01*
X300027Y454059D01*
X299860Y454156D01*
X299690Y454250D01*
X299518Y454339D01*
X299344Y454424D01*
X299167Y454505D01*
X298989Y454581D01*
X298809Y454653D01*
X298627Y454721D01*
X298444Y454784D01*
X298259Y454843D01*
X298073Y454897D01*
X297885Y454946D01*
X297696Y454991D01*
X297507Y455031D01*
X297316Y455067D01*
X297125Y455097D01*
X296932Y455124D01*
X296740Y455145D01*
X296546Y455162D01*
X296353Y455173D01*
X296159Y455181D01*
X295965Y455183D01*
X285634Y452714D02*
X285784Y452397D01*
X285926Y452078D01*
X286060Y451755D01*
X286187Y451429D01*
X286305Y451099D01*
X286416Y450768D01*
X286519Y450433D01*
X286614Y450097D01*
X286700Y449758D01*
X286779Y449417D01*
X286850Y449074D01*
X286912Y448730D01*
X286966Y448385D01*
X287012Y448038D01*
X287049Y447690D01*
X287078Y447341D01*
X287099Y446992D01*
X287112Y446643D01*
X287116Y446293D01*
X285635Y452714D02*
X285595Y452827D01*
X285551Y452937D01*
X285503Y453047D01*
X285452Y453154D01*
X285397Y453260D01*
X285339Y453365D01*
X285277Y453467D01*
X285212Y453567D01*
X285144Y453665D01*
X285073Y453761D01*
X284998Y453854D01*
X284921Y453945D01*
X284841Y454033D01*
X284758Y454118D01*
X284672Y454201D01*
X284583Y454281D01*
X284492Y454358D01*
X284398Y454432D01*
X284302Y454503D01*
X284204Y454571D01*
X284104Y454635D01*
X284001Y454697D01*
X283897Y454754D01*
X283791Y454809D01*
X283683Y454860D01*
X283573Y454907D01*
X283462Y454951D01*
X283350Y454991D01*
X283236Y455027D01*
X283122Y455060D01*
X283006Y455089D01*
X282889Y455114D01*
X282772Y455135D01*
X282654Y455153D01*
X282535Y455166D01*
X282416Y455176D01*
X282297Y455182D01*
X282178Y455184D01*
X282178Y455183D02*
X282059Y455181D01*
X281940Y455175D01*
X281821Y455165D01*
X281702Y455152D01*
X281584Y455134D01*
X281467Y455113D01*
X281350Y455088D01*
X281234Y455059D01*
X281120Y455026D01*
X281006Y454990D01*
X280894Y454950D01*
X280783Y454906D01*
X280673Y454859D01*
X280565Y454808D01*
X280459Y454753D01*
X280355Y454696D01*
X280252Y454634D01*
X280152Y454570D01*
X280054Y454502D01*
X279958Y454431D01*
X279864Y454357D01*
X279773Y454280D01*
X279684Y454200D01*
X279599Y454117D01*
X279515Y454032D01*
X279435Y453944D01*
X279358Y453853D01*
X279283Y453760D01*
X279212Y453664D01*
X279144Y453566D01*
X279079Y453466D01*
X279017Y453364D01*
X278959Y453259D01*
X278904Y453154D01*
X278853Y453046D01*
X278805Y452936D01*
X278761Y452826D01*
X278721Y452713D01*
X278721Y452714D02*
X278571Y452397D01*
X278429Y452078D01*
X278295Y451755D01*
X278168Y451429D01*
X278050Y451099D01*
X277939Y450768D01*
X277836Y450433D01*
X277741Y450097D01*
X277655Y449758D01*
X277576Y449417D01*
X277505Y449074D01*
X277443Y448730D01*
X277389Y448385D01*
X277343Y448038D01*
X277306Y447690D01*
X277277Y447341D01*
X277256Y446992D01*
X277243Y446643D01*
X277239Y446293D01*
X287116Y446293D02*
X287112Y445943D01*
X287099Y445594D01*
X287078Y445245D01*
X287049Y444896D01*
X287012Y444548D01*
X286966Y444201D01*
X286912Y443856D01*
X286850Y443512D01*
X286779Y443169D01*
X286700Y442828D01*
X286614Y442489D01*
X286519Y442153D01*
X286416Y441818D01*
X286305Y441487D01*
X286187Y441158D01*
X286060Y440831D01*
X285926Y440508D01*
X285784Y440189D01*
X285634Y439873D01*
X285635Y439873D02*
X285595Y439760D01*
X285551Y439650D01*
X285503Y439540D01*
X285452Y439433D01*
X285397Y439327D01*
X285339Y439222D01*
X285277Y439120D01*
X285212Y439020D01*
X285144Y438922D01*
X285073Y438826D01*
X284998Y438733D01*
X284921Y438642D01*
X284841Y438554D01*
X284758Y438469D01*
X284672Y438386D01*
X284583Y438306D01*
X284492Y438229D01*
X284398Y438155D01*
X284302Y438084D01*
X284204Y438016D01*
X284104Y437952D01*
X284001Y437890D01*
X283897Y437833D01*
X283791Y437778D01*
X283683Y437727D01*
X283573Y437680D01*
X283462Y437636D01*
X283350Y437596D01*
X283236Y437560D01*
X283122Y437527D01*
X283006Y437498D01*
X282889Y437473D01*
X282772Y437452D01*
X282654Y437434D01*
X282535Y437421D01*
X282416Y437411D01*
X282297Y437405D01*
X282178Y437403D01*
X278721Y439873D02*
X278571Y440189D01*
X278429Y440508D01*
X278295Y440831D01*
X278168Y441158D01*
X278050Y441487D01*
X277939Y441818D01*
X277836Y442153D01*
X277741Y442489D01*
X277655Y442828D01*
X277576Y443169D01*
X277505Y443512D01*
X277443Y443856D01*
X277389Y444201D01*
X277343Y444548D01*
X277306Y444896D01*
X277277Y445245D01*
X277256Y445594D01*
X277243Y445943D01*
X277239Y446293D01*
X278721Y439873D02*
X278761Y439760D01*
X278805Y439650D01*
X278853Y439540D01*
X278904Y439432D01*
X278959Y439326D01*
X279017Y439222D01*
X279079Y439120D01*
X279144Y439020D01*
X279212Y438922D01*
X279283Y438826D01*
X279358Y438733D01*
X279435Y438642D01*
X279515Y438554D01*
X279599Y438469D01*
X279684Y438386D01*
X279773Y438306D01*
X279864Y438229D01*
X279958Y438155D01*
X280054Y438084D01*
X280152Y438016D01*
X280252Y437952D01*
X280355Y437890D01*
X280459Y437832D01*
X280565Y437778D01*
X280673Y437727D01*
X280783Y437680D01*
X280894Y437636D01*
X281006Y437596D01*
X281120Y437560D01*
X281234Y437527D01*
X281350Y437498D01*
X281467Y437473D01*
X281584Y437452D01*
X281702Y437434D01*
X281821Y437421D01*
X281940Y437411D01*
X282059Y437405D01*
X282178Y437403D01*
X286129Y441354D02*
X278226Y451232D01*
D11*
X322524Y261112D02*
X325769Y258516D01*
X322524Y261112D02*
X322524Y249428D01*
X325769Y249428D02*
X319278Y249428D01*
X322199Y231902D02*
X322092Y231900D01*
X321986Y231894D01*
X321880Y231884D01*
X321774Y231871D01*
X321668Y231853D01*
X321564Y231832D01*
X321460Y231807D01*
X321357Y231778D01*
X321256Y231746D01*
X321156Y231709D01*
X321057Y231669D01*
X320959Y231626D01*
X320863Y231579D01*
X320769Y231528D01*
X320677Y231474D01*
X320587Y231417D01*
X320499Y231357D01*
X320414Y231293D01*
X320331Y231226D01*
X320250Y231156D01*
X320172Y231084D01*
X320096Y231008D01*
X320024Y230930D01*
X319954Y230849D01*
X319887Y230766D01*
X319823Y230681D01*
X319763Y230593D01*
X319706Y230503D01*
X319652Y230411D01*
X319601Y230317D01*
X319554Y230221D01*
X319511Y230123D01*
X319471Y230024D01*
X319434Y229924D01*
X319402Y229823D01*
X319373Y229720D01*
X319348Y229616D01*
X319327Y229512D01*
X319309Y229406D01*
X319296Y229300D01*
X319286Y229194D01*
X319280Y229088D01*
X319278Y228981D01*
X322199Y231902D02*
X322320Y231900D01*
X322441Y231894D01*
X322561Y231884D01*
X322682Y231871D01*
X322801Y231853D01*
X322921Y231832D01*
X323039Y231807D01*
X323156Y231778D01*
X323273Y231745D01*
X323388Y231709D01*
X323502Y231668D01*
X323615Y231625D01*
X323727Y231577D01*
X323836Y231526D01*
X323944Y231471D01*
X324051Y231413D01*
X324155Y231352D01*
X324257Y231287D01*
X324357Y231219D01*
X324455Y231148D01*
X324551Y231074D01*
X324644Y230997D01*
X324734Y230916D01*
X324822Y230833D01*
X324907Y230747D01*
X324990Y230658D01*
X325069Y230567D01*
X325146Y230473D01*
X325219Y230377D01*
X325289Y230279D01*
X325356Y230178D01*
X325420Y230075D01*
X325481Y229970D01*
X325538Y229863D01*
X325591Y229755D01*
X325641Y229645D01*
X325687Y229533D01*
X325730Y229420D01*
X325769Y229305D01*
X320252Y226709D02*
X320173Y226787D01*
X320097Y226867D01*
X320024Y226950D01*
X319954Y227036D01*
X319887Y227123D01*
X319823Y227214D01*
X319763Y227306D01*
X319705Y227400D01*
X319651Y227497D01*
X319601Y227595D01*
X319554Y227695D01*
X319510Y227796D01*
X319470Y227899D01*
X319434Y228004D01*
X319402Y228109D01*
X319373Y228216D01*
X319348Y228323D01*
X319326Y228432D01*
X319309Y228541D01*
X319295Y228650D01*
X319286Y228760D01*
X319280Y228871D01*
X319278Y228981D01*
X320252Y226709D02*
X325769Y220218D01*
X319278Y220218D01*
X322524Y203708D02*
X325769Y203708D01*
X322524Y203708D02*
X322411Y203710D01*
X322298Y203716D01*
X322185Y203726D01*
X322072Y203740D01*
X321960Y203757D01*
X321849Y203779D01*
X321739Y203804D01*
X321629Y203834D01*
X321521Y203867D01*
X321414Y203904D01*
X321308Y203944D01*
X321204Y203989D01*
X321101Y204037D01*
X321000Y204088D01*
X320901Y204143D01*
X320804Y204201D01*
X320709Y204263D01*
X320616Y204328D01*
X320526Y204396D01*
X320438Y204467D01*
X320352Y204542D01*
X320269Y204619D01*
X320189Y204699D01*
X320112Y204782D01*
X320037Y204868D01*
X319966Y204956D01*
X319898Y205046D01*
X319833Y205139D01*
X319771Y205234D01*
X319713Y205331D01*
X319658Y205430D01*
X319607Y205531D01*
X319559Y205634D01*
X319514Y205738D01*
X319474Y205844D01*
X319437Y205951D01*
X319404Y206059D01*
X319374Y206169D01*
X319349Y206279D01*
X319327Y206390D01*
X319310Y206502D01*
X319296Y206615D01*
X319286Y206728D01*
X319280Y206841D01*
X319278Y206954D01*
X319280Y207067D01*
X319286Y207180D01*
X319296Y207293D01*
X319310Y207406D01*
X319327Y207518D01*
X319349Y207629D01*
X319374Y207739D01*
X319404Y207849D01*
X319437Y207957D01*
X319474Y208064D01*
X319514Y208170D01*
X319559Y208274D01*
X319607Y208377D01*
X319658Y208478D01*
X319713Y208577D01*
X319771Y208674D01*
X319833Y208769D01*
X319898Y208862D01*
X319966Y208952D01*
X320037Y209040D01*
X320112Y209126D01*
X320189Y209209D01*
X320269Y209289D01*
X320352Y209366D01*
X320438Y209441D01*
X320526Y209512D01*
X320616Y209580D01*
X320709Y209645D01*
X320804Y209707D01*
X320901Y209765D01*
X321000Y209820D01*
X321101Y209871D01*
X321204Y209919D01*
X321308Y209964D01*
X321414Y210004D01*
X321521Y210041D01*
X321629Y210074D01*
X321739Y210104D01*
X321849Y210129D01*
X321960Y210151D01*
X322072Y210168D01*
X322185Y210182D01*
X322298Y210192D01*
X322411Y210198D01*
X322524Y210200D01*
X321874Y215392D02*
X325769Y215392D01*
X321874Y215392D02*
X321773Y215390D01*
X321673Y215384D01*
X321573Y215374D01*
X321473Y215361D01*
X321374Y215343D01*
X321275Y215322D01*
X321178Y215297D01*
X321081Y215268D01*
X320986Y215235D01*
X320892Y215199D01*
X320800Y215159D01*
X320709Y215116D01*
X320620Y215069D01*
X320533Y215019D01*
X320447Y214965D01*
X320364Y214908D01*
X320284Y214848D01*
X320205Y214785D01*
X320129Y214718D01*
X320056Y214649D01*
X319986Y214577D01*
X319918Y214503D01*
X319853Y214426D01*
X319792Y214346D01*
X319733Y214264D01*
X319678Y214180D01*
X319626Y214094D01*
X319577Y214006D01*
X319532Y213916D01*
X319490Y213824D01*
X319452Y213731D01*
X319418Y213636D01*
X319387Y213541D01*
X319360Y213444D01*
X319337Y213346D01*
X319317Y213247D01*
X319302Y213147D01*
X319290Y213047D01*
X319282Y212947D01*
X319278Y212846D01*
X319278Y212746D01*
X319282Y212645D01*
X319290Y212545D01*
X319302Y212445D01*
X319317Y212345D01*
X319337Y212246D01*
X319360Y212148D01*
X319387Y212051D01*
X319418Y211956D01*
X319452Y211861D01*
X319490Y211768D01*
X319532Y211676D01*
X319577Y211586D01*
X319626Y211498D01*
X319678Y211412D01*
X319733Y211328D01*
X319792Y211246D01*
X319853Y211166D01*
X319918Y211089D01*
X319986Y211015D01*
X320056Y210943D01*
X320129Y210874D01*
X320205Y210807D01*
X320284Y210744D01*
X320364Y210684D01*
X320447Y210627D01*
X320533Y210573D01*
X320620Y210523D01*
X320709Y210476D01*
X320800Y210433D01*
X320892Y210393D01*
X320986Y210357D01*
X321081Y210324D01*
X321178Y210295D01*
X321275Y210270D01*
X321374Y210249D01*
X321473Y210231D01*
X321573Y210218D01*
X321673Y210208D01*
X321773Y210202D01*
X321874Y210200D01*
X321874Y210199D02*
X324471Y210199D01*
D12*
X401284Y339361D02*
X401284Y341449D01*
X401284Y339361D02*
X401286Y339272D01*
X401292Y339184D01*
X401301Y339096D01*
X401314Y339008D01*
X401331Y338921D01*
X401351Y338835D01*
X401376Y338750D01*
X401403Y338665D01*
X401435Y338582D01*
X401469Y338501D01*
X401508Y338421D01*
X401549Y338343D01*
X401594Y338266D01*
X401642Y338192D01*
X401693Y338119D01*
X401747Y338049D01*
X401805Y337982D01*
X401865Y337916D01*
X401927Y337854D01*
X401993Y337794D01*
X402060Y337736D01*
X402130Y337682D01*
X402203Y337631D01*
X402277Y337583D01*
X402354Y337538D01*
X402432Y337497D01*
X402512Y337458D01*
X402593Y337424D01*
X402676Y337392D01*
X402761Y337365D01*
X402846Y337340D01*
X402932Y337320D01*
X403019Y337303D01*
X403107Y337290D01*
X403195Y337281D01*
X403283Y337275D01*
X403372Y337273D01*
X403372Y337272D02*
X408593Y337272D01*
X408593Y337273D02*
X408684Y337275D01*
X408775Y337281D01*
X408866Y337291D01*
X408956Y337305D01*
X409045Y337322D01*
X409133Y337344D01*
X409221Y337370D01*
X409307Y337399D01*
X409392Y337432D01*
X409475Y337469D01*
X409557Y337509D01*
X409637Y337553D01*
X409715Y337600D01*
X409791Y337651D01*
X409864Y337704D01*
X409935Y337761D01*
X410004Y337822D01*
X410069Y337885D01*
X410132Y337950D01*
X410192Y338019D01*
X410250Y338090D01*
X410303Y338163D01*
X410354Y338239D01*
X410401Y338317D01*
X410445Y338397D01*
X410485Y338479D01*
X410522Y338562D01*
X410555Y338647D01*
X410584Y338733D01*
X410610Y338821D01*
X410632Y338909D01*
X410649Y338998D01*
X410663Y339088D01*
X410673Y339179D01*
X410679Y339270D01*
X410681Y339361D01*
X410682Y339361D02*
X410682Y341449D01*
X408593Y344918D02*
X410682Y347528D01*
X401284Y347528D01*
X401284Y344918D02*
X401284Y350139D01*
X408593Y354062D02*
X410682Y356672D01*
X401284Y356672D01*
X401284Y354062D02*
X401284Y359283D01*
X395785Y442341D02*
X395785Y451739D01*
X393175Y451739D01*
X393074Y451737D01*
X392973Y451731D01*
X392872Y451721D01*
X392772Y451708D01*
X392672Y451690D01*
X392573Y451669D01*
X392475Y451643D01*
X392378Y451614D01*
X392282Y451582D01*
X392188Y451545D01*
X392095Y451505D01*
X392003Y451461D01*
X391914Y451414D01*
X391826Y451363D01*
X391740Y451309D01*
X391657Y451252D01*
X391575Y451192D01*
X391497Y451128D01*
X391420Y451062D01*
X391347Y450992D01*
X391276Y450920D01*
X391208Y450845D01*
X391143Y450767D01*
X391081Y450687D01*
X391022Y450605D01*
X390966Y450520D01*
X390914Y450434D01*
X390865Y450345D01*
X390819Y450254D01*
X390778Y450162D01*
X390739Y450068D01*
X390705Y449973D01*
X390674Y449877D01*
X390647Y449779D01*
X390623Y449681D01*
X390604Y449581D01*
X390588Y449481D01*
X390576Y449381D01*
X390568Y449280D01*
X390564Y449179D01*
X390564Y449077D01*
X390568Y448976D01*
X390576Y448875D01*
X390588Y448775D01*
X390604Y448675D01*
X390623Y448575D01*
X390647Y448477D01*
X390674Y448379D01*
X390705Y448283D01*
X390739Y448188D01*
X390778Y448094D01*
X390819Y448002D01*
X390865Y447911D01*
X390914Y447823D01*
X390966Y447736D01*
X391022Y447651D01*
X391081Y447569D01*
X391143Y447489D01*
X391208Y447411D01*
X391276Y447336D01*
X391347Y447264D01*
X391420Y447194D01*
X391497Y447128D01*
X391575Y447064D01*
X391657Y447004D01*
X391740Y446947D01*
X391826Y446893D01*
X391914Y446842D01*
X392003Y446795D01*
X392095Y446751D01*
X392188Y446711D01*
X392282Y446674D01*
X392378Y446642D01*
X392475Y446613D01*
X392573Y446587D01*
X392672Y446566D01*
X392772Y446548D01*
X392872Y446535D01*
X392973Y446525D01*
X393074Y446519D01*
X393175Y446517D01*
X393175Y446518D02*
X395785Y446518D01*
X392653Y446518D02*
X390564Y442341D01*
X386698Y442341D02*
X384088Y442341D01*
X383987Y442343D01*
X383886Y442349D01*
X383785Y442359D01*
X383685Y442372D01*
X383585Y442390D01*
X383486Y442411D01*
X383388Y442437D01*
X383291Y442466D01*
X383195Y442498D01*
X383101Y442535D01*
X383008Y442575D01*
X382916Y442619D01*
X382827Y442666D01*
X382739Y442717D01*
X382653Y442771D01*
X382570Y442828D01*
X382488Y442888D01*
X382410Y442952D01*
X382333Y443018D01*
X382260Y443088D01*
X382189Y443160D01*
X382121Y443235D01*
X382056Y443313D01*
X381994Y443393D01*
X381935Y443475D01*
X381879Y443560D01*
X381827Y443647D01*
X381778Y443735D01*
X381732Y443826D01*
X381691Y443918D01*
X381652Y444012D01*
X381618Y444107D01*
X381587Y444203D01*
X381560Y444301D01*
X381536Y444399D01*
X381517Y444499D01*
X381501Y444599D01*
X381489Y444699D01*
X381481Y444800D01*
X381477Y444901D01*
X381477Y445003D01*
X381481Y445104D01*
X381489Y445205D01*
X381501Y445305D01*
X381517Y445405D01*
X381536Y445505D01*
X381560Y445603D01*
X381587Y445701D01*
X381618Y445797D01*
X381652Y445892D01*
X381691Y445986D01*
X381732Y446078D01*
X381778Y446169D01*
X381827Y446258D01*
X381879Y446344D01*
X381935Y446429D01*
X381994Y446511D01*
X382056Y446591D01*
X382121Y446669D01*
X382189Y446744D01*
X382260Y446816D01*
X382333Y446886D01*
X382410Y446952D01*
X382488Y447016D01*
X382570Y447076D01*
X382653Y447133D01*
X382739Y447187D01*
X382827Y447238D01*
X382916Y447285D01*
X383008Y447329D01*
X383101Y447369D01*
X383195Y447406D01*
X383291Y447438D01*
X383388Y447467D01*
X383486Y447493D01*
X383585Y447514D01*
X383685Y447532D01*
X383785Y447545D01*
X383886Y447555D01*
X383987Y447561D01*
X384088Y447563D01*
X383566Y451739D02*
X386698Y451739D01*
X383566Y451739D02*
X383476Y451737D01*
X383387Y451731D01*
X383297Y451722D01*
X383208Y451708D01*
X383120Y451691D01*
X383033Y451670D01*
X382946Y451645D01*
X382861Y451616D01*
X382777Y451584D01*
X382695Y451549D01*
X382614Y451509D01*
X382535Y451467D01*
X382458Y451421D01*
X382383Y451371D01*
X382310Y451319D01*
X382239Y451263D01*
X382171Y451205D01*
X382106Y451143D01*
X382043Y451079D01*
X381983Y451012D01*
X381926Y450943D01*
X381872Y450871D01*
X381821Y450797D01*
X381773Y450721D01*
X381729Y450643D01*
X381688Y450563D01*
X381650Y450481D01*
X381616Y450398D01*
X381586Y450313D01*
X381559Y450227D01*
X381536Y450141D01*
X381517Y450053D01*
X381502Y449964D01*
X381490Y449875D01*
X381482Y449786D01*
X381478Y449696D01*
X381478Y449606D01*
X381482Y449516D01*
X381490Y449427D01*
X381502Y449338D01*
X381517Y449249D01*
X381536Y449161D01*
X381559Y449075D01*
X381586Y448989D01*
X381616Y448904D01*
X381650Y448821D01*
X381688Y448739D01*
X381729Y448659D01*
X381773Y448581D01*
X381821Y448505D01*
X381872Y448431D01*
X381926Y448359D01*
X381983Y448290D01*
X382043Y448223D01*
X382106Y448159D01*
X382171Y448097D01*
X382239Y448039D01*
X382310Y447983D01*
X382383Y447931D01*
X382458Y447881D01*
X382535Y447835D01*
X382614Y447793D01*
X382695Y447753D01*
X382777Y447718D01*
X382861Y447686D01*
X382946Y447657D01*
X383033Y447632D01*
X383120Y447611D01*
X383208Y447594D01*
X383297Y447580D01*
X383387Y447571D01*
X383476Y447565D01*
X383566Y447563D01*
X383566Y447562D02*
X385654Y447562D01*
D10*
X392697Y249517D02*
X372567Y249517D01*
D12*
X393827Y229602D02*
X393827Y227513D01*
X393829Y227424D01*
X393835Y227336D01*
X393844Y227248D01*
X393857Y227160D01*
X393874Y227073D01*
X393894Y226987D01*
X393919Y226902D01*
X393946Y226817D01*
X393978Y226734D01*
X394012Y226653D01*
X394051Y226573D01*
X394092Y226495D01*
X394137Y226418D01*
X394185Y226344D01*
X394236Y226271D01*
X394290Y226201D01*
X394348Y226134D01*
X394408Y226068D01*
X394470Y226006D01*
X394536Y225946D01*
X394603Y225888D01*
X394673Y225834D01*
X394746Y225783D01*
X394820Y225735D01*
X394897Y225690D01*
X394975Y225649D01*
X395055Y225610D01*
X395136Y225576D01*
X395219Y225544D01*
X395304Y225517D01*
X395389Y225492D01*
X395475Y225472D01*
X395562Y225455D01*
X395650Y225442D01*
X395738Y225433D01*
X395826Y225427D01*
X395915Y225425D01*
X401137Y225425D01*
X401228Y225427D01*
X401319Y225433D01*
X401410Y225443D01*
X401500Y225457D01*
X401589Y225474D01*
X401677Y225496D01*
X401765Y225522D01*
X401851Y225551D01*
X401936Y225584D01*
X402019Y225621D01*
X402101Y225661D01*
X402181Y225705D01*
X402259Y225752D01*
X402335Y225803D01*
X402408Y225856D01*
X402479Y225913D01*
X402548Y225974D01*
X402613Y226037D01*
X402676Y226102D01*
X402736Y226171D01*
X402794Y226242D01*
X402847Y226315D01*
X402898Y226391D01*
X402945Y226469D01*
X402989Y226549D01*
X403029Y226631D01*
X403066Y226714D01*
X403099Y226799D01*
X403128Y226885D01*
X403154Y226973D01*
X403176Y227061D01*
X403193Y227150D01*
X403207Y227240D01*
X403217Y227331D01*
X403223Y227422D01*
X403225Y227513D01*
X403225Y229602D01*
X398004Y235159D02*
X398004Y238292D01*
X398004Y235159D02*
X398006Y235070D01*
X398012Y234982D01*
X398021Y234894D01*
X398034Y234806D01*
X398051Y234719D01*
X398071Y234633D01*
X398096Y234548D01*
X398123Y234463D01*
X398155Y234380D01*
X398189Y234299D01*
X398228Y234219D01*
X398269Y234141D01*
X398314Y234064D01*
X398362Y233990D01*
X398413Y233917D01*
X398467Y233847D01*
X398525Y233780D01*
X398585Y233714D01*
X398647Y233652D01*
X398713Y233592D01*
X398780Y233534D01*
X398850Y233480D01*
X398923Y233429D01*
X398997Y233381D01*
X399074Y233336D01*
X399152Y233295D01*
X399232Y233256D01*
X399313Y233222D01*
X399396Y233190D01*
X399481Y233163D01*
X399566Y233138D01*
X399652Y233118D01*
X399739Y233101D01*
X399827Y233088D01*
X399915Y233079D01*
X400003Y233073D01*
X400092Y233071D01*
X400614Y233071D01*
X400614Y233070D02*
X400715Y233072D01*
X400816Y233078D01*
X400917Y233088D01*
X401017Y233101D01*
X401117Y233119D01*
X401216Y233140D01*
X401314Y233166D01*
X401411Y233195D01*
X401507Y233227D01*
X401601Y233264D01*
X401694Y233304D01*
X401786Y233348D01*
X401875Y233395D01*
X401963Y233446D01*
X402049Y233500D01*
X402132Y233557D01*
X402214Y233617D01*
X402292Y233681D01*
X402369Y233747D01*
X402442Y233817D01*
X402513Y233889D01*
X402581Y233964D01*
X402646Y234042D01*
X402708Y234122D01*
X402767Y234204D01*
X402823Y234289D01*
X402875Y234375D01*
X402924Y234464D01*
X402970Y234555D01*
X403011Y234647D01*
X403050Y234741D01*
X403084Y234836D01*
X403115Y234932D01*
X403142Y235030D01*
X403166Y235128D01*
X403185Y235228D01*
X403201Y235328D01*
X403213Y235428D01*
X403221Y235529D01*
X403225Y235630D01*
X403225Y235732D01*
X403221Y235833D01*
X403213Y235934D01*
X403201Y236034D01*
X403185Y236134D01*
X403166Y236234D01*
X403142Y236332D01*
X403115Y236430D01*
X403084Y236526D01*
X403050Y236621D01*
X403011Y236715D01*
X402970Y236807D01*
X402924Y236898D01*
X402875Y236986D01*
X402823Y237073D01*
X402767Y237158D01*
X402708Y237240D01*
X402646Y237320D01*
X402581Y237398D01*
X402513Y237473D01*
X402442Y237545D01*
X402369Y237615D01*
X402292Y237681D01*
X402214Y237745D01*
X402132Y237805D01*
X402049Y237862D01*
X401963Y237916D01*
X401875Y237967D01*
X401786Y238014D01*
X401694Y238058D01*
X401601Y238098D01*
X401507Y238135D01*
X401411Y238167D01*
X401314Y238196D01*
X401216Y238222D01*
X401117Y238243D01*
X401017Y238261D01*
X400917Y238274D01*
X400816Y238284D01*
X400715Y238290D01*
X400614Y238292D01*
X398004Y238292D01*
X397878Y238290D01*
X397752Y238284D01*
X397626Y238275D01*
X397501Y238262D01*
X397376Y238244D01*
X397251Y238224D01*
X397127Y238199D01*
X397004Y238171D01*
X396882Y238139D01*
X396761Y238103D01*
X396641Y238064D01*
X396523Y238021D01*
X396406Y237974D01*
X396290Y237924D01*
X396175Y237870D01*
X396063Y237814D01*
X395952Y237753D01*
X395843Y237690D01*
X395736Y237623D01*
X395631Y237553D01*
X395528Y237479D01*
X395428Y237403D01*
X395330Y237324D01*
X395234Y237242D01*
X395141Y237156D01*
X395050Y237069D01*
X394963Y236978D01*
X394877Y236885D01*
X394795Y236789D01*
X394716Y236691D01*
X394640Y236591D01*
X394566Y236488D01*
X394496Y236383D01*
X394429Y236276D01*
X394366Y236167D01*
X394305Y236056D01*
X394249Y235944D01*
X394195Y235829D01*
X394145Y235713D01*
X394098Y235596D01*
X394055Y235478D01*
X394016Y235358D01*
X393980Y235237D01*
X393948Y235115D01*
X393920Y234992D01*
X393895Y234868D01*
X393875Y234743D01*
X393857Y234618D01*
X393844Y234493D01*
X393835Y234367D01*
X393829Y234241D01*
X393827Y234115D01*
X406768Y295783D02*
X408856Y295783D01*
X408945Y295785D01*
X409033Y295791D01*
X409121Y295800D01*
X409209Y295813D01*
X409296Y295830D01*
X409382Y295850D01*
X409467Y295875D01*
X409552Y295902D01*
X409635Y295934D01*
X409716Y295968D01*
X409796Y296007D01*
X409874Y296048D01*
X409951Y296093D01*
X410025Y296141D01*
X410098Y296192D01*
X410168Y296246D01*
X410235Y296304D01*
X410301Y296364D01*
X410363Y296426D01*
X410423Y296492D01*
X410481Y296559D01*
X410535Y296629D01*
X410586Y296702D01*
X410634Y296776D01*
X410679Y296853D01*
X410720Y296931D01*
X410759Y297011D01*
X410793Y297092D01*
X410825Y297175D01*
X410852Y297260D01*
X410877Y297345D01*
X410897Y297431D01*
X410914Y297518D01*
X410927Y297606D01*
X410936Y297694D01*
X410942Y297782D01*
X410944Y297871D01*
X410945Y297871D02*
X410945Y303093D01*
X410944Y303093D02*
X410942Y303182D01*
X410936Y303270D01*
X410927Y303358D01*
X410914Y303446D01*
X410897Y303533D01*
X410877Y303619D01*
X410852Y303704D01*
X410825Y303789D01*
X410793Y303872D01*
X410759Y303953D01*
X410720Y304033D01*
X410679Y304111D01*
X410634Y304188D01*
X410586Y304262D01*
X410535Y304335D01*
X410481Y304405D01*
X410423Y304472D01*
X410363Y304538D01*
X410301Y304600D01*
X410235Y304660D01*
X410168Y304718D01*
X410098Y304772D01*
X410025Y304823D01*
X409951Y304871D01*
X409874Y304916D01*
X409796Y304957D01*
X409716Y304996D01*
X409635Y305030D01*
X409552Y305062D01*
X409467Y305089D01*
X409382Y305114D01*
X409296Y305134D01*
X409209Y305151D01*
X409121Y305164D01*
X409033Y305173D01*
X408945Y305179D01*
X408856Y305181D01*
X406768Y305181D01*
X403299Y303093D02*
X400688Y305181D01*
X400688Y295783D01*
X398078Y295783D02*
X403299Y295783D01*
X259461Y451375D02*
X259461Y453463D01*
X259461Y451375D02*
X259463Y451286D01*
X259469Y451198D01*
X259478Y451110D01*
X259491Y451022D01*
X259508Y450935D01*
X259528Y450849D01*
X259553Y450764D01*
X259580Y450679D01*
X259612Y450596D01*
X259646Y450515D01*
X259685Y450435D01*
X259726Y450357D01*
X259771Y450280D01*
X259819Y450206D01*
X259870Y450133D01*
X259924Y450063D01*
X259982Y449996D01*
X260042Y449930D01*
X260104Y449868D01*
X260170Y449808D01*
X260237Y449750D01*
X260307Y449696D01*
X260380Y449645D01*
X260454Y449597D01*
X260531Y449552D01*
X260609Y449511D01*
X260689Y449472D01*
X260770Y449438D01*
X260853Y449406D01*
X260938Y449379D01*
X261023Y449354D01*
X261109Y449334D01*
X261196Y449317D01*
X261284Y449304D01*
X261372Y449295D01*
X261460Y449289D01*
X261549Y449287D01*
X261549Y449286D02*
X266771Y449286D01*
X266771Y449287D02*
X266862Y449289D01*
X266953Y449295D01*
X267044Y449305D01*
X267134Y449319D01*
X267223Y449336D01*
X267311Y449358D01*
X267399Y449384D01*
X267485Y449413D01*
X267570Y449446D01*
X267653Y449483D01*
X267735Y449523D01*
X267815Y449567D01*
X267893Y449614D01*
X267969Y449665D01*
X268042Y449718D01*
X268113Y449775D01*
X268182Y449836D01*
X268247Y449899D01*
X268310Y449964D01*
X268370Y450033D01*
X268428Y450104D01*
X268481Y450177D01*
X268532Y450253D01*
X268579Y450331D01*
X268623Y450411D01*
X268663Y450493D01*
X268700Y450576D01*
X268733Y450661D01*
X268762Y450747D01*
X268788Y450835D01*
X268810Y450923D01*
X268827Y451012D01*
X268841Y451102D01*
X268851Y451193D01*
X268857Y451284D01*
X268859Y451375D01*
X268859Y453463D01*
X264682Y456932D02*
X264682Y460065D01*
X264680Y460154D01*
X264674Y460242D01*
X264665Y460330D01*
X264652Y460418D01*
X264635Y460505D01*
X264615Y460591D01*
X264590Y460676D01*
X264563Y460761D01*
X264531Y460844D01*
X264497Y460925D01*
X264458Y461005D01*
X264417Y461083D01*
X264372Y461160D01*
X264324Y461234D01*
X264273Y461307D01*
X264219Y461377D01*
X264161Y461444D01*
X264101Y461510D01*
X264039Y461572D01*
X263973Y461632D01*
X263906Y461690D01*
X263836Y461744D01*
X263763Y461795D01*
X263689Y461843D01*
X263612Y461888D01*
X263534Y461929D01*
X263454Y461968D01*
X263373Y462002D01*
X263290Y462034D01*
X263205Y462061D01*
X263120Y462086D01*
X263034Y462106D01*
X262947Y462123D01*
X262859Y462136D01*
X262771Y462145D01*
X262683Y462151D01*
X262594Y462153D01*
X262072Y462153D01*
X261971Y462151D01*
X261870Y462145D01*
X261769Y462135D01*
X261669Y462122D01*
X261569Y462104D01*
X261470Y462083D01*
X261372Y462057D01*
X261275Y462028D01*
X261179Y461996D01*
X261085Y461959D01*
X260992Y461919D01*
X260900Y461875D01*
X260811Y461828D01*
X260723Y461777D01*
X260637Y461723D01*
X260554Y461666D01*
X260472Y461606D01*
X260394Y461542D01*
X260317Y461476D01*
X260244Y461406D01*
X260173Y461334D01*
X260105Y461259D01*
X260040Y461181D01*
X259978Y461101D01*
X259919Y461019D01*
X259863Y460934D01*
X259811Y460848D01*
X259762Y460759D01*
X259716Y460668D01*
X259675Y460576D01*
X259636Y460482D01*
X259602Y460387D01*
X259571Y460291D01*
X259544Y460193D01*
X259520Y460095D01*
X259501Y459995D01*
X259485Y459895D01*
X259473Y459795D01*
X259465Y459694D01*
X259461Y459593D01*
X259461Y459491D01*
X259465Y459390D01*
X259473Y459289D01*
X259485Y459189D01*
X259501Y459089D01*
X259520Y458989D01*
X259544Y458891D01*
X259571Y458793D01*
X259602Y458697D01*
X259636Y458602D01*
X259675Y458508D01*
X259716Y458416D01*
X259762Y458325D01*
X259811Y458237D01*
X259863Y458150D01*
X259919Y458065D01*
X259978Y457983D01*
X260040Y457903D01*
X260105Y457825D01*
X260173Y457750D01*
X260244Y457678D01*
X260317Y457608D01*
X260394Y457542D01*
X260472Y457478D01*
X260554Y457418D01*
X260637Y457361D01*
X260723Y457307D01*
X260811Y457256D01*
X260900Y457209D01*
X260992Y457165D01*
X261085Y457125D01*
X261179Y457088D01*
X261275Y457056D01*
X261372Y457027D01*
X261470Y457001D01*
X261569Y456980D01*
X261669Y456962D01*
X261769Y456949D01*
X261870Y456939D01*
X261971Y456933D01*
X262072Y456931D01*
X262072Y456932D02*
X264682Y456932D01*
X264811Y456934D01*
X264939Y456940D01*
X265067Y456950D01*
X265195Y456964D01*
X265323Y456981D01*
X265450Y457003D01*
X265576Y457029D01*
X265701Y457058D01*
X265825Y457091D01*
X265948Y457129D01*
X266070Y457169D01*
X266191Y457214D01*
X266310Y457262D01*
X266428Y457314D01*
X266544Y457370D01*
X266658Y457429D01*
X266770Y457492D01*
X266881Y457558D01*
X266989Y457627D01*
X267095Y457700D01*
X267199Y457776D01*
X267301Y457855D01*
X267400Y457937D01*
X267496Y458022D01*
X267590Y458110D01*
X267681Y458201D01*
X267769Y458295D01*
X267854Y458391D01*
X267936Y458490D01*
X268015Y458592D01*
X268091Y458696D01*
X268164Y458802D01*
X268233Y458910D01*
X268299Y459020D01*
X268362Y459133D01*
X268421Y459247D01*
X268477Y459363D01*
X268529Y459481D01*
X268577Y459600D01*
X268622Y459721D01*
X268662Y459843D01*
X268700Y459966D01*
X268733Y460090D01*
X268762Y460215D01*
X268788Y460341D01*
X268810Y460468D01*
X268827Y460596D01*
X268841Y460724D01*
X268851Y460852D01*
X268857Y460980D01*
X268859Y461109D01*
X291519Y283083D02*
X293607Y283083D01*
X293696Y283085D01*
X293784Y283091D01*
X293872Y283100D01*
X293960Y283113D01*
X294047Y283130D01*
X294133Y283150D01*
X294218Y283175D01*
X294303Y283202D01*
X294386Y283234D01*
X294467Y283268D01*
X294547Y283307D01*
X294625Y283348D01*
X294702Y283393D01*
X294776Y283441D01*
X294849Y283492D01*
X294919Y283546D01*
X294986Y283604D01*
X295052Y283664D01*
X295114Y283726D01*
X295174Y283792D01*
X295232Y283859D01*
X295286Y283929D01*
X295337Y284002D01*
X295385Y284076D01*
X295430Y284153D01*
X295471Y284231D01*
X295510Y284311D01*
X295544Y284392D01*
X295576Y284475D01*
X295603Y284560D01*
X295628Y284645D01*
X295648Y284731D01*
X295665Y284818D01*
X295678Y284906D01*
X295687Y284994D01*
X295693Y285082D01*
X295695Y285171D01*
X295696Y285171D02*
X295696Y290393D01*
X295695Y290393D02*
X295693Y290482D01*
X295687Y290570D01*
X295678Y290658D01*
X295665Y290746D01*
X295648Y290833D01*
X295628Y290919D01*
X295603Y291004D01*
X295576Y291089D01*
X295544Y291172D01*
X295510Y291253D01*
X295471Y291333D01*
X295430Y291411D01*
X295385Y291488D01*
X295337Y291562D01*
X295286Y291635D01*
X295232Y291705D01*
X295174Y291772D01*
X295114Y291838D01*
X295052Y291900D01*
X294986Y291960D01*
X294919Y292018D01*
X294849Y292072D01*
X294776Y292123D01*
X294702Y292171D01*
X294625Y292216D01*
X294547Y292257D01*
X294467Y292296D01*
X294386Y292330D01*
X294303Y292362D01*
X294218Y292389D01*
X294133Y292414D01*
X294047Y292434D01*
X293960Y292451D01*
X293872Y292464D01*
X293784Y292473D01*
X293696Y292479D01*
X293607Y292481D01*
X291519Y292481D01*
X288050Y292481D02*
X288050Y291437D01*
X288050Y292481D02*
X282829Y292481D01*
X285440Y283083D01*
X419876Y423799D02*
X421965Y423799D01*
X422054Y423801D01*
X422142Y423807D01*
X422230Y423816D01*
X422318Y423829D01*
X422405Y423846D01*
X422491Y423866D01*
X422576Y423891D01*
X422661Y423918D01*
X422744Y423950D01*
X422825Y423984D01*
X422905Y424023D01*
X422983Y424064D01*
X423060Y424109D01*
X423134Y424157D01*
X423207Y424208D01*
X423277Y424262D01*
X423344Y424320D01*
X423410Y424380D01*
X423472Y424442D01*
X423532Y424508D01*
X423590Y424575D01*
X423644Y424645D01*
X423695Y424718D01*
X423743Y424792D01*
X423788Y424869D01*
X423829Y424947D01*
X423868Y425027D01*
X423902Y425108D01*
X423934Y425191D01*
X423961Y425276D01*
X423986Y425361D01*
X424006Y425447D01*
X424023Y425534D01*
X424036Y425622D01*
X424045Y425710D01*
X424051Y425798D01*
X424053Y425887D01*
X424053Y431109D01*
X424051Y431198D01*
X424045Y431286D01*
X424036Y431374D01*
X424023Y431462D01*
X424006Y431549D01*
X423986Y431635D01*
X423961Y431720D01*
X423934Y431805D01*
X423902Y431888D01*
X423868Y431969D01*
X423829Y432049D01*
X423788Y432127D01*
X423743Y432204D01*
X423695Y432278D01*
X423644Y432351D01*
X423590Y432421D01*
X423532Y432488D01*
X423472Y432554D01*
X423410Y432616D01*
X423344Y432676D01*
X423277Y432734D01*
X423207Y432788D01*
X423134Y432839D01*
X423060Y432887D01*
X422983Y432932D01*
X422905Y432973D01*
X422825Y433012D01*
X422744Y433046D01*
X422661Y433078D01*
X422576Y433105D01*
X422491Y433130D01*
X422405Y433150D01*
X422318Y433167D01*
X422230Y433180D01*
X422142Y433189D01*
X422054Y433195D01*
X421965Y433197D01*
X419876Y433197D01*
X416408Y426410D02*
X416406Y426511D01*
X416400Y426612D01*
X416390Y426713D01*
X416377Y426813D01*
X416359Y426913D01*
X416338Y427012D01*
X416312Y427110D01*
X416283Y427207D01*
X416251Y427303D01*
X416214Y427397D01*
X416174Y427490D01*
X416130Y427582D01*
X416083Y427671D01*
X416032Y427759D01*
X415978Y427845D01*
X415921Y427928D01*
X415861Y428010D01*
X415797Y428088D01*
X415731Y428165D01*
X415661Y428238D01*
X415589Y428309D01*
X415514Y428377D01*
X415436Y428442D01*
X415356Y428504D01*
X415274Y428563D01*
X415189Y428619D01*
X415103Y428671D01*
X415014Y428720D01*
X414923Y428766D01*
X414831Y428807D01*
X414737Y428846D01*
X414642Y428880D01*
X414546Y428911D01*
X414448Y428938D01*
X414350Y428962D01*
X414250Y428981D01*
X414150Y428997D01*
X414050Y429009D01*
X413949Y429017D01*
X413848Y429021D01*
X413746Y429021D01*
X413645Y429017D01*
X413544Y429009D01*
X413444Y428997D01*
X413344Y428981D01*
X413244Y428962D01*
X413146Y428938D01*
X413048Y428911D01*
X412952Y428880D01*
X412857Y428846D01*
X412763Y428807D01*
X412671Y428766D01*
X412580Y428720D01*
X412492Y428671D01*
X412405Y428619D01*
X412320Y428563D01*
X412238Y428504D01*
X412158Y428442D01*
X412080Y428377D01*
X412005Y428309D01*
X411933Y428238D01*
X411863Y428165D01*
X411797Y428088D01*
X411733Y428010D01*
X411673Y427928D01*
X411616Y427845D01*
X411562Y427759D01*
X411511Y427671D01*
X411464Y427582D01*
X411420Y427490D01*
X411380Y427397D01*
X411343Y427303D01*
X411311Y427207D01*
X411282Y427110D01*
X411256Y427012D01*
X411235Y426913D01*
X411217Y426813D01*
X411204Y426713D01*
X411194Y426612D01*
X411188Y426511D01*
X411186Y426410D01*
X411188Y426309D01*
X411194Y426208D01*
X411204Y426107D01*
X411217Y426007D01*
X411235Y425907D01*
X411256Y425808D01*
X411282Y425710D01*
X411311Y425613D01*
X411343Y425517D01*
X411380Y425423D01*
X411420Y425330D01*
X411464Y425238D01*
X411511Y425149D01*
X411562Y425061D01*
X411616Y424975D01*
X411673Y424892D01*
X411733Y424810D01*
X411797Y424732D01*
X411863Y424655D01*
X411933Y424582D01*
X412005Y424511D01*
X412080Y424443D01*
X412158Y424378D01*
X412238Y424316D01*
X412320Y424257D01*
X412405Y424201D01*
X412492Y424149D01*
X412580Y424100D01*
X412671Y424054D01*
X412763Y424013D01*
X412857Y423974D01*
X412952Y423940D01*
X413048Y423909D01*
X413146Y423882D01*
X413244Y423858D01*
X413344Y423839D01*
X413444Y423823D01*
X413544Y423811D01*
X413645Y423803D01*
X413746Y423799D01*
X413848Y423799D01*
X413949Y423803D01*
X414050Y423811D01*
X414150Y423823D01*
X414250Y423839D01*
X414350Y423858D01*
X414448Y423882D01*
X414546Y423909D01*
X414642Y423940D01*
X414737Y423974D01*
X414831Y424013D01*
X414923Y424054D01*
X415014Y424100D01*
X415102Y424149D01*
X415189Y424201D01*
X415274Y424257D01*
X415356Y424316D01*
X415436Y424378D01*
X415514Y424443D01*
X415589Y424511D01*
X415661Y424582D01*
X415731Y424655D01*
X415797Y424732D01*
X415861Y424810D01*
X415921Y424892D01*
X415978Y424975D01*
X416032Y425061D01*
X416083Y425149D01*
X416130Y425238D01*
X416174Y425330D01*
X416214Y425423D01*
X416251Y425517D01*
X416283Y425613D01*
X416312Y425710D01*
X416338Y425808D01*
X416359Y425907D01*
X416377Y426007D01*
X416390Y426107D01*
X416400Y426208D01*
X416406Y426309D01*
X416408Y426410D01*
X415885Y431109D02*
X415883Y431199D01*
X415877Y431288D01*
X415868Y431378D01*
X415854Y431467D01*
X415837Y431555D01*
X415816Y431642D01*
X415791Y431729D01*
X415762Y431814D01*
X415730Y431898D01*
X415695Y431980D01*
X415655Y432061D01*
X415613Y432140D01*
X415567Y432217D01*
X415517Y432292D01*
X415465Y432365D01*
X415409Y432436D01*
X415351Y432504D01*
X415289Y432569D01*
X415225Y432632D01*
X415158Y432692D01*
X415089Y432749D01*
X415017Y432803D01*
X414943Y432854D01*
X414867Y432902D01*
X414789Y432946D01*
X414709Y432987D01*
X414627Y433025D01*
X414544Y433059D01*
X414459Y433089D01*
X414373Y433116D01*
X414287Y433139D01*
X414199Y433158D01*
X414110Y433173D01*
X414021Y433185D01*
X413932Y433193D01*
X413842Y433197D01*
X413752Y433197D01*
X413662Y433193D01*
X413573Y433185D01*
X413484Y433173D01*
X413395Y433158D01*
X413307Y433139D01*
X413221Y433116D01*
X413135Y433089D01*
X413050Y433059D01*
X412967Y433025D01*
X412885Y432987D01*
X412805Y432946D01*
X412727Y432902D01*
X412651Y432854D01*
X412577Y432803D01*
X412505Y432749D01*
X412436Y432692D01*
X412369Y432632D01*
X412305Y432569D01*
X412243Y432504D01*
X412185Y432436D01*
X412129Y432365D01*
X412077Y432292D01*
X412027Y432217D01*
X411981Y432140D01*
X411939Y432061D01*
X411899Y431980D01*
X411864Y431898D01*
X411832Y431814D01*
X411803Y431729D01*
X411778Y431642D01*
X411757Y431555D01*
X411740Y431467D01*
X411726Y431378D01*
X411717Y431288D01*
X411711Y431199D01*
X411709Y431109D01*
X411711Y431019D01*
X411717Y430930D01*
X411726Y430840D01*
X411740Y430751D01*
X411757Y430663D01*
X411778Y430576D01*
X411803Y430489D01*
X411832Y430404D01*
X411864Y430320D01*
X411899Y430238D01*
X411939Y430157D01*
X411981Y430078D01*
X412027Y430001D01*
X412077Y429926D01*
X412129Y429853D01*
X412185Y429782D01*
X412243Y429714D01*
X412305Y429649D01*
X412369Y429586D01*
X412436Y429526D01*
X412505Y429469D01*
X412577Y429415D01*
X412651Y429364D01*
X412727Y429316D01*
X412805Y429272D01*
X412885Y429231D01*
X412967Y429193D01*
X413050Y429159D01*
X413135Y429129D01*
X413221Y429102D01*
X413307Y429079D01*
X413395Y429060D01*
X413484Y429045D01*
X413573Y429033D01*
X413662Y429025D01*
X413752Y429021D01*
X413842Y429021D01*
X413932Y429025D01*
X414021Y429033D01*
X414110Y429045D01*
X414199Y429060D01*
X414287Y429079D01*
X414373Y429102D01*
X414459Y429129D01*
X414544Y429159D01*
X414627Y429193D01*
X414709Y429231D01*
X414789Y429272D01*
X414867Y429316D01*
X414943Y429364D01*
X415017Y429415D01*
X415089Y429469D01*
X415158Y429526D01*
X415225Y429586D01*
X415289Y429649D01*
X415351Y429714D01*
X415409Y429782D01*
X415465Y429853D01*
X415517Y429926D01*
X415567Y430001D01*
X415613Y430078D01*
X415655Y430157D01*
X415695Y430238D01*
X415730Y430320D01*
X415762Y430404D01*
X415791Y430489D01*
X415816Y430576D01*
X415837Y430663D01*
X415854Y430751D01*
X415868Y430840D01*
X415877Y430930D01*
X415883Y431019D01*
X415885Y431109D01*
X407653Y390017D02*
X405565Y390017D01*
X407653Y390017D02*
X407742Y390019D01*
X407830Y390025D01*
X407918Y390034D01*
X408006Y390047D01*
X408093Y390064D01*
X408179Y390084D01*
X408264Y390109D01*
X408349Y390136D01*
X408432Y390168D01*
X408513Y390202D01*
X408593Y390241D01*
X408671Y390282D01*
X408748Y390327D01*
X408822Y390375D01*
X408895Y390426D01*
X408965Y390480D01*
X409032Y390538D01*
X409098Y390598D01*
X409160Y390660D01*
X409220Y390726D01*
X409278Y390793D01*
X409332Y390863D01*
X409383Y390936D01*
X409431Y391010D01*
X409476Y391087D01*
X409517Y391165D01*
X409556Y391245D01*
X409590Y391326D01*
X409622Y391409D01*
X409649Y391494D01*
X409674Y391579D01*
X409694Y391665D01*
X409711Y391752D01*
X409724Y391840D01*
X409733Y391928D01*
X409739Y392016D01*
X409741Y392105D01*
X409742Y392105D02*
X409742Y397327D01*
X409741Y397327D02*
X409739Y397416D01*
X409733Y397504D01*
X409724Y397592D01*
X409711Y397680D01*
X409694Y397767D01*
X409674Y397853D01*
X409649Y397938D01*
X409622Y398023D01*
X409590Y398106D01*
X409556Y398187D01*
X409517Y398267D01*
X409476Y398345D01*
X409431Y398422D01*
X409383Y398496D01*
X409332Y398569D01*
X409278Y398639D01*
X409220Y398706D01*
X409160Y398772D01*
X409098Y398834D01*
X409032Y398894D01*
X408965Y398952D01*
X408895Y399006D01*
X408822Y399057D01*
X408748Y399105D01*
X408671Y399150D01*
X408593Y399191D01*
X408513Y399230D01*
X408432Y399264D01*
X408349Y399296D01*
X408264Y399323D01*
X408179Y399348D01*
X408093Y399368D01*
X408006Y399385D01*
X407918Y399398D01*
X407830Y399407D01*
X407742Y399413D01*
X407653Y399415D01*
X405565Y399415D01*
X402096Y397327D02*
X399486Y399415D01*
X399486Y390017D01*
X402096Y390017D02*
X396875Y390017D01*
X392952Y394716D02*
X392950Y394901D01*
X392943Y395086D01*
X392932Y395270D01*
X392917Y395454D01*
X392897Y395638D01*
X392873Y395822D01*
X392844Y396004D01*
X392811Y396186D01*
X392774Y396367D01*
X392732Y396547D01*
X392686Y396727D01*
X392636Y396905D01*
X392582Y397081D01*
X392523Y397257D01*
X392461Y397431D01*
X392394Y397603D01*
X392323Y397774D01*
X392248Y397943D01*
X392169Y398110D01*
X392170Y398110D02*
X392140Y398190D01*
X392107Y398269D01*
X392070Y398346D01*
X392030Y398422D01*
X391987Y398496D01*
X391941Y398568D01*
X391891Y398637D01*
X391839Y398705D01*
X391783Y398770D01*
X391725Y398833D01*
X391663Y398892D01*
X391600Y398950D01*
X391533Y399004D01*
X391465Y399055D01*
X391394Y399103D01*
X391321Y399148D01*
X391247Y399190D01*
X391170Y399228D01*
X391092Y399263D01*
X391013Y399295D01*
X390932Y399323D01*
X390850Y399347D01*
X390766Y399368D01*
X390683Y399385D01*
X390598Y399398D01*
X390513Y399407D01*
X390428Y399413D01*
X390342Y399415D01*
X390256Y399413D01*
X390171Y399407D01*
X390086Y399398D01*
X390001Y399385D01*
X389918Y399368D01*
X389834Y399347D01*
X389752Y399323D01*
X389672Y399295D01*
X389592Y399263D01*
X389514Y399228D01*
X389437Y399190D01*
X389363Y399148D01*
X389290Y399103D01*
X389219Y399055D01*
X389151Y399004D01*
X389084Y398950D01*
X389021Y398892D01*
X388960Y398833D01*
X388901Y398770D01*
X388846Y398705D01*
X388793Y398637D01*
X388743Y398568D01*
X388697Y398496D01*
X388654Y398422D01*
X388614Y398346D01*
X388577Y398269D01*
X388544Y398190D01*
X388514Y398110D01*
X388435Y397943D01*
X388360Y397774D01*
X388289Y397603D01*
X388222Y397431D01*
X388160Y397257D01*
X388101Y397081D01*
X388047Y396905D01*
X387997Y396727D01*
X387951Y396547D01*
X387909Y396367D01*
X387872Y396186D01*
X387839Y396004D01*
X387810Y395822D01*
X387786Y395638D01*
X387766Y395454D01*
X387751Y395270D01*
X387740Y395086D01*
X387733Y394901D01*
X387731Y394716D01*
X392952Y394716D02*
X392950Y394531D01*
X392943Y394346D01*
X392932Y394162D01*
X392917Y393978D01*
X392897Y393794D01*
X392873Y393610D01*
X392844Y393428D01*
X392811Y393246D01*
X392774Y393065D01*
X392732Y392885D01*
X392686Y392705D01*
X392636Y392527D01*
X392582Y392351D01*
X392523Y392175D01*
X392461Y392001D01*
X392394Y391829D01*
X392323Y391658D01*
X392248Y391489D01*
X392169Y391322D01*
X392170Y391322D02*
X392140Y391242D01*
X392107Y391163D01*
X392070Y391086D01*
X392030Y391010D01*
X391987Y390936D01*
X391941Y390864D01*
X391891Y390795D01*
X391838Y390727D01*
X391783Y390662D01*
X391724Y390599D01*
X391663Y390540D01*
X391600Y390482D01*
X391533Y390428D01*
X391465Y390377D01*
X391394Y390329D01*
X391321Y390284D01*
X391247Y390242D01*
X391170Y390204D01*
X391092Y390169D01*
X391013Y390137D01*
X390932Y390109D01*
X390850Y390085D01*
X390766Y390064D01*
X390683Y390047D01*
X390598Y390034D01*
X390513Y390025D01*
X390428Y390019D01*
X390342Y390017D01*
X388514Y391322D02*
X388435Y391489D01*
X388360Y391658D01*
X388289Y391829D01*
X388222Y392001D01*
X388160Y392175D01*
X388101Y392351D01*
X388047Y392527D01*
X387997Y392705D01*
X387951Y392885D01*
X387909Y393065D01*
X387872Y393246D01*
X387839Y393428D01*
X387810Y393610D01*
X387786Y393794D01*
X387766Y393978D01*
X387751Y394162D01*
X387740Y394346D01*
X387733Y394531D01*
X387731Y394716D01*
X388514Y391322D02*
X388544Y391242D01*
X388577Y391163D01*
X388614Y391086D01*
X388654Y391010D01*
X388697Y390936D01*
X388743Y390864D01*
X388793Y390795D01*
X388846Y390727D01*
X388901Y390662D01*
X388960Y390599D01*
X389021Y390540D01*
X389084Y390482D01*
X389151Y390428D01*
X389219Y390377D01*
X389290Y390329D01*
X389363Y390284D01*
X389437Y390242D01*
X389514Y390204D01*
X389592Y390169D01*
X389672Y390137D01*
X389752Y390109D01*
X389834Y390085D01*
X389918Y390064D01*
X390001Y390047D01*
X390086Y390034D01*
X390171Y390025D01*
X390256Y390019D01*
X390342Y390017D01*
X392430Y392105D02*
X388253Y397327D01*
X486791Y308907D02*
X496189Y308907D01*
X496189Y311518D01*
X496187Y311619D01*
X496181Y311720D01*
X496171Y311821D01*
X496158Y311921D01*
X496140Y312021D01*
X496119Y312120D01*
X496093Y312218D01*
X496064Y312315D01*
X496032Y312411D01*
X495995Y312505D01*
X495955Y312598D01*
X495911Y312690D01*
X495864Y312779D01*
X495813Y312867D01*
X495759Y312953D01*
X495702Y313036D01*
X495642Y313118D01*
X495578Y313196D01*
X495512Y313273D01*
X495442Y313346D01*
X495370Y313417D01*
X495295Y313485D01*
X495217Y313550D01*
X495137Y313612D01*
X495055Y313671D01*
X494970Y313727D01*
X494884Y313779D01*
X494795Y313828D01*
X494704Y313874D01*
X494612Y313915D01*
X494518Y313954D01*
X494423Y313988D01*
X494327Y314019D01*
X494229Y314046D01*
X494131Y314070D01*
X494031Y314089D01*
X493931Y314105D01*
X493831Y314117D01*
X493730Y314125D01*
X493629Y314129D01*
X493527Y314129D01*
X493426Y314125D01*
X493325Y314117D01*
X493225Y314105D01*
X493125Y314089D01*
X493025Y314070D01*
X492927Y314046D01*
X492829Y314019D01*
X492733Y313988D01*
X492638Y313954D01*
X492544Y313915D01*
X492452Y313874D01*
X492361Y313828D01*
X492273Y313779D01*
X492186Y313727D01*
X492101Y313671D01*
X492019Y313612D01*
X491939Y313550D01*
X491861Y313485D01*
X491786Y313417D01*
X491714Y313346D01*
X491644Y313273D01*
X491578Y313196D01*
X491514Y313118D01*
X491454Y313036D01*
X491397Y312953D01*
X491343Y312867D01*
X491292Y312779D01*
X491245Y312690D01*
X491201Y312598D01*
X491161Y312505D01*
X491124Y312411D01*
X491092Y312315D01*
X491063Y312218D01*
X491037Y312120D01*
X491016Y312021D01*
X490998Y311921D01*
X490985Y311821D01*
X490975Y311720D01*
X490969Y311619D01*
X490967Y311518D01*
X490968Y311518D02*
X490968Y308907D01*
X490968Y312040D02*
X486791Y314128D01*
X493840Y323216D02*
X493935Y323214D01*
X494029Y323208D01*
X494123Y323199D01*
X494217Y323186D01*
X494310Y323169D01*
X494402Y323148D01*
X494494Y323123D01*
X494584Y323095D01*
X494673Y323063D01*
X494761Y323028D01*
X494847Y322989D01*
X494932Y322947D01*
X495015Y322901D01*
X495096Y322852D01*
X495175Y322800D01*
X495252Y322745D01*
X495326Y322686D01*
X495398Y322625D01*
X495468Y322561D01*
X495535Y322494D01*
X495599Y322424D01*
X495660Y322352D01*
X495719Y322278D01*
X495774Y322201D01*
X495826Y322122D01*
X495875Y322041D01*
X495921Y321958D01*
X495963Y321873D01*
X496002Y321787D01*
X496037Y321699D01*
X496069Y321610D01*
X496097Y321520D01*
X496122Y321428D01*
X496143Y321336D01*
X496160Y321243D01*
X496173Y321149D01*
X496182Y321055D01*
X496188Y320961D01*
X496190Y320866D01*
X496189Y320866D02*
X496187Y320758D01*
X496181Y320649D01*
X496171Y320541D01*
X496158Y320434D01*
X496140Y320327D01*
X496119Y320220D01*
X496094Y320115D01*
X496065Y320010D01*
X496033Y319907D01*
X495996Y319805D01*
X495956Y319704D01*
X495913Y319605D01*
X495866Y319507D01*
X495815Y319411D01*
X495761Y319317D01*
X495704Y319225D01*
X495643Y319135D01*
X495579Y319047D01*
X495513Y318962D01*
X495443Y318879D01*
X495370Y318799D01*
X495294Y318721D01*
X495216Y318646D01*
X495135Y318574D01*
X495051Y318505D01*
X494965Y318439D01*
X494877Y318376D01*
X494786Y318317D01*
X494694Y318260D01*
X494599Y318207D01*
X494503Y318158D01*
X494404Y318112D01*
X494305Y318069D01*
X494203Y318030D01*
X494101Y317995D01*
X492012Y322432D02*
X492081Y322501D01*
X492152Y322567D01*
X492225Y322631D01*
X492301Y322692D01*
X492380Y322750D01*
X492460Y322804D01*
X492543Y322856D01*
X492627Y322904D01*
X492713Y322950D01*
X492801Y322991D01*
X492891Y323030D01*
X492982Y323065D01*
X493074Y323096D01*
X493167Y323124D01*
X493261Y323148D01*
X493356Y323168D01*
X493452Y323185D01*
X493549Y323198D01*
X493646Y323207D01*
X493743Y323213D01*
X493840Y323215D01*
X492012Y322432D02*
X486791Y317994D01*
X486791Y323215D01*
D13*
X423990Y412642D03*
D14*
X417202Y410142D02*
X417202Y417202D01*
X410142Y417202D01*
X275202Y417202D02*
X275202Y410142D01*
X275202Y417202D02*
X282262Y417202D01*
X275202Y282262D02*
X275202Y275202D01*
X282262Y275202D01*
X417202Y275202D02*
X417202Y282262D01*
X417202Y275202D02*
X410142Y275202D01*
D12*
X386557Y286450D02*
X386557Y293238D01*
X386557Y286450D02*
X386555Y286349D01*
X386549Y286248D01*
X386539Y286147D01*
X386526Y286047D01*
X386508Y285947D01*
X386487Y285848D01*
X386461Y285750D01*
X386432Y285653D01*
X386400Y285557D01*
X386363Y285463D01*
X386323Y285370D01*
X386279Y285278D01*
X386232Y285189D01*
X386181Y285101D01*
X386127Y285015D01*
X386070Y284932D01*
X386010Y284850D01*
X385946Y284772D01*
X385880Y284695D01*
X385810Y284622D01*
X385738Y284551D01*
X385663Y284483D01*
X385585Y284418D01*
X385505Y284356D01*
X385423Y284297D01*
X385338Y284241D01*
X385251Y284189D01*
X385163Y284140D01*
X385072Y284094D01*
X384980Y284053D01*
X384886Y284014D01*
X384791Y283980D01*
X384695Y283949D01*
X384597Y283922D01*
X384499Y283898D01*
X384399Y283879D01*
X384299Y283863D01*
X384199Y283851D01*
X384098Y283843D01*
X383997Y283839D01*
X383895Y283839D01*
X383794Y283843D01*
X383693Y283851D01*
X383593Y283863D01*
X383493Y283879D01*
X383393Y283898D01*
X383295Y283922D01*
X383197Y283949D01*
X383101Y283980D01*
X383006Y284014D01*
X382912Y284053D01*
X382820Y284094D01*
X382729Y284140D01*
X382641Y284189D01*
X382554Y284241D01*
X382469Y284297D01*
X382387Y284356D01*
X382307Y284418D01*
X382229Y284483D01*
X382154Y284551D01*
X382082Y284622D01*
X382012Y284695D01*
X381946Y284772D01*
X381882Y284850D01*
X381822Y284932D01*
X381765Y285015D01*
X381711Y285101D01*
X381660Y285189D01*
X381613Y285278D01*
X381569Y285370D01*
X381529Y285463D01*
X381492Y285557D01*
X381460Y285653D01*
X381431Y285750D01*
X381405Y285848D01*
X381384Y285947D01*
X381366Y286047D01*
X381353Y286147D01*
X381343Y286248D01*
X381337Y286349D01*
X381335Y286450D01*
X381336Y286450D02*
X381336Y293238D01*
X377108Y291149D02*
X374498Y293238D01*
X374498Y283840D01*
X377108Y283840D02*
X371887Y283840D01*
D15*
X438150Y331470D02*
X438150Y367030D01*
X438150Y331470D02*
X458470Y331470D01*
X458470Y367030D01*
X438150Y367030D01*
D12*
X393319Y347867D02*
X383921Y341602D01*
X383921Y347867D02*
X393319Y341602D01*
X391231Y351268D02*
X393319Y353878D01*
X383921Y353878D01*
X383921Y351268D02*
X383921Y356489D01*
X405311Y372491D02*
X407399Y372491D01*
X407488Y372493D01*
X407576Y372499D01*
X407664Y372508D01*
X407752Y372521D01*
X407839Y372538D01*
X407925Y372558D01*
X408010Y372583D01*
X408095Y372610D01*
X408178Y372642D01*
X408259Y372676D01*
X408339Y372715D01*
X408417Y372756D01*
X408494Y372801D01*
X408568Y372849D01*
X408641Y372900D01*
X408711Y372954D01*
X408778Y373012D01*
X408844Y373072D01*
X408906Y373134D01*
X408966Y373200D01*
X409024Y373267D01*
X409078Y373337D01*
X409129Y373410D01*
X409177Y373484D01*
X409222Y373561D01*
X409263Y373639D01*
X409302Y373719D01*
X409336Y373800D01*
X409368Y373883D01*
X409395Y373968D01*
X409420Y374053D01*
X409440Y374139D01*
X409457Y374226D01*
X409470Y374314D01*
X409479Y374402D01*
X409485Y374490D01*
X409487Y374579D01*
X409488Y374579D02*
X409488Y379801D01*
X409487Y379801D02*
X409485Y379890D01*
X409479Y379978D01*
X409470Y380066D01*
X409457Y380154D01*
X409440Y380241D01*
X409420Y380327D01*
X409395Y380412D01*
X409368Y380497D01*
X409336Y380580D01*
X409302Y380661D01*
X409263Y380741D01*
X409222Y380819D01*
X409177Y380896D01*
X409129Y380970D01*
X409078Y381043D01*
X409024Y381113D01*
X408966Y381180D01*
X408906Y381246D01*
X408844Y381308D01*
X408778Y381368D01*
X408711Y381426D01*
X408641Y381480D01*
X408568Y381531D01*
X408494Y381579D01*
X408417Y381624D01*
X408339Y381665D01*
X408259Y381704D01*
X408178Y381738D01*
X408095Y381770D01*
X408010Y381797D01*
X407925Y381822D01*
X407839Y381842D01*
X407752Y381859D01*
X407664Y381872D01*
X407576Y381881D01*
X407488Y381887D01*
X407399Y381889D01*
X405311Y381889D01*
X401842Y372491D02*
X398709Y372491D01*
X398620Y372493D01*
X398532Y372499D01*
X398444Y372508D01*
X398356Y372521D01*
X398269Y372538D01*
X398183Y372558D01*
X398098Y372583D01*
X398013Y372610D01*
X397930Y372642D01*
X397849Y372676D01*
X397769Y372715D01*
X397691Y372756D01*
X397614Y372801D01*
X397540Y372849D01*
X397467Y372900D01*
X397397Y372954D01*
X397330Y373012D01*
X397264Y373072D01*
X397202Y373134D01*
X397142Y373200D01*
X397084Y373267D01*
X397030Y373337D01*
X396979Y373410D01*
X396931Y373484D01*
X396886Y373561D01*
X396845Y373639D01*
X396806Y373719D01*
X396772Y373800D01*
X396740Y373883D01*
X396713Y373968D01*
X396688Y374053D01*
X396668Y374139D01*
X396651Y374226D01*
X396638Y374314D01*
X396629Y374402D01*
X396623Y374490D01*
X396621Y374579D01*
X396621Y375624D01*
X396623Y375713D01*
X396629Y375801D01*
X396638Y375889D01*
X396651Y375977D01*
X396668Y376064D01*
X396688Y376150D01*
X396713Y376235D01*
X396740Y376320D01*
X396772Y376403D01*
X396806Y376484D01*
X396845Y376564D01*
X396886Y376642D01*
X396931Y376719D01*
X396979Y376793D01*
X397030Y376866D01*
X397084Y376936D01*
X397142Y377003D01*
X397202Y377069D01*
X397264Y377131D01*
X397330Y377191D01*
X397397Y377249D01*
X397467Y377303D01*
X397540Y377354D01*
X397614Y377402D01*
X397691Y377447D01*
X397769Y377488D01*
X397849Y377527D01*
X397930Y377561D01*
X398013Y377593D01*
X398098Y377620D01*
X398183Y377645D01*
X398269Y377665D01*
X398356Y377682D01*
X398444Y377695D01*
X398532Y377704D01*
X398620Y377710D01*
X398709Y377712D01*
X401842Y377712D01*
X401842Y381889D01*
X396621Y381889D01*
X406581Y316611D02*
X408669Y316611D01*
X408758Y316613D01*
X408846Y316619D01*
X408934Y316628D01*
X409022Y316641D01*
X409109Y316658D01*
X409195Y316678D01*
X409280Y316703D01*
X409365Y316730D01*
X409448Y316762D01*
X409529Y316796D01*
X409609Y316835D01*
X409687Y316876D01*
X409764Y316921D01*
X409838Y316969D01*
X409911Y317020D01*
X409981Y317074D01*
X410048Y317132D01*
X410114Y317192D01*
X410176Y317254D01*
X410236Y317320D01*
X410294Y317387D01*
X410348Y317457D01*
X410399Y317530D01*
X410447Y317604D01*
X410492Y317681D01*
X410533Y317759D01*
X410572Y317839D01*
X410606Y317920D01*
X410638Y318003D01*
X410665Y318088D01*
X410690Y318173D01*
X410710Y318259D01*
X410727Y318346D01*
X410740Y318434D01*
X410749Y318522D01*
X410755Y318610D01*
X410757Y318699D01*
X410758Y318699D02*
X410758Y323921D01*
X410757Y323921D02*
X410755Y324010D01*
X410749Y324098D01*
X410740Y324186D01*
X410727Y324274D01*
X410710Y324361D01*
X410690Y324447D01*
X410665Y324532D01*
X410638Y324617D01*
X410606Y324700D01*
X410572Y324781D01*
X410533Y324861D01*
X410492Y324939D01*
X410447Y325016D01*
X410399Y325090D01*
X410348Y325163D01*
X410294Y325233D01*
X410236Y325300D01*
X410176Y325366D01*
X410114Y325428D01*
X410048Y325488D01*
X409981Y325546D01*
X409911Y325600D01*
X409838Y325651D01*
X409764Y325699D01*
X409687Y325744D01*
X409609Y325785D01*
X409529Y325824D01*
X409448Y325858D01*
X409365Y325890D01*
X409280Y325917D01*
X409195Y325942D01*
X409109Y325962D01*
X409022Y325979D01*
X408934Y325992D01*
X408846Y326001D01*
X408758Y326007D01*
X408669Y326009D01*
X406581Y326009D01*
X401024Y326009D02*
X403112Y318699D01*
X397891Y318699D01*
X399457Y320788D02*
X399457Y316611D01*
X419281Y256921D02*
X421369Y256921D01*
X421458Y256923D01*
X421546Y256929D01*
X421634Y256938D01*
X421722Y256951D01*
X421809Y256968D01*
X421895Y256988D01*
X421980Y257013D01*
X422065Y257040D01*
X422148Y257072D01*
X422229Y257106D01*
X422309Y257145D01*
X422387Y257186D01*
X422464Y257231D01*
X422538Y257279D01*
X422611Y257330D01*
X422681Y257384D01*
X422748Y257442D01*
X422814Y257502D01*
X422876Y257564D01*
X422936Y257630D01*
X422994Y257697D01*
X423048Y257767D01*
X423099Y257840D01*
X423147Y257914D01*
X423192Y257991D01*
X423233Y258069D01*
X423272Y258149D01*
X423306Y258230D01*
X423338Y258313D01*
X423365Y258398D01*
X423390Y258483D01*
X423410Y258569D01*
X423427Y258656D01*
X423440Y258744D01*
X423449Y258832D01*
X423455Y258920D01*
X423457Y259009D01*
X423458Y259009D02*
X423458Y264231D01*
X423457Y264231D02*
X423455Y264320D01*
X423449Y264408D01*
X423440Y264496D01*
X423427Y264584D01*
X423410Y264671D01*
X423390Y264757D01*
X423365Y264842D01*
X423338Y264927D01*
X423306Y265010D01*
X423272Y265091D01*
X423233Y265171D01*
X423192Y265249D01*
X423147Y265326D01*
X423099Y265400D01*
X423048Y265473D01*
X422994Y265543D01*
X422936Y265610D01*
X422876Y265676D01*
X422814Y265738D01*
X422748Y265798D01*
X422681Y265856D01*
X422611Y265910D01*
X422538Y265961D01*
X422464Y266009D01*
X422387Y266054D01*
X422309Y266095D01*
X422229Y266134D01*
X422148Y266168D01*
X422065Y266200D01*
X421980Y266227D01*
X421895Y266252D01*
X421809Y266272D01*
X421722Y266289D01*
X421634Y266302D01*
X421546Y266311D01*
X421458Y266317D01*
X421369Y266319D01*
X419281Y266319D01*
X415812Y256921D02*
X413202Y256921D01*
X413101Y256923D01*
X413000Y256929D01*
X412899Y256939D01*
X412799Y256952D01*
X412699Y256970D01*
X412600Y256991D01*
X412502Y257017D01*
X412405Y257046D01*
X412309Y257078D01*
X412215Y257115D01*
X412122Y257155D01*
X412030Y257199D01*
X411941Y257246D01*
X411853Y257297D01*
X411767Y257351D01*
X411684Y257408D01*
X411602Y257468D01*
X411524Y257532D01*
X411447Y257598D01*
X411374Y257668D01*
X411303Y257740D01*
X411235Y257815D01*
X411170Y257893D01*
X411108Y257973D01*
X411049Y258055D01*
X410993Y258140D01*
X410941Y258227D01*
X410892Y258315D01*
X410846Y258406D01*
X410805Y258498D01*
X410766Y258592D01*
X410732Y258687D01*
X410701Y258783D01*
X410674Y258881D01*
X410650Y258979D01*
X410631Y259079D01*
X410615Y259179D01*
X410603Y259279D01*
X410595Y259380D01*
X410591Y259481D01*
X410591Y259583D01*
X410595Y259684D01*
X410603Y259785D01*
X410615Y259885D01*
X410631Y259985D01*
X410650Y260085D01*
X410674Y260183D01*
X410701Y260281D01*
X410732Y260377D01*
X410766Y260472D01*
X410805Y260566D01*
X410846Y260658D01*
X410892Y260749D01*
X410941Y260838D01*
X410993Y260924D01*
X411049Y261009D01*
X411108Y261091D01*
X411170Y261171D01*
X411235Y261249D01*
X411303Y261324D01*
X411374Y261396D01*
X411447Y261466D01*
X411524Y261532D01*
X411602Y261596D01*
X411684Y261656D01*
X411767Y261713D01*
X411853Y261767D01*
X411941Y261818D01*
X412030Y261865D01*
X412122Y261909D01*
X412215Y261949D01*
X412309Y261986D01*
X412405Y262018D01*
X412502Y262047D01*
X412600Y262073D01*
X412699Y262094D01*
X412799Y262112D01*
X412899Y262125D01*
X413000Y262135D01*
X413101Y262141D01*
X413202Y262143D01*
X412679Y266319D02*
X415812Y266319D01*
X412679Y266319D02*
X412589Y266317D01*
X412500Y266311D01*
X412410Y266302D01*
X412321Y266288D01*
X412233Y266271D01*
X412146Y266250D01*
X412059Y266225D01*
X411974Y266196D01*
X411890Y266164D01*
X411808Y266129D01*
X411727Y266089D01*
X411648Y266047D01*
X411571Y266001D01*
X411496Y265951D01*
X411423Y265899D01*
X411352Y265843D01*
X411284Y265785D01*
X411219Y265723D01*
X411156Y265659D01*
X411096Y265592D01*
X411039Y265523D01*
X410985Y265451D01*
X410934Y265377D01*
X410886Y265301D01*
X410842Y265223D01*
X410801Y265143D01*
X410763Y265061D01*
X410729Y264978D01*
X410699Y264893D01*
X410672Y264807D01*
X410649Y264721D01*
X410630Y264633D01*
X410615Y264544D01*
X410603Y264455D01*
X410595Y264366D01*
X410591Y264276D01*
X410591Y264186D01*
X410595Y264096D01*
X410603Y264007D01*
X410615Y263918D01*
X410630Y263829D01*
X410649Y263741D01*
X410672Y263655D01*
X410699Y263569D01*
X410729Y263484D01*
X410763Y263401D01*
X410801Y263319D01*
X410842Y263239D01*
X410886Y263161D01*
X410934Y263085D01*
X410985Y263011D01*
X411039Y262939D01*
X411096Y262870D01*
X411156Y262803D01*
X411219Y262739D01*
X411284Y262677D01*
X411352Y262619D01*
X411423Y262563D01*
X411496Y262511D01*
X411571Y262461D01*
X411648Y262415D01*
X411727Y262373D01*
X411808Y262333D01*
X411890Y262298D01*
X411974Y262266D01*
X412059Y262237D01*
X412146Y262212D01*
X412233Y262191D01*
X412321Y262174D01*
X412410Y262160D01*
X412500Y262151D01*
X412589Y262145D01*
X412679Y262143D01*
X412679Y262142D02*
X414768Y262142D01*
X242951Y425379D02*
X242951Y427468D01*
X242951Y425379D02*
X242953Y425290D01*
X242959Y425202D01*
X242968Y425114D01*
X242981Y425026D01*
X242998Y424939D01*
X243018Y424853D01*
X243043Y424768D01*
X243070Y424683D01*
X243102Y424600D01*
X243136Y424519D01*
X243175Y424439D01*
X243216Y424361D01*
X243261Y424284D01*
X243309Y424210D01*
X243360Y424137D01*
X243414Y424067D01*
X243472Y424000D01*
X243532Y423934D01*
X243594Y423872D01*
X243660Y423812D01*
X243727Y423754D01*
X243797Y423700D01*
X243870Y423649D01*
X243944Y423601D01*
X244021Y423556D01*
X244099Y423515D01*
X244179Y423476D01*
X244260Y423442D01*
X244343Y423410D01*
X244428Y423383D01*
X244513Y423358D01*
X244599Y423338D01*
X244686Y423321D01*
X244774Y423308D01*
X244862Y423299D01*
X244950Y423293D01*
X245039Y423291D01*
X250261Y423291D01*
X250352Y423293D01*
X250443Y423299D01*
X250534Y423309D01*
X250624Y423323D01*
X250713Y423340D01*
X250801Y423362D01*
X250889Y423388D01*
X250975Y423417D01*
X251060Y423450D01*
X251143Y423487D01*
X251225Y423527D01*
X251305Y423571D01*
X251383Y423618D01*
X251459Y423669D01*
X251532Y423722D01*
X251603Y423779D01*
X251672Y423840D01*
X251737Y423903D01*
X251800Y423968D01*
X251860Y424037D01*
X251918Y424108D01*
X251971Y424181D01*
X252022Y424257D01*
X252069Y424335D01*
X252113Y424415D01*
X252153Y424497D01*
X252190Y424580D01*
X252223Y424665D01*
X252252Y424751D01*
X252278Y424839D01*
X252300Y424927D01*
X252317Y425016D01*
X252331Y425106D01*
X252341Y425197D01*
X252347Y425288D01*
X252349Y425379D01*
X252349Y427468D01*
X250261Y430937D02*
X252349Y433547D01*
X242951Y433547D01*
X242951Y430937D02*
X242951Y436158D01*
X250000Y445302D02*
X250095Y445300D01*
X250189Y445294D01*
X250283Y445285D01*
X250377Y445272D01*
X250470Y445255D01*
X250562Y445234D01*
X250654Y445209D01*
X250744Y445181D01*
X250833Y445149D01*
X250921Y445114D01*
X251007Y445075D01*
X251092Y445033D01*
X251175Y444987D01*
X251256Y444938D01*
X251335Y444886D01*
X251412Y444831D01*
X251486Y444772D01*
X251558Y444711D01*
X251628Y444647D01*
X251695Y444580D01*
X251759Y444510D01*
X251820Y444438D01*
X251879Y444364D01*
X251934Y444287D01*
X251986Y444208D01*
X252035Y444127D01*
X252081Y444044D01*
X252123Y443959D01*
X252162Y443873D01*
X252197Y443785D01*
X252229Y443696D01*
X252257Y443606D01*
X252282Y443514D01*
X252303Y443422D01*
X252320Y443329D01*
X252333Y443235D01*
X252342Y443141D01*
X252348Y443047D01*
X252350Y442952D01*
X252349Y442952D02*
X252347Y442844D01*
X252341Y442735D01*
X252331Y442627D01*
X252318Y442520D01*
X252300Y442413D01*
X252279Y442306D01*
X252254Y442201D01*
X252225Y442096D01*
X252193Y441993D01*
X252156Y441891D01*
X252116Y441790D01*
X252073Y441691D01*
X252026Y441593D01*
X251975Y441497D01*
X251921Y441403D01*
X251864Y441311D01*
X251803Y441221D01*
X251739Y441133D01*
X251673Y441048D01*
X251603Y440965D01*
X251530Y440885D01*
X251454Y440807D01*
X251376Y440732D01*
X251295Y440660D01*
X251211Y440591D01*
X251125Y440525D01*
X251037Y440462D01*
X250946Y440403D01*
X250854Y440346D01*
X250759Y440293D01*
X250663Y440244D01*
X250564Y440198D01*
X250465Y440155D01*
X250363Y440116D01*
X250261Y440081D01*
X248172Y444519D02*
X248241Y444588D01*
X248312Y444654D01*
X248385Y444718D01*
X248461Y444779D01*
X248540Y444837D01*
X248620Y444891D01*
X248703Y444943D01*
X248787Y444991D01*
X248873Y445037D01*
X248961Y445078D01*
X249051Y445117D01*
X249142Y445152D01*
X249234Y445183D01*
X249327Y445211D01*
X249421Y445235D01*
X249516Y445255D01*
X249612Y445272D01*
X249709Y445285D01*
X249806Y445294D01*
X249903Y445300D01*
X250000Y445302D01*
X248172Y444519D02*
X242951Y440081D01*
X242951Y445302D01*
X357305Y249301D02*
X359393Y249301D01*
X359482Y249303D01*
X359570Y249309D01*
X359658Y249318D01*
X359746Y249331D01*
X359833Y249348D01*
X359919Y249368D01*
X360004Y249393D01*
X360089Y249420D01*
X360172Y249452D01*
X360253Y249486D01*
X360333Y249525D01*
X360411Y249566D01*
X360488Y249611D01*
X360562Y249659D01*
X360635Y249710D01*
X360705Y249764D01*
X360772Y249822D01*
X360838Y249882D01*
X360900Y249944D01*
X360960Y250010D01*
X361018Y250077D01*
X361072Y250147D01*
X361123Y250220D01*
X361171Y250294D01*
X361216Y250371D01*
X361257Y250449D01*
X361296Y250529D01*
X361330Y250610D01*
X361362Y250693D01*
X361389Y250778D01*
X361414Y250863D01*
X361434Y250949D01*
X361451Y251036D01*
X361464Y251124D01*
X361473Y251212D01*
X361479Y251300D01*
X361481Y251389D01*
X361482Y251389D02*
X361482Y256611D01*
X361481Y256611D02*
X361479Y256700D01*
X361473Y256788D01*
X361464Y256876D01*
X361451Y256964D01*
X361434Y257051D01*
X361414Y257137D01*
X361389Y257222D01*
X361362Y257307D01*
X361330Y257390D01*
X361296Y257471D01*
X361257Y257551D01*
X361216Y257629D01*
X361171Y257706D01*
X361123Y257780D01*
X361072Y257853D01*
X361018Y257923D01*
X360960Y257990D01*
X360900Y258056D01*
X360838Y258118D01*
X360772Y258178D01*
X360705Y258236D01*
X360635Y258290D01*
X360562Y258341D01*
X360488Y258389D01*
X360411Y258434D01*
X360333Y258475D01*
X360253Y258514D01*
X360172Y258548D01*
X360089Y258580D01*
X360004Y258607D01*
X359919Y258632D01*
X359833Y258652D01*
X359746Y258669D01*
X359658Y258682D01*
X359570Y258691D01*
X359482Y258697D01*
X359393Y258699D01*
X357305Y258699D01*
X353836Y256611D02*
X351226Y258699D01*
X351226Y249301D01*
X353836Y249301D02*
X348615Y249301D01*
X344692Y249301D02*
X342082Y249301D01*
X341981Y249303D01*
X341880Y249309D01*
X341779Y249319D01*
X341679Y249332D01*
X341579Y249350D01*
X341480Y249371D01*
X341382Y249397D01*
X341285Y249426D01*
X341189Y249458D01*
X341095Y249495D01*
X341002Y249535D01*
X340910Y249579D01*
X340821Y249626D01*
X340733Y249677D01*
X340647Y249731D01*
X340564Y249788D01*
X340482Y249848D01*
X340404Y249912D01*
X340327Y249978D01*
X340254Y250048D01*
X340183Y250120D01*
X340115Y250195D01*
X340050Y250273D01*
X339988Y250353D01*
X339929Y250435D01*
X339873Y250520D01*
X339821Y250607D01*
X339772Y250695D01*
X339726Y250786D01*
X339685Y250878D01*
X339646Y250972D01*
X339612Y251067D01*
X339581Y251163D01*
X339554Y251261D01*
X339530Y251359D01*
X339511Y251459D01*
X339495Y251559D01*
X339483Y251659D01*
X339475Y251760D01*
X339471Y251861D01*
X339471Y251963D01*
X339475Y252064D01*
X339483Y252165D01*
X339495Y252265D01*
X339511Y252365D01*
X339530Y252465D01*
X339554Y252563D01*
X339581Y252661D01*
X339612Y252757D01*
X339646Y252852D01*
X339685Y252946D01*
X339726Y253038D01*
X339772Y253129D01*
X339821Y253218D01*
X339873Y253304D01*
X339929Y253389D01*
X339988Y253471D01*
X340050Y253551D01*
X340115Y253629D01*
X340183Y253704D01*
X340254Y253776D01*
X340327Y253846D01*
X340404Y253912D01*
X340482Y253976D01*
X340564Y254036D01*
X340647Y254093D01*
X340733Y254147D01*
X340821Y254198D01*
X340910Y254245D01*
X341002Y254289D01*
X341095Y254329D01*
X341189Y254366D01*
X341285Y254398D01*
X341382Y254427D01*
X341480Y254453D01*
X341579Y254474D01*
X341679Y254492D01*
X341779Y254505D01*
X341880Y254515D01*
X341981Y254521D01*
X342082Y254523D01*
X341559Y258699D02*
X344692Y258699D01*
X341559Y258699D02*
X341469Y258697D01*
X341380Y258691D01*
X341290Y258682D01*
X341201Y258668D01*
X341113Y258651D01*
X341026Y258630D01*
X340939Y258605D01*
X340854Y258576D01*
X340770Y258544D01*
X340688Y258509D01*
X340607Y258469D01*
X340528Y258427D01*
X340451Y258381D01*
X340376Y258331D01*
X340303Y258279D01*
X340232Y258223D01*
X340164Y258165D01*
X340099Y258103D01*
X340036Y258039D01*
X339976Y257972D01*
X339919Y257903D01*
X339865Y257831D01*
X339814Y257757D01*
X339766Y257681D01*
X339722Y257603D01*
X339681Y257523D01*
X339643Y257441D01*
X339609Y257358D01*
X339579Y257273D01*
X339552Y257187D01*
X339529Y257101D01*
X339510Y257013D01*
X339495Y256924D01*
X339483Y256835D01*
X339475Y256746D01*
X339471Y256656D01*
X339471Y256566D01*
X339475Y256476D01*
X339483Y256387D01*
X339495Y256298D01*
X339510Y256209D01*
X339529Y256121D01*
X339552Y256035D01*
X339579Y255949D01*
X339609Y255864D01*
X339643Y255781D01*
X339681Y255699D01*
X339722Y255619D01*
X339766Y255541D01*
X339814Y255465D01*
X339865Y255391D01*
X339919Y255319D01*
X339976Y255250D01*
X340036Y255183D01*
X340099Y255119D01*
X340164Y255057D01*
X340232Y254999D01*
X340303Y254943D01*
X340376Y254891D01*
X340451Y254841D01*
X340528Y254795D01*
X340607Y254753D01*
X340688Y254713D01*
X340770Y254678D01*
X340854Y254646D01*
X340939Y254617D01*
X341026Y254592D01*
X341113Y254571D01*
X341201Y254554D01*
X341290Y254540D01*
X341380Y254531D01*
X341469Y254525D01*
X341559Y254523D01*
X341559Y254522D02*
X343648Y254522D01*
D10*
X316230Y251460D02*
X316230Y208280D01*
X298450Y205740D02*
X298350Y205742D01*
X298251Y205748D01*
X298151Y205758D01*
X298053Y205771D01*
X297954Y205789D01*
X297857Y205810D01*
X297761Y205835D01*
X297665Y205864D01*
X297571Y205897D01*
X297478Y205933D01*
X297387Y205973D01*
X297297Y206017D01*
X297209Y206064D01*
X297123Y206114D01*
X297039Y206168D01*
X296957Y206225D01*
X296878Y206285D01*
X296800Y206349D01*
X296726Y206415D01*
X296654Y206484D01*
X296585Y206556D01*
X296519Y206630D01*
X296455Y206708D01*
X296395Y206787D01*
X296338Y206869D01*
X296284Y206953D01*
X296234Y207039D01*
X296187Y207127D01*
X296143Y207217D01*
X296103Y207308D01*
X296067Y207401D01*
X296034Y207495D01*
X296005Y207591D01*
X295980Y207687D01*
X295959Y207784D01*
X295941Y207883D01*
X295928Y207981D01*
X295918Y208081D01*
X295912Y208180D01*
X295910Y208280D01*
X295910Y251460D02*
X295912Y251560D01*
X295918Y251659D01*
X295928Y251759D01*
X295941Y251857D01*
X295959Y251956D01*
X295980Y252053D01*
X296005Y252149D01*
X296034Y252245D01*
X296067Y252339D01*
X296103Y252432D01*
X296143Y252523D01*
X296187Y252613D01*
X296234Y252701D01*
X296284Y252787D01*
X296338Y252871D01*
X296395Y252953D01*
X296455Y253032D01*
X296519Y253110D01*
X296585Y253184D01*
X296654Y253256D01*
X296726Y253325D01*
X296800Y253391D01*
X296878Y253455D01*
X296957Y253515D01*
X297039Y253572D01*
X297123Y253626D01*
X297209Y253676D01*
X297297Y253723D01*
X297387Y253767D01*
X297478Y253807D01*
X297571Y253843D01*
X297665Y253876D01*
X297761Y253905D01*
X297857Y253930D01*
X297954Y253951D01*
X298053Y253969D01*
X298151Y253982D01*
X298251Y253992D01*
X298350Y253998D01*
X298450Y254000D01*
X313690Y254000D02*
X313790Y253998D01*
X313889Y253992D01*
X313989Y253982D01*
X314087Y253969D01*
X314186Y253951D01*
X314283Y253930D01*
X314379Y253905D01*
X314475Y253876D01*
X314569Y253843D01*
X314662Y253807D01*
X314753Y253767D01*
X314843Y253723D01*
X314931Y253676D01*
X315017Y253626D01*
X315101Y253572D01*
X315183Y253515D01*
X315262Y253455D01*
X315340Y253391D01*
X315414Y253325D01*
X315486Y253256D01*
X315555Y253184D01*
X315621Y253110D01*
X315685Y253032D01*
X315745Y252953D01*
X315802Y252871D01*
X315856Y252787D01*
X315906Y252701D01*
X315953Y252613D01*
X315997Y252523D01*
X316037Y252432D01*
X316073Y252339D01*
X316106Y252245D01*
X316135Y252149D01*
X316160Y252053D01*
X316181Y251956D01*
X316199Y251857D01*
X316212Y251759D01*
X316222Y251659D01*
X316228Y251560D01*
X316230Y251460D01*
X316230Y208280D02*
X316228Y208180D01*
X316222Y208081D01*
X316212Y207981D01*
X316199Y207883D01*
X316181Y207784D01*
X316160Y207687D01*
X316135Y207591D01*
X316106Y207495D01*
X316073Y207401D01*
X316037Y207308D01*
X315997Y207217D01*
X315953Y207127D01*
X315906Y207039D01*
X315856Y206953D01*
X315802Y206869D01*
X315745Y206787D01*
X315685Y206708D01*
X315621Y206630D01*
X315555Y206556D01*
X315486Y206484D01*
X315414Y206415D01*
X315340Y206349D01*
X315262Y206285D01*
X315183Y206225D01*
X315101Y206168D01*
X315017Y206114D01*
X314931Y206064D01*
X314843Y206017D01*
X314753Y205973D01*
X314662Y205933D01*
X314569Y205897D01*
X314475Y205864D01*
X314379Y205835D01*
X314283Y205810D01*
X314186Y205789D01*
X314087Y205771D01*
X313989Y205758D01*
X313889Y205748D01*
X313790Y205742D01*
X313690Y205740D01*
X298450Y205740D01*
X298450Y254000D02*
X313690Y254000D01*
X295910Y251460D02*
X295910Y208280D01*
D16*
X264795Y247015D02*
X255905Y247015D01*
X255805Y247013D01*
X255706Y247007D01*
X255606Y246997D01*
X255508Y246984D01*
X255409Y246966D01*
X255312Y246945D01*
X255216Y246920D01*
X255120Y246891D01*
X255026Y246858D01*
X254933Y246822D01*
X254842Y246782D01*
X254752Y246738D01*
X254664Y246691D01*
X254578Y246641D01*
X254494Y246587D01*
X254412Y246530D01*
X254333Y246470D01*
X254255Y246406D01*
X254181Y246340D01*
X254109Y246271D01*
X254040Y246199D01*
X253974Y246125D01*
X253910Y246047D01*
X253850Y245968D01*
X253793Y245886D01*
X253739Y245802D01*
X253689Y245716D01*
X253642Y245628D01*
X253598Y245538D01*
X253558Y245447D01*
X253522Y245354D01*
X253489Y245260D01*
X253460Y245164D01*
X253435Y245068D01*
X253414Y244971D01*
X253396Y244872D01*
X253383Y244774D01*
X253373Y244674D01*
X253367Y244575D01*
X253365Y244475D01*
X253365Y243205D01*
X264796Y255916D02*
X264794Y256020D01*
X264788Y256125D01*
X264779Y256229D01*
X264766Y256332D01*
X264748Y256435D01*
X264728Y256537D01*
X264703Y256639D01*
X264675Y256739D01*
X264643Y256839D01*
X264607Y256937D01*
X264568Y257034D01*
X264526Y257129D01*
X264480Y257223D01*
X264430Y257315D01*
X264378Y257405D01*
X264322Y257493D01*
X264262Y257579D01*
X264200Y257663D01*
X264135Y257744D01*
X264067Y257823D01*
X263995Y257900D01*
X263922Y257973D01*
X263845Y258045D01*
X263766Y258113D01*
X263685Y258178D01*
X263601Y258240D01*
X263515Y258300D01*
X263427Y258356D01*
X263337Y258408D01*
X263245Y258458D01*
X263151Y258504D01*
X263056Y258546D01*
X262959Y258585D01*
X262861Y258621D01*
X262761Y258653D01*
X262661Y258681D01*
X262559Y258706D01*
X262457Y258726D01*
X262354Y258744D01*
X262251Y258757D01*
X262147Y258766D01*
X262042Y258772D01*
X261938Y258774D01*
X264795Y255916D02*
X264793Y255798D01*
X264787Y255679D01*
X264778Y255561D01*
X264765Y255444D01*
X264747Y255327D01*
X264727Y255210D01*
X264702Y255094D01*
X264674Y254979D01*
X264641Y254866D01*
X264606Y254753D01*
X264566Y254641D01*
X264524Y254531D01*
X264477Y254422D01*
X264427Y254314D01*
X264374Y254209D01*
X264317Y254105D01*
X264257Y254003D01*
X264194Y253903D01*
X264127Y253805D01*
X264058Y253709D01*
X263985Y253616D01*
X263909Y253525D01*
X263831Y253436D01*
X263749Y253350D01*
X263665Y253267D01*
X263579Y253186D01*
X263489Y253109D01*
X263398Y253034D01*
X263304Y252962D01*
X263207Y252893D01*
X263109Y252828D01*
X263008Y252765D01*
X262905Y252706D01*
X262801Y252650D01*
X262695Y252598D01*
X262587Y252549D01*
X262478Y252504D01*
X262367Y252462D01*
X262255Y252424D01*
X259716Y257822D02*
X259791Y257898D01*
X259870Y257973D01*
X259951Y258044D01*
X260035Y258113D01*
X260121Y258178D01*
X260209Y258240D01*
X260299Y258300D01*
X260391Y258356D01*
X260486Y258409D01*
X260582Y258458D01*
X260680Y258504D01*
X260779Y258547D01*
X260880Y258586D01*
X260982Y258621D01*
X261085Y258653D01*
X261189Y258681D01*
X261294Y258706D01*
X261401Y258727D01*
X261507Y258744D01*
X261614Y258757D01*
X261722Y258766D01*
X261830Y258772D01*
X261938Y258774D01*
X259715Y257821D02*
X253365Y252424D01*
X253365Y258774D01*
D10*
X267970Y251460D02*
X267970Y223520D01*
X288290Y251460D02*
X288288Y251560D01*
X288282Y251659D01*
X288272Y251759D01*
X288259Y251857D01*
X288241Y251956D01*
X288220Y252053D01*
X288195Y252149D01*
X288166Y252245D01*
X288133Y252339D01*
X288097Y252432D01*
X288057Y252523D01*
X288013Y252613D01*
X287966Y252701D01*
X287916Y252787D01*
X287862Y252871D01*
X287805Y252953D01*
X287745Y253032D01*
X287681Y253110D01*
X287615Y253184D01*
X287546Y253256D01*
X287474Y253325D01*
X287400Y253391D01*
X287322Y253455D01*
X287243Y253515D01*
X287161Y253572D01*
X287077Y253626D01*
X286991Y253676D01*
X286903Y253723D01*
X286813Y253767D01*
X286722Y253807D01*
X286629Y253843D01*
X286535Y253876D01*
X286439Y253905D01*
X286343Y253930D01*
X286246Y253951D01*
X286147Y253969D01*
X286049Y253982D01*
X285949Y253992D01*
X285850Y253998D01*
X285750Y254000D01*
X288290Y223520D02*
X288288Y223420D01*
X288282Y223321D01*
X288272Y223221D01*
X288259Y223123D01*
X288241Y223024D01*
X288220Y222927D01*
X288195Y222831D01*
X288166Y222735D01*
X288133Y222641D01*
X288097Y222548D01*
X288057Y222457D01*
X288013Y222367D01*
X287966Y222279D01*
X287916Y222193D01*
X287862Y222109D01*
X287805Y222027D01*
X287745Y221948D01*
X287681Y221870D01*
X287615Y221796D01*
X287546Y221724D01*
X287474Y221655D01*
X287400Y221589D01*
X287322Y221525D01*
X287243Y221465D01*
X287161Y221408D01*
X287077Y221354D01*
X286991Y221304D01*
X286903Y221257D01*
X286813Y221213D01*
X286722Y221173D01*
X286629Y221137D01*
X286535Y221104D01*
X286439Y221075D01*
X286343Y221050D01*
X286246Y221029D01*
X286147Y221011D01*
X286049Y220998D01*
X285949Y220988D01*
X285850Y220982D01*
X285750Y220980D01*
X270510Y220980D02*
X270410Y220982D01*
X270311Y220988D01*
X270211Y220998D01*
X270113Y221011D01*
X270014Y221029D01*
X269917Y221050D01*
X269821Y221075D01*
X269725Y221104D01*
X269631Y221137D01*
X269538Y221173D01*
X269447Y221213D01*
X269357Y221257D01*
X269269Y221304D01*
X269183Y221354D01*
X269099Y221408D01*
X269017Y221465D01*
X268938Y221525D01*
X268860Y221589D01*
X268786Y221655D01*
X268714Y221724D01*
X268645Y221796D01*
X268579Y221870D01*
X268515Y221948D01*
X268455Y222027D01*
X268398Y222109D01*
X268344Y222193D01*
X268294Y222279D01*
X268247Y222367D01*
X268203Y222457D01*
X268163Y222548D01*
X268127Y222641D01*
X268094Y222735D01*
X268065Y222831D01*
X268040Y222927D01*
X268019Y223024D01*
X268001Y223123D01*
X267988Y223221D01*
X267978Y223321D01*
X267972Y223420D01*
X267970Y223520D01*
X267970Y251460D02*
X267972Y251560D01*
X267978Y251659D01*
X267988Y251759D01*
X268001Y251857D01*
X268019Y251956D01*
X268040Y252053D01*
X268065Y252149D01*
X268094Y252245D01*
X268127Y252339D01*
X268163Y252432D01*
X268203Y252523D01*
X268247Y252613D01*
X268294Y252701D01*
X268344Y252787D01*
X268398Y252871D01*
X268455Y252953D01*
X268515Y253032D01*
X268579Y253110D01*
X268645Y253184D01*
X268714Y253256D01*
X268786Y253325D01*
X268860Y253391D01*
X268938Y253455D01*
X269017Y253515D01*
X269099Y253572D01*
X269183Y253626D01*
X269269Y253676D01*
X269357Y253723D01*
X269447Y253767D01*
X269538Y253807D01*
X269631Y253843D01*
X269725Y253876D01*
X269821Y253905D01*
X269917Y253930D01*
X270014Y253951D01*
X270113Y253969D01*
X270211Y253982D01*
X270311Y253992D01*
X270410Y253998D01*
X270510Y254000D01*
X285750Y254000D01*
X285750Y220980D02*
X270510Y220980D01*
X288290Y223520D02*
X288290Y251460D01*
D16*
X245745Y246686D02*
X236855Y246686D01*
X236755Y246684D01*
X236656Y246678D01*
X236556Y246668D01*
X236458Y246655D01*
X236359Y246637D01*
X236262Y246616D01*
X236166Y246591D01*
X236070Y246562D01*
X235976Y246529D01*
X235883Y246493D01*
X235792Y246453D01*
X235702Y246409D01*
X235614Y246362D01*
X235528Y246312D01*
X235444Y246258D01*
X235362Y246201D01*
X235283Y246141D01*
X235205Y246077D01*
X235131Y246011D01*
X235059Y245942D01*
X234990Y245870D01*
X234924Y245796D01*
X234860Y245718D01*
X234800Y245639D01*
X234743Y245557D01*
X234689Y245473D01*
X234639Y245387D01*
X234592Y245299D01*
X234548Y245209D01*
X234508Y245118D01*
X234472Y245025D01*
X234439Y244931D01*
X234410Y244835D01*
X234385Y244739D01*
X234364Y244642D01*
X234346Y244543D01*
X234333Y244445D01*
X234323Y244345D01*
X234317Y244246D01*
X234315Y244146D01*
X234315Y242876D01*
X243205Y252095D02*
X245745Y255270D01*
X234315Y255270D01*
X234315Y252095D02*
X234315Y258445D01*
M02*
