G04 EAGLE Gerber RS-274X export*
G75*
%MOMM*%
%FSLAX34Y34*%
%LPD*%
%INSilkscreen Top*%
%IPPOS*%
%AMOC8*
5,1,8,0,0,1.08239X$1,22.5*%
G01*
%ADD10C,0.101600*%
%ADD11C,0.152400*%
%ADD12R,0.014731X0.014731*%
%ADD13R,0.147319X0.014731*%
%ADD14R,0.265175X0.014731*%
%ADD15R,0.383031X0.014731*%
%ADD16R,0.515619X0.014731*%
%ADD17R,0.633475X0.014731*%
%ADD18R,0.751331X0.014731*%
%ADD19R,0.883919X0.014731*%
%ADD20R,1.001775X0.014731*%
%ADD21R,1.119631X0.014731*%
%ADD22R,1.134363X0.014731*%
%ADD23R,1.149094X0.014731*%
%ADD24R,1.163825X0.014731*%
%ADD25R,1.178556X0.014731*%
%ADD26R,1.193288X0.014731*%
%ADD27R,1.222756X0.014731*%
%ADD28R,1.237488X0.014731*%
%ADD29R,1.266950X0.014731*%
%ADD30R,1.281681X0.014731*%
%ADD31R,1.311144X0.014731*%
%ADD32R,1.325881X0.014731*%
%ADD33R,1.355344X0.014731*%
%ADD34R,1.370075X0.014731*%
%ADD35R,1.384806X0.014731*%
%ADD36R,1.399538X0.014731*%
%ADD37R,1.414275X0.014731*%
%ADD38R,1.443738X0.014731*%
%ADD39R,1.458469X0.014731*%
%ADD40R,1.487931X0.014731*%
%ADD41R,1.502663X0.014731*%
%ADD42R,1.517394X0.014731*%
%ADD43R,1.532125X0.014731*%
%ADD44R,1.546856X0.014731*%
%ADD45R,1.576319X0.014731*%
%ADD46R,1.605788X0.014731*%
%ADD47R,1.620519X0.014731*%
%ADD48R,1.649981X0.014731*%
%ADD49R,1.664713X0.014731*%
%ADD50R,1.694175X0.014731*%
%ADD51R,1.708913X0.014731*%
%ADD52R,1.738375X0.014731*%
%ADD53R,1.753106X0.014731*%
%ADD54R,1.767838X0.014731*%
%ADD55R,1.782569X0.014731*%
%ADD56R,1.797306X0.014731*%
%ADD57R,0.117856X0.014731*%
%ADD58R,1.826769X0.014731*%
%ADD59R,0.235713X0.014731*%
%ADD60R,0.353569X0.014731*%
%ADD61R,1.856231X0.014731*%
%ADD62R,0.486156X0.014731*%
%ADD63R,1.870963X0.014731*%
%ADD64R,0.604013X0.014731*%
%ADD65R,0.721869X0.014731*%
%ADD66R,1.885694X0.014731*%
%ADD67R,0.839719X0.014731*%
%ADD68R,0.972306X0.014731*%
%ADD69R,1.090169X0.014731*%
%ADD70R,1.208025X0.014731*%
%ADD71R,1.252219X0.014731*%
%ADD72R,1.296412X0.014731*%
%ADD73R,1.340612X0.014731*%
%ADD74R,1.826763X0.014731*%
%ADD75R,1.414269X0.014731*%
%ADD76R,1.812031X0.014731*%
%ADD77R,1.429000X0.014731*%
%ADD78R,1.458462X0.014731*%
%ADD79R,1.473200X0.014731*%
%ADD80R,1.723644X0.014731*%
%ADD81R,1.694181X0.014731*%
%ADD82R,1.679450X0.014731*%
%ADD83R,1.561594X0.014731*%
%ADD84R,1.576325X0.014731*%
%ADD85R,1.591056X0.014731*%
%ADD86R,1.635250X0.014731*%
%ADD87R,1.561588X0.014731*%
%ADD88R,1.443731X0.014731*%
%ADD89R,1.797300X0.014731*%
%ADD90R,1.841500X0.014731*%
%ADD91R,1.311150X0.014731*%
%ADD92R,1.296419X0.014731*%
%ADD93R,1.193294X0.014731*%
%ADD94R,0.957575X0.014731*%
%ADD95R,0.589281X0.014731*%
%ADD96R,0.471425X0.014731*%
%ADD97R,0.220975X0.014731*%
%ADD98R,1.812038X0.014731*%
%ADD99R,0.103119X0.014731*%
%ADD100R,0.029463X0.014731*%
%ADD101R,0.162050X0.014731*%
%ADD102R,0.397763X0.014731*%
%ADD103R,0.648206X0.014731*%
%ADD104R,1.679444X0.014731*%
%ADD105R,1.016506X0.014731*%
%ADD106R,1.104900X0.014731*%
%ADD107R,1.222750X0.014731*%
%ADD108R,1.429006X0.014731*%
%ADD109R,1.208019X0.014731*%
%ADD110R,0.987044X0.014731*%
%ADD111R,0.854456X0.014731*%
%ADD112R,0.618744X0.014731*%
%ADD113R,0.500888X0.014731*%
%ADD114R,0.368300X0.014731*%
%ADD115R,0.132587X0.014731*%
%ADD116R,1.664719X0.014731*%
%ADD117R,1.075438X0.014731*%
%ADD118R,0.942844X0.014731*%
%ADD119R,0.707131X0.014731*%
%ADD120R,0.456694X0.014731*%
%ADD121R,0.088388X0.014731*%
%ADD122C,0.076200*%
%ADD123C,0.127000*%


D10*
X403428Y475532D02*
X406086Y473670D01*
X406180Y473607D01*
X406276Y473547D01*
X406374Y473490D01*
X406474Y473437D01*
X406576Y473387D01*
X406680Y473341D01*
X406785Y473299D01*
X406891Y473260D01*
X406999Y473225D01*
X407108Y473194D01*
X407218Y473166D01*
X407329Y473143D01*
X407440Y473123D01*
X407552Y473107D01*
X407665Y473095D01*
X407778Y473087D01*
X407891Y473083D01*
X408005Y473083D01*
X408118Y473087D01*
X408231Y473095D01*
X408344Y473107D01*
X408456Y473123D01*
X408567Y473143D01*
X408678Y473166D01*
X408788Y473194D01*
X408897Y473225D01*
X409005Y473260D01*
X409111Y473299D01*
X409216Y473341D01*
X409320Y473387D01*
X409422Y473437D01*
X409522Y473490D01*
X409620Y473547D01*
X409716Y473607D01*
X409810Y473670D01*
X409901Y473737D01*
X409991Y473806D01*
X410078Y473879D01*
X410162Y473955D01*
X410243Y474034D01*
X410322Y474115D01*
X410398Y474199D01*
X410471Y474286D01*
X410540Y474376D01*
X410607Y474467D01*
X410670Y474561D01*
X410730Y474657D01*
X410787Y474755D01*
X410840Y474855D01*
X410890Y474957D01*
X410936Y475061D01*
X410978Y475166D01*
X411017Y475272D01*
X411052Y475380D01*
X411083Y475489D01*
X411111Y475599D01*
X411134Y475710D01*
X411154Y475821D01*
X411170Y475933D01*
X411182Y476046D01*
X411190Y476159D01*
X411194Y476272D01*
X411194Y476386D01*
X411190Y476499D01*
X411182Y476612D01*
X411170Y476725D01*
X411154Y476837D01*
X411134Y476948D01*
X411111Y477059D01*
X411083Y477169D01*
X411052Y477278D01*
X411017Y477386D01*
X410978Y477492D01*
X410936Y477597D01*
X410890Y477701D01*
X410840Y477803D01*
X410787Y477903D01*
X410730Y478001D01*
X410670Y478097D01*
X410607Y478191D01*
X410540Y478282D01*
X410471Y478372D01*
X410398Y478459D01*
X410322Y478543D01*
X410243Y478624D01*
X410162Y478703D01*
X410078Y478779D01*
X409991Y478852D01*
X409902Y478921D01*
X409810Y478988D01*
X413320Y482869D02*
X410129Y485103D01*
X413319Y482869D02*
X413400Y482809D01*
X413479Y482747D01*
X413556Y482681D01*
X413630Y482613D01*
X413701Y482542D01*
X413769Y482468D01*
X413835Y482391D01*
X413897Y482312D01*
X413957Y482231D01*
X414013Y482147D01*
X414066Y482062D01*
X414115Y481974D01*
X414161Y481885D01*
X414204Y481793D01*
X414243Y481700D01*
X414278Y481606D01*
X414310Y481511D01*
X414338Y481414D01*
X414362Y481316D01*
X414382Y481218D01*
X414399Y481118D01*
X414411Y481018D01*
X414420Y480918D01*
X414425Y480818D01*
X414426Y480717D01*
X414423Y480616D01*
X414416Y480516D01*
X414405Y480416D01*
X414391Y480316D01*
X414372Y480217D01*
X414350Y480119D01*
X414324Y480022D01*
X414294Y479925D01*
X414261Y479831D01*
X414224Y479737D01*
X414183Y479645D01*
X414138Y479554D01*
X414091Y479466D01*
X414039Y479379D01*
X413985Y479295D01*
X413927Y479212D01*
X413866Y479132D01*
X413802Y479054D01*
X413735Y478979D01*
X413666Y478906D01*
X413593Y478837D01*
X413518Y478770D01*
X413440Y478706D01*
X413360Y478645D01*
X413277Y478587D01*
X413193Y478533D01*
X413106Y478481D01*
X413018Y478434D01*
X412927Y478389D01*
X412835Y478348D01*
X412741Y478311D01*
X412647Y478278D01*
X412550Y478248D01*
X412453Y478222D01*
X412355Y478200D01*
X412256Y478181D01*
X412156Y478167D01*
X412056Y478156D01*
X411956Y478149D01*
X411855Y478146D01*
X411754Y478147D01*
X411654Y478152D01*
X411554Y478161D01*
X411454Y478173D01*
X411354Y478190D01*
X411256Y478210D01*
X411158Y478234D01*
X411061Y478262D01*
X410966Y478294D01*
X410872Y478329D01*
X410779Y478368D01*
X410687Y478411D01*
X410598Y478457D01*
X410510Y478506D01*
X410425Y478559D01*
X410341Y478615D01*
X408214Y480105D01*
X418960Y478919D02*
X415449Y467114D01*
X425341Y474452D01*
X422153Y462420D02*
X424812Y460558D01*
X424906Y460495D01*
X425002Y460435D01*
X425100Y460378D01*
X425200Y460325D01*
X425302Y460275D01*
X425406Y460229D01*
X425511Y460187D01*
X425617Y460148D01*
X425725Y460113D01*
X425834Y460082D01*
X425944Y460054D01*
X426055Y460031D01*
X426166Y460011D01*
X426278Y459995D01*
X426391Y459983D01*
X426504Y459975D01*
X426617Y459971D01*
X426731Y459971D01*
X426844Y459975D01*
X426957Y459983D01*
X427070Y459995D01*
X427182Y460011D01*
X427293Y460031D01*
X427404Y460054D01*
X427514Y460082D01*
X427623Y460113D01*
X427731Y460148D01*
X427837Y460187D01*
X427942Y460229D01*
X428046Y460275D01*
X428148Y460325D01*
X428248Y460378D01*
X428346Y460435D01*
X428442Y460495D01*
X428536Y460558D01*
X428627Y460625D01*
X428717Y460694D01*
X428804Y460767D01*
X428888Y460843D01*
X428969Y460922D01*
X429048Y461003D01*
X429124Y461087D01*
X429197Y461174D01*
X429266Y461264D01*
X429333Y461355D01*
X429396Y461449D01*
X429456Y461545D01*
X429513Y461643D01*
X429566Y461743D01*
X429616Y461845D01*
X429662Y461949D01*
X429704Y462054D01*
X429743Y462160D01*
X429778Y462268D01*
X429809Y462377D01*
X429837Y462487D01*
X429860Y462598D01*
X429880Y462709D01*
X429896Y462821D01*
X429908Y462934D01*
X429916Y463047D01*
X429920Y463160D01*
X429920Y463274D01*
X429916Y463387D01*
X429908Y463500D01*
X429896Y463613D01*
X429880Y463725D01*
X429860Y463836D01*
X429837Y463947D01*
X429809Y464057D01*
X429778Y464166D01*
X429743Y464274D01*
X429704Y464380D01*
X429662Y464485D01*
X429616Y464589D01*
X429566Y464691D01*
X429513Y464791D01*
X429456Y464889D01*
X429396Y464985D01*
X429333Y465079D01*
X429266Y465170D01*
X429197Y465260D01*
X429124Y465347D01*
X429048Y465431D01*
X428969Y465512D01*
X428888Y465591D01*
X428804Y465667D01*
X428717Y465740D01*
X428628Y465809D01*
X428536Y465876D01*
X432045Y469757D02*
X428855Y471991D01*
X432045Y469757D02*
X432126Y469697D01*
X432205Y469635D01*
X432282Y469569D01*
X432356Y469501D01*
X432427Y469430D01*
X432495Y469356D01*
X432561Y469279D01*
X432623Y469200D01*
X432683Y469119D01*
X432739Y469035D01*
X432792Y468950D01*
X432841Y468862D01*
X432887Y468773D01*
X432930Y468681D01*
X432969Y468588D01*
X433004Y468494D01*
X433036Y468399D01*
X433064Y468302D01*
X433088Y468204D01*
X433108Y468106D01*
X433125Y468006D01*
X433137Y467906D01*
X433146Y467806D01*
X433151Y467706D01*
X433152Y467605D01*
X433149Y467504D01*
X433142Y467404D01*
X433131Y467304D01*
X433117Y467204D01*
X433098Y467105D01*
X433076Y467007D01*
X433050Y466910D01*
X433020Y466813D01*
X432987Y466719D01*
X432950Y466625D01*
X432909Y466533D01*
X432864Y466442D01*
X432817Y466354D01*
X432765Y466267D01*
X432711Y466183D01*
X432653Y466100D01*
X432592Y466020D01*
X432528Y465942D01*
X432461Y465867D01*
X432392Y465794D01*
X432319Y465725D01*
X432244Y465658D01*
X432166Y465594D01*
X432086Y465533D01*
X432003Y465475D01*
X431919Y465421D01*
X431832Y465369D01*
X431744Y465322D01*
X431653Y465277D01*
X431561Y465236D01*
X431467Y465199D01*
X431373Y465166D01*
X431276Y465136D01*
X431179Y465110D01*
X431081Y465088D01*
X430982Y465069D01*
X430882Y465055D01*
X430782Y465044D01*
X430682Y465037D01*
X430581Y465034D01*
X430480Y465035D01*
X430380Y465040D01*
X430280Y465049D01*
X430180Y465061D01*
X430080Y465078D01*
X429982Y465098D01*
X429884Y465122D01*
X429787Y465150D01*
X429692Y465182D01*
X429598Y465217D01*
X429505Y465256D01*
X429413Y465299D01*
X429324Y465345D01*
X429236Y465394D01*
X429151Y465447D01*
X429067Y465503D01*
X426940Y466993D01*
X497242Y334770D02*
X497242Y331524D01*
X497242Y334770D02*
X497240Y334883D01*
X497234Y334996D01*
X497224Y335109D01*
X497210Y335222D01*
X497193Y335334D01*
X497171Y335445D01*
X497146Y335555D01*
X497116Y335665D01*
X497083Y335773D01*
X497046Y335880D01*
X497006Y335986D01*
X496961Y336090D01*
X496913Y336193D01*
X496862Y336294D01*
X496807Y336393D01*
X496749Y336490D01*
X496687Y336585D01*
X496622Y336678D01*
X496554Y336768D01*
X496483Y336856D01*
X496408Y336942D01*
X496331Y337025D01*
X496251Y337105D01*
X496168Y337182D01*
X496082Y337257D01*
X495994Y337328D01*
X495904Y337396D01*
X495811Y337461D01*
X495716Y337523D01*
X495619Y337581D01*
X495520Y337636D01*
X495419Y337687D01*
X495316Y337735D01*
X495212Y337780D01*
X495106Y337820D01*
X494999Y337857D01*
X494891Y337890D01*
X494781Y337920D01*
X494671Y337945D01*
X494560Y337967D01*
X494448Y337984D01*
X494335Y337998D01*
X494222Y338008D01*
X494109Y338014D01*
X493996Y338016D01*
X493883Y338014D01*
X493770Y338008D01*
X493657Y337998D01*
X493544Y337984D01*
X493432Y337967D01*
X493321Y337945D01*
X493211Y337920D01*
X493101Y337890D01*
X492993Y337857D01*
X492886Y337820D01*
X492780Y337780D01*
X492676Y337735D01*
X492573Y337687D01*
X492472Y337636D01*
X492373Y337581D01*
X492276Y337523D01*
X492181Y337461D01*
X492088Y337396D01*
X491998Y337328D01*
X491910Y337257D01*
X491824Y337182D01*
X491741Y337105D01*
X491661Y337025D01*
X491584Y336942D01*
X491509Y336856D01*
X491438Y336768D01*
X491370Y336678D01*
X491305Y336585D01*
X491243Y336490D01*
X491185Y336393D01*
X491130Y336294D01*
X491079Y336193D01*
X491031Y336090D01*
X490986Y335986D01*
X490946Y335880D01*
X490909Y335773D01*
X490876Y335665D01*
X490846Y335555D01*
X490821Y335445D01*
X490799Y335334D01*
X490782Y335222D01*
X490768Y335109D01*
X490758Y334996D01*
X490752Y334883D01*
X490750Y334770D01*
X485558Y335419D02*
X485558Y331524D01*
X485558Y335419D02*
X485560Y335520D01*
X485566Y335620D01*
X485576Y335720D01*
X485589Y335820D01*
X485607Y335919D01*
X485628Y336018D01*
X485653Y336115D01*
X485682Y336212D01*
X485715Y336307D01*
X485751Y336401D01*
X485791Y336493D01*
X485834Y336584D01*
X485881Y336673D01*
X485931Y336760D01*
X485985Y336846D01*
X486042Y336929D01*
X486102Y337009D01*
X486165Y337088D01*
X486232Y337164D01*
X486301Y337237D01*
X486373Y337307D01*
X486447Y337375D01*
X486524Y337440D01*
X486604Y337501D01*
X486686Y337560D01*
X486770Y337615D01*
X486856Y337667D01*
X486944Y337716D01*
X487034Y337761D01*
X487126Y337803D01*
X487219Y337841D01*
X487314Y337875D01*
X487409Y337906D01*
X487506Y337933D01*
X487604Y337956D01*
X487703Y337976D01*
X487803Y337991D01*
X487903Y338003D01*
X488003Y338011D01*
X488104Y338015D01*
X488204Y338015D01*
X488305Y338011D01*
X488405Y338003D01*
X488505Y337991D01*
X488605Y337976D01*
X488704Y337956D01*
X488802Y337933D01*
X488899Y337906D01*
X488994Y337875D01*
X489089Y337841D01*
X489182Y337803D01*
X489274Y337761D01*
X489364Y337716D01*
X489452Y337667D01*
X489538Y337615D01*
X489622Y337560D01*
X489704Y337501D01*
X489784Y337440D01*
X489861Y337375D01*
X489935Y337307D01*
X490007Y337237D01*
X490076Y337164D01*
X490143Y337088D01*
X490206Y337009D01*
X490266Y336929D01*
X490323Y336846D01*
X490377Y336760D01*
X490427Y336673D01*
X490474Y336584D01*
X490517Y336493D01*
X490557Y336401D01*
X490593Y336307D01*
X490626Y336212D01*
X490655Y336115D01*
X490680Y336018D01*
X490701Y335919D01*
X490719Y335820D01*
X490732Y335720D01*
X490742Y335620D01*
X490748Y335520D01*
X490750Y335419D01*
X490751Y335419D02*
X490751Y332823D01*
X485558Y342305D02*
X497242Y346200D01*
X485558Y350095D01*
X497242Y354384D02*
X497242Y357630D01*
X497240Y357743D01*
X497234Y357856D01*
X497224Y357969D01*
X497210Y358082D01*
X497193Y358194D01*
X497171Y358305D01*
X497146Y358415D01*
X497116Y358525D01*
X497083Y358633D01*
X497046Y358740D01*
X497006Y358846D01*
X496961Y358950D01*
X496913Y359053D01*
X496862Y359154D01*
X496807Y359253D01*
X496749Y359350D01*
X496687Y359445D01*
X496622Y359538D01*
X496554Y359628D01*
X496483Y359716D01*
X496408Y359802D01*
X496331Y359885D01*
X496251Y359965D01*
X496168Y360042D01*
X496082Y360117D01*
X495994Y360188D01*
X495904Y360256D01*
X495811Y360321D01*
X495716Y360383D01*
X495619Y360441D01*
X495520Y360496D01*
X495419Y360547D01*
X495316Y360595D01*
X495212Y360640D01*
X495106Y360680D01*
X494999Y360717D01*
X494891Y360750D01*
X494781Y360780D01*
X494671Y360805D01*
X494560Y360827D01*
X494448Y360844D01*
X494335Y360858D01*
X494222Y360868D01*
X494109Y360874D01*
X493996Y360876D01*
X493883Y360874D01*
X493770Y360868D01*
X493657Y360858D01*
X493544Y360844D01*
X493432Y360827D01*
X493321Y360805D01*
X493211Y360780D01*
X493101Y360750D01*
X492993Y360717D01*
X492886Y360680D01*
X492780Y360640D01*
X492676Y360595D01*
X492573Y360547D01*
X492472Y360496D01*
X492373Y360441D01*
X492276Y360383D01*
X492181Y360321D01*
X492088Y360256D01*
X491998Y360188D01*
X491910Y360117D01*
X491824Y360042D01*
X491741Y359965D01*
X491661Y359885D01*
X491584Y359802D01*
X491509Y359716D01*
X491438Y359628D01*
X491370Y359538D01*
X491305Y359445D01*
X491243Y359350D01*
X491185Y359253D01*
X491130Y359154D01*
X491079Y359053D01*
X491031Y358950D01*
X490986Y358846D01*
X490946Y358740D01*
X490909Y358633D01*
X490876Y358525D01*
X490846Y358415D01*
X490821Y358305D01*
X490799Y358194D01*
X490782Y358082D01*
X490768Y357969D01*
X490758Y357856D01*
X490752Y357743D01*
X490750Y357630D01*
X485558Y358279D02*
X485558Y354384D01*
X485558Y358279D02*
X485560Y358380D01*
X485566Y358480D01*
X485576Y358580D01*
X485589Y358680D01*
X485607Y358779D01*
X485628Y358878D01*
X485653Y358975D01*
X485682Y359072D01*
X485715Y359167D01*
X485751Y359261D01*
X485791Y359353D01*
X485834Y359444D01*
X485881Y359533D01*
X485931Y359620D01*
X485985Y359706D01*
X486042Y359789D01*
X486102Y359869D01*
X486165Y359948D01*
X486232Y360024D01*
X486301Y360097D01*
X486373Y360167D01*
X486447Y360235D01*
X486524Y360300D01*
X486604Y360361D01*
X486686Y360420D01*
X486770Y360475D01*
X486856Y360527D01*
X486944Y360576D01*
X487034Y360621D01*
X487126Y360663D01*
X487219Y360701D01*
X487314Y360735D01*
X487409Y360766D01*
X487506Y360793D01*
X487604Y360816D01*
X487703Y360836D01*
X487803Y360851D01*
X487903Y360863D01*
X488003Y360871D01*
X488104Y360875D01*
X488204Y360875D01*
X488305Y360871D01*
X488405Y360863D01*
X488505Y360851D01*
X488605Y360836D01*
X488704Y360816D01*
X488802Y360793D01*
X488899Y360766D01*
X488994Y360735D01*
X489089Y360701D01*
X489182Y360663D01*
X489274Y360621D01*
X489364Y360576D01*
X489452Y360527D01*
X489538Y360475D01*
X489622Y360420D01*
X489704Y360361D01*
X489784Y360300D01*
X489861Y360235D01*
X489935Y360167D01*
X490007Y360097D01*
X490076Y360024D01*
X490143Y359948D01*
X490206Y359869D01*
X490266Y359789D01*
X490323Y359706D01*
X490377Y359620D01*
X490427Y359533D01*
X490474Y359444D01*
X490517Y359353D01*
X490557Y359261D01*
X490593Y359167D01*
X490626Y359072D01*
X490655Y358975D01*
X490680Y358878D01*
X490701Y358779D01*
X490719Y358680D01*
X490732Y358580D01*
X490742Y358480D01*
X490748Y358380D01*
X490750Y358279D01*
X490751Y358279D02*
X490751Y355683D01*
X412788Y209159D02*
X410129Y207297D01*
X412788Y209158D02*
X412879Y209225D01*
X412969Y209294D01*
X413056Y209367D01*
X413140Y209443D01*
X413221Y209522D01*
X413300Y209603D01*
X413376Y209687D01*
X413449Y209774D01*
X413518Y209864D01*
X413585Y209955D01*
X413648Y210049D01*
X413708Y210145D01*
X413765Y210243D01*
X413818Y210343D01*
X413868Y210445D01*
X413914Y210549D01*
X413956Y210654D01*
X413995Y210760D01*
X414030Y210868D01*
X414061Y210977D01*
X414089Y211087D01*
X414112Y211198D01*
X414132Y211309D01*
X414148Y211421D01*
X414160Y211534D01*
X414168Y211647D01*
X414172Y211760D01*
X414172Y211874D01*
X414168Y211987D01*
X414160Y212100D01*
X414148Y212213D01*
X414132Y212325D01*
X414112Y212436D01*
X414089Y212547D01*
X414061Y212657D01*
X414030Y212766D01*
X413995Y212874D01*
X413956Y212980D01*
X413914Y213085D01*
X413868Y213189D01*
X413818Y213291D01*
X413765Y213391D01*
X413708Y213489D01*
X413648Y213585D01*
X413585Y213679D01*
X413518Y213770D01*
X413449Y213860D01*
X413376Y213947D01*
X413300Y214031D01*
X413221Y214112D01*
X413140Y214191D01*
X413056Y214267D01*
X412969Y214340D01*
X412880Y214409D01*
X412788Y214476D01*
X412694Y214539D01*
X412598Y214599D01*
X412500Y214656D01*
X412400Y214709D01*
X412298Y214759D01*
X412194Y214805D01*
X412089Y214847D01*
X411983Y214886D01*
X411875Y214921D01*
X411766Y214952D01*
X411656Y214980D01*
X411545Y215003D01*
X411434Y215023D01*
X411322Y215039D01*
X411209Y215051D01*
X411096Y215059D01*
X410983Y215063D01*
X410869Y215063D01*
X410756Y215059D01*
X410643Y215051D01*
X410530Y215039D01*
X410418Y215023D01*
X410307Y215003D01*
X410196Y214980D01*
X410086Y214952D01*
X409977Y214921D01*
X409869Y214886D01*
X409763Y214847D01*
X409658Y214805D01*
X409554Y214759D01*
X409452Y214709D01*
X409352Y214656D01*
X409254Y214599D01*
X409158Y214539D01*
X409064Y214476D01*
X406618Y219102D02*
X403428Y216868D01*
X406618Y219102D02*
X406702Y219158D01*
X406787Y219211D01*
X406875Y219260D01*
X406964Y219306D01*
X407056Y219349D01*
X407149Y219388D01*
X407243Y219423D01*
X407338Y219455D01*
X407435Y219483D01*
X407533Y219507D01*
X407631Y219527D01*
X407731Y219544D01*
X407831Y219556D01*
X407931Y219565D01*
X408032Y219570D01*
X408132Y219571D01*
X408233Y219568D01*
X408333Y219561D01*
X408433Y219550D01*
X408533Y219536D01*
X408632Y219517D01*
X408730Y219495D01*
X408827Y219469D01*
X408924Y219439D01*
X409019Y219406D01*
X409112Y219369D01*
X409204Y219328D01*
X409295Y219283D01*
X409383Y219236D01*
X409470Y219184D01*
X409554Y219130D01*
X409637Y219072D01*
X409717Y219011D01*
X409795Y218947D01*
X409870Y218880D01*
X409943Y218811D01*
X410012Y218738D01*
X410079Y218663D01*
X410143Y218585D01*
X410204Y218505D01*
X410262Y218422D01*
X410316Y218338D01*
X410368Y218251D01*
X410415Y218163D01*
X410460Y218072D01*
X410501Y217980D01*
X410538Y217886D01*
X410571Y217792D01*
X410601Y217695D01*
X410627Y217598D01*
X410649Y217500D01*
X410668Y217401D01*
X410682Y217301D01*
X410693Y217201D01*
X410700Y217101D01*
X410703Y217000D01*
X410702Y216900D01*
X410697Y216799D01*
X410688Y216699D01*
X410676Y216599D01*
X410659Y216499D01*
X410639Y216401D01*
X410615Y216303D01*
X410587Y216206D01*
X410555Y216111D01*
X410520Y216017D01*
X410481Y215924D01*
X410438Y215832D01*
X410392Y215743D01*
X410343Y215655D01*
X410290Y215570D01*
X410234Y215486D01*
X410174Y215405D01*
X410112Y215326D01*
X410046Y215249D01*
X409978Y215175D01*
X409907Y215104D01*
X409833Y215036D01*
X409756Y214970D01*
X409677Y214908D01*
X409596Y214848D01*
X407470Y213359D01*
X412259Y223052D02*
X422151Y215714D01*
X418639Y227519D01*
X428855Y220409D02*
X431514Y222270D01*
X431605Y222337D01*
X431695Y222406D01*
X431782Y222479D01*
X431866Y222555D01*
X431947Y222634D01*
X432026Y222715D01*
X432102Y222799D01*
X432175Y222886D01*
X432244Y222976D01*
X432311Y223067D01*
X432374Y223161D01*
X432434Y223257D01*
X432491Y223355D01*
X432544Y223455D01*
X432594Y223557D01*
X432640Y223661D01*
X432682Y223766D01*
X432721Y223872D01*
X432756Y223980D01*
X432787Y224089D01*
X432815Y224199D01*
X432838Y224310D01*
X432858Y224421D01*
X432874Y224533D01*
X432886Y224646D01*
X432894Y224759D01*
X432898Y224872D01*
X432898Y224986D01*
X432894Y225099D01*
X432886Y225212D01*
X432874Y225325D01*
X432858Y225437D01*
X432838Y225548D01*
X432815Y225659D01*
X432787Y225769D01*
X432756Y225878D01*
X432721Y225986D01*
X432682Y226092D01*
X432640Y226197D01*
X432594Y226301D01*
X432544Y226403D01*
X432491Y226503D01*
X432434Y226601D01*
X432374Y226697D01*
X432311Y226791D01*
X432244Y226882D01*
X432175Y226972D01*
X432102Y227059D01*
X432026Y227143D01*
X431947Y227224D01*
X431866Y227303D01*
X431782Y227379D01*
X431695Y227452D01*
X431606Y227521D01*
X431514Y227588D01*
X431420Y227651D01*
X431324Y227711D01*
X431226Y227768D01*
X431126Y227821D01*
X431024Y227871D01*
X430920Y227917D01*
X430815Y227959D01*
X430709Y227998D01*
X430601Y228033D01*
X430492Y228064D01*
X430382Y228092D01*
X430271Y228115D01*
X430160Y228135D01*
X430048Y228151D01*
X429935Y228163D01*
X429822Y228171D01*
X429709Y228175D01*
X429595Y228175D01*
X429482Y228171D01*
X429369Y228163D01*
X429256Y228151D01*
X429144Y228135D01*
X429033Y228115D01*
X428922Y228092D01*
X428812Y228064D01*
X428703Y228033D01*
X428595Y227998D01*
X428489Y227959D01*
X428384Y227917D01*
X428280Y227871D01*
X428178Y227821D01*
X428078Y227768D01*
X427980Y227711D01*
X427884Y227651D01*
X427790Y227588D01*
X425344Y232214D02*
X422153Y229980D01*
X425344Y232214D02*
X425428Y232270D01*
X425513Y232323D01*
X425601Y232372D01*
X425690Y232418D01*
X425782Y232461D01*
X425875Y232500D01*
X425969Y232535D01*
X426064Y232567D01*
X426161Y232595D01*
X426259Y232619D01*
X426357Y232639D01*
X426457Y232656D01*
X426557Y232668D01*
X426657Y232677D01*
X426758Y232682D01*
X426858Y232683D01*
X426959Y232680D01*
X427059Y232673D01*
X427159Y232662D01*
X427259Y232648D01*
X427358Y232629D01*
X427456Y232607D01*
X427553Y232581D01*
X427650Y232551D01*
X427745Y232518D01*
X427838Y232481D01*
X427930Y232440D01*
X428021Y232395D01*
X428109Y232348D01*
X428196Y232296D01*
X428280Y232242D01*
X428363Y232184D01*
X428443Y232123D01*
X428521Y232059D01*
X428596Y231992D01*
X428669Y231923D01*
X428738Y231850D01*
X428805Y231775D01*
X428869Y231697D01*
X428930Y231617D01*
X428988Y231534D01*
X429042Y231450D01*
X429094Y231363D01*
X429141Y231275D01*
X429186Y231184D01*
X429227Y231092D01*
X429264Y230998D01*
X429297Y230904D01*
X429327Y230807D01*
X429353Y230710D01*
X429375Y230612D01*
X429394Y230513D01*
X429408Y230413D01*
X429419Y230313D01*
X429426Y230213D01*
X429429Y230112D01*
X429428Y230012D01*
X429423Y229911D01*
X429414Y229811D01*
X429402Y229711D01*
X429385Y229611D01*
X429365Y229513D01*
X429341Y229415D01*
X429313Y229318D01*
X429281Y229223D01*
X429246Y229129D01*
X429207Y229036D01*
X429164Y228944D01*
X429118Y228855D01*
X429069Y228767D01*
X429016Y228682D01*
X428960Y228598D01*
X428900Y228517D01*
X428838Y228438D01*
X428772Y228361D01*
X428704Y228287D01*
X428633Y228216D01*
X428559Y228148D01*
X428482Y228082D01*
X428403Y228020D01*
X428322Y227960D01*
X426195Y226471D01*
X260886Y222270D02*
X258228Y224132D01*
X260886Y222270D02*
X260980Y222207D01*
X261076Y222147D01*
X261174Y222090D01*
X261274Y222037D01*
X261376Y221987D01*
X261480Y221941D01*
X261585Y221899D01*
X261691Y221860D01*
X261799Y221825D01*
X261908Y221794D01*
X262018Y221766D01*
X262129Y221743D01*
X262240Y221723D01*
X262352Y221707D01*
X262465Y221695D01*
X262578Y221687D01*
X262691Y221683D01*
X262805Y221683D01*
X262918Y221687D01*
X263031Y221695D01*
X263144Y221707D01*
X263256Y221723D01*
X263367Y221743D01*
X263478Y221766D01*
X263588Y221794D01*
X263697Y221825D01*
X263805Y221860D01*
X263911Y221899D01*
X264016Y221941D01*
X264120Y221987D01*
X264222Y222037D01*
X264322Y222090D01*
X264420Y222147D01*
X264516Y222207D01*
X264610Y222270D01*
X264701Y222337D01*
X264791Y222406D01*
X264878Y222479D01*
X264962Y222555D01*
X265043Y222634D01*
X265122Y222715D01*
X265198Y222799D01*
X265271Y222886D01*
X265340Y222976D01*
X265407Y223067D01*
X265470Y223161D01*
X265530Y223257D01*
X265587Y223355D01*
X265640Y223455D01*
X265690Y223557D01*
X265736Y223661D01*
X265778Y223766D01*
X265817Y223872D01*
X265852Y223980D01*
X265883Y224089D01*
X265911Y224199D01*
X265934Y224310D01*
X265954Y224421D01*
X265970Y224533D01*
X265982Y224646D01*
X265990Y224759D01*
X265994Y224872D01*
X265994Y224986D01*
X265990Y225099D01*
X265982Y225212D01*
X265970Y225325D01*
X265954Y225437D01*
X265934Y225548D01*
X265911Y225659D01*
X265883Y225769D01*
X265852Y225878D01*
X265817Y225986D01*
X265778Y226092D01*
X265736Y226197D01*
X265690Y226301D01*
X265640Y226403D01*
X265587Y226503D01*
X265530Y226601D01*
X265470Y226697D01*
X265407Y226791D01*
X265340Y226882D01*
X265271Y226972D01*
X265198Y227059D01*
X265122Y227143D01*
X265043Y227224D01*
X264962Y227303D01*
X264878Y227379D01*
X264791Y227452D01*
X264702Y227521D01*
X264610Y227588D01*
X268120Y231469D02*
X264929Y233703D01*
X268119Y231469D02*
X268200Y231409D01*
X268279Y231347D01*
X268356Y231281D01*
X268430Y231213D01*
X268501Y231142D01*
X268569Y231068D01*
X268635Y230991D01*
X268697Y230912D01*
X268757Y230831D01*
X268813Y230747D01*
X268866Y230662D01*
X268915Y230574D01*
X268961Y230485D01*
X269004Y230393D01*
X269043Y230300D01*
X269078Y230206D01*
X269110Y230111D01*
X269138Y230014D01*
X269162Y229916D01*
X269182Y229818D01*
X269199Y229718D01*
X269211Y229618D01*
X269220Y229518D01*
X269225Y229418D01*
X269226Y229317D01*
X269223Y229216D01*
X269216Y229116D01*
X269205Y229016D01*
X269191Y228916D01*
X269172Y228817D01*
X269150Y228719D01*
X269124Y228622D01*
X269094Y228525D01*
X269061Y228431D01*
X269024Y228337D01*
X268983Y228245D01*
X268938Y228154D01*
X268891Y228066D01*
X268839Y227979D01*
X268785Y227895D01*
X268727Y227812D01*
X268666Y227732D01*
X268602Y227654D01*
X268535Y227579D01*
X268466Y227506D01*
X268393Y227437D01*
X268318Y227370D01*
X268240Y227306D01*
X268160Y227245D01*
X268077Y227187D01*
X267993Y227133D01*
X267906Y227081D01*
X267818Y227034D01*
X267727Y226989D01*
X267635Y226948D01*
X267541Y226911D01*
X267447Y226878D01*
X267350Y226848D01*
X267253Y226822D01*
X267155Y226800D01*
X267056Y226781D01*
X266956Y226767D01*
X266856Y226756D01*
X266756Y226749D01*
X266655Y226746D01*
X266554Y226747D01*
X266454Y226752D01*
X266354Y226761D01*
X266254Y226773D01*
X266154Y226790D01*
X266056Y226810D01*
X265958Y226834D01*
X265861Y226862D01*
X265766Y226894D01*
X265672Y226929D01*
X265579Y226968D01*
X265487Y227011D01*
X265398Y227057D01*
X265310Y227106D01*
X265225Y227159D01*
X265141Y227215D01*
X263014Y228705D01*
X273760Y227519D02*
X270249Y215714D01*
X280141Y223052D01*
X276953Y211020D02*
X279612Y209158D01*
X279706Y209095D01*
X279802Y209035D01*
X279900Y208978D01*
X280000Y208925D01*
X280102Y208875D01*
X280206Y208829D01*
X280311Y208787D01*
X280417Y208748D01*
X280525Y208713D01*
X280634Y208682D01*
X280744Y208654D01*
X280855Y208631D01*
X280966Y208611D01*
X281078Y208595D01*
X281191Y208583D01*
X281304Y208575D01*
X281417Y208571D01*
X281531Y208571D01*
X281644Y208575D01*
X281757Y208583D01*
X281870Y208595D01*
X281982Y208611D01*
X282093Y208631D01*
X282204Y208654D01*
X282314Y208682D01*
X282423Y208713D01*
X282531Y208748D01*
X282637Y208787D01*
X282742Y208829D01*
X282846Y208875D01*
X282948Y208925D01*
X283048Y208978D01*
X283146Y209035D01*
X283242Y209095D01*
X283336Y209158D01*
X283427Y209225D01*
X283517Y209294D01*
X283604Y209367D01*
X283688Y209443D01*
X283769Y209522D01*
X283848Y209603D01*
X283924Y209687D01*
X283997Y209774D01*
X284066Y209864D01*
X284133Y209955D01*
X284196Y210049D01*
X284256Y210145D01*
X284313Y210243D01*
X284366Y210343D01*
X284416Y210445D01*
X284462Y210549D01*
X284504Y210654D01*
X284543Y210760D01*
X284578Y210868D01*
X284609Y210977D01*
X284637Y211087D01*
X284660Y211198D01*
X284680Y211309D01*
X284696Y211421D01*
X284708Y211534D01*
X284716Y211647D01*
X284720Y211760D01*
X284720Y211874D01*
X284716Y211987D01*
X284708Y212100D01*
X284696Y212213D01*
X284680Y212325D01*
X284660Y212436D01*
X284637Y212547D01*
X284609Y212657D01*
X284578Y212766D01*
X284543Y212874D01*
X284504Y212980D01*
X284462Y213085D01*
X284416Y213189D01*
X284366Y213291D01*
X284313Y213391D01*
X284256Y213489D01*
X284196Y213585D01*
X284133Y213679D01*
X284066Y213770D01*
X283997Y213860D01*
X283924Y213947D01*
X283848Y214031D01*
X283769Y214112D01*
X283688Y214191D01*
X283604Y214267D01*
X283517Y214340D01*
X283428Y214409D01*
X283336Y214476D01*
X286845Y218357D02*
X283655Y220591D01*
X286845Y218357D02*
X286926Y218297D01*
X287005Y218235D01*
X287082Y218169D01*
X287156Y218101D01*
X287227Y218030D01*
X287295Y217956D01*
X287361Y217879D01*
X287423Y217800D01*
X287483Y217719D01*
X287539Y217635D01*
X287592Y217550D01*
X287641Y217462D01*
X287687Y217373D01*
X287730Y217281D01*
X287769Y217188D01*
X287804Y217094D01*
X287836Y216999D01*
X287864Y216902D01*
X287888Y216804D01*
X287908Y216706D01*
X287925Y216606D01*
X287937Y216506D01*
X287946Y216406D01*
X287951Y216306D01*
X287952Y216205D01*
X287949Y216104D01*
X287942Y216004D01*
X287931Y215904D01*
X287917Y215804D01*
X287898Y215705D01*
X287876Y215607D01*
X287850Y215510D01*
X287820Y215413D01*
X287787Y215319D01*
X287750Y215225D01*
X287709Y215133D01*
X287664Y215042D01*
X287617Y214954D01*
X287565Y214867D01*
X287511Y214783D01*
X287453Y214700D01*
X287392Y214620D01*
X287328Y214542D01*
X287261Y214467D01*
X287192Y214394D01*
X287119Y214325D01*
X287044Y214258D01*
X286966Y214194D01*
X286886Y214133D01*
X286803Y214075D01*
X286719Y214021D01*
X286632Y213969D01*
X286544Y213922D01*
X286453Y213877D01*
X286361Y213836D01*
X286267Y213799D01*
X286173Y213766D01*
X286076Y213736D01*
X285979Y213710D01*
X285881Y213688D01*
X285782Y213669D01*
X285682Y213655D01*
X285582Y213644D01*
X285482Y213637D01*
X285381Y213634D01*
X285280Y213635D01*
X285180Y213640D01*
X285080Y213649D01*
X284980Y213661D01*
X284880Y213678D01*
X284782Y213698D01*
X284684Y213722D01*
X284587Y213750D01*
X284492Y213782D01*
X284398Y213817D01*
X284305Y213856D01*
X284213Y213899D01*
X284124Y213945D01*
X284036Y213994D01*
X283951Y214047D01*
X283867Y214103D01*
X281740Y215593D01*
X206842Y331524D02*
X206842Y334770D01*
X206840Y334883D01*
X206834Y334996D01*
X206824Y335109D01*
X206810Y335222D01*
X206793Y335334D01*
X206771Y335445D01*
X206746Y335555D01*
X206716Y335665D01*
X206683Y335773D01*
X206646Y335880D01*
X206606Y335986D01*
X206561Y336090D01*
X206513Y336193D01*
X206462Y336294D01*
X206407Y336393D01*
X206349Y336490D01*
X206287Y336585D01*
X206222Y336678D01*
X206154Y336768D01*
X206083Y336856D01*
X206008Y336942D01*
X205931Y337025D01*
X205851Y337105D01*
X205768Y337182D01*
X205682Y337257D01*
X205594Y337328D01*
X205504Y337396D01*
X205411Y337461D01*
X205316Y337523D01*
X205219Y337581D01*
X205120Y337636D01*
X205019Y337687D01*
X204916Y337735D01*
X204812Y337780D01*
X204706Y337820D01*
X204599Y337857D01*
X204491Y337890D01*
X204381Y337920D01*
X204271Y337945D01*
X204160Y337967D01*
X204048Y337984D01*
X203935Y337998D01*
X203822Y338008D01*
X203709Y338014D01*
X203596Y338016D01*
X203483Y338014D01*
X203370Y338008D01*
X203257Y337998D01*
X203144Y337984D01*
X203032Y337967D01*
X202921Y337945D01*
X202811Y337920D01*
X202701Y337890D01*
X202593Y337857D01*
X202486Y337820D01*
X202380Y337780D01*
X202276Y337735D01*
X202173Y337687D01*
X202072Y337636D01*
X201973Y337581D01*
X201876Y337523D01*
X201781Y337461D01*
X201688Y337396D01*
X201598Y337328D01*
X201510Y337257D01*
X201424Y337182D01*
X201341Y337105D01*
X201261Y337025D01*
X201184Y336942D01*
X201109Y336856D01*
X201038Y336768D01*
X200970Y336678D01*
X200905Y336585D01*
X200843Y336490D01*
X200785Y336393D01*
X200730Y336294D01*
X200679Y336193D01*
X200631Y336090D01*
X200586Y335986D01*
X200546Y335880D01*
X200509Y335773D01*
X200476Y335665D01*
X200446Y335555D01*
X200421Y335445D01*
X200399Y335334D01*
X200382Y335222D01*
X200368Y335109D01*
X200358Y334996D01*
X200352Y334883D01*
X200350Y334770D01*
X195158Y335419D02*
X195158Y331524D01*
X195158Y335419D02*
X195160Y335520D01*
X195166Y335620D01*
X195176Y335720D01*
X195189Y335820D01*
X195207Y335919D01*
X195228Y336018D01*
X195253Y336115D01*
X195282Y336212D01*
X195315Y336307D01*
X195351Y336401D01*
X195391Y336493D01*
X195434Y336584D01*
X195481Y336673D01*
X195531Y336760D01*
X195585Y336846D01*
X195642Y336929D01*
X195702Y337009D01*
X195765Y337088D01*
X195832Y337164D01*
X195901Y337237D01*
X195973Y337307D01*
X196047Y337375D01*
X196124Y337440D01*
X196204Y337501D01*
X196286Y337560D01*
X196370Y337615D01*
X196456Y337667D01*
X196544Y337716D01*
X196634Y337761D01*
X196726Y337803D01*
X196819Y337841D01*
X196914Y337875D01*
X197009Y337906D01*
X197106Y337933D01*
X197204Y337956D01*
X197303Y337976D01*
X197403Y337991D01*
X197503Y338003D01*
X197603Y338011D01*
X197704Y338015D01*
X197804Y338015D01*
X197905Y338011D01*
X198005Y338003D01*
X198105Y337991D01*
X198205Y337976D01*
X198304Y337956D01*
X198402Y337933D01*
X198499Y337906D01*
X198594Y337875D01*
X198689Y337841D01*
X198782Y337803D01*
X198874Y337761D01*
X198964Y337716D01*
X199052Y337667D01*
X199138Y337615D01*
X199222Y337560D01*
X199304Y337501D01*
X199384Y337440D01*
X199461Y337375D01*
X199535Y337307D01*
X199607Y337237D01*
X199676Y337164D01*
X199743Y337088D01*
X199806Y337009D01*
X199866Y336929D01*
X199923Y336846D01*
X199977Y336760D01*
X200027Y336673D01*
X200074Y336584D01*
X200117Y336493D01*
X200157Y336401D01*
X200193Y336307D01*
X200226Y336212D01*
X200255Y336115D01*
X200280Y336018D01*
X200301Y335919D01*
X200319Y335820D01*
X200332Y335720D01*
X200342Y335620D01*
X200348Y335520D01*
X200350Y335419D01*
X200351Y335419D02*
X200351Y332823D01*
X195158Y342305D02*
X206842Y346200D01*
X195158Y350095D01*
X206842Y354384D02*
X206842Y357630D01*
X206840Y357743D01*
X206834Y357856D01*
X206824Y357969D01*
X206810Y358082D01*
X206793Y358194D01*
X206771Y358305D01*
X206746Y358415D01*
X206716Y358525D01*
X206683Y358633D01*
X206646Y358740D01*
X206606Y358846D01*
X206561Y358950D01*
X206513Y359053D01*
X206462Y359154D01*
X206407Y359253D01*
X206349Y359350D01*
X206287Y359445D01*
X206222Y359538D01*
X206154Y359628D01*
X206083Y359716D01*
X206008Y359802D01*
X205931Y359885D01*
X205851Y359965D01*
X205768Y360042D01*
X205682Y360117D01*
X205594Y360188D01*
X205504Y360256D01*
X205411Y360321D01*
X205316Y360383D01*
X205219Y360441D01*
X205120Y360496D01*
X205019Y360547D01*
X204916Y360595D01*
X204812Y360640D01*
X204706Y360680D01*
X204599Y360717D01*
X204491Y360750D01*
X204381Y360780D01*
X204271Y360805D01*
X204160Y360827D01*
X204048Y360844D01*
X203935Y360858D01*
X203822Y360868D01*
X203709Y360874D01*
X203596Y360876D01*
X203483Y360874D01*
X203370Y360868D01*
X203257Y360858D01*
X203144Y360844D01*
X203032Y360827D01*
X202921Y360805D01*
X202811Y360780D01*
X202701Y360750D01*
X202593Y360717D01*
X202486Y360680D01*
X202380Y360640D01*
X202276Y360595D01*
X202173Y360547D01*
X202072Y360496D01*
X201973Y360441D01*
X201876Y360383D01*
X201781Y360321D01*
X201688Y360256D01*
X201598Y360188D01*
X201510Y360117D01*
X201424Y360042D01*
X201341Y359965D01*
X201261Y359885D01*
X201184Y359802D01*
X201109Y359716D01*
X201038Y359628D01*
X200970Y359538D01*
X200905Y359445D01*
X200843Y359350D01*
X200785Y359253D01*
X200730Y359154D01*
X200679Y359053D01*
X200631Y358950D01*
X200586Y358846D01*
X200546Y358740D01*
X200509Y358633D01*
X200476Y358525D01*
X200446Y358415D01*
X200421Y358305D01*
X200399Y358194D01*
X200382Y358082D01*
X200368Y357969D01*
X200358Y357856D01*
X200352Y357743D01*
X200350Y357630D01*
X195158Y358279D02*
X195158Y354384D01*
X195158Y358279D02*
X195160Y358380D01*
X195166Y358480D01*
X195176Y358580D01*
X195189Y358680D01*
X195207Y358779D01*
X195228Y358878D01*
X195253Y358975D01*
X195282Y359072D01*
X195315Y359167D01*
X195351Y359261D01*
X195391Y359353D01*
X195434Y359444D01*
X195481Y359533D01*
X195531Y359620D01*
X195585Y359706D01*
X195642Y359789D01*
X195702Y359869D01*
X195765Y359948D01*
X195832Y360024D01*
X195901Y360097D01*
X195973Y360167D01*
X196047Y360235D01*
X196124Y360300D01*
X196204Y360361D01*
X196286Y360420D01*
X196370Y360475D01*
X196456Y360527D01*
X196544Y360576D01*
X196634Y360621D01*
X196726Y360663D01*
X196819Y360701D01*
X196914Y360735D01*
X197009Y360766D01*
X197106Y360793D01*
X197204Y360816D01*
X197303Y360836D01*
X197403Y360851D01*
X197503Y360863D01*
X197603Y360871D01*
X197704Y360875D01*
X197804Y360875D01*
X197905Y360871D01*
X198005Y360863D01*
X198105Y360851D01*
X198205Y360836D01*
X198304Y360816D01*
X198402Y360793D01*
X198499Y360766D01*
X198594Y360735D01*
X198689Y360701D01*
X198782Y360663D01*
X198874Y360621D01*
X198964Y360576D01*
X199052Y360527D01*
X199138Y360475D01*
X199222Y360420D01*
X199304Y360361D01*
X199384Y360300D01*
X199461Y360235D01*
X199535Y360167D01*
X199607Y360097D01*
X199676Y360024D01*
X199743Y359948D01*
X199806Y359869D01*
X199866Y359789D01*
X199923Y359706D01*
X199977Y359620D01*
X200027Y359533D01*
X200074Y359444D01*
X200117Y359353D01*
X200157Y359261D01*
X200193Y359167D01*
X200226Y359072D01*
X200255Y358975D01*
X200280Y358878D01*
X200301Y358779D01*
X200319Y358680D01*
X200332Y358580D01*
X200342Y358480D01*
X200348Y358380D01*
X200350Y358279D01*
X200351Y358279D02*
X200351Y355683D01*
X264929Y458697D02*
X267588Y460559D01*
X267588Y460558D02*
X267679Y460625D01*
X267769Y460694D01*
X267856Y460767D01*
X267940Y460843D01*
X268021Y460922D01*
X268100Y461003D01*
X268176Y461087D01*
X268249Y461174D01*
X268318Y461264D01*
X268385Y461355D01*
X268448Y461449D01*
X268508Y461545D01*
X268565Y461643D01*
X268618Y461743D01*
X268668Y461845D01*
X268714Y461949D01*
X268756Y462054D01*
X268795Y462160D01*
X268830Y462268D01*
X268861Y462377D01*
X268889Y462487D01*
X268912Y462598D01*
X268932Y462709D01*
X268948Y462821D01*
X268960Y462934D01*
X268968Y463047D01*
X268972Y463160D01*
X268972Y463274D01*
X268968Y463387D01*
X268960Y463500D01*
X268948Y463613D01*
X268932Y463725D01*
X268912Y463836D01*
X268889Y463947D01*
X268861Y464057D01*
X268830Y464166D01*
X268795Y464274D01*
X268756Y464380D01*
X268714Y464485D01*
X268668Y464589D01*
X268618Y464691D01*
X268565Y464791D01*
X268508Y464889D01*
X268448Y464985D01*
X268385Y465079D01*
X268318Y465170D01*
X268249Y465260D01*
X268176Y465347D01*
X268100Y465431D01*
X268021Y465512D01*
X267940Y465591D01*
X267856Y465667D01*
X267769Y465740D01*
X267680Y465809D01*
X267588Y465876D01*
X267494Y465939D01*
X267398Y465999D01*
X267300Y466056D01*
X267200Y466109D01*
X267098Y466159D01*
X266994Y466205D01*
X266889Y466247D01*
X266783Y466286D01*
X266675Y466321D01*
X266566Y466352D01*
X266456Y466380D01*
X266345Y466403D01*
X266234Y466423D01*
X266122Y466439D01*
X266009Y466451D01*
X265896Y466459D01*
X265783Y466463D01*
X265669Y466463D01*
X265556Y466459D01*
X265443Y466451D01*
X265330Y466439D01*
X265218Y466423D01*
X265107Y466403D01*
X264996Y466380D01*
X264886Y466352D01*
X264777Y466321D01*
X264669Y466286D01*
X264563Y466247D01*
X264458Y466205D01*
X264354Y466159D01*
X264252Y466109D01*
X264152Y466056D01*
X264054Y465999D01*
X263958Y465939D01*
X263864Y465876D01*
X261418Y470502D02*
X258228Y468268D01*
X261418Y470502D02*
X261502Y470558D01*
X261587Y470611D01*
X261675Y470660D01*
X261764Y470706D01*
X261856Y470749D01*
X261949Y470788D01*
X262043Y470823D01*
X262138Y470855D01*
X262235Y470883D01*
X262333Y470907D01*
X262431Y470927D01*
X262531Y470944D01*
X262631Y470956D01*
X262731Y470965D01*
X262832Y470970D01*
X262932Y470971D01*
X263033Y470968D01*
X263133Y470961D01*
X263233Y470950D01*
X263333Y470936D01*
X263432Y470917D01*
X263530Y470895D01*
X263627Y470869D01*
X263724Y470839D01*
X263819Y470806D01*
X263912Y470769D01*
X264004Y470728D01*
X264095Y470683D01*
X264183Y470636D01*
X264270Y470584D01*
X264354Y470530D01*
X264437Y470472D01*
X264517Y470411D01*
X264595Y470347D01*
X264670Y470280D01*
X264743Y470211D01*
X264812Y470138D01*
X264879Y470063D01*
X264943Y469985D01*
X265004Y469905D01*
X265062Y469822D01*
X265116Y469738D01*
X265168Y469651D01*
X265215Y469563D01*
X265260Y469472D01*
X265301Y469380D01*
X265338Y469286D01*
X265371Y469192D01*
X265401Y469095D01*
X265427Y468998D01*
X265449Y468900D01*
X265468Y468801D01*
X265482Y468701D01*
X265493Y468601D01*
X265500Y468501D01*
X265503Y468400D01*
X265502Y468300D01*
X265497Y468199D01*
X265488Y468099D01*
X265476Y467999D01*
X265459Y467899D01*
X265439Y467801D01*
X265415Y467703D01*
X265387Y467606D01*
X265355Y467511D01*
X265320Y467417D01*
X265281Y467324D01*
X265238Y467232D01*
X265192Y467143D01*
X265143Y467055D01*
X265090Y466970D01*
X265034Y466886D01*
X264974Y466805D01*
X264912Y466726D01*
X264846Y466649D01*
X264778Y466575D01*
X264707Y466504D01*
X264633Y466436D01*
X264556Y466370D01*
X264477Y466308D01*
X264396Y466248D01*
X262270Y464759D01*
X267059Y474452D02*
X276951Y467114D01*
X273439Y478919D01*
X283655Y471809D02*
X286314Y473670D01*
X286405Y473737D01*
X286495Y473806D01*
X286582Y473879D01*
X286666Y473955D01*
X286747Y474034D01*
X286826Y474115D01*
X286902Y474199D01*
X286975Y474286D01*
X287044Y474376D01*
X287111Y474467D01*
X287174Y474561D01*
X287234Y474657D01*
X287291Y474755D01*
X287344Y474855D01*
X287394Y474957D01*
X287440Y475061D01*
X287482Y475166D01*
X287521Y475272D01*
X287556Y475380D01*
X287587Y475489D01*
X287615Y475599D01*
X287638Y475710D01*
X287658Y475821D01*
X287674Y475933D01*
X287686Y476046D01*
X287694Y476159D01*
X287698Y476272D01*
X287698Y476386D01*
X287694Y476499D01*
X287686Y476612D01*
X287674Y476725D01*
X287658Y476837D01*
X287638Y476948D01*
X287615Y477059D01*
X287587Y477169D01*
X287556Y477278D01*
X287521Y477386D01*
X287482Y477492D01*
X287440Y477597D01*
X287394Y477701D01*
X287344Y477803D01*
X287291Y477903D01*
X287234Y478001D01*
X287174Y478097D01*
X287111Y478191D01*
X287044Y478282D01*
X286975Y478372D01*
X286902Y478459D01*
X286826Y478543D01*
X286747Y478624D01*
X286666Y478703D01*
X286582Y478779D01*
X286495Y478852D01*
X286406Y478921D01*
X286314Y478988D01*
X286220Y479051D01*
X286124Y479111D01*
X286026Y479168D01*
X285926Y479221D01*
X285824Y479271D01*
X285720Y479317D01*
X285615Y479359D01*
X285509Y479398D01*
X285401Y479433D01*
X285292Y479464D01*
X285182Y479492D01*
X285071Y479515D01*
X284960Y479535D01*
X284848Y479551D01*
X284735Y479563D01*
X284622Y479571D01*
X284509Y479575D01*
X284395Y479575D01*
X284282Y479571D01*
X284169Y479563D01*
X284056Y479551D01*
X283944Y479535D01*
X283833Y479515D01*
X283722Y479492D01*
X283612Y479464D01*
X283503Y479433D01*
X283395Y479398D01*
X283289Y479359D01*
X283184Y479317D01*
X283080Y479271D01*
X282978Y479221D01*
X282878Y479168D01*
X282780Y479111D01*
X282684Y479051D01*
X282590Y478988D01*
X280144Y483614D02*
X276953Y481380D01*
X280144Y483614D02*
X280228Y483670D01*
X280313Y483723D01*
X280401Y483772D01*
X280490Y483818D01*
X280582Y483861D01*
X280675Y483900D01*
X280769Y483935D01*
X280864Y483967D01*
X280961Y483995D01*
X281059Y484019D01*
X281157Y484039D01*
X281257Y484056D01*
X281357Y484068D01*
X281457Y484077D01*
X281558Y484082D01*
X281658Y484083D01*
X281759Y484080D01*
X281859Y484073D01*
X281959Y484062D01*
X282059Y484048D01*
X282158Y484029D01*
X282256Y484007D01*
X282353Y483981D01*
X282450Y483951D01*
X282545Y483918D01*
X282638Y483881D01*
X282730Y483840D01*
X282821Y483795D01*
X282909Y483748D01*
X282996Y483696D01*
X283080Y483642D01*
X283163Y483584D01*
X283243Y483523D01*
X283321Y483459D01*
X283396Y483392D01*
X283469Y483323D01*
X283538Y483250D01*
X283605Y483175D01*
X283669Y483097D01*
X283730Y483017D01*
X283788Y482934D01*
X283842Y482850D01*
X283894Y482763D01*
X283941Y482675D01*
X283986Y482584D01*
X284027Y482492D01*
X284064Y482398D01*
X284097Y482304D01*
X284127Y482207D01*
X284153Y482110D01*
X284175Y482012D01*
X284194Y481913D01*
X284208Y481813D01*
X284219Y481713D01*
X284226Y481613D01*
X284229Y481512D01*
X284228Y481412D01*
X284223Y481311D01*
X284214Y481211D01*
X284202Y481111D01*
X284185Y481011D01*
X284165Y480913D01*
X284141Y480815D01*
X284113Y480718D01*
X284081Y480623D01*
X284046Y480529D01*
X284007Y480436D01*
X283964Y480344D01*
X283918Y480255D01*
X283869Y480167D01*
X283816Y480082D01*
X283760Y479998D01*
X283700Y479917D01*
X283638Y479838D01*
X283572Y479761D01*
X283504Y479687D01*
X283433Y479616D01*
X283359Y479548D01*
X283282Y479482D01*
X283203Y479420D01*
X283122Y479360D01*
X280995Y477871D01*
D11*
X427854Y419510D02*
X427854Y401730D01*
X427854Y419510D02*
X432793Y419510D01*
X432933Y419508D01*
X433072Y419502D01*
X433212Y419492D01*
X433351Y419478D01*
X433490Y419461D01*
X433628Y419439D01*
X433765Y419413D01*
X433902Y419384D01*
X434038Y419351D01*
X434172Y419314D01*
X434306Y419273D01*
X434438Y419228D01*
X434570Y419179D01*
X434699Y419127D01*
X434827Y419072D01*
X434954Y419012D01*
X435079Y418949D01*
X435202Y418883D01*
X435323Y418813D01*
X435442Y418740D01*
X435559Y418663D01*
X435673Y418583D01*
X435786Y418500D01*
X435896Y418414D01*
X436003Y418324D01*
X436108Y418232D01*
X436210Y418137D01*
X436310Y418039D01*
X436407Y417938D01*
X436501Y417834D01*
X436591Y417728D01*
X436679Y417619D01*
X436764Y417508D01*
X436845Y417394D01*
X436924Y417279D01*
X436999Y417161D01*
X437070Y417041D01*
X437138Y416918D01*
X437203Y416795D01*
X437264Y416669D01*
X437322Y416541D01*
X437376Y416413D01*
X437426Y416282D01*
X437473Y416150D01*
X437516Y416017D01*
X437555Y415883D01*
X437590Y415748D01*
X437621Y415612D01*
X437649Y415474D01*
X437672Y415337D01*
X437692Y415198D01*
X437708Y415059D01*
X437720Y414920D01*
X437728Y414781D01*
X437732Y414641D01*
X437732Y414501D01*
X437728Y414361D01*
X437720Y414222D01*
X437708Y414083D01*
X437692Y413944D01*
X437672Y413805D01*
X437649Y413668D01*
X437621Y413530D01*
X437590Y413394D01*
X437555Y413259D01*
X437516Y413125D01*
X437473Y412992D01*
X437426Y412860D01*
X437376Y412729D01*
X437322Y412601D01*
X437264Y412473D01*
X437203Y412347D01*
X437138Y412224D01*
X437070Y412102D01*
X436999Y411981D01*
X436924Y411863D01*
X436845Y411748D01*
X436764Y411634D01*
X436679Y411523D01*
X436591Y411414D01*
X436501Y411308D01*
X436407Y411204D01*
X436310Y411103D01*
X436210Y411005D01*
X436108Y410910D01*
X436003Y410818D01*
X435896Y410728D01*
X435786Y410642D01*
X435673Y410559D01*
X435559Y410479D01*
X435442Y410402D01*
X435323Y410329D01*
X435202Y410259D01*
X435079Y410193D01*
X434954Y410130D01*
X434827Y410070D01*
X434699Y410015D01*
X434570Y409963D01*
X434438Y409914D01*
X434306Y409869D01*
X434172Y409828D01*
X434038Y409791D01*
X433902Y409758D01*
X433765Y409729D01*
X433628Y409703D01*
X433490Y409681D01*
X433351Y409664D01*
X433212Y409650D01*
X433072Y409640D01*
X432933Y409634D01*
X432793Y409632D01*
X427854Y409632D01*
X443849Y415559D02*
X448788Y419510D01*
X448788Y401730D01*
X453726Y401730D02*
X443849Y401730D01*
X425314Y276700D02*
X425314Y258920D01*
X425314Y276700D02*
X430253Y276700D01*
X430393Y276698D01*
X430532Y276692D01*
X430672Y276682D01*
X430811Y276668D01*
X430950Y276651D01*
X431088Y276629D01*
X431225Y276603D01*
X431362Y276574D01*
X431498Y276541D01*
X431632Y276504D01*
X431766Y276463D01*
X431898Y276418D01*
X432030Y276369D01*
X432159Y276317D01*
X432287Y276262D01*
X432414Y276202D01*
X432539Y276139D01*
X432662Y276073D01*
X432783Y276003D01*
X432902Y275930D01*
X433019Y275853D01*
X433133Y275773D01*
X433246Y275690D01*
X433356Y275604D01*
X433463Y275514D01*
X433568Y275422D01*
X433670Y275327D01*
X433770Y275229D01*
X433867Y275128D01*
X433961Y275024D01*
X434051Y274918D01*
X434139Y274809D01*
X434224Y274698D01*
X434305Y274584D01*
X434384Y274469D01*
X434459Y274351D01*
X434530Y274231D01*
X434598Y274108D01*
X434663Y273985D01*
X434724Y273859D01*
X434782Y273731D01*
X434836Y273603D01*
X434886Y273472D01*
X434933Y273340D01*
X434976Y273207D01*
X435015Y273073D01*
X435050Y272938D01*
X435081Y272802D01*
X435109Y272664D01*
X435132Y272527D01*
X435152Y272388D01*
X435168Y272249D01*
X435180Y272110D01*
X435188Y271971D01*
X435192Y271831D01*
X435192Y271691D01*
X435188Y271551D01*
X435180Y271412D01*
X435168Y271273D01*
X435152Y271134D01*
X435132Y270995D01*
X435109Y270858D01*
X435081Y270720D01*
X435050Y270584D01*
X435015Y270449D01*
X434976Y270315D01*
X434933Y270182D01*
X434886Y270050D01*
X434836Y269919D01*
X434782Y269791D01*
X434724Y269663D01*
X434663Y269537D01*
X434598Y269414D01*
X434530Y269292D01*
X434459Y269171D01*
X434384Y269053D01*
X434305Y268938D01*
X434224Y268824D01*
X434139Y268713D01*
X434051Y268604D01*
X433961Y268498D01*
X433867Y268394D01*
X433770Y268293D01*
X433670Y268195D01*
X433568Y268100D01*
X433463Y268008D01*
X433356Y267918D01*
X433246Y267832D01*
X433133Y267749D01*
X433019Y267669D01*
X432902Y267592D01*
X432783Y267519D01*
X432662Y267449D01*
X432539Y267383D01*
X432414Y267320D01*
X432287Y267260D01*
X432159Y267205D01*
X432030Y267153D01*
X431898Y267104D01*
X431766Y267059D01*
X431632Y267018D01*
X431498Y266981D01*
X431362Y266948D01*
X431225Y266919D01*
X431088Y266893D01*
X430950Y266871D01*
X430811Y266854D01*
X430672Y266840D01*
X430532Y266830D01*
X430393Y266824D01*
X430253Y266822D01*
X425314Y266822D01*
X446741Y276700D02*
X446873Y276698D01*
X447004Y276692D01*
X447136Y276682D01*
X447267Y276669D01*
X447397Y276651D01*
X447527Y276630D01*
X447657Y276605D01*
X447785Y276576D01*
X447913Y276543D01*
X448039Y276506D01*
X448165Y276466D01*
X448289Y276422D01*
X448412Y276374D01*
X448533Y276323D01*
X448653Y276268D01*
X448771Y276210D01*
X448887Y276148D01*
X449001Y276082D01*
X449114Y276014D01*
X449224Y275942D01*
X449332Y275867D01*
X449438Y275788D01*
X449542Y275707D01*
X449643Y275622D01*
X449741Y275535D01*
X449837Y275444D01*
X449930Y275351D01*
X450021Y275255D01*
X450108Y275157D01*
X450193Y275056D01*
X450274Y274952D01*
X450353Y274846D01*
X450428Y274738D01*
X450500Y274628D01*
X450568Y274515D01*
X450634Y274401D01*
X450696Y274285D01*
X450754Y274167D01*
X450809Y274047D01*
X450860Y273926D01*
X450908Y273803D01*
X450952Y273679D01*
X450992Y273553D01*
X451029Y273427D01*
X451062Y273299D01*
X451091Y273171D01*
X451116Y273041D01*
X451137Y272911D01*
X451155Y272781D01*
X451168Y272650D01*
X451178Y272518D01*
X451184Y272387D01*
X451186Y272255D01*
X446741Y276700D02*
X446591Y276698D01*
X446442Y276692D01*
X446293Y276682D01*
X446144Y276669D01*
X445995Y276651D01*
X445847Y276630D01*
X445699Y276604D01*
X445553Y276575D01*
X445407Y276542D01*
X445262Y276505D01*
X445118Y276464D01*
X444975Y276420D01*
X444833Y276372D01*
X444693Y276320D01*
X444554Y276265D01*
X444416Y276206D01*
X444281Y276143D01*
X444146Y276077D01*
X444014Y276007D01*
X443884Y275934D01*
X443755Y275857D01*
X443628Y275777D01*
X443504Y275694D01*
X443382Y275608D01*
X443262Y275518D01*
X443145Y275425D01*
X443030Y275330D01*
X442917Y275231D01*
X442807Y275129D01*
X442700Y275025D01*
X442596Y274918D01*
X442494Y274808D01*
X442396Y274695D01*
X442300Y274580D01*
X442208Y274462D01*
X442118Y274342D01*
X442032Y274220D01*
X441949Y274096D01*
X441869Y273969D01*
X441793Y273841D01*
X441720Y273710D01*
X441650Y273577D01*
X441584Y273443D01*
X441522Y273307D01*
X441463Y273170D01*
X441407Y273031D01*
X441356Y272890D01*
X441308Y272749D01*
X449704Y268798D02*
X449800Y268891D01*
X449892Y268987D01*
X449982Y269086D01*
X450069Y269187D01*
X450154Y269290D01*
X450235Y269395D01*
X450313Y269503D01*
X450388Y269613D01*
X450461Y269725D01*
X450530Y269839D01*
X450596Y269955D01*
X450658Y270073D01*
X450717Y270192D01*
X450773Y270313D01*
X450826Y270436D01*
X450875Y270560D01*
X450920Y270685D01*
X450963Y270812D01*
X451001Y270939D01*
X451036Y271068D01*
X451067Y271197D01*
X451095Y271328D01*
X451119Y271459D01*
X451140Y271591D01*
X451156Y271723D01*
X451169Y271856D01*
X451179Y271989D01*
X451184Y272122D01*
X451186Y272255D01*
X449705Y268798D02*
X441309Y258920D01*
X451186Y258920D01*
X333264Y234760D02*
X333264Y216980D01*
X333264Y234760D02*
X338203Y234760D01*
X338343Y234758D01*
X338482Y234752D01*
X338622Y234742D01*
X338761Y234728D01*
X338900Y234711D01*
X339038Y234689D01*
X339175Y234663D01*
X339312Y234634D01*
X339448Y234601D01*
X339582Y234564D01*
X339716Y234523D01*
X339848Y234478D01*
X339980Y234429D01*
X340109Y234377D01*
X340237Y234322D01*
X340364Y234262D01*
X340489Y234199D01*
X340612Y234133D01*
X340733Y234063D01*
X340852Y233990D01*
X340969Y233913D01*
X341083Y233833D01*
X341196Y233750D01*
X341306Y233664D01*
X341413Y233574D01*
X341518Y233482D01*
X341620Y233387D01*
X341720Y233289D01*
X341817Y233188D01*
X341911Y233084D01*
X342001Y232978D01*
X342089Y232869D01*
X342174Y232758D01*
X342255Y232644D01*
X342334Y232529D01*
X342409Y232411D01*
X342480Y232291D01*
X342548Y232168D01*
X342613Y232045D01*
X342674Y231919D01*
X342732Y231791D01*
X342786Y231663D01*
X342836Y231532D01*
X342883Y231400D01*
X342926Y231267D01*
X342965Y231133D01*
X343000Y230998D01*
X343031Y230862D01*
X343059Y230724D01*
X343082Y230587D01*
X343102Y230448D01*
X343118Y230309D01*
X343130Y230170D01*
X343138Y230031D01*
X343142Y229891D01*
X343142Y229751D01*
X343138Y229611D01*
X343130Y229472D01*
X343118Y229333D01*
X343102Y229194D01*
X343082Y229055D01*
X343059Y228918D01*
X343031Y228780D01*
X343000Y228644D01*
X342965Y228509D01*
X342926Y228375D01*
X342883Y228242D01*
X342836Y228110D01*
X342786Y227979D01*
X342732Y227851D01*
X342674Y227723D01*
X342613Y227597D01*
X342548Y227474D01*
X342480Y227352D01*
X342409Y227231D01*
X342334Y227113D01*
X342255Y226998D01*
X342174Y226884D01*
X342089Y226773D01*
X342001Y226664D01*
X341911Y226558D01*
X341817Y226454D01*
X341720Y226353D01*
X341620Y226255D01*
X341518Y226160D01*
X341413Y226068D01*
X341306Y225978D01*
X341196Y225892D01*
X341083Y225809D01*
X340969Y225729D01*
X340852Y225652D01*
X340733Y225579D01*
X340612Y225509D01*
X340489Y225443D01*
X340364Y225380D01*
X340237Y225320D01*
X340109Y225265D01*
X339980Y225213D01*
X339848Y225164D01*
X339716Y225119D01*
X339582Y225078D01*
X339448Y225041D01*
X339312Y225008D01*
X339175Y224979D01*
X339038Y224953D01*
X338900Y224931D01*
X338761Y224914D01*
X338622Y224900D01*
X338482Y224890D01*
X338343Y224884D01*
X338203Y224882D01*
X333264Y224882D01*
X349259Y216980D02*
X354198Y216980D01*
X354338Y216982D01*
X354477Y216988D01*
X354617Y216998D01*
X354756Y217012D01*
X354895Y217029D01*
X355033Y217051D01*
X355170Y217077D01*
X355307Y217106D01*
X355443Y217139D01*
X355577Y217176D01*
X355711Y217217D01*
X355843Y217262D01*
X355975Y217311D01*
X356104Y217363D01*
X356232Y217418D01*
X356359Y217478D01*
X356484Y217541D01*
X356607Y217607D01*
X356728Y217677D01*
X356847Y217750D01*
X356964Y217827D01*
X357078Y217907D01*
X357191Y217990D01*
X357301Y218076D01*
X357408Y218166D01*
X357513Y218258D01*
X357615Y218353D01*
X357715Y218451D01*
X357812Y218552D01*
X357906Y218656D01*
X357996Y218762D01*
X358084Y218871D01*
X358169Y218982D01*
X358250Y219096D01*
X358329Y219211D01*
X358404Y219329D01*
X358475Y219450D01*
X358543Y219572D01*
X358608Y219695D01*
X358669Y219821D01*
X358727Y219949D01*
X358781Y220077D01*
X358831Y220208D01*
X358878Y220340D01*
X358921Y220473D01*
X358960Y220607D01*
X358995Y220742D01*
X359026Y220878D01*
X359054Y221016D01*
X359077Y221153D01*
X359097Y221292D01*
X359113Y221431D01*
X359125Y221570D01*
X359133Y221709D01*
X359137Y221849D01*
X359137Y221989D01*
X359133Y222129D01*
X359125Y222268D01*
X359113Y222407D01*
X359097Y222546D01*
X359077Y222685D01*
X359054Y222822D01*
X359026Y222960D01*
X358995Y223096D01*
X358960Y223231D01*
X358921Y223365D01*
X358878Y223498D01*
X358831Y223630D01*
X358781Y223761D01*
X358727Y223889D01*
X358669Y224017D01*
X358608Y224143D01*
X358543Y224266D01*
X358475Y224389D01*
X358404Y224509D01*
X358329Y224627D01*
X358250Y224742D01*
X358169Y224856D01*
X358084Y224967D01*
X357996Y225076D01*
X357906Y225182D01*
X357812Y225286D01*
X357715Y225387D01*
X357615Y225485D01*
X357513Y225580D01*
X357408Y225672D01*
X357301Y225762D01*
X357191Y225848D01*
X357078Y225931D01*
X356964Y226011D01*
X356847Y226088D01*
X356728Y226161D01*
X356607Y226231D01*
X356484Y226297D01*
X356359Y226360D01*
X356232Y226420D01*
X356104Y226475D01*
X355975Y226527D01*
X355843Y226576D01*
X355711Y226621D01*
X355577Y226662D01*
X355443Y226699D01*
X355307Y226732D01*
X355170Y226761D01*
X355033Y226787D01*
X354895Y226809D01*
X354756Y226826D01*
X354617Y226840D01*
X354477Y226850D01*
X354338Y226856D01*
X354198Y226858D01*
X355185Y234760D02*
X349259Y234760D01*
X355185Y234760D02*
X355309Y234758D01*
X355433Y234752D01*
X355557Y234742D01*
X355680Y234729D01*
X355803Y234711D01*
X355925Y234690D01*
X356047Y234665D01*
X356168Y234636D01*
X356287Y234603D01*
X356406Y234567D01*
X356523Y234526D01*
X356639Y234483D01*
X356754Y234435D01*
X356867Y234384D01*
X356979Y234329D01*
X357088Y234271D01*
X357196Y234210D01*
X357302Y234145D01*
X357406Y234077D01*
X357507Y234005D01*
X357607Y233931D01*
X357703Y233853D01*
X357798Y233773D01*
X357890Y233689D01*
X357979Y233603D01*
X358065Y233514D01*
X358149Y233422D01*
X358229Y233327D01*
X358307Y233231D01*
X358381Y233131D01*
X358453Y233030D01*
X358521Y232926D01*
X358586Y232820D01*
X358647Y232712D01*
X358705Y232603D01*
X358760Y232491D01*
X358811Y232378D01*
X358859Y232263D01*
X358902Y232147D01*
X358943Y232030D01*
X358979Y231911D01*
X359012Y231792D01*
X359041Y231671D01*
X359066Y231549D01*
X359087Y231427D01*
X359105Y231304D01*
X359118Y231181D01*
X359128Y231057D01*
X359134Y230933D01*
X359136Y230809D01*
X359134Y230685D01*
X359128Y230561D01*
X359118Y230437D01*
X359105Y230314D01*
X359087Y230191D01*
X359066Y230069D01*
X359041Y229947D01*
X359012Y229826D01*
X358979Y229707D01*
X358943Y229588D01*
X358902Y229471D01*
X358859Y229355D01*
X358811Y229240D01*
X358760Y229127D01*
X358705Y229015D01*
X358647Y228906D01*
X358586Y228798D01*
X358521Y228692D01*
X358453Y228588D01*
X358381Y228487D01*
X358307Y228387D01*
X358229Y228291D01*
X358149Y228196D01*
X358065Y228104D01*
X357979Y228015D01*
X357890Y227929D01*
X357798Y227845D01*
X357703Y227765D01*
X357607Y227687D01*
X357507Y227613D01*
X357406Y227541D01*
X357302Y227473D01*
X357196Y227408D01*
X357088Y227347D01*
X356979Y227289D01*
X356867Y227234D01*
X356754Y227183D01*
X356639Y227135D01*
X356523Y227092D01*
X356406Y227051D01*
X356287Y227015D01*
X356168Y226982D01*
X356047Y226953D01*
X355925Y226928D01*
X355803Y226907D01*
X355680Y226889D01*
X355557Y226876D01*
X355433Y226866D01*
X355309Y226860D01*
X355185Y226858D01*
X351234Y226858D01*
X242484Y260190D02*
X242484Y277970D01*
X247423Y277970D01*
X247563Y277968D01*
X247702Y277962D01*
X247842Y277952D01*
X247981Y277938D01*
X248120Y277921D01*
X248258Y277899D01*
X248395Y277873D01*
X248532Y277844D01*
X248668Y277811D01*
X248802Y277774D01*
X248936Y277733D01*
X249068Y277688D01*
X249200Y277639D01*
X249329Y277587D01*
X249457Y277532D01*
X249584Y277472D01*
X249709Y277409D01*
X249832Y277343D01*
X249953Y277273D01*
X250072Y277200D01*
X250189Y277123D01*
X250303Y277043D01*
X250416Y276960D01*
X250526Y276874D01*
X250633Y276784D01*
X250738Y276692D01*
X250840Y276597D01*
X250940Y276499D01*
X251037Y276398D01*
X251131Y276294D01*
X251221Y276188D01*
X251309Y276079D01*
X251394Y275968D01*
X251475Y275854D01*
X251554Y275739D01*
X251629Y275621D01*
X251700Y275501D01*
X251768Y275378D01*
X251833Y275255D01*
X251894Y275129D01*
X251952Y275001D01*
X252006Y274873D01*
X252056Y274742D01*
X252103Y274610D01*
X252146Y274477D01*
X252185Y274343D01*
X252220Y274208D01*
X252251Y274072D01*
X252279Y273934D01*
X252302Y273797D01*
X252322Y273658D01*
X252338Y273519D01*
X252350Y273380D01*
X252358Y273241D01*
X252362Y273101D01*
X252362Y272961D01*
X252358Y272821D01*
X252350Y272682D01*
X252338Y272543D01*
X252322Y272404D01*
X252302Y272265D01*
X252279Y272128D01*
X252251Y271990D01*
X252220Y271854D01*
X252185Y271719D01*
X252146Y271585D01*
X252103Y271452D01*
X252056Y271320D01*
X252006Y271189D01*
X251952Y271061D01*
X251894Y270933D01*
X251833Y270807D01*
X251768Y270684D01*
X251700Y270562D01*
X251629Y270441D01*
X251554Y270323D01*
X251475Y270208D01*
X251394Y270094D01*
X251309Y269983D01*
X251221Y269874D01*
X251131Y269768D01*
X251037Y269664D01*
X250940Y269563D01*
X250840Y269465D01*
X250738Y269370D01*
X250633Y269278D01*
X250526Y269188D01*
X250416Y269102D01*
X250303Y269019D01*
X250189Y268939D01*
X250072Y268862D01*
X249953Y268789D01*
X249832Y268719D01*
X249709Y268653D01*
X249584Y268590D01*
X249457Y268530D01*
X249329Y268475D01*
X249200Y268423D01*
X249068Y268374D01*
X248936Y268329D01*
X248802Y268288D01*
X248668Y268251D01*
X248532Y268218D01*
X248395Y268189D01*
X248258Y268163D01*
X248120Y268141D01*
X247981Y268124D01*
X247842Y268110D01*
X247702Y268100D01*
X247563Y268094D01*
X247423Y268092D01*
X242484Y268092D01*
X258479Y264141D02*
X262430Y277970D01*
X258479Y264141D02*
X268356Y264141D01*
X265393Y268092D02*
X265393Y260190D01*
X243742Y401730D02*
X243742Y419510D01*
X248681Y419510D01*
X248821Y419508D01*
X248960Y419502D01*
X249100Y419492D01*
X249239Y419478D01*
X249378Y419461D01*
X249516Y419439D01*
X249653Y419413D01*
X249790Y419384D01*
X249926Y419351D01*
X250060Y419314D01*
X250194Y419273D01*
X250326Y419228D01*
X250458Y419179D01*
X250587Y419127D01*
X250715Y419072D01*
X250842Y419012D01*
X250967Y418949D01*
X251090Y418883D01*
X251211Y418813D01*
X251330Y418740D01*
X251447Y418663D01*
X251561Y418583D01*
X251674Y418500D01*
X251784Y418414D01*
X251891Y418324D01*
X251996Y418232D01*
X252098Y418137D01*
X252198Y418039D01*
X252295Y417938D01*
X252389Y417834D01*
X252479Y417728D01*
X252567Y417619D01*
X252652Y417508D01*
X252733Y417394D01*
X252812Y417279D01*
X252887Y417161D01*
X252958Y417041D01*
X253026Y416918D01*
X253091Y416795D01*
X253152Y416669D01*
X253210Y416541D01*
X253264Y416413D01*
X253314Y416282D01*
X253361Y416150D01*
X253404Y416017D01*
X253443Y415883D01*
X253478Y415748D01*
X253509Y415612D01*
X253537Y415474D01*
X253560Y415337D01*
X253580Y415198D01*
X253596Y415059D01*
X253608Y414920D01*
X253616Y414781D01*
X253620Y414641D01*
X253620Y414501D01*
X253616Y414361D01*
X253608Y414222D01*
X253596Y414083D01*
X253580Y413944D01*
X253560Y413805D01*
X253537Y413668D01*
X253509Y413530D01*
X253478Y413394D01*
X253443Y413259D01*
X253404Y413125D01*
X253361Y412992D01*
X253314Y412860D01*
X253264Y412729D01*
X253210Y412601D01*
X253152Y412473D01*
X253091Y412347D01*
X253026Y412224D01*
X252958Y412102D01*
X252887Y411981D01*
X252812Y411863D01*
X252733Y411748D01*
X252652Y411634D01*
X252567Y411523D01*
X252479Y411414D01*
X252389Y411308D01*
X252295Y411204D01*
X252198Y411103D01*
X252098Y411005D01*
X251996Y410910D01*
X251891Y410818D01*
X251784Y410728D01*
X251674Y410642D01*
X251561Y410559D01*
X251447Y410479D01*
X251330Y410402D01*
X251211Y410329D01*
X251090Y410259D01*
X250967Y410193D01*
X250842Y410130D01*
X250715Y410070D01*
X250587Y410015D01*
X250458Y409963D01*
X250326Y409914D01*
X250194Y409869D01*
X250060Y409828D01*
X249926Y409791D01*
X249790Y409758D01*
X249653Y409729D01*
X249516Y409703D01*
X249378Y409681D01*
X249239Y409664D01*
X249100Y409650D01*
X248960Y409640D01*
X248821Y409634D01*
X248681Y409632D01*
X243742Y409632D01*
X259737Y401730D02*
X265664Y401730D01*
X265788Y401732D01*
X265912Y401738D01*
X266036Y401748D01*
X266159Y401761D01*
X266282Y401779D01*
X266404Y401800D01*
X266526Y401825D01*
X266647Y401854D01*
X266766Y401887D01*
X266885Y401923D01*
X267002Y401964D01*
X267118Y402007D01*
X267233Y402055D01*
X267346Y402106D01*
X267458Y402161D01*
X267567Y402219D01*
X267675Y402280D01*
X267781Y402345D01*
X267885Y402413D01*
X267986Y402485D01*
X268086Y402559D01*
X268182Y402637D01*
X268277Y402717D01*
X268369Y402801D01*
X268458Y402887D01*
X268544Y402976D01*
X268628Y403068D01*
X268708Y403163D01*
X268786Y403259D01*
X268860Y403359D01*
X268932Y403460D01*
X269000Y403564D01*
X269065Y403670D01*
X269126Y403778D01*
X269184Y403887D01*
X269239Y403999D01*
X269290Y404112D01*
X269338Y404227D01*
X269381Y404343D01*
X269422Y404460D01*
X269458Y404579D01*
X269491Y404698D01*
X269520Y404819D01*
X269545Y404941D01*
X269566Y405063D01*
X269584Y405186D01*
X269597Y405309D01*
X269607Y405433D01*
X269613Y405557D01*
X269615Y405681D01*
X269615Y407657D01*
X269613Y407781D01*
X269607Y407905D01*
X269597Y408029D01*
X269584Y408152D01*
X269566Y408275D01*
X269545Y408397D01*
X269520Y408519D01*
X269491Y408640D01*
X269458Y408759D01*
X269422Y408878D01*
X269381Y408995D01*
X269338Y409111D01*
X269290Y409226D01*
X269239Y409339D01*
X269184Y409451D01*
X269126Y409560D01*
X269065Y409668D01*
X269000Y409774D01*
X268932Y409878D01*
X268860Y409979D01*
X268786Y410079D01*
X268708Y410175D01*
X268628Y410270D01*
X268544Y410362D01*
X268458Y410451D01*
X268369Y410537D01*
X268277Y410621D01*
X268182Y410701D01*
X268086Y410779D01*
X267986Y410853D01*
X267885Y410925D01*
X267781Y410993D01*
X267675Y411058D01*
X267567Y411119D01*
X267458Y411177D01*
X267346Y411232D01*
X267233Y411283D01*
X267118Y411331D01*
X267002Y411374D01*
X266885Y411415D01*
X266766Y411451D01*
X266647Y411484D01*
X266526Y411513D01*
X266404Y411538D01*
X266282Y411559D01*
X266159Y411577D01*
X266036Y411590D01*
X265912Y411600D01*
X265788Y411606D01*
X265664Y411608D01*
X259737Y411608D01*
X259737Y419510D01*
X269615Y419510D01*
X281985Y414571D02*
X281985Y408644D01*
X285442Y404199D01*
X281985Y408644D02*
X278528Y404199D01*
X281985Y408644D02*
X287418Y410620D01*
X281985Y408644D02*
X276552Y410620D01*
X333264Y457640D02*
X333264Y475420D01*
X338203Y475420D01*
X338343Y475418D01*
X338482Y475412D01*
X338622Y475402D01*
X338761Y475388D01*
X338900Y475371D01*
X339038Y475349D01*
X339175Y475323D01*
X339312Y475294D01*
X339448Y475261D01*
X339582Y475224D01*
X339716Y475183D01*
X339848Y475138D01*
X339980Y475089D01*
X340109Y475037D01*
X340237Y474982D01*
X340364Y474922D01*
X340489Y474859D01*
X340612Y474793D01*
X340733Y474723D01*
X340852Y474650D01*
X340969Y474573D01*
X341083Y474493D01*
X341196Y474410D01*
X341306Y474324D01*
X341413Y474234D01*
X341518Y474142D01*
X341620Y474047D01*
X341720Y473949D01*
X341817Y473848D01*
X341911Y473744D01*
X342001Y473638D01*
X342089Y473529D01*
X342174Y473418D01*
X342255Y473304D01*
X342334Y473189D01*
X342409Y473071D01*
X342480Y472951D01*
X342548Y472828D01*
X342613Y472705D01*
X342674Y472579D01*
X342732Y472451D01*
X342786Y472323D01*
X342836Y472192D01*
X342883Y472060D01*
X342926Y471927D01*
X342965Y471793D01*
X343000Y471658D01*
X343031Y471522D01*
X343059Y471384D01*
X343082Y471247D01*
X343102Y471108D01*
X343118Y470969D01*
X343130Y470830D01*
X343138Y470691D01*
X343142Y470551D01*
X343142Y470411D01*
X343138Y470271D01*
X343130Y470132D01*
X343118Y469993D01*
X343102Y469854D01*
X343082Y469715D01*
X343059Y469578D01*
X343031Y469440D01*
X343000Y469304D01*
X342965Y469169D01*
X342926Y469035D01*
X342883Y468902D01*
X342836Y468770D01*
X342786Y468639D01*
X342732Y468511D01*
X342674Y468383D01*
X342613Y468257D01*
X342548Y468134D01*
X342480Y468012D01*
X342409Y467891D01*
X342334Y467773D01*
X342255Y467658D01*
X342174Y467544D01*
X342089Y467433D01*
X342001Y467324D01*
X341911Y467218D01*
X341817Y467114D01*
X341720Y467013D01*
X341620Y466915D01*
X341518Y466820D01*
X341413Y466728D01*
X341306Y466638D01*
X341196Y466552D01*
X341083Y466469D01*
X340969Y466389D01*
X340852Y466312D01*
X340733Y466239D01*
X340612Y466169D01*
X340489Y466103D01*
X340364Y466040D01*
X340237Y465980D01*
X340109Y465925D01*
X339980Y465873D01*
X339848Y465824D01*
X339716Y465779D01*
X339582Y465738D01*
X339448Y465701D01*
X339312Y465668D01*
X339175Y465639D01*
X339038Y465613D01*
X338900Y465591D01*
X338761Y465574D01*
X338622Y465560D01*
X338482Y465550D01*
X338343Y465544D01*
X338203Y465542D01*
X333264Y465542D01*
X349259Y467518D02*
X355185Y467518D01*
X355309Y467516D01*
X355433Y467510D01*
X355557Y467500D01*
X355680Y467487D01*
X355803Y467469D01*
X355925Y467448D01*
X356047Y467423D01*
X356168Y467394D01*
X356287Y467361D01*
X356406Y467325D01*
X356523Y467284D01*
X356639Y467241D01*
X356754Y467193D01*
X356867Y467142D01*
X356979Y467087D01*
X357088Y467029D01*
X357196Y466968D01*
X357302Y466903D01*
X357406Y466835D01*
X357507Y466763D01*
X357607Y466689D01*
X357703Y466611D01*
X357798Y466531D01*
X357890Y466447D01*
X357979Y466361D01*
X358065Y466272D01*
X358149Y466180D01*
X358229Y466085D01*
X358307Y465989D01*
X358381Y465889D01*
X358453Y465788D01*
X358521Y465684D01*
X358586Y465578D01*
X358647Y465470D01*
X358705Y465361D01*
X358760Y465249D01*
X358811Y465136D01*
X358859Y465021D01*
X358902Y464905D01*
X358943Y464788D01*
X358979Y464669D01*
X359012Y464550D01*
X359041Y464429D01*
X359066Y464307D01*
X359087Y464185D01*
X359105Y464062D01*
X359118Y463939D01*
X359128Y463815D01*
X359134Y463691D01*
X359136Y463567D01*
X359136Y462579D01*
X359137Y462579D02*
X359135Y462439D01*
X359129Y462300D01*
X359119Y462160D01*
X359105Y462021D01*
X359088Y461882D01*
X359066Y461744D01*
X359040Y461607D01*
X359011Y461470D01*
X358978Y461334D01*
X358941Y461200D01*
X358900Y461066D01*
X358855Y460934D01*
X358806Y460802D01*
X358754Y460673D01*
X358699Y460545D01*
X358639Y460418D01*
X358576Y460293D01*
X358510Y460170D01*
X358440Y460049D01*
X358367Y459930D01*
X358290Y459813D01*
X358210Y459699D01*
X358127Y459586D01*
X358041Y459476D01*
X357951Y459369D01*
X357859Y459264D01*
X357764Y459162D01*
X357666Y459062D01*
X357565Y458965D01*
X357461Y458871D01*
X357355Y458781D01*
X357246Y458693D01*
X357135Y458608D01*
X357021Y458527D01*
X356906Y458448D01*
X356788Y458373D01*
X356668Y458302D01*
X356545Y458234D01*
X356422Y458169D01*
X356296Y458108D01*
X356168Y458050D01*
X356040Y457996D01*
X355909Y457946D01*
X355777Y457899D01*
X355644Y457856D01*
X355510Y457817D01*
X355375Y457782D01*
X355239Y457751D01*
X355101Y457723D01*
X354964Y457700D01*
X354825Y457680D01*
X354686Y457664D01*
X354547Y457652D01*
X354408Y457644D01*
X354268Y457640D01*
X354128Y457640D01*
X353988Y457644D01*
X353849Y457652D01*
X353710Y457664D01*
X353571Y457680D01*
X353432Y457700D01*
X353295Y457723D01*
X353157Y457751D01*
X353021Y457782D01*
X352886Y457817D01*
X352752Y457856D01*
X352619Y457899D01*
X352487Y457946D01*
X352356Y457996D01*
X352228Y458050D01*
X352100Y458108D01*
X351974Y458169D01*
X351851Y458234D01*
X351729Y458302D01*
X351608Y458373D01*
X351490Y458448D01*
X351375Y458527D01*
X351261Y458608D01*
X351150Y458693D01*
X351041Y458781D01*
X350935Y458871D01*
X350831Y458965D01*
X350730Y459062D01*
X350632Y459162D01*
X350537Y459264D01*
X350445Y459369D01*
X350355Y459476D01*
X350269Y459586D01*
X350186Y459699D01*
X350106Y459813D01*
X350029Y459930D01*
X349956Y460049D01*
X349886Y460170D01*
X349820Y460293D01*
X349757Y460418D01*
X349697Y460545D01*
X349642Y460673D01*
X349590Y460802D01*
X349541Y460934D01*
X349496Y461066D01*
X349455Y461200D01*
X349418Y461334D01*
X349385Y461470D01*
X349356Y461607D01*
X349330Y461744D01*
X349308Y461882D01*
X349291Y462021D01*
X349277Y462160D01*
X349267Y462300D01*
X349261Y462439D01*
X349259Y462579D01*
X349259Y467518D01*
X349261Y467712D01*
X349269Y467906D01*
X349280Y468099D01*
X349297Y468293D01*
X349318Y468485D01*
X349345Y468677D01*
X349375Y468869D01*
X349411Y469060D01*
X349451Y469249D01*
X349496Y469438D01*
X349545Y469626D01*
X349599Y469812D01*
X349658Y469997D01*
X349721Y470180D01*
X349788Y470362D01*
X349861Y470542D01*
X349937Y470720D01*
X350018Y470897D01*
X350103Y471071D01*
X350192Y471243D01*
X350286Y471413D01*
X350383Y471580D01*
X350485Y471746D01*
X350591Y471908D01*
X350700Y472068D01*
X350814Y472225D01*
X350931Y472380D01*
X351053Y472531D01*
X351178Y472679D01*
X351306Y472825D01*
X351438Y472967D01*
X351573Y473106D01*
X351712Y473241D01*
X351854Y473373D01*
X352000Y473501D01*
X352148Y473626D01*
X352299Y473748D01*
X352454Y473865D01*
X352611Y473979D01*
X352771Y474088D01*
X352933Y474194D01*
X353099Y474296D01*
X353266Y474393D01*
X353436Y474487D01*
X353608Y474576D01*
X353782Y474661D01*
X353959Y474742D01*
X354137Y474818D01*
X354317Y474891D01*
X354499Y474958D01*
X354682Y475021D01*
X354867Y475080D01*
X355053Y475134D01*
X355241Y475183D01*
X355430Y475228D01*
X355619Y475268D01*
X355810Y475304D01*
X356002Y475334D01*
X356194Y475361D01*
X356386Y475382D01*
X356580Y475399D01*
X356773Y475410D01*
X356967Y475418D01*
X357161Y475420D01*
D12*
X344002Y328529D03*
D13*
X343487Y328676D03*
D14*
X342897Y328823D03*
D15*
X342456Y328971D03*
D16*
X341940Y329118D03*
D17*
X341498Y329265D03*
D18*
X340909Y329413D03*
D19*
X340393Y329560D03*
D20*
X339951Y329707D03*
D21*
X339509Y329855D03*
D22*
X339435Y330002D03*
D23*
X339509Y330149D03*
D24*
X339583Y330297D03*
D25*
X339509Y330444D03*
D26*
X339583Y330591D03*
D27*
X339583Y330738D03*
D28*
X339656Y330886D03*
X339656Y331033D03*
D29*
X339656Y331180D03*
D30*
X339730Y331328D03*
D31*
X339730Y331475D03*
X339730Y331622D03*
D32*
X339804Y331770D03*
D33*
X339804Y331917D03*
D34*
X339877Y332064D03*
D35*
X339804Y332212D03*
D36*
X339877Y332359D03*
D37*
X339951Y332506D03*
D38*
X339951Y332654D03*
X339951Y332801D03*
D39*
X340025Y332948D03*
D40*
X340025Y333096D03*
D41*
X340098Y333243D03*
D42*
X340025Y333390D03*
D43*
X340098Y333538D03*
D44*
X340172Y333685D03*
D45*
X340172Y333832D03*
X340172Y333980D03*
D46*
X340172Y334127D03*
D47*
X340246Y334274D03*
X340246Y334421D03*
D48*
X340246Y334569D03*
D49*
X340319Y334716D03*
D50*
X340319Y334863D03*
X340319Y335011D03*
D51*
X340393Y335158D03*
D52*
X340393Y335305D03*
D53*
X340467Y335453D03*
D54*
X340393Y335600D03*
D55*
X340467Y335747D03*
D56*
X340540Y335895D03*
D57*
X361018Y335895D03*
D58*
X340540Y336042D03*
D59*
X360429Y336042D03*
D58*
X340540Y336189D03*
D60*
X359987Y336189D03*
D61*
X340540Y336337D03*
D62*
X359471Y336337D03*
D63*
X340614Y336484D03*
D64*
X359029Y336484D03*
D63*
X340614Y336631D03*
D65*
X358440Y336631D03*
D66*
X340540Y336779D03*
D67*
X357998Y336779D03*
D66*
X340540Y336926D03*
D68*
X357482Y336926D03*
D63*
X340467Y337073D03*
D69*
X357040Y337073D03*
D66*
X340393Y337221D03*
D21*
X356893Y337221D03*
D66*
X340393Y337368D03*
D23*
X356893Y337368D03*
D66*
X340246Y337515D03*
D24*
X356967Y337515D03*
D66*
X340246Y337663D03*
D25*
X357040Y337663D03*
D63*
X340172Y337810D03*
D26*
X356967Y337810D03*
D66*
X340098Y337957D03*
D70*
X357040Y337957D03*
D66*
X340098Y338104D03*
D28*
X357040Y338104D03*
D66*
X339951Y338252D03*
D71*
X357114Y338252D03*
D66*
X339951Y338399D03*
D71*
X357114Y338399D03*
D63*
X339877Y338546D03*
D30*
X357114Y338546D03*
D66*
X339804Y338694D03*
D72*
X357188Y338694D03*
D66*
X339804Y338841D03*
D32*
X357188Y338841D03*
D66*
X339656Y338988D03*
D32*
X357188Y338988D03*
D66*
X339656Y339136D03*
D73*
X357261Y339136D03*
D63*
X339583Y339283D03*
D34*
X357261Y339283D03*
D61*
X339656Y339430D03*
D35*
X357335Y339430D03*
D61*
X339656Y339578D03*
D36*
X357261Y339578D03*
D74*
X339656Y339725D03*
D75*
X357335Y339725D03*
D76*
X339730Y339872D03*
D77*
X357408Y339872D03*
D55*
X339730Y340020D03*
D78*
X357408Y340020D03*
D55*
X339730Y340167D03*
D78*
X357408Y340167D03*
D54*
X339804Y340314D03*
D79*
X357482Y340314D03*
D52*
X339804Y340462D03*
D41*
X357482Y340462D03*
D80*
X339877Y340609D03*
D41*
X357482Y340609D03*
D51*
X339804Y340756D03*
D43*
X357482Y340756D03*
D81*
X339877Y340904D03*
D44*
X357556Y340904D03*
D82*
X339951Y341051D03*
D83*
X357629Y341051D03*
D48*
X339951Y341198D03*
D84*
X357556Y341198D03*
D48*
X339951Y341346D03*
D85*
X357629Y341346D03*
D86*
X340025Y341493D03*
D47*
X357629Y341493D03*
D46*
X340025Y341640D03*
D86*
X357703Y341640D03*
D46*
X340025Y341787D03*
D86*
X357703Y341787D03*
D84*
X340025Y341935D03*
D49*
X357703Y341935D03*
D87*
X340098Y342082D03*
D82*
X357777Y342082D03*
D44*
X340172Y342229D03*
D51*
X357777Y342229D03*
D43*
X340098Y342377D03*
D51*
X357777Y342377D03*
D42*
X340172Y342524D03*
D80*
X357850Y342524D03*
D40*
X340172Y342671D03*
D53*
X357850Y342671D03*
D79*
X340246Y342819D03*
D54*
X357924Y342819D03*
D79*
X340246Y342966D03*
D55*
X357850Y342966D03*
D88*
X340246Y343113D03*
D89*
X357924Y343113D03*
D77*
X340319Y343261D03*
D76*
X357998Y343261D03*
D36*
X340319Y343408D03*
D90*
X357998Y343408D03*
D36*
X340319Y343555D03*
D90*
X357998Y343555D03*
D35*
X340393Y343703D03*
D63*
X357998Y343703D03*
D33*
X340393Y343850D03*
D66*
X358071Y343850D03*
D73*
X340467Y343997D03*
D63*
X357998Y343997D03*
D32*
X340393Y344145D03*
D66*
X357924Y344145D03*
D91*
X340467Y344292D03*
D66*
X357924Y344292D03*
D92*
X340540Y344439D03*
D63*
X357850Y344439D03*
D29*
X340540Y344587D03*
D66*
X357777Y344587D03*
D29*
X340540Y344734D03*
D66*
X357777Y344734D03*
D71*
X340614Y344881D03*
D66*
X357629Y344881D03*
D27*
X340614Y345029D03*
D66*
X357629Y345029D03*
D70*
X340688Y345176D03*
D63*
X357556Y345176D03*
D93*
X340614Y345323D03*
D66*
X357482Y345323D03*
D25*
X340688Y345470D03*
D66*
X357482Y345470D03*
D24*
X340761Y345618D03*
D66*
X357335Y345618D03*
D23*
X340688Y345765D03*
D66*
X357335Y345765D03*
D22*
X340761Y345912D03*
D63*
X357261Y345912D03*
D69*
X340688Y346060D03*
D66*
X357188Y346060D03*
D94*
X340172Y346207D03*
D66*
X357188Y346207D03*
D67*
X339583Y346354D03*
D66*
X357040Y346354D03*
D65*
X339141Y346502D03*
D66*
X357040Y346502D03*
D95*
X338625Y346649D03*
D61*
X357040Y346649D03*
D96*
X338183Y346796D03*
D90*
X357114Y346796D03*
D60*
X337594Y346944D03*
D90*
X357114Y346944D03*
D97*
X337078Y347091D03*
D98*
X357114Y347091D03*
D99*
X336636Y347238D03*
D56*
X357188Y347238D03*
D100*
X346433Y347386D03*
D55*
X357114Y347386D03*
D101*
X345918Y347533D03*
D54*
X357188Y347533D03*
D14*
X345402Y347680D03*
D53*
X357261Y347680D03*
D102*
X344886Y347828D03*
D80*
X357261Y347828D03*
D16*
X344444Y347975D03*
D80*
X357261Y347975D03*
D103*
X343929Y348122D03*
D81*
X357261Y348122D03*
D18*
X343413Y348270D03*
D104*
X357335Y348270D03*
D19*
X342897Y348417D03*
D49*
X357408Y348417D03*
D105*
X342382Y348564D03*
D48*
X357335Y348564D03*
D106*
X341940Y348712D03*
D86*
X357408Y348712D03*
D22*
X341940Y348859D03*
D47*
X357482Y348859D03*
D23*
X342014Y349006D03*
D85*
X357482Y349006D03*
D24*
X342087Y349153D03*
D85*
X357482Y349153D03*
D25*
X342014Y349301D03*
D87*
X357482Y349301D03*
D26*
X342087Y349448D03*
D44*
X357556Y349448D03*
D107*
X342087Y349595D03*
D43*
X357629Y349595D03*
D28*
X342161Y349743D03*
D42*
X357556Y349743D03*
D28*
X342161Y349890D03*
D41*
X357629Y349890D03*
D29*
X342161Y350037D03*
D79*
X357629Y350037D03*
D30*
X342235Y350185D03*
D39*
X357703Y350185D03*
D31*
X342235Y350332D03*
D39*
X357703Y350332D03*
D31*
X342235Y350479D03*
D108*
X357703Y350479D03*
D32*
X342308Y350627D03*
D75*
X357777Y350627D03*
D33*
X342308Y350774D03*
D35*
X357777Y350774D03*
D34*
X342382Y350921D03*
D35*
X357777Y350921D03*
X342308Y351069D03*
D34*
X357850Y351069D03*
D36*
X342382Y351216D03*
D73*
X357850Y351216D03*
D75*
X342456Y351363D03*
D73*
X357850Y351363D03*
D38*
X342456Y351511D03*
D91*
X357850Y351511D03*
D38*
X342456Y351658D03*
D72*
X357924Y351658D03*
D79*
X342456Y351805D03*
D30*
X357998Y351805D03*
D40*
X342529Y351953D03*
D29*
X357924Y351953D03*
D41*
X342603Y352100D03*
D71*
X357998Y352100D03*
D42*
X342529Y352247D03*
D27*
X357998Y352247D03*
D43*
X342603Y352395D03*
D109*
X358071Y352395D03*
D87*
X342603Y352542D03*
D109*
X358071Y352542D03*
D45*
X342676Y352689D03*
D25*
X358071Y352689D03*
D45*
X342676Y352836D03*
D24*
X358145Y352836D03*
D46*
X342676Y352984D03*
D23*
X358219Y352984D03*
D47*
X342750Y353131D03*
D22*
X358145Y353131D03*
D47*
X342750Y353278D03*
D106*
X358145Y353278D03*
D48*
X342750Y353426D03*
D110*
X357703Y353426D03*
D49*
X342824Y353573D03*
D111*
X357188Y353573D03*
D50*
X342824Y353720D03*
D18*
X356672Y353720D03*
D50*
X342824Y353868D03*
D112*
X356156Y353868D03*
D51*
X342897Y354015D03*
D113*
X355714Y354015D03*
D52*
X342897Y354162D03*
D114*
X355199Y354162D03*
D53*
X342971Y354310D03*
D14*
X354683Y354310D03*
D54*
X342897Y354457D03*
D115*
X354167Y354457D03*
D55*
X342971Y354604D03*
D12*
X353725Y354604D03*
D56*
X343045Y354752D03*
D58*
X343045Y354899D03*
X343045Y355046D03*
D61*
X343045Y355194D03*
D63*
X343118Y355341D03*
X343118Y355488D03*
D66*
X343045Y355636D03*
X343045Y355783D03*
X342897Y355930D03*
X342897Y356078D03*
D63*
X342824Y356225D03*
D66*
X342750Y356372D03*
X342750Y356519D03*
X342603Y356667D03*
X342603Y356814D03*
D63*
X342529Y356961D03*
D66*
X342456Y357109D03*
X342456Y357256D03*
D63*
X342382Y357403D03*
D66*
X342308Y357551D03*
X342308Y357698D03*
X342161Y357845D03*
X342161Y357993D03*
D63*
X342087Y358140D03*
D61*
X342161Y358287D03*
X342161Y358435D03*
D74*
X342161Y358582D03*
D76*
X342235Y358729D03*
D55*
X342235Y358877D03*
X342235Y359024D03*
D54*
X342308Y359171D03*
D52*
X342308Y359319D03*
D80*
X342382Y359466D03*
D51*
X342308Y359613D03*
D81*
X342382Y359761D03*
D82*
X342456Y359908D03*
D116*
X342382Y360055D03*
D48*
X342456Y360202D03*
D47*
X342456Y360350D03*
D46*
X342529Y360497D03*
X342529Y360644D03*
D84*
X342529Y360792D03*
D87*
X342603Y360939D03*
D43*
X342603Y361086D03*
X342603Y361234D03*
D42*
X342676Y361381D03*
D40*
X342676Y361528D03*
D79*
X342750Y361676D03*
X342750Y361823D03*
D88*
X342750Y361970D03*
D77*
X342824Y362118D03*
D36*
X342824Y362265D03*
X342824Y362412D03*
D35*
X342897Y362560D03*
D33*
X342897Y362707D03*
D73*
X342971Y362854D03*
D32*
X342897Y363002D03*
D91*
X342971Y363149D03*
D92*
X343045Y363296D03*
D29*
X343045Y363444D03*
X343045Y363591D03*
D28*
X343045Y363738D03*
D27*
X343118Y363885D03*
D70*
X343192Y364033D03*
D93*
X343118Y364180D03*
D25*
X343192Y364327D03*
D23*
X343192Y364475D03*
X343192Y364622D03*
D22*
X343266Y364769D03*
D117*
X343118Y364917D03*
D118*
X342603Y365064D03*
D67*
X342087Y365211D03*
D119*
X341572Y365359D03*
D95*
X341130Y365506D03*
D120*
X340614Y365653D03*
D60*
X340098Y365801D03*
D97*
X339583Y365948D03*
D121*
X339067Y366095D03*
D11*
X431585Y336425D02*
X431585Y316295D01*
D122*
X415404Y323801D02*
X413315Y323801D01*
X413226Y323803D01*
X413138Y323809D01*
X413050Y323818D01*
X412962Y323831D01*
X412875Y323848D01*
X412789Y323868D01*
X412704Y323893D01*
X412619Y323920D01*
X412536Y323952D01*
X412455Y323986D01*
X412375Y324025D01*
X412297Y324066D01*
X412220Y324111D01*
X412146Y324159D01*
X412073Y324210D01*
X412003Y324264D01*
X411936Y324322D01*
X411870Y324382D01*
X411808Y324444D01*
X411748Y324510D01*
X411690Y324577D01*
X411636Y324647D01*
X411585Y324720D01*
X411537Y324794D01*
X411492Y324871D01*
X411451Y324949D01*
X411412Y325029D01*
X411378Y325110D01*
X411346Y325193D01*
X411319Y325278D01*
X411294Y325363D01*
X411274Y325449D01*
X411257Y325536D01*
X411244Y325624D01*
X411235Y325712D01*
X411229Y325800D01*
X411227Y325889D01*
X411227Y331111D01*
X411228Y331111D02*
X411230Y331202D01*
X411236Y331293D01*
X411246Y331384D01*
X411260Y331474D01*
X411277Y331563D01*
X411299Y331651D01*
X411325Y331739D01*
X411354Y331825D01*
X411387Y331910D01*
X411424Y331993D01*
X411464Y332075D01*
X411508Y332155D01*
X411555Y332233D01*
X411606Y332309D01*
X411659Y332382D01*
X411716Y332453D01*
X411777Y332522D01*
X411840Y332587D01*
X411905Y332650D01*
X411974Y332710D01*
X412045Y332768D01*
X412118Y332821D01*
X412194Y332872D01*
X412272Y332919D01*
X412352Y332963D01*
X412434Y333003D01*
X412517Y333040D01*
X412602Y333073D01*
X412688Y333102D01*
X412776Y333128D01*
X412864Y333150D01*
X412953Y333167D01*
X413043Y333181D01*
X413134Y333191D01*
X413225Y333197D01*
X413316Y333199D01*
X413315Y333199D02*
X415404Y333199D01*
X421744Y333199D02*
X421839Y333197D01*
X421933Y333191D01*
X422027Y333182D01*
X422121Y333169D01*
X422214Y333152D01*
X422306Y333131D01*
X422398Y333106D01*
X422488Y333078D01*
X422577Y333046D01*
X422665Y333011D01*
X422751Y332972D01*
X422836Y332930D01*
X422919Y332884D01*
X423000Y332835D01*
X423079Y332783D01*
X423156Y332728D01*
X423230Y332669D01*
X423302Y332608D01*
X423372Y332544D01*
X423439Y332477D01*
X423503Y332407D01*
X423564Y332335D01*
X423623Y332261D01*
X423678Y332184D01*
X423730Y332105D01*
X423779Y332024D01*
X423825Y331941D01*
X423867Y331856D01*
X423906Y331770D01*
X423941Y331682D01*
X423973Y331593D01*
X424001Y331503D01*
X424026Y331411D01*
X424047Y331319D01*
X424064Y331226D01*
X424077Y331132D01*
X424086Y331038D01*
X424092Y330944D01*
X424094Y330849D01*
X421744Y333199D02*
X421636Y333197D01*
X421527Y333191D01*
X421419Y333181D01*
X421312Y333168D01*
X421205Y333150D01*
X421098Y333129D01*
X420993Y333104D01*
X420888Y333075D01*
X420785Y333043D01*
X420683Y333006D01*
X420582Y332966D01*
X420483Y332923D01*
X420385Y332876D01*
X420289Y332825D01*
X420195Y332771D01*
X420103Y332714D01*
X420013Y332653D01*
X419925Y332589D01*
X419840Y332523D01*
X419757Y332453D01*
X419677Y332380D01*
X419599Y332304D01*
X419524Y332226D01*
X419452Y332145D01*
X419383Y332061D01*
X419317Y331975D01*
X419254Y331887D01*
X419195Y331796D01*
X419138Y331704D01*
X419085Y331609D01*
X419036Y331513D01*
X418990Y331414D01*
X418947Y331315D01*
X418908Y331213D01*
X418873Y331111D01*
X423311Y329021D02*
X423380Y329090D01*
X423446Y329161D01*
X423510Y329234D01*
X423571Y329310D01*
X423629Y329389D01*
X423683Y329469D01*
X423735Y329552D01*
X423783Y329636D01*
X423829Y329722D01*
X423870Y329810D01*
X423909Y329900D01*
X423944Y329991D01*
X423975Y330083D01*
X424003Y330176D01*
X424027Y330270D01*
X424047Y330365D01*
X424064Y330461D01*
X424077Y330558D01*
X424086Y330655D01*
X424092Y330752D01*
X424094Y330849D01*
X423311Y329022D02*
X418873Y323801D01*
X424094Y323801D01*
X412324Y341503D02*
X412324Y350901D01*
X416501Y350901D01*
X416501Y346724D02*
X412324Y346724D01*
X420363Y346724D02*
X422973Y346724D01*
X422973Y346725D02*
X423074Y346723D01*
X423175Y346717D01*
X423276Y346707D01*
X423376Y346694D01*
X423476Y346676D01*
X423575Y346655D01*
X423673Y346629D01*
X423770Y346600D01*
X423866Y346568D01*
X423960Y346531D01*
X424053Y346491D01*
X424145Y346447D01*
X424234Y346400D01*
X424322Y346349D01*
X424408Y346295D01*
X424491Y346238D01*
X424573Y346178D01*
X424651Y346114D01*
X424728Y346048D01*
X424801Y345978D01*
X424872Y345906D01*
X424940Y345831D01*
X425005Y345753D01*
X425067Y345673D01*
X425126Y345591D01*
X425182Y345506D01*
X425234Y345419D01*
X425283Y345331D01*
X425329Y345240D01*
X425370Y345148D01*
X425409Y345054D01*
X425443Y344959D01*
X425474Y344863D01*
X425501Y344765D01*
X425525Y344667D01*
X425544Y344567D01*
X425560Y344467D01*
X425572Y344367D01*
X425580Y344266D01*
X425584Y344165D01*
X425584Y344063D01*
X425580Y343962D01*
X425572Y343861D01*
X425560Y343761D01*
X425544Y343661D01*
X425525Y343561D01*
X425501Y343463D01*
X425474Y343365D01*
X425443Y343269D01*
X425409Y343174D01*
X425370Y343080D01*
X425329Y342988D01*
X425283Y342897D01*
X425234Y342809D01*
X425182Y342722D01*
X425126Y342637D01*
X425067Y342555D01*
X425005Y342475D01*
X424940Y342397D01*
X424872Y342322D01*
X424801Y342250D01*
X424728Y342180D01*
X424651Y342114D01*
X424573Y342050D01*
X424491Y341990D01*
X424408Y341933D01*
X424322Y341879D01*
X424234Y341828D01*
X424145Y341781D01*
X424053Y341737D01*
X423960Y341697D01*
X423866Y341660D01*
X423770Y341628D01*
X423673Y341599D01*
X423575Y341573D01*
X423476Y341552D01*
X423376Y341534D01*
X423276Y341521D01*
X423175Y341511D01*
X423074Y341505D01*
X422973Y341503D01*
X420363Y341503D01*
X420363Y350901D01*
X422973Y350901D01*
X423063Y350899D01*
X423152Y350893D01*
X423242Y350884D01*
X423331Y350870D01*
X423419Y350853D01*
X423506Y350832D01*
X423593Y350807D01*
X423678Y350778D01*
X423762Y350746D01*
X423844Y350711D01*
X423925Y350671D01*
X424004Y350629D01*
X424081Y350583D01*
X424156Y350533D01*
X424229Y350481D01*
X424300Y350425D01*
X424368Y350367D01*
X424433Y350305D01*
X424496Y350241D01*
X424556Y350174D01*
X424613Y350105D01*
X424667Y350033D01*
X424718Y349959D01*
X424766Y349883D01*
X424810Y349805D01*
X424851Y349725D01*
X424889Y349643D01*
X424923Y349560D01*
X424953Y349475D01*
X424980Y349389D01*
X425003Y349303D01*
X425022Y349215D01*
X425037Y349126D01*
X425049Y349037D01*
X425057Y348948D01*
X425061Y348858D01*
X425061Y348768D01*
X425057Y348678D01*
X425049Y348589D01*
X425037Y348500D01*
X425022Y348411D01*
X425003Y348323D01*
X424980Y348237D01*
X424953Y348151D01*
X424923Y348066D01*
X424889Y347983D01*
X424851Y347901D01*
X424810Y347821D01*
X424766Y347743D01*
X424718Y347667D01*
X424667Y347593D01*
X424613Y347521D01*
X424556Y347452D01*
X424496Y347385D01*
X424433Y347321D01*
X424368Y347259D01*
X424300Y347201D01*
X424229Y347145D01*
X424156Y347093D01*
X424081Y347043D01*
X424004Y346997D01*
X423925Y346955D01*
X423844Y346915D01*
X423762Y346880D01*
X423678Y346848D01*
X423593Y346819D01*
X423506Y346794D01*
X423419Y346773D01*
X423331Y346756D01*
X423242Y346742D01*
X423152Y346733D01*
X423063Y346727D01*
X422973Y346725D01*
X429070Y348813D02*
X431681Y350901D01*
X431681Y341503D01*
X429070Y341503D02*
X434292Y341503D01*
D11*
X387971Y461998D02*
X383032Y461998D01*
X387971Y461998D02*
X388111Y461996D01*
X388250Y461990D01*
X388390Y461980D01*
X388529Y461966D01*
X388668Y461949D01*
X388806Y461927D01*
X388943Y461901D01*
X389080Y461872D01*
X389216Y461839D01*
X389350Y461802D01*
X389484Y461761D01*
X389616Y461716D01*
X389748Y461667D01*
X389877Y461615D01*
X390005Y461560D01*
X390132Y461500D01*
X390257Y461437D01*
X390380Y461371D01*
X390501Y461301D01*
X390620Y461228D01*
X390737Y461151D01*
X390851Y461071D01*
X390964Y460988D01*
X391074Y460902D01*
X391181Y460812D01*
X391286Y460720D01*
X391388Y460625D01*
X391488Y460527D01*
X391585Y460426D01*
X391679Y460322D01*
X391769Y460216D01*
X391857Y460107D01*
X391942Y459996D01*
X392023Y459882D01*
X392102Y459767D01*
X392177Y459649D01*
X392248Y459529D01*
X392316Y459406D01*
X392381Y459283D01*
X392442Y459157D01*
X392500Y459029D01*
X392554Y458901D01*
X392604Y458770D01*
X392651Y458638D01*
X392694Y458505D01*
X392733Y458371D01*
X392768Y458236D01*
X392799Y458100D01*
X392827Y457962D01*
X392850Y457825D01*
X392870Y457686D01*
X392886Y457547D01*
X392898Y457408D01*
X392906Y457269D01*
X392910Y457129D01*
X392910Y456989D01*
X392906Y456849D01*
X392898Y456710D01*
X392886Y456571D01*
X392870Y456432D01*
X392850Y456293D01*
X392827Y456156D01*
X392799Y456018D01*
X392768Y455882D01*
X392733Y455747D01*
X392694Y455613D01*
X392651Y455480D01*
X392604Y455348D01*
X392554Y455217D01*
X392500Y455089D01*
X392442Y454961D01*
X392381Y454835D01*
X392316Y454712D01*
X392248Y454590D01*
X392177Y454469D01*
X392102Y454351D01*
X392023Y454236D01*
X391942Y454122D01*
X391857Y454011D01*
X391769Y453902D01*
X391679Y453796D01*
X391585Y453692D01*
X391488Y453591D01*
X391388Y453493D01*
X391286Y453398D01*
X391181Y453306D01*
X391074Y453216D01*
X390964Y453130D01*
X390851Y453047D01*
X390737Y452967D01*
X390620Y452890D01*
X390501Y452817D01*
X390380Y452747D01*
X390257Y452681D01*
X390132Y452618D01*
X390005Y452558D01*
X389877Y452503D01*
X389748Y452451D01*
X389616Y452402D01*
X389484Y452357D01*
X389350Y452316D01*
X389216Y452279D01*
X389080Y452246D01*
X388943Y452217D01*
X388806Y452191D01*
X388668Y452169D01*
X388529Y452152D01*
X388390Y452138D01*
X388250Y452128D01*
X388111Y452122D01*
X387971Y452120D01*
X383032Y452120D01*
X383032Y469900D01*
X387971Y469900D01*
X388095Y469898D01*
X388219Y469892D01*
X388343Y469882D01*
X388466Y469869D01*
X388589Y469851D01*
X388711Y469830D01*
X388833Y469805D01*
X388954Y469776D01*
X389073Y469743D01*
X389192Y469707D01*
X389309Y469666D01*
X389425Y469623D01*
X389540Y469575D01*
X389653Y469524D01*
X389765Y469469D01*
X389874Y469411D01*
X389982Y469350D01*
X390088Y469285D01*
X390192Y469217D01*
X390293Y469145D01*
X390393Y469071D01*
X390489Y468993D01*
X390584Y468913D01*
X390676Y468829D01*
X390765Y468743D01*
X390851Y468654D01*
X390935Y468562D01*
X391015Y468467D01*
X391093Y468371D01*
X391167Y468271D01*
X391239Y468170D01*
X391307Y468066D01*
X391372Y467960D01*
X391433Y467852D01*
X391491Y467743D01*
X391546Y467631D01*
X391597Y467518D01*
X391645Y467403D01*
X391688Y467287D01*
X391729Y467170D01*
X391765Y467051D01*
X391798Y466932D01*
X391827Y466811D01*
X391852Y466689D01*
X391873Y466567D01*
X391891Y466444D01*
X391904Y466321D01*
X391914Y466197D01*
X391920Y466073D01*
X391922Y465949D01*
X391920Y465825D01*
X391914Y465701D01*
X391904Y465577D01*
X391891Y465454D01*
X391873Y465331D01*
X391852Y465209D01*
X391827Y465087D01*
X391798Y464966D01*
X391765Y464847D01*
X391729Y464728D01*
X391688Y464611D01*
X391645Y464495D01*
X391597Y464380D01*
X391546Y464267D01*
X391491Y464155D01*
X391433Y464046D01*
X391372Y463938D01*
X391307Y463832D01*
X391239Y463728D01*
X391167Y463627D01*
X391093Y463527D01*
X391015Y463431D01*
X390935Y463336D01*
X390851Y463244D01*
X390765Y463155D01*
X390676Y463069D01*
X390584Y462985D01*
X390489Y462905D01*
X390393Y462827D01*
X390293Y462753D01*
X390192Y462681D01*
X390088Y462613D01*
X389982Y462548D01*
X389874Y462487D01*
X389765Y462429D01*
X389653Y462374D01*
X389540Y462323D01*
X389425Y462275D01*
X389309Y462232D01*
X389192Y462191D01*
X389073Y462155D01*
X388954Y462122D01*
X388833Y462093D01*
X388711Y462068D01*
X388589Y462047D01*
X388466Y462029D01*
X388343Y462016D01*
X388219Y462006D01*
X388095Y462000D01*
X387971Y461998D01*
X457228Y389382D02*
X457228Y371602D01*
X457228Y389382D02*
X462167Y389382D01*
X462307Y389380D01*
X462446Y389374D01*
X462586Y389364D01*
X462725Y389350D01*
X462864Y389333D01*
X463002Y389311D01*
X463139Y389285D01*
X463276Y389256D01*
X463412Y389223D01*
X463546Y389186D01*
X463680Y389145D01*
X463812Y389100D01*
X463944Y389051D01*
X464073Y388999D01*
X464201Y388944D01*
X464328Y388884D01*
X464453Y388821D01*
X464576Y388755D01*
X464697Y388685D01*
X464816Y388612D01*
X464933Y388535D01*
X465047Y388455D01*
X465160Y388372D01*
X465270Y388286D01*
X465377Y388196D01*
X465482Y388104D01*
X465584Y388009D01*
X465684Y387911D01*
X465781Y387810D01*
X465875Y387706D01*
X465965Y387600D01*
X466053Y387491D01*
X466138Y387380D01*
X466219Y387266D01*
X466298Y387151D01*
X466373Y387033D01*
X466444Y386913D01*
X466512Y386790D01*
X466577Y386667D01*
X466638Y386541D01*
X466696Y386413D01*
X466750Y386285D01*
X466800Y386154D01*
X466847Y386022D01*
X466890Y385889D01*
X466929Y385755D01*
X466964Y385620D01*
X466995Y385484D01*
X467023Y385346D01*
X467046Y385209D01*
X467066Y385070D01*
X467082Y384931D01*
X467094Y384792D01*
X467102Y384653D01*
X467106Y384513D01*
X467106Y384373D01*
X467102Y384233D01*
X467094Y384094D01*
X467082Y383955D01*
X467066Y383816D01*
X467046Y383677D01*
X467023Y383540D01*
X466995Y383402D01*
X466964Y383266D01*
X466929Y383131D01*
X466890Y382997D01*
X466847Y382864D01*
X466800Y382732D01*
X466750Y382601D01*
X466696Y382473D01*
X466638Y382345D01*
X466577Y382219D01*
X466512Y382096D01*
X466444Y381974D01*
X466373Y381853D01*
X466298Y381735D01*
X466219Y381620D01*
X466138Y381506D01*
X466053Y381395D01*
X465965Y381286D01*
X465875Y381180D01*
X465781Y381076D01*
X465684Y380975D01*
X465584Y380877D01*
X465482Y380782D01*
X465377Y380690D01*
X465270Y380600D01*
X465160Y380514D01*
X465047Y380431D01*
X464933Y380351D01*
X464816Y380274D01*
X464697Y380201D01*
X464576Y380131D01*
X464453Y380065D01*
X464328Y380002D01*
X464201Y379942D01*
X464073Y379887D01*
X463944Y379835D01*
X463812Y379786D01*
X463680Y379741D01*
X463546Y379700D01*
X463412Y379663D01*
X463276Y379630D01*
X463139Y379601D01*
X463002Y379575D01*
X462864Y379553D01*
X462725Y379536D01*
X462586Y379522D01*
X462446Y379512D01*
X462307Y379506D01*
X462167Y379504D01*
X457228Y379504D01*
X463155Y379504D02*
X467106Y371602D01*
X247142Y324612D02*
X247142Y306832D01*
X247142Y324612D02*
X252081Y324612D01*
X252220Y324610D01*
X252358Y324604D01*
X252496Y324595D01*
X252634Y324581D01*
X252771Y324564D01*
X252908Y324542D01*
X253045Y324517D01*
X253180Y324488D01*
X253315Y324455D01*
X253448Y324419D01*
X253581Y324379D01*
X253712Y324335D01*
X253842Y324287D01*
X253971Y324236D01*
X254098Y324181D01*
X254224Y324123D01*
X254348Y324061D01*
X254470Y323996D01*
X254590Y323927D01*
X254709Y323855D01*
X254825Y323780D01*
X254939Y323701D01*
X255051Y323619D01*
X255160Y323534D01*
X255268Y323447D01*
X255372Y323356D01*
X255474Y323262D01*
X255573Y323165D01*
X255670Y323066D01*
X255764Y322964D01*
X255855Y322860D01*
X255942Y322752D01*
X256027Y322643D01*
X256109Y322531D01*
X256188Y322417D01*
X256263Y322301D01*
X256335Y322182D01*
X256404Y322062D01*
X256469Y321940D01*
X256531Y321816D01*
X256589Y321690D01*
X256644Y321563D01*
X256695Y321434D01*
X256743Y321304D01*
X256787Y321173D01*
X256827Y321040D01*
X256863Y320907D01*
X256896Y320772D01*
X256925Y320637D01*
X256950Y320500D01*
X256972Y320363D01*
X256989Y320226D01*
X257003Y320088D01*
X257012Y319950D01*
X257018Y319812D01*
X257020Y319673D01*
X257020Y311771D01*
X257018Y311632D01*
X257012Y311494D01*
X257003Y311356D01*
X256989Y311218D01*
X256972Y311081D01*
X256950Y310944D01*
X256925Y310807D01*
X256896Y310672D01*
X256863Y310537D01*
X256827Y310404D01*
X256787Y310271D01*
X256743Y310140D01*
X256695Y310010D01*
X256644Y309881D01*
X256589Y309754D01*
X256531Y309628D01*
X256469Y309504D01*
X256404Y309382D01*
X256335Y309262D01*
X256263Y309143D01*
X256188Y309027D01*
X256109Y308913D01*
X256027Y308801D01*
X255942Y308692D01*
X255855Y308584D01*
X255764Y308480D01*
X255670Y308378D01*
X255573Y308279D01*
X255474Y308182D01*
X255372Y308088D01*
X255268Y307997D01*
X255160Y307910D01*
X255051Y307825D01*
X254939Y307743D01*
X254825Y307664D01*
X254709Y307589D01*
X254590Y307517D01*
X254470Y307448D01*
X254348Y307383D01*
X254224Y307321D01*
X254098Y307263D01*
X253971Y307208D01*
X253842Y307157D01*
X253712Y307109D01*
X253581Y307065D01*
X253448Y307025D01*
X253315Y306989D01*
X253180Y306956D01*
X253045Y306927D01*
X252908Y306902D01*
X252771Y306880D01*
X252634Y306863D01*
X252496Y306849D01*
X252358Y306840D01*
X252220Y306834D01*
X252081Y306832D01*
X247142Y306832D01*
X251093Y333502D02*
X255044Y333502D01*
X251093Y333502D02*
X250969Y333504D01*
X250845Y333510D01*
X250721Y333520D01*
X250598Y333533D01*
X250475Y333551D01*
X250353Y333572D01*
X250231Y333597D01*
X250110Y333626D01*
X249991Y333659D01*
X249872Y333695D01*
X249755Y333736D01*
X249639Y333779D01*
X249524Y333827D01*
X249411Y333878D01*
X249299Y333933D01*
X249190Y333991D01*
X249082Y334052D01*
X248976Y334117D01*
X248872Y334185D01*
X248771Y334257D01*
X248671Y334331D01*
X248575Y334409D01*
X248480Y334489D01*
X248388Y334573D01*
X248299Y334659D01*
X248213Y334748D01*
X248129Y334840D01*
X248049Y334935D01*
X247971Y335031D01*
X247897Y335131D01*
X247825Y335232D01*
X247757Y335336D01*
X247692Y335442D01*
X247631Y335550D01*
X247573Y335659D01*
X247518Y335771D01*
X247467Y335884D01*
X247419Y335999D01*
X247376Y336115D01*
X247335Y336232D01*
X247299Y336351D01*
X247266Y336470D01*
X247237Y336591D01*
X247212Y336713D01*
X247191Y336835D01*
X247173Y336958D01*
X247160Y337081D01*
X247150Y337205D01*
X247144Y337329D01*
X247142Y337453D01*
X247142Y347331D01*
X247144Y347455D01*
X247150Y347579D01*
X247160Y347703D01*
X247173Y347826D01*
X247191Y347949D01*
X247212Y348071D01*
X247237Y348193D01*
X247266Y348314D01*
X247299Y348433D01*
X247335Y348552D01*
X247376Y348669D01*
X247419Y348785D01*
X247467Y348900D01*
X247518Y349013D01*
X247573Y349125D01*
X247631Y349234D01*
X247692Y349342D01*
X247757Y349448D01*
X247825Y349552D01*
X247897Y349653D01*
X247971Y349753D01*
X248049Y349849D01*
X248129Y349944D01*
X248213Y350036D01*
X248299Y350125D01*
X248388Y350211D01*
X248480Y350295D01*
X248575Y350375D01*
X248671Y350453D01*
X248771Y350527D01*
X248872Y350599D01*
X248976Y350667D01*
X249082Y350732D01*
X249190Y350793D01*
X249299Y350851D01*
X249411Y350906D01*
X249524Y350957D01*
X249639Y351005D01*
X249755Y351048D01*
X249872Y351089D01*
X249991Y351125D01*
X250110Y351158D01*
X250231Y351187D01*
X250353Y351212D01*
X250475Y351233D01*
X250598Y351251D01*
X250721Y351264D01*
X250845Y351274D01*
X250969Y351280D01*
X251093Y351282D01*
X255044Y351282D01*
D122*
X302147Y290571D02*
X302147Y281173D01*
X302147Y290571D02*
X304758Y290571D01*
X304859Y290569D01*
X304960Y290563D01*
X305061Y290553D01*
X305161Y290540D01*
X305261Y290522D01*
X305360Y290501D01*
X305458Y290475D01*
X305555Y290446D01*
X305651Y290414D01*
X305745Y290377D01*
X305838Y290337D01*
X305930Y290293D01*
X306019Y290246D01*
X306107Y290195D01*
X306193Y290141D01*
X306276Y290084D01*
X306358Y290024D01*
X306436Y289960D01*
X306513Y289894D01*
X306586Y289824D01*
X306657Y289752D01*
X306725Y289677D01*
X306790Y289599D01*
X306852Y289519D01*
X306911Y289437D01*
X306967Y289352D01*
X307019Y289265D01*
X307068Y289177D01*
X307114Y289086D01*
X307155Y288994D01*
X307194Y288900D01*
X307228Y288805D01*
X307259Y288709D01*
X307286Y288611D01*
X307310Y288513D01*
X307329Y288413D01*
X307345Y288313D01*
X307357Y288213D01*
X307365Y288112D01*
X307369Y288011D01*
X307369Y287909D01*
X307365Y287808D01*
X307357Y287707D01*
X307345Y287607D01*
X307329Y287507D01*
X307310Y287407D01*
X307286Y287309D01*
X307259Y287211D01*
X307228Y287115D01*
X307194Y287020D01*
X307155Y286926D01*
X307114Y286834D01*
X307068Y286743D01*
X307019Y286655D01*
X306967Y286568D01*
X306911Y286483D01*
X306852Y286401D01*
X306790Y286321D01*
X306725Y286243D01*
X306657Y286168D01*
X306586Y286096D01*
X306513Y286026D01*
X306436Y285960D01*
X306358Y285896D01*
X306276Y285836D01*
X306193Y285779D01*
X306107Y285725D01*
X306019Y285674D01*
X305930Y285627D01*
X305838Y285583D01*
X305745Y285543D01*
X305651Y285506D01*
X305555Y285474D01*
X305458Y285445D01*
X305360Y285419D01*
X305261Y285398D01*
X305161Y285380D01*
X305061Y285367D01*
X304960Y285357D01*
X304859Y285351D01*
X304758Y285349D01*
X304758Y285350D02*
X302147Y285350D01*
X305280Y285350D02*
X307368Y281173D01*
X311234Y288482D02*
X313845Y290571D01*
X313845Y281173D01*
X316455Y281173D02*
X311234Y281173D01*
D123*
X278090Y314920D02*
X275590Y314920D01*
X273090Y314920D01*
X275590Y314920D02*
X278090Y309920D01*
X273090Y309920D02*
X275590Y314920D01*
X273090Y309920D02*
X278090Y309920D01*
X280590Y299920D02*
X270590Y299920D01*
X270590Y324920D01*
X280590Y324920D01*
X280590Y299920D01*
D122*
X285891Y305939D02*
X295289Y305939D01*
X285891Y305939D02*
X285891Y308550D01*
X285893Y308650D01*
X285899Y308750D01*
X285908Y308849D01*
X285922Y308949D01*
X285939Y309047D01*
X285960Y309145D01*
X285984Y309242D01*
X286013Y309338D01*
X286045Y309433D01*
X286080Y309526D01*
X286119Y309618D01*
X286162Y309709D01*
X286208Y309797D01*
X286258Y309884D01*
X286310Y309969D01*
X286366Y310052D01*
X286425Y310133D01*
X286488Y310211D01*
X286553Y310287D01*
X286621Y310361D01*
X286691Y310431D01*
X286765Y310499D01*
X286841Y310564D01*
X286919Y310627D01*
X287000Y310686D01*
X287083Y310742D01*
X287168Y310794D01*
X287255Y310844D01*
X287343Y310890D01*
X287434Y310933D01*
X287526Y310972D01*
X287619Y311007D01*
X287714Y311039D01*
X287810Y311068D01*
X287907Y311092D01*
X288005Y311113D01*
X288103Y311130D01*
X288203Y311144D01*
X288302Y311153D01*
X288402Y311159D01*
X288502Y311161D01*
X288502Y311160D02*
X292678Y311160D01*
X292678Y311161D02*
X292778Y311159D01*
X292878Y311153D01*
X292977Y311144D01*
X293077Y311130D01*
X293175Y311113D01*
X293273Y311092D01*
X293370Y311068D01*
X293466Y311039D01*
X293561Y311007D01*
X293654Y310972D01*
X293746Y310933D01*
X293837Y310890D01*
X293925Y310844D01*
X294012Y310794D01*
X294097Y310742D01*
X294180Y310686D01*
X294261Y310627D01*
X294339Y310564D01*
X294415Y310499D01*
X294489Y310431D01*
X294559Y310361D01*
X294627Y310287D01*
X294692Y310211D01*
X294755Y310133D01*
X294814Y310052D01*
X294870Y309969D01*
X294922Y309884D01*
X294972Y309797D01*
X295018Y309709D01*
X295061Y309618D01*
X295100Y309526D01*
X295135Y309433D01*
X295167Y309338D01*
X295196Y309242D01*
X295220Y309145D01*
X295241Y309047D01*
X295258Y308949D01*
X295272Y308849D01*
X295281Y308750D01*
X295287Y308650D01*
X295289Y308550D01*
X295289Y305939D01*
X287979Y315388D02*
X285891Y317998D01*
X295289Y317998D01*
X295289Y315388D02*
X295289Y320609D01*
M02*
