G04 EAGLE Gerber RS-274X export*
G75*
%MOMM*%
%FSLAX34Y34*%
%LPD*%
%INSolderpaste Bottom*%
%IPPOS*%
%AMOC8*
5,1,8,0,0,1.08239X$1,22.5*%
G01*
%ADD10R,1.000000X1.100000*%
%ADD11R,1.500000X1.300000*%
%ADD12R,1.100000X1.000000*%
%ADD13R,1.558800X0.280000*%
%ADD14R,0.280000X1.558800*%
%ADD15R,1.399997X0.400000*%
%ADD16R,1.600200X1.168400*%


D10*
X469301Y344560D03*
X469301Y361560D03*
X404920Y460756D03*
X387920Y460756D03*
D11*
X382524Y238862D03*
X382524Y219862D03*
D12*
X450886Y299974D03*
X467886Y299974D03*
D10*
X265176Y422792D03*
X265176Y439792D03*
D12*
X271898Y267462D03*
X254898Y267462D03*
X406790Y441706D03*
X423790Y441706D03*
X443112Y377190D03*
X460112Y377190D03*
X478790Y329810D03*
X478790Y312810D03*
D13*
X422985Y406202D03*
X422985Y401202D03*
X422985Y396202D03*
X422985Y391202D03*
X422985Y386202D03*
X422985Y381202D03*
X422985Y376202D03*
X422985Y371202D03*
X422985Y366202D03*
X422985Y361202D03*
X422985Y356202D03*
X422985Y351202D03*
X422985Y346202D03*
X422985Y341202D03*
X422985Y336202D03*
X422985Y331202D03*
X422985Y326202D03*
X422985Y321202D03*
X422985Y316202D03*
X422985Y311202D03*
X422985Y306202D03*
X422985Y301202D03*
X422985Y296202D03*
X422985Y291202D03*
X422985Y286202D03*
D14*
X406202Y269419D03*
X401202Y269419D03*
X396202Y269419D03*
X391202Y269419D03*
X386202Y269419D03*
X381202Y269419D03*
X376202Y269419D03*
X371202Y269419D03*
X366202Y269419D03*
X361202Y269419D03*
X356202Y269419D03*
X351202Y269419D03*
X346202Y269419D03*
X341202Y269419D03*
X336202Y269419D03*
X331202Y269419D03*
X326202Y269419D03*
X321202Y269419D03*
X316202Y269419D03*
X311202Y269419D03*
X306202Y269419D03*
X301202Y269419D03*
X296202Y269419D03*
X291202Y269419D03*
X286202Y269419D03*
D13*
X269419Y286202D03*
X269419Y291202D03*
X269419Y296202D03*
X269419Y301202D03*
X269419Y306202D03*
X269419Y311202D03*
X269419Y316202D03*
X269419Y321202D03*
X269419Y326202D03*
X269419Y331202D03*
X269419Y336202D03*
X269419Y341202D03*
X269419Y346202D03*
X269419Y351202D03*
X269419Y356202D03*
X269419Y361202D03*
X269419Y366202D03*
X269419Y371202D03*
X269419Y376202D03*
X269419Y381202D03*
X269419Y386202D03*
X269419Y391202D03*
X269419Y396202D03*
X269419Y401202D03*
X269419Y406202D03*
D14*
X286202Y422985D03*
X291202Y422985D03*
X296202Y422985D03*
X301202Y422985D03*
X306202Y422985D03*
X311202Y422985D03*
X316202Y422985D03*
X321202Y422985D03*
X326202Y422985D03*
X331202Y422985D03*
X336202Y422985D03*
X341202Y422985D03*
X346202Y422985D03*
X351202Y422985D03*
X356202Y422985D03*
X361202Y422985D03*
X366202Y422985D03*
X371202Y422985D03*
X376202Y422985D03*
X381202Y422985D03*
X386202Y422985D03*
X391202Y422985D03*
X396202Y422985D03*
X401202Y422985D03*
X406202Y422985D03*
D15*
X448310Y361250D03*
X448310Y349250D03*
X448310Y337250D03*
D12*
X443620Y394970D03*
X460620Y394970D03*
X441080Y321310D03*
X458080Y321310D03*
X402980Y248920D03*
X419980Y248920D03*
D10*
X250190Y397900D03*
X250190Y414900D03*
D12*
X325510Y241300D03*
X342510Y241300D03*
D16*
X306070Y245110D03*
X306070Y229870D03*
X306070Y214630D03*
X278130Y229870D03*
X278130Y245110D03*
M02*
